<svg width="1197" height="507" viewBox="0 0 1197 507" fill="none" xmlns="http://www.w3.org/2000/svg">
<path d="M162.748 67.2895C177.68 62.6318 197.2 58.4096 212.214 55.6143C216.916 54.7381 214.746 56.2227 217.986 55.6678C224.406 54.5656 230.129 52.7874 236.332 51.8503C238.42 51.538 236.19 53.5857 238.376 53.2238C250.28 51.2495 261.329 48.4491 273.359 46.2052C324.232 36.7457 374.317 27.449 425.509 18.2807C433.809 16.7952 442.143 15.4083 450.537 14.1448C470.555 11.0719 495.21 9.50709 515.979 7.46576C518.397 7.22006 516.858 6.00103 517.311 5.85885C524.47 3.68728 522.236 6.52756 526.981 6.58609C545.846 6.84279 566.533 6.25006 584.319 4.69569C591.851 4.02884 584.138 1.85484 591.822 2.86262C592.357 2.92874 590.527 4.45666 592.611 4.47457C593.243 4.47928 593.953 4.46801 594.718 4.444C599.79 4.27783 606.923 3.67247 610.105 3.59172C617.323 3.41168 618.428 3.34149 625.151 3.03197C634.432 2.62334 645.332 2.90601 655.232 2.32123C657.349 2.19254 654.509 0.822007 657.876 0.48919C661.195 0.151969 670.194 0.0991352 673.174 0.405762C676.163 0.706018 674.904 1.85879 675.435 2.11195C679.895 4.24099 690.043 1.15866 691.465 1.09271C715.716 -0.16688 736.45 2.17351 759.162 3.50362C776.369 4.50949 794.881 5.52552 811.163 7.38646C830.638 9.61328 846.942 12.626 865.679 15.2127C867.669 15.49 865.587 13.4704 868.013 13.8056C880.957 15.5949 893.811 17.5479 906.548 19.4879C919.425 21.4428 932.198 24.0981 944.719 27.5838C947.254 28.2952 943.603 28.9711 946.128 29.7755C961.585 34.4712 984.443 45.0594 995.65 42.6294C1005.76 46.7621 1017.83 52.4296 1025.97 57.9384C1031.21 61.4963 1025.02 60.1857 1032.19 63.0697C1033.79 63.7268 1032.46 61.4278 1034.81 62.5162C1044.8 67.1434 1054.91 73.5015 1064.5 78.4587C1066.46 79.4621 1066.6 78.063 1067.25 78.1884C1072.7 79.3185 1078.44 86.5064 1079.9 87.6821C1082.28 89.5775 1084.56 91.2939 1086.78 92.8723C1095.36 99.0017 1102.87 103.88 1111.25 110.666C1113.7 112.676 1111.87 108.974 1114.28 110.877C1126.72 120.805 1138.4 132.584 1147.86 144.956C1149.95 147.718 1146.79 146.217 1147.73 147.582C1151.8 153.59 1154.95 153.161 1158.65 159.16C1159.42 160.43 1157.92 160.487 1157.97 160.786C1158.66 165.411 1163.18 166.683 1163.85 167.572C1171.07 177.104 1173.11 185.455 1177.19 195.193C1177.81 196.683 1178.47 198.219 1179.2 199.807C1179.86 201.248 1179.95 197.33 1181.71 201.441C1189.89 220.685 1194.22 242.171 1195.99 262.949C1196.79 272.024 1196.82 281.054 1196.16 289.829C1195.8 294.373 1194.74 291.072 1194.58 291.357C1192.11 295.858 1194.89 299.016 1194.88 300.523C1194.66 312.335 1189.99 322.455 1191.5 331.06C1186.15 349.474 1178.48 367.299 1167.28 383.095C1149.91 408.195 1124.35 428.501 1095.63 437.921C1095.04 438.126 1095.48 436.307 1094.31 436.718C1080.26 441.359 1083.71 442.404 1075.18 448.19C1072.93 449.665 1064.79 448.355 1064.05 448.269C1061.49 447.983 1063.31 445.177 1062.5 445.207C1055.8 445.471 1058.6 452.459 1049.74 454.486C1049.46 454.536 1050.33 452.942 1049.56 452.976C1047.11 453.087 1045.03 454.087 1042.66 454.097C1037.19 454.098 1034.82 450.91 1027.31 454.389C1026.35 454.827 1028.67 458.73 1020.63 459.875C1017.53 460.339 1003.46 462.54 999.509 462.786C995.575 463.056 998.066 461.342 997.78 461.322C986.931 460.985 990.895 459.691 985.285 457.745C979.674 455.794 981.88 461.87 979.835 462.836C977.836 463.797 969.807 463.273 967.898 462.976C965.959 462.685 968.203 461.554 966.497 461.461C955.095 460.867 961.928 465.142 958.331 466.562C949.96 469.897 942.673 465.985 934.57 466.396C932.431 466.501 934.282 467.374 932.395 467.677C924.864 468.866 920.139 467.898 911.596 470.147C911.217 470.246 910.448 470.576 909.429 470.974C906.786 472.044 902.28 473.609 898.738 472.447C898.063 472.214 899.762 470.874 896.492 470.937C891.738 471.017 882.812 471.609 877.717 472.463C873.874 473.102 878.498 474.612 873.544 474.461C871.335 474.391 875.277 472.91 871.149 472.871C867.225 472.817 856.733 473.772 852.936 474.125C849.04 474.49 851.294 475.764 850.988 475.888C849.134 476.609 841.596 477.931 840.983 477.977C807.508 480.851 776.429 480.563 743.92 483.511C741.367 483.74 743.171 485.162 742.782 485.213C734.049 486.426 740.707 481.9 734.478 480.932C735.554 483.987 731.933 483.656 725.783 484.39C722.819 484.746 724.515 485.848 724.252 485.989C719.951 488.099 716.718 485.928 715.905 485.493C712.881 483.896 709.835 486.196 707.772 485.13C705.711 484.072 710.179 482.04 704.256 482.427C702.662 483.644 707.244 486.285 702.77 487.034C685.926 489.87 654.129 489.441 640.476 489.971C626.861 490.506 622.472 490.954 614.519 490.992C600.128 491.055 605.555 492.923 596.677 494.4C587.796 495.875 591.855 490.321 590.508 489.247C589.189 488.173 587.882 489.423 586.288 488.879C584.701 488.335 588.022 487.376 584.356 487.337C580.65 487.301 570.715 489.871 569.496 491.134C566.886 493.812 571.569 496.23 561.759 495.813C561.196 495.787 562.939 494.293 560.788 494.264C543.73 494.086 526.118 494.931 509.044 494.848C506.72 494.834 508.712 493.172 507.36 493.146C493.115 492.874 498.303 495.239 490.765 498.543C492.355 494.574 487.768 492.429 477.15 492.941C470.653 493.253 471.835 494.891 467.73 496.295C466.484 496.718 461.966 495.779 461.113 496.62C458.503 499.362 462.89 502.064 451.821 501.455C451.339 501.424 452.793 499.922 451.134 499.919C440.16 499.903 439.103 502.686 427.36 503.606C426.569 503.668 425.726 503.719 424.844 503.758C415.233 504.201 400.765 503.434 391.221 503.537C391.239 499.171 381.414 500.526 377.515 503.654C370.583 503.751 363.383 504.114 356.713 503.844C354.454 503.751 355.909 502.455 355.621 502.325C351.267 500.275 348.318 503.255 346.836 503.395C330.93 504.772 317.985 502.619 302.728 504.657C302.207 504.729 301.289 507.758 297.198 505.491C296.941 505.335 301.999 504.023 294.823 503.819C287.712 503.618 274.234 501.678 264.244 502.671C261.893 502.919 255.559 505.109 250.879 502.931C250.25 502.636 251.02 501.806 250.087 501.271C247.088 499.563 245.243 502.528 241.915 499.712C238.414 496.878 231.296 494.475 221.187 495.374C220.845 495.395 218.382 497.617 215.161 497.261C210.245 496.719 203.1 495.411 197.962 494.755C195.473 494.439 196.866 496.142 196.429 496.113C179.559 494.636 167.694 491.38 150.47 485.972C149.711 485.726 148.607 485.497 147.346 485.249C143.027 484.406 136.248 483.009 132.107 480.002C126.271 475.634 135.619 471.816 120.6 466.872C114.678 464.819 102.778 469.318 95.1006 459.077C74.9496 448.416 59.5741 433.769 40.6037 421.052C40.5996 421.049 40.5955 421.046 40.5913 421.044C39.7424 420.525 35.5584 420.416 33.8002 418.617C31.2158 415.976 30.8478 413.637 29.2995 411.601C22.916 402.981 17.5889 394.523 13.9861 384.747C12.6611 381.029 14.3072 381.897 12.8691 377.46C11.4849 373.024 8.96392 370.488 8.10833 364.141C7.50327 359.496 9.54851 354.29 8.84063 348.328L8.93127 349.027C8.94197 348.815 8.94945 348.6 8.9535 348.385C5.58607 348.285 5.43969 343.932 4.32105 336.212C4.10615 334.73 2.98125 336.362 2.81921 335.659C2.13411 332.784 3.04446 330.101 2.34226 327.394C2.17366 326.735 1.02424 326.715 0.822255 326.171C-0.952903 321.551 1.64934 313.906 2.12377 312.593C3.8885 307.6 2.45648 305.241 3.26103 301.408C4.08002 297.615 4.69655 303.348 5.2836 298.915C6.50457 289.711 7.29457 277.921 9.09494 268.758C9.81322 265.127 7.82893 267.304 7.89617 266.778C9.02235 258.952 13.0228 252.31 12.4048 247.059C14.3663 246.811 15.5993 246.532 16.3535 246.176L16.2366 246.336C19.415 245.436 16.3749 240.692 23.8193 235.513C24.5772 235.006 27.8358 237.077 25.7979 239.683C23.9879 242.023 20.2636 244.419 17.9512 247.806L18.2772 247.358C18.1027 247.735 17.9468 248.129 17.8145 248.537C17.3678 249.527 18.3313 256.102 18.3804 256.838C18.054 262.945 12.6196 262.554 12.191 262.82C7.96189 265.874 10.3997 274.207 10.4381 276.131C10.4005 285.284 9.15032 292.949 9.68939 300.666C10.0598 305.716 13.7163 306.278 13.5342 310.184C13.0294 323.176 8.04647 327.916 12.8498 340.187C13.8584 342.711 17.5149 340.198 15.2703 348.746L15.0416 346.983C15.0159 347.275 14.9859 347.581 14.9517 347.9C14.8727 348.507 13.6046 355.995 16.3745 359.437C16.7206 359.867 17.845 359.564 18.1035 360.176C19.8257 364.276 19.7131 367.344 21.5522 371.729C23.3962 376.102 25.893 381.12 27.6144 386.006C28.6274 388.95 28.4924 393.473 28.7707 395.063C29.4803 399.605 34.0795 401.971 34.1239 405.081C34.3058 408.332 28.6277 405.825 32.369 412.302C34.8429 410.537 37.5715 408.938 40.0872 407.184C42.1092 409.471 44.2457 411.576 46.5284 413.476C56.4773 421.68 66.162 429.841 76.717 437.102C78.3836 438.241 77.6202 435.727 79.4321 436.91C87.0777 441.882 93.1126 447.197 101.436 451.59C107.887 454.982 115.652 457.241 122.536 460.082C125.117 465.229 135.843 468.719 143.288 471.624C145.9 472.657 145.429 473.466 147.24 474.385C148.585 475.056 149.581 475.427 150.32 475.601C153.278 476.277 152.019 473.753 153.725 473.853C162.66 474.2 161.763 481.13 172.413 483.167C172.961 483.288 180.472 480.93 181.484 480.852C187.679 480.375 182.226 482.289 185.976 483.177C192.778 484.752 197.519 486.301 205.868 486.197C208.271 486.158 214.198 484.492 218.772 486.707C219.352 486.996 218.904 488.179 219.382 488.296C228.238 490.296 228.725 486.456 234.016 485.559C239.125 484.643 246.917 487.765 248.5 488.612C252.671 490.821 245.175 489.27 244.971 489.445C242.156 491.582 247.957 491.546 252.413 491.968C252.824 495.759 259.101 495.834 256.99 492.382C256.742 492.005 253.273 492.186 252.413 491.968C256.466 488.486 263.233 488.334 270.734 492.039C274.177 493.763 270.748 495.568 281.584 495.172C286.435 494.977 284.611 492.346 288.971 491.729C298.723 490.316 311.672 492.826 321.722 492.408C325.453 492.256 321.809 490.853 324.365 490.699C330.914 490.284 337.019 491.285 343.596 490.64C344.203 490.579 342.695 489.119 344.781 489.068C360.547 488.636 374.488 489.201 390.943 488.615C398.879 488.338 413.101 486.899 421.434 486.643C422.27 486.618 423.119 486.598 423.98 486.582C437.862 486.335 454.293 487.404 465.896 486.326C473.87 485.59 472.07 484.194 475.492 483.01C481.899 480.725 493.955 483.63 495.494 484.095C495.534 484.112 488.723 484.807 492.404 485.383C494.604 486.861 495.418 484.106 495.494 484.095C496.536 484.395 510.369 484.027 513.069 483.604C514.551 483.373 513.645 482.012 514.42 481.918C532.778 479.718 551.22 478.4 569.951 478.061C570.28 478.072 569.87 479.669 570.643 479.675C581.489 479.797 588.303 477.503 597.179 475.876C606.026 474.25 613.127 474.24 618.554 476.642C625.244 475.93 634.991 476.576 640.573 476.983C646.168 477.39 646.771 474.288 647.256 474.2C662.381 471.39 671.294 472.624 687.116 471.947C694.637 471.631 709.531 470.272 717.619 469.426C724.052 468.751 727.962 469.221 733.835 468.383C734.636 468.27 733.736 466.963 733.978 466.894C740.505 464.839 737.531 468.369 738.938 468.874C744.05 470.71 747.098 471.667 755.556 470.082C757.503 469.719 762.848 464.551 766.367 464.03C770.993 463.356 769.361 465.192 774.177 464.442C774.588 464.379 774.432 463.327 777.412 463.167C791.317 462.402 806.404 461.926 820.833 460.711C822.793 460.549 820.153 459.065 822.978 458.804C836.313 457.575 850.812 456.457 863.892 456.103C867.083 456.023 865.197 457.371 865.916 457.659C870.241 459.405 876.147 455.781 877.095 455.634C887.913 453.952 897.921 453.205 907.478 452.51C918.94 451.662 930.07 450.964 942.989 448.836C944.262 448.621 954.03 444.222 958.848 446.511C959.181 446.663 964.001 449.022 967.628 446.6C967.875 446.445 964.882 445.302 969.791 444.871C974.653 444.444 982.308 442.497 989.037 443.252C991.258 443.477 996.497 445.693 1002.44 442.504C1002.85 442.293 1011.58 435.723 1015.5 438.704C1016.14 439.19 1016.16 443.069 1023.21 439.881C1024.54 439.265 1021.88 438.875 1025.43 437.709C1030.92 435.903 1038.52 435.468 1044.89 432.307C1046.05 431.745 1050.34 428.123 1054.79 429.001C1055.48 429.14 1054.62 430.671 1056.74 430.272C1066.86 428.351 1076.71 424.376 1086.38 421.394C1089.83 420.304 1088.93 422.914 1092.6 421.918C1096.3 420.932 1103.38 418.012 1106.31 415.242C1109.22 412.49 1103.98 411.789 1108.71 408.66C1124.23 398.188 1138.03 385.976 1149.71 370.578C1153.15 366.076 1156.28 361.188 1159.01 356.029C1160.69 352.779 1158.34 354.984 1160.61 350.128C1169.7 332.232 1174.74 297.588 1175.99 279.978C1177.38 265.719 1179.74 283.581 1179.97 272.563C1179.99 269.873 1178.87 267.159 1177.7 265.019C1176.53 262.814 1175.35 261.175 1175.2 260.541C1172.33 248.059 1172.34 239.171 1168.94 228.445C1168.22 226.246 1167.34 228.833 1166.74 226.982C1164.67 220.669 1163.03 213.904 1160.47 208.098C1159.32 205.502 1158.45 206.448 1157.47 204.039C1157.47 204.038 1157.47 204.036 1157.47 204.034C1155.17 198.441 1153.05 193.38 1150.88 187.547C1150.67 187.008 1153.88 189.527 1151.52 185.473C1147.68 178.924 1143.09 170.397 1136.66 164.121C1134.74 162.269 1132.64 163.883 1130.42 158.383C1129.94 157.248 1133.4 156.226 1126.91 153.122C1125.83 152.535 1115.61 147.118 1113.38 141.702C1112.8 140.257 1111.94 135.797 1109.27 133.961C1108.91 133.724 1109.23 135.945 1107.18 134.296C1099.96 128.488 1092.47 122.33 1084.47 117.322C1082.34 115.997 1084.56 119.335 1081.42 117.349C1079.16 115.939 1076.78 114.437 1074.32 112.922C1066.69 108.203 1058.79 102.903 1052.29 98.5735C1049.04 96.4079 1051.99 96.741 1051.81 96.4794C1049.04 92.2543 1045.21 93.4366 1043.83 92.8309C1035.24 89.0184 1029.77 84.4148 1022.03 80.8299C1019.9 79.8443 1020.74 81.8596 1020.26 81.7581C1015.4 80.671 1019.76 80.0357 1017.15 78.4163C1009.82 73.8812 1001.05 70.0258 992.98 66.9476C990.015 65.8225 992.709 68.6695 990.054 67.6499C974.36 61.6763 957.773 56.3383 941.963 51.6439C938.962 50.7541 941.162 49.9835 940.592 49.5534C936.71 46.5626 929.65 47.8899 928.132 47.8621C921.176 47.703 918.755 46.1509 912.723 45.3695C909.565 44.9709 906.437 44.5911 903.117 44.2029C874.265 40.7519 842.038 35.0145 816.588 31.7515C779.587 26.9377 750.78 23.8889 715.119 23.4095C712.835 23.383 715.107 25.1009 713.136 25.1009C688.009 25.0454 663.187 24.742 637.846 26.2292C635.8 26.3482 638.818 27.8139 635.531 28.0603C628.735 28.5796 620.119 28.9127 613.139 28.7977C609.716 28.7458 614.216 27.1278 610.766 27.105C606.126 27.0662 601.222 27.2036 596.237 27.5032C592.79 27.7106 589.382 27.9624 586.046 28.2581C582.514 28.5715 587.946 29.8888 583.348 30.1673C552.053 32.0525 522.293 33.0262 491.797 34.3308C489.676 34.4195 487.509 31.3357 483.127 32.5025C482.906 33.4516 483.054 34.5183 483.028 35.5072C465.437 37.8707 447.9 40.6618 430.378 43.8388C404.062 48.614 377.877 53.256 351.508 58.434C349.659 58.7977 353.193 59.8711 349.62 60.5833C328.747 64.7499 308.611 69.3762 287.003 72.1793C284.848 72.4635 285.258 69.2302 279.179 71.0027C278.161 71.3042 268.773 73.7413 266.563 74.9067C266.252 75.0772 268.283 76.1049 265.24 76.8081C247.762 80.8288 229.356 84.6147 211.886 87.8608C209.004 88.3978 211.678 86.1904 209.63 86.559C195.296 89.1471 180.272 94.0789 166.784 96.5016C157.769 98.1716 160.29 94.681 154.804 93.6845C154.045 93.52 148.796 95.2817 147.936 94.0275C145.803 90.7634 147.17 85.8062 144.589 82.4391C144.073 81.5789 136.095 86.0784 140.212 81.9686C140.753 81.5284 146.094 78.7882 147.421 77.6257C148.197 76.844 146.005 75.9521 147.746 74.7061C149.591 73.4336 152.08 73.9951 155.22 72.2783C158.128 70.6367 156.439 69.2813 162.748 67.2895ZM665.771 478.77C671.002 479.936 671.444 474.517 665.957 476.129C665.692 476.213 665.502 478.714 665.771 478.77ZM60.8453 430.771C64.791 436.686 70.5573 436.511 67.8391 432.274C65.1547 428.043 59.657 428.976 60.8453 430.771ZM17.6711 381.112C18.6912 389.022 26.1708 387.067 21.8548 380.263C21.6135 379.865 17.6195 380.655 17.6711 381.112ZM176.538 86.6397C176.522 86.5669 172.363 87.6129 172.328 87.6992C170.631 89.9269 178.727 87.8899 176.538 86.6397ZM6.03808 314.434C4.9775 316.866 6.21733 323.933 7.48233 320.876C8.48711 318.447 7.34177 311.39 6.03808 314.434ZM934.077 463.806C934.158 463.878 937.182 463.625 937.068 463.181C936.707 461.751 932.582 462.61 934.077 463.806ZM52.9322 217.453C38.3465 226.444 26.0463 228.212 42.1434 217.477C45.0769 215.611 37.1263 223.401 41.0882 221.338C48.2388 217.638 50.6715 211.419 58.877 209.058C60.3128 208.637 53.7298 216.931 52.9108 217.476C52.918 217.468 52.9251 217.461 52.9322 217.453ZM669.113 485.052C669.22 485.117 673.355 484.941 673.449 484.864C675.585 483.026 667.257 483.38 669.113 485.052ZM1105.26 431.926C1105.57 432.02 1114.25 427.578 1114.44 427.231C1117.47 422.451 1100.21 431.323 1105.26 431.926ZM391.049 503.427C386.518 505.317 381.219 505.7 377.536 503.656C382.029 503.628 386.459 503.492 391.049 503.427Z" fill="black"/>
</svg>
