<svg width="823" height="507" viewBox="0 0 823 507" fill="none" xmlns="http://www.w3.org/2000/svg">
<path d="M109.985 67.6114C120.974 62.6542 135.498 58.0793 146.618 55.0474C150.107 54.0951 148.69 55.5796 151.125 54.9634C155.805 53.7886 159.982 51.9223 164.698 50.8564C166.239 50.5154 164.842 52.5568 166.451 52.1659C175.33 49.9954 183.461 47.027 192.353 44.6097C225.382 35.6479 257.772 26.928 290.82 18.2629C301.892 15.3598 313.116 12.799 324.582 10.7846C339.867 7.99392 358.843 7.3381 374.408 5.72793C376.226 5.5288 375.047 4.28174 375.386 4.14835C380.71 2.10316 379.09 4.90097 382.642 5.01626C390.798 5.28106 399.356 5.06307 407.682 4.33738C413.977 3.78949 420.035 3.17617 425.76 2.54145C431.521 1.91087 425.528 -0.316191 431.514 0.762671C431.928 0.835904 430.542 2.33771 432.148 2.38401C435.736 2.48245 442.652 1.85703 445.407 1.85187C450.848 1.83659 451.717 1.7921 456.831 1.65435C463.837 1.48658 472.15 2.09138 479.655 1.848C481.248 1.79225 479.126 0.323863 481.714 0.108754C484.323 -0.113789 491.075 0.169199 493.368 0.598372C495.634 1.01809 494.62 2.11939 495.013 2.39357C498.255 4.69373 506.184 2.06361 507.232 2.06406C525.721 1.91126 541.31 5.45323 558.33 8.18771C571.239 10.2547 585.091 12.4756 597.139 15.1494C606.03 17.1184 614.012 19.2178 622.043 21.0575C627.212 22.2359 632.311 23.5299 637.719 24.988C639.212 25.396 637.914 23.2622 639.765 23.771C659.361 29.1717 678.057 37.9165 694.379 49.7316C696.015 50.9184 693.028 50.772 694.601 52.0288C704.385 59.6135 717.261 73.7387 726.882 73.5715C732.967 79.1117 740.097 85.9749 744.532 91.7852C746.504 94.3614 745.029 94.2987 745.43 95.0849C745.621 95.4525 746.209 95.9931 747.705 97.1026C748.778 97.9072 748.501 95.6785 750.034 96.9714C756.519 102.465 762.312 109.627 768.062 115.661C769.235 116.889 769.947 115.74 770.427 115.977C774.437 118.025 775.954 125.327 776.584 126.637C781.588 136.674 786.329 143.153 791.27 152.208C792.402 154.314 792.559 151.008 793.702 153.018C799.599 163.477 804.606 174.968 807.841 186.346C808.549 188.873 806.375 187.088 806.638 188.314C807.387 191.817 808.867 193.183 810.103 195.152C810.767 196.211 811.355 197.452 811.667 199.29C811.856 200.392 810.483 200.132 810.407 200.365C809.198 203.968 812.82 205.81 813.09 206.593C816.501 216.399 814.631 223.476 816.613 233.073C816.848 234.23 818.008 231.356 818.57 234.631C820.146 243.939 821.19 253.526 821.806 263.133C822.649 276.204 822.222 289.349 820.66 301.832C820.229 305.217 819.216 302.705 819.055 302.911C816.529 306.186 819.363 308.667 819.372 309.794C819.354 318.627 815.563 326.254 818.041 332.764C814.226 349.68 809.512 366.418 801.842 382.234C793.16 400.122 781.138 417.418 764.316 428.775C763.926 429.044 763.627 427.344 762.858 427.879C753.42 434.061 756.53 434.508 751.481 441.039C750.165 442.697 743.347 442.414 742.81 442.369C740.739 442.363 741.442 439.5 740.811 439.614C735.708 440.512 739.615 446.941 733.125 449.679C732.919 449.75 733.247 448.139 732.656 448.235C730.817 448.528 729.344 449.685 727.535 449.859C723.328 450.241 720.918 447.297 715.791 451.106C715.137 451.58 717.517 455.311 711.533 456.831C709.155 457.474 698.684 460.202 695.681 460.558C692.651 460.964 694.394 459.18 694.169 459.171C685.954 459.143 688.705 457.766 684.284 455.977C679.868 454.171 682.172 460.138 680.684 461.149C679.189 462.165 673.146 461.792 671.615 461.54C670.121 461.288 671.717 460.123 670.418 460.062C661.74 459.672 667.269 463.801 664.68 465.271C658.59 468.726 652.691 464.946 646.672 465.444C645.047 465.578 646.527 466.421 645.107 466.748C639.401 468.038 635.809 467.119 629.539 469.445C628.859 469.697 626.5 471.378 623.854 472.026C622.583 472.342 621.235 472.398 620 471.888C619.472 471.666 620.675 470.308 618.191 470.414C614.414 470.583 607.868 471.25 604.035 472.158C601.196 472.831 604.764 474.291 601.036 474.187C599.369 474.139 602.248 472.625 599.125 472.627C596.066 472.625 588.264 473.664 585.399 474.05C582.48 474.448 584.256 475.698 584.032 475.825C582.675 476.56 577.053 477.939 576.589 477.99C551.379 481.132 527.989 481.021 503.496 484.151C501.584 484.393 503.005 485.803 502.715 485.855C496.196 487.112 501.006 482.559 496.278 481.625C497.237 484.668 494.443 484.361 489.846 485.124C487.627 485.495 488.953 486.586 488.761 486.728C485.611 488.857 483.08 486.705 482.44 486.276C480.076 484.699 477.884 487.009 476.281 485.955C474.682 484.909 477.966 482.858 473.516 483.274C472.365 484.497 475.93 487.111 472.588 487.88C459.978 490.798 435.962 490.515 425.675 491.106C415.399 491.702 412.131 492.166 406.113 492.24C395.31 492.361 399.376 494.211 392.778 495.72C386.164 497.228 388.991 491.666 387.942 490.6C386.901 489.532 385.954 490.787 384.726 490.251C383.503 489.715 385.985 488.742 383.206 488.72C380.449 488.697 373.012 491.307 372.133 492.574C370.255 495.261 373.874 497.656 366.485 497.278C366.057 497.255 367.326 495.755 365.694 495.736C352.823 495.63 339.533 496.55 326.683 496.54C324.891 496.538 326.369 494.867 325.327 494.848C314.594 494.638 318.61 496.976 312.958 500.317C313.96 496.35 310.659 494.21 302.501 494.784C297.753 495.117 298.566 496.758 295.536 498.178C294.887 498.481 292.954 498.115 291.703 498.169C291.159 498.194 290.733 498.29 290.564 498.536C288.685 501.282 292.107 503.979 283.685 503.391C283.318 503.36 284.378 501.859 283.118 501.857C274.837 501.827 274.187 504.604 265.192 505.412C258.297 506.041 245.764 504.878 237.844 504.779C237.882 500.416 230.514 501.573 227.469 504.61C222.395 504.548 216.818 504.731 211.779 504.271C210.067 504.113 211.206 502.859 210.991 502.721C207.755 500.546 205.447 503.431 204.325 503.525C192.214 504.388 182.616 501.732 170.919 502.974C170.509 503.018 169.548 505.99 166.709 503.511C166.514 503.339 170.432 502.315 165.035 501.709C159.669 501.112 149.69 498.306 142.058 498.434C140.288 498.491 135.154 500.089 131.902 497.442C131.478 497.087 132.181 496.345 131.587 495.726C129.608 493.729 127.775 496.465 125.702 493.291C123.675 490.107 118.928 486.973 111.374 486.237C111.145 486.21 108.625 487.908 106.445 487.007C105.078 486.443 103.569 485.72 102.06 484.931C99.5404 483.622 96.944 482.095 94.7895 480.932C93.1243 480.029 93.4566 481.931 93.1544 481.797C81.4987 476.152 74.8421 469.472 64.9415 460.117C63.1363 458.414 56.3939 455.023 54.0789 450.434C51.5741 445.406 60.5712 444.09 50.9951 436.696C47.1928 433.715 35.9827 435.421 33.7678 425.537C32.2866 424.076 30.8501 422.573 29.4759 421.076C19.686 410.048 16.8603 395.802 11.6989 381.765C11.4376 381.041 8.31063 379.265 7.94509 377.466C7.40556 374.795 8.30477 373.089 7.99907 371.18C6.82077 363.539 4.74749 356.69 3.70977 349.333C3.70658 349.314 3.70215 349.256 3.70121 349.237C3.69333 348.888 3.68775 348.54 3.68469 348.191C3.65819 345.217 4.9535 346.249 4.93147 342.699C4.91406 339.193 3.18952 336.859 3.91599 332.066C4.47317 328.429 7.83959 324.814 8.22101 320.039C4.85892 319.875 4.90155 316.591 4.06477 310.739C3.90349 309.603 2.72053 310.808 2.58391 310.269C2.0024 308.081 3.00276 306.095 2.38682 304.025C2.2391 303.524 1.09083 303.477 0.905709 303.066C-0.719781 299.514 2.07068 293.822 2.56832 292.871C4.43908 289.161 3.04488 287.334 3.89717 284.476C4.75835 281.635 5.31198 285.988 5.9444 282.67C7.25803 275.771 7.98221 266.888 9.34652 260.021C9.895 257.261 8.02606 258.845 8.06935 258.444C8.71229 253.43 11.2045 248.938 11.0695 245.243C11.0764 245.226 11.1017 245.177 11.1109 245.161C11.1672 244.541 11.1517 243.905 11.0234 243.278C19.8945 244.088 12.1421 239.763 18.6042 233.873C19.1231 233.424 22.5344 235.115 21.4594 237.389C20.4007 239.65 17.2511 242.002 16.1792 245.328C16.0754 245.651 16.1063 246.863 16.2288 248.161L16.5383 247.543C16.977 249.195 17.6556 251.026 17.6679 251.385C17.9464 256.009 12.4787 255.445 12.0909 255.628C8.1363 257.789 10.8695 264.191 10.9398 265.668C11.1364 272.596 9.86726 278.331 10.3281 284.149C10.6374 287.963 14.2764 288.532 14.022 291.448C13.2375 301.184 8.09059 304.618 12.44 313.989C13.3801 316.011 17.3615 313.998 14.237 321.162C14.0378 321.615 11.1996 326.976 13.0664 330.03C13.3012 330.415 14.4656 330.386 14.5712 330.897C15.2568 334.291 14.3729 336.589 14.9043 340.317C15.2754 342.9 15.7706 345.851 15.9516 348.865L15.833 347.534C16.0612 348.808 16.2319 350.086 16.3092 351.365C16.4605 353.902 14.8482 357.462 14.5298 358.748C13.5947 362.4 16.7331 365.549 15.3222 367.97C13.916 370.437 10.2981 366.838 10.2558 372.655C13.261 372.242 16.3991 372.071 19.4443 371.759C21.8579 383.514 24.0738 395.205 29.2402 405.071C29.8855 406.269 30.6854 404.296 31.4115 405.526C33.3895 408.828 34.9234 411.877 36.9732 414.539C38.4481 416.395 40.032 418.267 41.8441 420.071C45.8221 424.028 51.1695 427.382 55.4201 431.248C55.3009 436.19 62.1086 441.504 66.3563 445.907C67.8433 447.454 67.1133 448.034 68.0352 449.293C71.5683 454.002 71.6059 449.894 73.0928 450.577C79.464 453.367 75.4259 459.088 81.9258 463.835C82.281 464.117 88.573 464.096 89.2523 464.255C93.7052 465.451 89.1267 465.735 91.2727 467.478C95.2122 470.601 97.8447 473.197 103.528 474.797C104.17 474.972 105.256 475.025 106.46 475.166C108.319 475.372 110.582 475.823 112.046 477.534C112.374 477.906 111.721 478.965 112.033 479.157C117.641 482.421 119.096 478.756 122.868 478.513C126.645 478.257 131.585 482.118 132.563 483.098C135.171 485.682 130.088 483.422 129.893 483.56C127.441 485.351 131.657 485.951 134.827 486.784C134.517 490.57 139.166 491.226 138.132 487.622C138.055 487.239 135.407 487.082 134.827 486.784C138.426 483.756 143.196 484.173 148.223 488.405C150.569 490.367 147.858 491.945 155.921 492.285C159.536 492.406 158.434 489.671 161.727 489.324C169.128 488.514 178.363 491.637 185.985 491.637C188.697 491.635 186.133 490.088 187.987 490.036C192.972 489.887 197.327 491.101 202.334 490.674C202.784 490.633 201.719 489.125 203.263 489.141C215.03 489.212 225.325 490.12 237.694 489.857C243.713 489.736 254.272 488.532 260.55 488.384C270.228 488.178 281.949 489.224 290.993 488.518C291.956 488.444 292.894 488.349 293.798 488.231C299.804 487.454 298.453 486.066 300.904 484.872C305.746 482.553 314.808 485.408 316.087 485.859C316.113 485.876 310.918 486.607 313.758 487.163C315.495 488.627 316.029 485.871 316.087 485.859C316.865 486.155 327.35 485.722 329.311 485.293C330.412 485.056 329.686 483.7 330.264 483.603C344.04 481.325 357.902 479.933 372.009 479.516C372.259 479.526 372.006 481.122 372.591 481.125C380.825 481.197 385.866 478.878 392.47 477.218C399.101 475.556 404.426 475.518 408.624 477.892C413.661 477.15 421.02 477.754 425.249 478.136C429.48 478.517 429.817 475.418 430.179 475.328C441.48 472.454 448.244 473.646 460.152 472.895C465.813 472.544 476.97 471.116 483.056 470.228C487.868 469.523 490.82 469.973 495.243 469.103C495.839 468.986 495.105 467.686 495.284 467.616C500.095 465.532 498.018 469.071 499.098 469.568C502.99 471.376 505.441 472.305 511.68 470.683C513.104 470.313 516.944 465.121 519.576 464.579C523.006 463.883 521.853 465.726 525.448 464.949C525.757 464.884 525.589 463.835 527.842 463.656C538.217 462.817 549.675 462.235 560.427 460.926C561.901 460.751 559.826 459.29 561.946 459.009C571.907 457.691 582.753 456.464 592.566 455.994C594.946 455.887 593.621 457.246 594.177 457.527C597.607 459.219 601.757 455.558 602.45 455.403C608.987 453.957 615.06 453.124 620.829 452.437C630.852 451.228 640.539 450.533 651.631 447.877C652.567 447.649 659.542 443.144 663.332 445.344C663.6 445.488 667.399 447.76 669.93 445.284C670.086 445.129 667.767 444.043 671.379 443.531C674.96 443.023 680.414 440.955 685.568 441.524C687.175 441.707 691.458 443.741 695.378 440.432C695.69 440.208 701.151 433.478 704.481 436.248C705.028 436.698 705.637 440.522 710.317 437.096C711.187 436.435 709.176 436.17 711.577 434.874C715.254 432.877 720.701 432.07 724.587 428.641C725.281 428.04 727.513 424.305 730.847 424.869C731.378 424.953 731.155 426.471 732.585 425.936C739.373 423.386 745.191 418.833 751.262 415.142C753.417 413.805 753.707 416.225 756.125 414.9C758.553 413.588 762.905 410.131 764.148 407.356C765.359 404.63 760.912 404.724 763.426 401.456C770.101 392.581 776.421 383.13 782.13 372.629C785.43 366.584 788.332 360.057 790.636 353.218C791.526 350.523 789.73 352.426 790.901 348.431C795.509 333.7 798.185 306.9 800.859 293.36C803.156 282.434 804.315 296.349 805.32 287.896C805.779 283.771 801.905 279.395 801.761 278.44C800.987 273.288 800.943 268.994 800.851 264.755C800.762 261.075 800.67 257.451 800.024 253.48C799.73 251.697 798.385 253.622 798.149 252.099C797.33 246.933 797.312 241.408 796.433 236.536C796.033 234.36 794.935 234.939 794.694 232.926C794.091 228.11 793.767 223.831 793.819 218.989C793.821 218.543 795.887 221.074 795.151 217.547C794.106 212.61 793.359 206.48 791.128 200.975C790.792 200.147 790.419 199.332 790.004 198.537C789.067 196.771 786.532 197.571 786.879 193.009C786.936 192.054 790.386 191.98 786.017 188.341C785.301 187.687 778.745 181.557 779.226 176.913C779.366 175.683 780.581 172.049 779.141 170.074C778.938 169.813 778.219 171.611 777.216 169.904C773.699 163.895 770.29 157.435 766.157 151.601C765.051 150.05 765.273 153.234 763.665 150.915C759.251 144.547 754.012 136.477 749.662 130.331C748.066 128.069 750.225 128.778 750.205 128.538C749.838 124.605 746.3 125.032 745.482 124.345C740.35 120.002 737.891 115.433 733.236 111.557C731.956 110.5 731.86 112.335 731.533 112.203C730.995 111.977 730.639 111.789 730.414 111.62C729.105 110.616 731.555 110.394 730.216 108.861C725.733 103.712 720.21 98.8184 715.12 94.5996C713.255 93.0595 714.225 96.0764 712.565 94.6846C702.724 86.4745 692.699 78.3824 683.122 71.09C681.318 69.7156 683.192 69.4312 682.951 68.9328C681.265 65.4412 675.704 65.3206 674.636 65.0162C669.747 63.5861 668.584 61.7098 664.59 59.9142C650.505 53.5915 633.619 47.5581 617.387 44.006C610.535 42.4857 604.069 40.9234 598.158 39.5179C570.55 32.897 549.772 27.7296 523.37 25.4666C521.692 25.325 523.215 27.1507 521.787 27.0537C503.249 25.7303 484.833 24.4484 466.101 25.1916C464.547 25.2513 466.807 26.8032 464.322 26.9551C459.322 27.277 452.921 27.3859 447.719 27.1105C445.232 26.9771 448.49 25.4675 445.989 25.3628C440.112 25.1223 433.796 25.3859 427.753 26.0816C425.214 26.3805 429.177 27.7145 425.866 27.9796C420.564 28.4179 415.421 28.9055 410.099 29.4366C391.758 31.2968 374.031 31.688 356.666 31.9014C355.115 31.9221 353.391 28.7837 350.168 29.8135C350.033 30.7523 350.179 31.8194 350.193 32.8036C332.568 35.2515 315.254 38.7738 297.805 43.3479C283.136 47.1931 268.451 51.0712 253.79 55.2402C252.422 55.6298 255.268 56.6238 252.626 57.3857C237.262 61.8241 222.524 66.7065 206.376 69.8443C204.776 70.1588 204.644 66.9795 200.258 68.8211C199.417 69.1676 192.769 71.6659 191.127 72.8846C190.915 73.0566 192.6 74.0312 190.395 74.7683C177.643 79.0104 164.173 83.0342 151.216 86.5641C149.149 87.1235 150.799 84.9383 149.327 85.3235C138.725 88.1322 128.03 93.2247 118.193 95.8146C111.676 97.5724 112.889 94.1881 108.52 93.3293C107.872 93.2044 104.266 94.9625 103.31 93.7999C100.895 90.7831 100.953 86.0097 98.1751 82.9021C97.6366 82.062 91.6693 86.9723 94.3942 82.7201C94.7759 82.2519 98.7319 79.3054 99.5371 78.1592C100.031 77.3685 98.0565 76.6149 99.264 75.3278C100.557 74.0088 102.68 74.4494 104.832 72.7027C106.928 70.9879 105.212 69.7856 109.985 67.6114ZM444.326 479.807C448.32 480.946 448.437 475.533 444.362 477.169C444.165 477.254 444.121 479.752 444.326 479.807ZM20.7992 396.013C20.2543 401.467 24.8447 403.06 25.2275 399.302C25.6935 395.621 20.9931 394.392 20.7992 396.013ZM8.36241 346.446C8.06382 347.491 8.05412 348.38 8.23128 349.1L8.19282 348.668C9.22068 351.385 12.8245 351.078 12.7459 347.992L12.8321 348.96C12.8861 348.368 12.8208 347.661 12.594 346.835C12.4962 346.471 8.46131 346.098 8.36241 346.446ZM123.941 86.0689C123.872 86.0161 120.96 87.0767 120.903 87.1786C119.995 89.3687 125.811 87.2457 123.941 86.0689ZM6.43902 294.384C5.32645 296.204 6.36828 301.551 7.71744 299.297C8.79501 297.473 7.81209 292.149 6.43902 294.384ZM646.098 462.874C646.173 462.944 648.383 462.663 648.265 462.223C647.889 460.804 644.889 461.701 646.098 462.874ZM38.2737 217.061C28.6864 225.607 18.6056 227.6 29.2736 217.502C31.2218 215.736 26.7005 222.939 29.4569 220.967C34.4394 217.424 34.7448 211.754 40.8848 209.278C41.9503 208.849 38.7877 216.579 38.2626 217.083C38.2663 217.076 38.27 217.068 38.2737 217.061ZM447.098 486.063C447.181 486.128 450.292 485.933 450.361 485.856C451.898 484.011 445.631 484.403 447.098 486.063ZM769.782 421.983C770.062 422.007 775.341 416.808 775.362 416.491C775.928 411.905 765.537 422.175 769.782 421.983ZM237.716 504.665C234.35 506.467 230.248 506.74 227.485 504.612C230.903 504.686 234.304 504.641 237.716 504.665Z" fill="black"/>
</svg>
