<svg width="1100" height="507" viewBox="0 0 1100 507" fill="none" xmlns="http://www.w3.org/2000/svg">
<path d="M149.225 67.3332C163.164 62.6108 181.328 58.3375 195.393 55.4809C199.721 54.6051 197.777 56.081 200.806 55.5149C206.769 54.4003 212.083 52.6075 217.921 51.6405C219.883 51.3189 217.84 53.3709 219.893 52.9996C231.008 50.9888 241.283 48.1606 252.496 45.8843C298.758 36.5185 344.251 27.3383 390.728 18.269C399.725 16.5145 408.805 14.8885 417.954 13.444C436.682 10.4194 459.867 8.99705 479.295 7.07218C481.562 6.83873 480.115 5.61222 480.541 5.47234C487.225 3.33738 485.152 6.16529 489.594 6.24411C507.241 6.58704 526.55 5.9608 543.125 4.28541C545.035 4.09403 545.906 3.79175 546.287 3.47835C547.332 2.6373 544.85 1.7011 550.235 2.40493C550.746 2.46987 549.014 4.00133 551.001 4.01512C555.488 4.03977 563.906 3.26518 567.388 3.18545C573.988 3.04036 575.183 2.96563 581.464 2.68479C590.038 2.31951 600.418 2.64805 609.58 2.12157C611.551 2.00489 608.888 0.618682 612.073 0.3041C615.286 -0.0166578 623.551 -0.012477 626.433 0.312795C629.258 0.632256 628.061 1.77697 628.561 2.03354C632.574 4.19127 642.36 1.18196 643.536 1.12645C666.331 0.0486796 685.687 2.58672 706.946 4.1674C723.044 5.36286 740.328 6.60259 755.596 8.663C773.744 11.1109 788.946 14.3068 806.418 16.983C808.253 17.2658 806.371 15.2429 808.619 15.5859C816.8 16.8346 824.929 18.1237 833.015 19.3919C849.1 21.9118 864.866 25.6349 880.276 30.9223C882.597 31.7265 879.146 32.2626 881.434 33.1538C895.68 38.4434 916.299 49.958 927.083 48.0512C936.297 52.6125 947.166 58.7276 954.353 64.4648C958.978 68.1668 953.269 66.6555 959.769 69.75C961.234 70.4609 960.173 68.1478 962.314 69.3099C971.327 74.2086 980.388 80.7643 989.095 85.7705C990.873 86.7884 991.124 85.4196 991.73 85.5532C994.738 86.2551 997.712 89.0477 999.88 91.4152C1001.45 93.0881 1002.61 94.5968 1003.16 95.0952C1013.41 104.509 1021.38 110.51 1030.57 119.434C1032.68 121.521 1031.37 117.833 1033.45 119.813C1044.21 130.132 1054.12 142.087 1061.9 154.45C1063.61 157.198 1060.71 155.596 1061.47 156.951C1064.73 162.913 1067.87 162.686 1070.79 168.612C1071.4 169.859 1069.93 169.832 1069.94 170.118C1070.09 174.569 1074.38 176.036 1074.93 176.909C1079 183.286 1080.77 189.109 1082.45 195.037C1083.61 199.214 1084.76 203.457 1086.56 208.232C1087.07 209.616 1087.53 205.942 1088.89 209.888C1094.66 226.821 1097.79 245.1 1099.21 262.992C1100.03 273.139 1099.95 283.249 1099.05 293.009C1098.64 297.252 1097.61 294.151 1097.45 294.414C1094.94 298.582 1097.73 301.571 1097.72 302.982C1097.51 314.012 1093.09 323.456 1094.86 331.535C1089.93 349.528 1083.05 367.073 1072.76 382.897C1057.84 406.298 1035.87 426.387 1009.99 436.31C1009.45 436.526 1009.73 434.721 1008.67 435.154C995.711 440.11 999.081 441.038 991.297 446.994C989.325 448.485 981.469 447.371 980.832 447.277C978.39 447.041 979.988 444.212 979.211 444.259C972.843 444.652 975.891 451.542 967.621 453.69C967.362 453.743 968.103 452.146 967.383 452.189C965.162 452.312 963.074 453.376 960.92 453.396C955.864 453.441 953.451 450.304 946.505 453.843C945.601 454.291 947.911 458.165 940.438 459.365C937.438 459.873 924.441 462.137 920.65 462.414C916.972 462.704 919.265 460.98 918.994 460.962C908.938 460.661 912.438 459.376 907.22 457.445C901.953 455.515 904.169 461.571 902.237 462.549C900.284 463.53 892.938 463.011 891.032 462.734C889.196 462.452 891.28 461.314 889.687 461.226C879.056 460.659 885.508 464.913 882.17 466.341C874.352 469.701 867.453 465.811 859.916 466.235C857.867 466.351 859.623 467.218 857.864 467.524C850.878 468.724 846.374 467.773 838.454 470.032C837.996 470.162 836.931 470.681 835.536 471.236C833.054 472.254 829.412 473.387 826.455 472.359C825.81 472.13 827.426 470.782 824.3 470.859C819.875 470.948 811.498 471.56 806.758 472.421C803.173 473.066 807.519 474.568 802.884 474.425C800.813 474.359 804.496 472.87 800.61 472.841C796.941 472.794 787.13 473.765 783.581 474.124C779.939 474.496 782.065 475.765 781.78 475.89C780.051 476.614 773.019 477.945 772.442 477.992C741.121 480.915 712.043 480.661 681.651 483.641C679.26 483.872 680.964 485.292 680.6 485.343C672.434 486.565 678.604 482.034 672.795 481.071C673.835 484.124 670.438 483.798 664.683 484.537C661.909 484.896 663.509 485.996 663.263 486.137C659.243 488.252 656.23 486.082 655.456 485.649C652.608 484.056 649.776 486.358 647.834 485.294C645.894 484.238 650.059 482.202 644.515 482.596C643.035 483.813 647.343 486.45 643.171 487.202C627.427 490.054 597.675 489.651 584.905 490.192C572.144 490.739 568.082 491.189 560.614 491.234C547.195 491.306 552.212 493.174 543.947 494.656C535.674 496.136 539.415 490.58 538.15 489.508C536.915 488.434 535.694 489.686 534.185 489.144C532.683 488.601 535.809 487.639 532.35 487.605C528.876 487.572 519.671 490.144 518.483 491.412C516.051 494.092 520.426 496.507 511.292 496.095C510.768 496.069 512.378 494.574 510.376 494.547C494.396 494.383 477.873 495.244 461.958 495.171C459.75 495.16 461.631 493.496 460.346 493.472C447.074 493.208 451.956 495.568 444.826 498.883C446.206 494.918 442.209 492.76 432.051 493.293C426 493.609 427.241 495.24 423.33 496.65C422.153 497.076 417.804 496.147 417.086 496.985C414.657 499.729 418.975 502.416 408.431 501.827C407.972 501.797 409.347 500.293 407.766 500.292C399.469 500.275 397.034 502.205 390.481 503.38C389.063 503.626 387.453 503.84 385.565 503.996C377 504.717 361.59 503.762 351.726 503.842C351.818 499.474 342.515 500.803 338.881 503.916C332.575 503.984 325.649 504.325 319.459 504.025C317.318 503.922 318.7 502.632 318.428 502.501C314.267 500.434 311.618 503.397 310.248 503.53C295.337 504.832 283.154 502.602 268.896 504.525C268.387 504.593 267.567 507.616 263.729 505.317C263.489 505.158 268.249 503.887 261.517 503.625C254.857 503.367 242.296 501.304 232.915 502.178C230.741 502.401 224.775 504.514 220.36 502.267C219.763 501.963 220.497 501.143 219.646 500.597C216.889 498.849 215.235 501.798 212.026 498.92C208.925 496.043 202.268 493.529 192.817 494.23C192.511 494.246 189.997 496.399 187.128 495.99C182.407 495.325 175.927 493.864 171.1 493.052C168.772 492.662 170.003 494.403 169.593 494.361C156.792 492.79 147.091 489.872 135.544 485.417C132.916 484.386 130.193 483.256 127.314 482.007C124.479 480.821 115.362 479.122 110.703 474.898C105.675 470.247 114.933 467.02 101.269 461.307C95.8841 458.965 84.1315 462.758 77.8806 452.404C63.0212 443.128 51.3163 431.474 38.0512 420.641C35.2534 418.361 32.5946 415.838 30.011 413.111C29.3721 412.458 25.414 411.592 24.1551 409.617C22.3064 406.719 22.4406 404.474 21.3554 402.342C16.9025 393.348 12.7927 385.019 10.1869 375.641C9.22558 372.078 10.7845 372.981 9.72939 368.742C8.70745 364.506 6.39037 362.041 5.91427 356.063C5.74043 353.79 6.28108 351.379 6.77194 348.8L6.8108 349.126C7.68386 346.666 8.52716 344.067 8.62868 341.121C5.26328 341.019 5.17616 336.926 4.14972 329.691C3.95228 328.298 2.80821 329.816 2.65451 329.157C2.00392 326.494 2.94393 323.98 2.27054 321.422C2.10894 320.8 0.959826 320.777 0.763567 320.269C-0.961733 315.929 1.70796 308.782 2.19125 307.583C3.99551 302.916 2.57761 300.719 3.40359 297.126C4.24113 293.595 4.82935 298.963 5.43831 294.81C6.70285 286.216 7.49732 275.19 9.19188 266.625C9.86421 263.244 7.91134 265.25 7.97229 264.759C9.00374 257.442 12.8133 251.22 11.9918 246.243C13.2282 246.085 14.1521 245.954 14.8476 245.792L14.7997 245.864C19.5875 245.575 14.9888 240.765 22.4684 235.197C23.1609 234.705 26.4563 236.69 24.6701 239.225C22.9752 241.655 19.1683 244.156 17.2093 247.76L17.518 247.299C17.4698 247.439 17.4247 247.581 17.3829 247.725C16.9812 248.686 18.1781 254.841 18.224 255.569C18.0626 261.287 12.6118 260.868 12.2003 261.088C8.0411 263.917 10.5502 271.73 10.5913 273.555C10.6045 282.113 9.33276 289.27 9.8347 296.502C10.1787 301.221 13.8293 301.802 13.6198 305.435C13.0119 317.564 7.97419 321.98 12.6294 333.482C13.6405 335.956 17.5419 333.357 14.6844 342.343C14.5666 342.722 13.379 345.738 13.159 348.868L13.0029 347.559C13.1374 349.16 13.5343 350.732 14.4078 351.869C14.7297 352.286 15.8661 352.031 16.0909 352.619C17.5819 356.562 17.2833 359.469 18.7981 363.726C20.3167 367.978 22.372 372.924 23.5535 377.766C24.2505 380.681 23.5505 385.021 23.6018 386.571C23.6805 390.975 27.7927 393.838 27.276 396.843C26.8394 399.971 21.8493 396.784 24.1728 403.446C26.9219 402.155 29.8866 401.069 32.6842 399.815C35.8665 405.213 39.4452 410.071 43.7144 414.012C49.8525 419.605 55.9791 425.102 62.4756 430.223C63.9764 431.4 63.4788 428.919 65.0998 430.133C71.9658 435.259 77.1991 440.684 84.6833 445.362C90.4801 448.972 97.622 451.575 103.836 454.743C105.73 459.936 115.481 463.99 122.151 467.345C124.492 468.535 123.959 469.302 125.558 470.331C131.654 474.115 129.759 469.975 131.71 470.253C135.755 470.773 137.411 472.521 139.179 474.59C140.991 476.752 143.026 479.312 148.006 480.569C148.504 480.722 155.722 478.716 156.545 478.644C162.395 478.418 157.182 480.114 160.552 481.124C166.762 482.929 171.109 484.618 178.853 484.72C181.107 484.746 186.739 483.226 190.809 485.517C191.344 485.818 190.882 486.991 191.331 487.118C199.52 489.293 200.24 485.473 205.028 484.651C209.948 483.835 217.053 487.058 218.474 487.923C222.254 490.185 215.414 488.54 215.203 488.71C212.51 490.803 217.86 490.848 222.061 491.332C222.437 495.133 228.184 495.279 226.315 491.803C226.08 491.424 222.931 491.567 222.061 491.332C225.928 487.905 232.206 487.836 239.164 491.62C242.365 493.38 239.094 495.151 249.246 494.861C253.775 494.712 252.106 492.064 256.185 491.486C265.341 490.16 277.277 492.762 286.793 492.407C290.252 492.278 286.909 490.853 289.232 490.714C295.402 490.339 300.957 491.374 307.224 490.76C307.798 490.702 306.378 489.235 308.349 489.194C323.095 488.838 335.963 489.46 351.433 488.921C358.89 488.667 372.264 487.259 379.926 487.027C382.973 486.936 386.222 486.927 389.582 486.949C400.646 487.036 412.722 487.572 421.515 486.687C429.072 485.938 427.242 484.552 430.416 483.366C436.605 481.065 447.635 483.973 449.223 484.43C449.259 484.446 442.788 485.153 446.292 485.723C448.394 487.196 449.15 484.441 449.223 484.43C450.204 484.728 463.115 484.352 465.657 483.926C467.027 483.694 466.177 482.333 466.894 482.239C484.062 480.025 501.337 478.692 518.816 478.341C519.127 478.351 518.751 479.948 519.481 479.953C529.6 480.069 536.019 477.766 544.263 476.135C552.578 474.5 559.15 474.489 564.277 476.884C570.543 476.166 579.653 476.805 584.885 477.207C590.12 477.609 590.657 474.508 591.11 474.42C605.244 471.598 613.592 472.823 628.385 472.133C635.427 471.811 649.343 470.439 656.907 469.585C662.9 468.906 666.589 469.37 672.072 468.527C672.814 468.414 671.965 467.107 672.189 467.039C678.254 464.979 675.523 468.51 676.841 469.014C681.641 470.843 684.536 471.795 692.402 470.205C694.22 469.84 699.186 464.667 702.464 464.142C706.759 463.466 705.27 465.302 709.77 464.547C710.154 464.483 709.998 463.432 712.788 463.268C725.768 462.49 739.91 461.994 753.378 460.762C755.211 460.598 752.722 459.118 755.364 458.853C767.815 457.608 781.371 456.469 793.596 456.095C796.578 456.01 794.833 457.36 795.509 457.647C799.57 459.386 805.061 455.751 805.936 455.604C815.702 453.96 824.754 453.188 833.38 452.494C844.383 451.594 855.144 450.884 867.46 448.676C868.764 448.444 877.64 444.048 882.283 446.309C882.616 446.457 887.055 448.815 890.51 446.37C890.72 446.218 887.935 445.08 892.484 444.638C896.979 444.202 904.077 442.235 910.447 442.951C912.489 443.171 917.472 445.356 922.922 442.146C923.261 441.94 931.282 435.327 934.983 438.281C935.582 438.764 935.821 442.617 942.206 439.404C943.423 438.779 940.888 438.419 944.226 437.216C949.284 435.373 956.278 434.891 962.137 431.658C963.133 431.102 967.075 427.419 971.152 428.265C971.801 428.395 971.067 429.932 973.042 429.5C982.357 427.459 991.275 423.35 1000.05 420.211C1003.16 419.077 1002.52 421.672 1005.9 420.594C1009.26 419.549 1015.69 416.489 1018.19 413.696C1020.67 410.932 1015.67 410.386 1019.83 407.203C1032.93 396.979 1044.64 385.268 1054.65 371.049C1058.07 366.203 1061.17 360.934 1063.82 355.381C1065.27 352.264 1063.08 354.399 1065.04 349.744C1072.84 332.599 1077.26 299.994 1079.04 283.425C1080.77 270.023 1082.68 286.892 1083.21 276.53C1083.41 271.451 1079.11 266.409 1078.87 265.265C1078.86 265.213 1078.84 265.162 1078.83 265.11C1076.39 253.368 1076.79 244.995 1074.09 234.752C1073.51 232.65 1072.47 235.065 1072 233.278C1070.35 227.212 1069.27 220.716 1067.27 215.102C1066.36 212.592 1065.41 213.442 1064.68 211.117C1063.81 208.442 1063.01 205.908 1062.25 203.359C1061.46 200.696 1060.7 197.975 1059.94 195.075C1059.8 194.556 1062.65 197.113 1060.8 193.152C1057.8 186.788 1054.3 178.442 1048.78 172.143C1047.12 170.272 1044.9 171.71 1043.39 166.351C1043.06 165.239 1046.54 164.453 1040.61 161.144C1039.62 160.527 1030.38 154.815 1028.88 149.488C1028.5 148.069 1028.2 143.733 1025.86 141.819C1025.53 141.57 1025.57 143.728 1023.8 142.027C1017.56 136.037 1011.13 129.653 1004.11 124.294C1002.24 122.875 1003.95 126.256 1001.19 124.13C996.437 120.479 990.991 116.247 985.67 112.421C982.199 109.934 978.862 107.468 975.885 105.245C972.93 103.039 975.732 103.438 975.583 103.175C973.241 98.9528 969.492 100.009 968.212 99.3662C960.317 95.3695 955.5 90.6329 948.472 86.8063C946.544 85.7589 947.149 87.7689 946.711 87.6518C942.211 86.397 946.397 85.9418 944.061 84.2389C937.551 79.4937 929.642 75.325 922.325 71.9367C919.655 70.7074 921.906 73.6222 919.519 72.5102C905.342 65.9544 890.328 59.9763 875.96 54.729C873.239 53.7359 875.341 53.051 874.846 52.6036C871.43 49.4821 864.784 50.5562 863.357 50.4723C856.926 50.0812 854.777 48.4561 849.202 47.4812C842.855 46.398 836.185 45.3364 829.241 44.3623C805.308 40.9485 780.302 36.1216 760.014 33.0631C725.508 27.8231 698.746 24.4206 665.438 23.6323C663.302 23.5859 665.39 25.3229 663.573 25.3066C640.168 25.035 616.851 24.5758 593.371 25.9359C591.436 26.046 594.29 27.5246 591.183 27.7569C584.766 28.2468 576.71 28.5455 570.291 28.3988C567.147 28.3311 571.274 26.7342 568.104 26.6957C561.537 26.624 554.823 26.9143 548.014 27.5453C547.028 27.6364 546.052 27.7309 545.088 27.8289C541.802 28.1644 546.889 29.4472 542.595 29.7547C513.18 31.8732 485.245 32.6749 456.842 33.7833C454.868 33.8591 452.808 30.766 448.738 31.9066C448.541 32.8536 448.691 33.9201 448.678 34.9078C431.033 37.3453 413.575 40.299 396.014 43.7528C372.705 48.3421 349.582 52.8234 326.193 57.8155C324.46 58.186 327.822 59.2418 324.474 59.9671C305.112 64.1673 286.227 68.8752 266.135 71.7206C264.115 72.0126 264.403 68.7876 258.724 70.5817C257.778 70.886 249.047 73.3465 247.019 74.5136C246.734 74.6841 248.655 75.7054 245.862 76.4075C229.557 80.4821 212.437 84.3123 196.16 87.6069C193.483 88.1499 195.916 85.9419 194.001 86.3179C180.598 88.958 166.734 93.9084 154.173 96.3692C145.796 98.0592 147.991 94.5888 142.809 93.6168C142.078 93.4603 137.253 95.2219 136.376 93.9847C134.193 90.7653 135.253 85.8384 132.646 82.5183C132.131 81.6603 124.651 86.2476 128.432 82.1034C128.934 81.657 133.927 78.8745 135.122 77.715C135.829 76.9311 133.702 76.0648 135.31 74.8101C137.018 73.5276 139.404 74.0668 142.293 72.3441C144.998 70.6872 143.309 69.361 149.225 67.3332ZM608.476 478.973C613.38 480.134 613.746 474.716 608.627 476.332C608.379 476.417 608.223 478.917 608.476 478.973ZM47.822 423.583C51.0878 429.437 56.6237 429.445 54.4035 425.239C52.2049 421.036 46.8232 421.797 47.822 423.583ZM14.1801 372.428C14.4325 379.951 22.0389 378.644 18.4075 371.87C18.2031 371.473 14.1699 371.992 14.1801 372.428ZM162.926 86.5268C162.896 86.4582 159.061 87.5065 159.018 87.5962C157.515 89.8179 165.023 87.7641 162.926 86.5268ZM6.09043 309.334C5.01054 311.62 6.18218 318.218 7.47646 315.384C8.50608 313.096 7.41938 306.511 6.09043 309.334ZM859.406 463.649C859.494 463.719 862.302 463.462 862.19 463.018C861.835 461.59 857.978 462.458 859.406 463.649ZM49.1234 217.382C35.8239 226.295 24.121 228.112 38.8164 217.494C41.4969 215.646 34.4205 223.326 38.07 221.278C44.6591 217.605 46.5639 211.49 54.234 209.1C55.5729 208.677 49.847 216.869 49.1046 217.406C49.1109 217.398 49.1171 217.39 49.1234 217.382ZM611.657 485.25C611.758 485.315 615.625 485.135 615.714 485.059C617.696 483.219 609.906 483.58 611.657 485.25ZM1018.68 430.101C1018.97 430.188 1026.86 425.534 1026.99 425.195C1029.44 420.414 1013.85 429.654 1018.68 430.101ZM351.569 503.731C347.539 505.602 342.265 505.978 338.901 503.918C343.037 503.908 347.469 503.777 351.569 503.731Z" fill="black"/>
</svg>
