<svg width="4129" height="2450" viewBox="0 0 4129 2450" fill="none" xmlns="http://www.w3.org/2000/svg">
<path d="M405.784 46.6773C472.057 44.3922 559.082 42.9473 624.936 42.2005C645.67 41.964 635.734 43.1338 649.592 43.0252C677.388 42.7982 703.721 41.773 731.095 41.6424C740.179 41.6037 728.883 43.3514 738.447 43.2756C790.917 42.849 841.178 41.4379 894.27 40.6893C914.013 40.4106 933.106 40.1412 953.466 39.843C1195.58 36.3519 1434.57 32.3409 1680.41 28.4639C1767.99 27.0818 1874.54 26.529 1965.04 24.3258C1975.59 24.0673 1969.28 22.8525 1971.28 22.7076C2002.77 20.4761 1992.34 23.3393 2012.95 23.3317C2094.62 23.2969 2185.55 21.845 2264.09 20.0011C2297.59 19.2118 2263.97 17.1454 2297.69 18.0546C2300.03 18.1151 2291.57 19.6668 2300.75 19.6623C2321.51 19.6495 2361.01 18.7369 2377.15 18.5807C2408.22 18.2871 2413.22 18.1904 2442.74 17.7212C2482.83 17.0972 2530.9 17.019 2573.7 16.0186C2582.96 15.7988 2570.68 14.5498 2585.44 14.0694C2600.27 13.5877 2638.94 13.1018 2652.01 13.2393C2665.23 13.3741 2659.62 14.5968 2661.96 14.8206C2681.33 16.7141 2725.66 12.9928 2731.71 12.8267C2837.18 9.94322 2927.61 10.3681 3026.68 9.04715C3098.51 8.08767 3175.03 6.62442 3244.05 5.92379C3247.26 5.89119 3250.43 5.86032 3253.56 5.83129C3339.25 5.05971 3410.31 5.24107 3493.79 4.85153C3502.51 4.81605 3492.33 3.1437 3502.9 3.09928C3615.06 9.5171 3724.99 -19.5725 3838.89 32.1048C3839.11 33.43 3839.32 34.7795 3839.52 36.0968C3841.18 47.4018 3837.43 33.1068 3838.98 44.37C3842.21 68.9393 3846.68 98.4317 3852.2 128.109C3861.81 181.048 3875.33 233.878 3886.16 258.138C3897.83 303.37 3914.03 357.801 3925.81 397.923C3926.29 399.578 3926.71 401.035 3927.07 402.317C3932.28 420.898 3924.35 401.488 3934.81 430.704C3937.35 437.733 3935.57 428.05 3939.3 438.666C3954.96 483.197 3971.89 532.013 3988.48 575.756C3991.85 584.652 3992.17 581.775 3993.3 584.232C4002.75 604.894 4012.77 641.409 4015.37 649.217C4035.19 708.659 4051.56 751.454 4070.54 806.661C4074.94 819.576 4071.37 803.823 4075.62 816.128C4075.74 816.482 4075.86 816.836 4075.98 817.189C4097.84 880.73 4118.1 949.013 4122.8 1015.6C4123.97 1030.41 4121.29 1016.94 4121.76 1024.01C4123.04 1045.19 4124.6 1055.02 4125.88 1068.59C4126.46 1074.91 4126.94 1082.2 4127.11 1091.72C4127.22 1098.04 4125.84 1094.52 4125.74 1095.67C4124.24 1113.65 4127.64 1129.15 4127.81 1133.77C4129.89 1192.12 4126.66 1229.42 4125.98 1285.75C4125.88 1292.49 4127.83 1277.32 4127.43 1296.29C4126.85 1322.12 4125.91 1348.27 4124.36 1374.56C4119.99 1461.08 4103.53 1547.96 4090.12 1631.67C4087.6 1647.23 4085.12 1662.74 4082.67 1678.11C4079.63 1697.29 4080.49 1683.43 4080.17 1684.6C4074.99 1703.95 4076.17 1717.11 4075.36 1723.4C4068.97 1772.89 4059.81 1818.67 4058.55 1852.75C4051.16 1901.55 4043.96 1950.41 4036.31 1999.06C4015.9 2115.05 4008.72 2232.2 3972.61 2346.23C3964.92 2360.88 3951.01 2361.04 3940.57 2363.76C3929.57 2365.82 3918.47 2367.06 3907.58 2368.15C3885.83 2370.27 3863.84 2371.7 3842.07 2373C3839.39 2373.16 3844.08 2371.3 3838.73 2371.63C3774.57 2375.4 3787.35 2376.75 3745.07 2382.5C3734.72 2383.92 3702.07 2382.63 3698.95 2382.58C3688.64 2382.33 3699.1 2379.38 3695.67 2379.43C3666.78 2379.94 3671.9 2387.03 3632.96 2389.66C3631.74 2389.73 3636.77 2388.02 3633.49 2388.11C3623.16 2388.38 3613.21 2389.6 3603.25 2389.81C3598.3 2389.91 3593.97 2389.85 3589.87 2389.75C3575.8 2389.3 3564.34 2388.22 3537.3 2391.6C3532.85 2392.16 3539.87 2395.95 3505.02 2397.93C3491.25 2398.73 3429.34 2402.46 3412.35 2403.13C3395.07 2403.83 3406.85 2401.81 3405.62 2401.82C3359.01 2402.63 3376.79 2400.89 3353.12 2399.52C3329.99 2398.12 3336.64 2404.07 3327.2 2405.28C3317.42 2406.51 3283.81 2406.77 3275.12 2406.7C3266.78 2406.61 3277.08 2405.22 3269.71 2405.3C3220.47 2405.88 3248.23 2409.52 3232 2411.33C3194.08 2415.58 3163.72 2412.34 3128.78 2413.49C3119.3 2413.81 3127.09 2414.51 3118.64 2415C3085.12 2416.91 3064.88 2416.35 3026.98 2419.33C3020.65 2419.82 2990.2 2423.93 2970.05 2422.7C2967.21 2422.52 2975.18 2421.02 2960.89 2421.35C2939.7 2421.83 2901.22 2423.11 2878.32 2424.39C2861.37 2425.33 2880.8 2426.5 2859.56 2426.72C2850.11 2426.82 2867.56 2425.03 2849.81 2425.29C2832.08 2425.57 2786.98 2427.28 2769.66 2427.92C2752.55 2428.57 2761.97 2429.7 2760.59 2429.84C2752.27 2430.7 2719.24 2432.55 2716.35 2432.65C2569.49 2437.82 2433.9 2439.16 2290.84 2442.97C2279.61 2443.27 2287.13 2444.65 2285.41 2444.71C2247 2446.13 2277.24 2441.44 2250.34 2440.6C2254.29 2443.64 2238.38 2443.39 2211.36 2444.22C2198.29 2444.62 2205.43 2445.7 2204.24 2445.85C2184.89 2448.02 2171.4 2445.87 2167.93 2445.44C2165.25 2445.11 2162.54 2444.95 2159.83 2444.9C2149.49 2444.69 2139.31 2445.96 2132.4 2445.12C2123.68 2444.06 2143.68 2442.02 2117.75 2442.41C2110.51 2443.63 2129.77 2446.28 2110.12 2447.02C2035.66 2449.93 1896.79 2448.51 1836.95 2448.22C1777.28 2448.01 1757.87 2448.12 1723.24 2447.6C1660.27 2446.57 1683.39 2448.84 1644.33 2449.56C1605.25 2450.25 1624.24 2445.07 1618.64 2443.88C1613.11 2442.69 1607.06 2443.81 1600.22 2443.12C1593.41 2442.43 1608.17 2441.79 1592.15 2441.4C1575.96 2441.02 1532.05 2442.55 1526.21 2443.67C1514.1 2446.05 1533.92 2448.98 1491.33 2447.47C1488.87 2447.38 1496.88 2446.09 1487.45 2445.82C1412.91 2443.7 1335.35 2442.18 1261.08 2439.48C1250.88 2439.11 1260.07 2437.77 1254.07 2437.53C1192.2 2435.03 1213.96 2438.18 1180.07 2440.21C1187.81 2436.53 1169.12 2433.69 1121.95 2432.3C1093.66 2431.45 1098.35 2433.28 1080.2 2433.92C1074.55 2434.11 1054.58 2432.31 1051.03 2432.99C1039.03 2435.21 1057.57 2438.76 1009.16 2435.97C1007.02 2435.84 1013.9 2434.65 1006.49 2434.31C958.903 2432.09 953.26 2434.62 901.804 2432.97C894.674 2432.74 886.724 2432.41 878.361 2432.02C837.14 2430.12 781.953 2426.53 743.931 2424.27C745.225 2419.99 701.867 2418.63 684.032 2420.38C654.359 2418.24 622.131 2415.95 593.496 2411.45C583.671 2409.85 590.329 2409.56 589.112 2409.24C570.461 2404.25 557.348 2403.81 550.98 2402.09C544.641 2400.38 538.506 2398.39 532.536 2396.28C474.738 2375.63 426.93 2352.64 376.538 2318.73C374.595 2317.37 369.491 2317.69 356.752 2304.85C355.968 2303.99 374.055 2316.7 349.587 2296.96C325.639 2277.52 284.959 2237.12 250.841 2210.68C250.13 2210.12 249.425 2209.57 248.727 2209.03C240.459 2202.56 218.244 2187.86 202.531 2173.41C200.42 2171.46 203.426 2172.67 200.46 2169.78C190.885 2160.48 183.227 2158.54 172.478 2146.95C161.912 2135.08 136.644 2114.87 105.96 2083.97C105 2082.97 96.1872 2076.97 87.6641 2066.04C77.6637 2053.33 65.9307 2035.71 56.1346 2019.08C52.6071 2013.13 49.5952 2007.19 47.0552 2001.68C42.5826 1991.64 44.0584 1998.65 43.2592 1996.92C15.956 1927.31 15.5885 1873.16 6.34538 1794.75C6.1495 1792.86 5.86368 1790.49 5.5097 1787.72C2.9952 1769.73 -0.176535 1734.92 1.26954 1710.52C3.30453 1679.59 9.60986 1711.44 10.1187 1640.68C10.5824 1612.25 3.24391 1575.34 11.9553 1524.49C13.286 1503.43 14.8705 1482.71 16.5935 1462.22C23.0635 1385.91 31.9671 1312.28 39.5494 1233.8C39.9827 1229.33 39.0074 1214.89 40.2802 1204.38C42.1733 1188.79 44.4199 1180.38 45.8468 1169.26C51.8743 1122.67 56.3097 1079.88 62.6062 1035.03C65.0094 1018.01 65.4375 1024.09 68.3546 1003.85C71.3059 983.57 71.5984 969.745 76.5499 942.431C78.5283 931.574 81.313 920.776 84.2026 909.18C86.8492 898.481 89.5587 887.275 91.9605 874.232C88.8386 872.655 91.9759 853.821 97.3142 820.21C98.3332 813.82 95.908 820.418 96.3306 817.387C98.0635 804.861 101.23 793.627 102.922 781.819C103.345 778.902 102.246 778.545 102.526 776.178C104.813 756.02 114.473 724.006 116.2 718.55C122.698 697.524 123.616 687.258 128.158 671.064C132.706 654.914 127.698 679.504 132.645 660.553C135.717 648.75 138.946 636.039 141.955 622.728C149.006 591.526 155.413 557.871 160.379 529.358C163.187 513.092 159.768 523.934 160.135 521.6C165.489 488.011 171.965 454.108 171.389 435.064C182.226 412.612 173.493 414.662 180.393 366.487C180.912 362.801 185.169 358.226 184.133 372.952C183.1 387.595 179.354 409.786 177.558 430.057C177.168 434.919 176.842 462.831 176.459 466.654C173.77 496.241 167.436 499.514 166.914 501.033C160.895 518.071 158.685 552.006 157.236 560.833C153.678 583.399 149.534 603.935 145.351 623.467C142.031 638.898 138.503 653.621 135.379 668.359C130.744 690.186 133.825 693.053 129.792 710.072C116.693 766.552 107.755 785.49 102.206 840.098C101.104 851.809 106.929 840.927 96.7635 881.905C96.3719 883.475 93.0047 896.27 90.3868 910.168C88.91 917.964 87.6371 926.353 87.3007 932.881C87.1814 935.158 88.3437 935.261 87.9841 938.25C85.5887 958.116 82.7132 971.197 80.0463 992.874C77.3867 1014.54 74.4503 1040.61 70.7721 1065.27C68.5457 1080.16 63.9229 1098.95 62.4825 1106.03C58.3776 1125.97 58.1831 1147.92 54.8206 1160.17C51.4388 1172.55 51.6125 1147.57 46.4221 1180.47C49.2797 1182.06 52.0267 1185.24 54.8139 1187.57C46.0796 1259.94 37.3309 1331.13 30.581 1403.98C29.7535 1413.01 32.2343 1403.95 31.3995 1413.59C29.916 1430.76 28.3363 1446.97 26.814 1463.08C24.701 1485.49 22.6124 1507.87 21.0613 1532.43C18.9955 1565.29 18.3574 1601.28 17.2995 1635.58C12.8619 1656.35 12.3902 1707.18 13.8001 1743.8C14.2782 1756.62 13.3417 1755.78 13.6565 1764.93C14.2182 1778.5 15.1488 1784.2 15.8434 1786.58C16.9519 1790.38 17.7691 1786.58 18.6957 1792.3C25.3773 1832.73 18.546 1837.11 25.3248 1884.86C25.5923 1887.42 34.1877 1917.51 35.3491 1921.54C42.1031 1947.6 34.8533 1926.21 38.1593 1942.71C44.1727 1969.58 48.9366 1989.46 64.0743 2014.29C65.877 2017.14 67.7362 2020 69.6972 2022.92C75.541 2031.78 91.3845 2051.31 103.057 2067.81C104.588 2070 102.709 2069.67 104.036 2071.34C129.069 2101.29 133.472 2098.39 150.865 2112.14C168.521 2125.58 195.039 2148.79 200.251 2153.81C214.017 2166.83 188.306 2145.73 187.408 2145.28C176.564 2139.88 197.157 2155.11 212.648 2167.29C212.704 2172.02 234.383 2188.78 228.638 2180C227.996 2179.01 215.71 2169.85 212.648 2167.29C224.65 2173.06 241.371 2184.86 258.913 2200.96C264.706 2206.28 270.454 2211.94 276.13 2217.94C286.907 2229.47 274.688 2221.02 310.593 2252.02C326.83 2266.06 322.356 2258.67 337.013 2270.58C370.057 2298.16 413.671 2332.15 453.843 2350.8C468.278 2357.68 454.882 2349.62 464.787 2354.21C489.402 2365.39 511.379 2375.14 536.948 2384.11C538.754 2384.74 540.561 2385.35 542.383 2385.94C544.84 2386.71 539.374 2383.33 547.727 2386.09C611.282 2404.04 674.029 2404.55 745.938 2409.44C780.672 2411.32 842.22 2413.21 879.053 2414.81C879.445 2414.83 879.835 2414.85 880.222 2414.86C943.307 2417.69 1020.53 2422.55 1074.58 2423.69C1109.64 2424.44 1102.07 2422.72 1117.2 2422.16C1146.19 2421.07 1197.65 2425.95 1204.47 2426.66C1204.61 2426.68 1174.63 2426.24 1190.6 2427.43C1199.86 2429.26 1204.13 2426.66 1204.47 2426.66C1209.16 2427.15 1269.47 2428.96 1281.43 2428.92C1287.97 2428.91 1284.35 2427.43 1287.76 2427.45C1368.54 2427.99 1449.5 2429.04 1531.44 2430.7C1532.89 2430.75 1530.69 2432.29 1534.09 2432.38C1581.44 2433.64 1612 2432 1651.04 2431.14C1690.29 2430.28 1721.28 2430.79 1744.34 2433.57C1774.01 2433.33 1816.29 2434.56 1840.59 2435.25C1865.01 2435.95 1868.41 2432.87 1870.54 2432.8C1937.44 2430.68 1976.05 2432.2 2045.44 2431.78C2072.98 2431.62 2122.91 2430.71 2159.59 2429.82C2166.87 2429.64 2173.63 2429.47 2179.57 2429.32C2207.81 2428.58 2224.8 2428.98 2250.82 2428.02C2254.34 2427.89 2250.75 2426.6 2251.83 2426.53C2280.83 2424.33 2266.93 2427.93 2272.94 2428.41C2294.69 2430.13 2308.18 2431.01 2345.31 2429.15C2353.89 2428.73 2378.75 2423.35 2394.37 2422.68C2414.68 2421.83 2407.05 2423.74 2428.32 2422.79C2430.13 2422.7 2429.73 2421.66 2442.86 2421.36C2503.82 2419.99 2570.28 2418.69 2633.6 2416.57C2642.26 2416.28 2631.11 2414.95 2643.61 2414.51C2702.25 2412.44 2766.52 2410.27 2823.64 2408.92C2837.76 2408.6 2828.96 2410.1 2832.03 2410.34C2850.9 2411.75 2877.24 2407.66 2881.69 2407.43C2986.18 2401.86 3066.24 2401.22 3172.87 2394.86C3178.55 2394.52 3223.1 2389.07 3243.19 2390.89C3244.65 2391 3264.27 2392.92 3281.71 2390.04C3282.78 2389.86 3270.38 2389.01 3291.91 2388.05C3313.19 2387.11 3347.53 2384.3 3377.29 2384.29C3386.42 2384.3 3408.89 2385.95 3436.47 2382.05C3438.3 2381.79 3481.1 2374.06 3496.25 2376.7C3498.7 2377.14 3496.86 2381.09 3529.46 2377.08C3535.89 2376.29 3524.19 2376.19 3541.04 2374.58C3554.85 2373.24 3571.83 2372.22 3588.58 2370.98C3603.29 2369.9 3617.3 2368.73 3631.84 2366.98C3637.2 2366.32 3660.47 2362.16 3679.3 2362.86C3682.28 2362.97 3676.79 2364.61 3686.7 2364.09C3733.44 2361.63 3783.11 2357.55 3830.59 2354.99C3847.7 2354.04 3838.73 2356.77 3856.66 2355.94C3874.03 2355.15 3909.79 2352.64 3927.11 2348.91C3935.9 2347.04 3935.16 2345.98 3935.68 2344.93C3935.9 2343.77 3938.54 2342.96 3948.63 2339.58C3950.6 2338.83 3952.07 2338.03 3952.6 2337.6C3952.88 2337.39 3952.87 2337.33 3952.77 2337.44C3952.67 2337.53 3952.53 2337.77 3952.53 2337.75C3983.69 2235.11 3994.31 2117.1 4013.88 2005.31C4014.79 1999.58 4015.05 1997.19 4015.12 1995.73C4015.23 1992.81 4014.58 1993.6 4017.26 1976.13C4031.85 1880.54 4053.9 1714.55 4069.24 1631.59C4069.43 1630.53 4069.62 1629.52 4069.8 1628.55C4081.19 1567.82 4070.13 1648.53 4078.73 1598.54C4082.98 1574.02 4083.45 1546.9 4084.24 1540.97C4092.09 1483.03 4099.09 1443.43 4102.33 1391.24C4102.96 1380.49 4100.71 1390.96 4101.25 1381.75C4101.4 1378.95 4101.57 1376.1 4101.73 1373.21C4103.34 1344.54 4104.95 1314.67 4105.47 1287.31C4105.71 1273.8 4104.48 1276.27 4104.78 1263.85C4105.44 1234.11 4106.01 1207.81 4106.87 1178.78C4106.94 1176.15 4108.57 1193.96 4108.42 1171.93C4108.17 1141.57 4108.17 1104.91 4106 1069.55C4105.61 1063.34 4105.17 1057.29 4104.64 1051.26C4103.5 1039.23 4101.05 1038.9 4100.46 1013.1C4100.19 1007.75 4104.59 1014.07 4097.8 984.782C4097.06 979.707 4084.09 931.408 4079.27 907.02C4078.2 900.603 4076.08 883.644 4071.35 869.918C4070.69 868.05 4071.69 876.049 4067.94 864.549C4063.61 851.342 4059.1 837.971 4054.47 824.472C4044.9 796.63 4034.85 768.383 4024.54 740.546C4020.46 729.536 4024.98 746.529 4018.91 730.058C4002.24 684.863 3981.88 628.168 3966.28 583.582C3960.54 567.142 3965.79 578.045 3965.48 576.807C3960.63 556.901 3953.79 546.547 3951.36 540.241C3936.24 500.94 3926.94 470.246 3914.19 433.505C3910.67 423.316 3911.76 431.009 3910.96 429.015C3902.81 408.387 3910.39 423.207 3906.28 409.849C3906.21 409.629 3906.15 409.41 3906.08 409.19C3894.59 371.695 3881.74 330.141 3870.95 292.036C3866.98 277.983 3869.78 294.261 3866.25 281.598C3852.7 232.935 3840.67 182.262 3831.15 132.265C3825.99 105.379 3821.35 78.4843 3817.68 52.1737C3815.69 38.1546 3818.29 46.7684 3818.13 43.822C3817.98 41.2194 3817.73 38.4974 3817.39 35.7763C3817.25 34.5877 3817.17 34.3944 3817.41 34.9677C3817.64 35.5514 3818.34 36.5093 3818.69 36.7896C3819.5 37.4094 3818.38 36.5894 3816.98 36.1884C3814 35.1845 3809.11 34.3937 3805.35 34.0157C3797.11 33.1484 3789.95 33.1151 3786.92 32.9341C3756.44 31.6164 3744.58 30.3356 3717.21 29.634C3582.79 27.3197 3416.32 28.491 3289.42 29.0817C3274.49 29.1714 3259.46 29.2639 3244.3 29.3606C3100.11 30.2856 2980.04 30.9765 2837.03 33.3363C2826.99 33.5016 2837.15 35.0268 2828.48 35.1911C2716.63 37.2388 2606.39 38.3093 2494.36 40.6102C2485.22 40.7954 2498.43 42.1678 2483.75 42.5187C2453.65 43.2494 2415.01 43.7985 2384.56 43.7976C2369.64 43.8014 2389.63 42.1072 2374.6 42.1392C2339.47 42.2129 2302.17 42.7268 2266.12 43.5928C2250.79 43.9647 2273.92 45.1952 2254.04 45.5515C2118.67 48.0143 1985.68 50.629 1848.8 50.9891C1839.39 51.014 1831.07 47.8646 1811.15 48.8571C1809.67 49.7995 1809.77 50.8747 1809.13 51.8648C1611.98 55.9571 1416.79 58.4587 1219.14 62.091C1210.86 62.2436 1225.18 63.7153 1209.18 64.0192C1123.71 65.6457 1040.41 67.6788 954.03 68.139C945.745 68.1871 937.537 68.2197 929.405 68.235C919.921 68.2554 924.724 65.0829 897.095 66.1038C891.543 66.2997 850.653 67.5368 839.091 68.4408C837.605 68.5718 845.378 69.8488 831.687 70.1696C753.01 71.993 670.634 73.3816 591.839 74.2473C579.327 74.3803 592.576 72.5577 583.723 72.6383C519.239 73.2687 450.196 76.0074 388.763 76.3755C347.877 76.6658 362.731 73.5771 340.991 71.7271C337.868 71.4418 312.629 72.4577 311.248 71.0599C307.694 67.4263 319.741 62.6619 314.543 58.8557C313.477 57.9557 279.424 60.9215 299.446 57.6181C300.841 57.343 325.696 55.407 331.655 54.5051C335.806 53.8475 328.09 52.6059 336.812 51.6363C345.369 50.6809 354.907 51.6397 369.212 50.4506C383.758 49.2576 377.291 47.6802 405.784 46.6773ZM1950.38 2438.11C1973.01 2439.43 1976.27 2434.03 1951.85 2435.47C1950.67 2435.55 1949.21 2438.04 1950.38 2438.11ZM33.6717 1330.34C28.2638 1359.47 29.7974 1379.88 33.6728 1359.38C37.573 1338.85 35.3222 1321.49 33.6717 1330.34ZM68.5618 1026.42C62.0289 1060.32 68.879 1066.72 72.3349 1029.94C72.541 1027.8 68.9445 1024.44 68.5618 1026.42ZM441.873 68.0234C441.822 67.9513 423.131 68.3664 422.921 68.445C413.256 70.4067 449.734 69.5964 441.873 68.0234ZM118.31 727.125C114.928 737.365 109.721 767.924 113.725 755.144C116.892 744.885 122.48 714.272 118.31 727.125ZM3127.72 2410.91C3128.09 2410.98 3141.1 2410.44 3140.81 2410C3139.88 2408.59 3121.76 2409.84 3127.72 2410.91ZM213.237 220.804C189.68 292.825 176.96 338.222 195.981 256.824C199.854 242.229 189.968 288.879 195.178 270.372C202.634 244.098 206.017 223.973 216.066 201.214L216.009 201.349C218.558 194.893 221.4 188.179 224.743 181.008C226.349 177.568 222.728 190.464 219.116 202.579C219.114 202.584 219.107 202.6 219.104 202.605C216.109 211.002 213.839 219.211 213.199 220.934C213.212 220.891 213.224 220.848 213.237 220.804ZM1963.44 2444.49C1963.88 2444.56 1981.96 2444.5 1982.4 2444.43C1992.18 2442.65 1955.76 2442.77 1963.44 2444.49ZM3890.3 2367.55C3891.11 2367.84 3933.32 2363.18 3934.56 2362.33C3955.84 2356.92 3871.54 2367.02 3890.3 2367.55ZM743.214 2424.12C723.385 2424.8 699.709 2423.61 684.123 2420.39C703.757 2421.82 723.493 2422.97 743.214 2424.12Z" fill="black"/>
<path d="M448.186 1118.04C467.088 1117.45 492.04 1117.79 511.158 1118.35C517.033 1118.53 514.029 1119.5 518.127 1119.67C526.283 1119.98 533.859 1119.47 541.566 1119.86C544.195 1119.99 540.928 1121.52 543.694 1121.63C558.733 1122.2 573.299 1121.72 588.398 1121.94C596.748 1122.05 604.198 1122.16 612.548 1122.25C679.434 1123.04 746.24 1123.11 814.344 1123.25C839.543 1123.3 870.062 1124.45 896.095 1123.67C899.123 1123.57 897.308 1122.26 897.883 1122.14C906.92 1120.4 903.931 1123.1 909.859 1123.42C933.315 1124.65 959.448 1124.58 982.014 1123.89C991.622 1123.6 981.965 1121.04 991.656 1122.44C992.329 1122.54 989.9 1123.96 992.538 1124.09C998.524 1124.39 1009.85 1124.05 1014.48 1124.12C1023.41 1124.27 1024.89 1124.25 1033.33 1124.2C1044.87 1124.14 1058.62 1124.73 1070.99 1124.31C1073.62 1124.22 1070.12 1122.8 1074.32 1122.52C1078.52 1122.24 1089.73 1122.28 1093.48 1122.58C1097.24 1122.89 1095.65 1124.04 1096.32 1124.3C1101.79 1126.45 1114.72 1123.3 1116.37 1123.21C1146.65 1121.67 1172.58 1123.18 1201.06 1122.92C1222.65 1122.72 1245.73 1121.93 1266.26 1121.8C1290.55 1121.66 1311.57 1122.23 1335.24 1121.83C1337.76 1121.79 1334.79 1120.13 1337.87 1120.08C1355.4 1119.77 1373.63 1119.57 1391.05 1119.57C1406.02 1119.56 1420.32 1119.69 1435.14 1120C1438.39 1120.07 1434.23 1121.62 1437.47 1121.78C1457.41 1122.72 1488.66 1125.15 1500.45 1118.43C1513.98 1118.44 1530.28 1118.37 1542.35 1119.4C1549.98 1120.06 1542.6 1121.86 1552.14 1120.94C1554.25 1120.73 1551.48 1119.38 1554.63 1119.18C1568.21 1118.32 1582.95 1118.37 1596.42 1117.17C1599.12 1116.93 1598.31 1115.68 1599.07 1115.43C1605.47 1113.35 1616.45 1115.99 1618.78 1116.12C1633.25 1116.86 1644.5 1116.14 1657.14 1115.63C1660.26 1115.5 1663.43 1115.38 1666.75 1115.3C1670.66 1115.2 1665.99 1113.62 1669.75 1113.46C1689.21 1112.69 1709.42 1112.61 1728.48 1113.39C1732.72 1113.56 1728.82 1115.02 1730.84 1115.18C1739.76 1115.87 1741.75 1113.13 1750.31 1113.79C1752.11 1113.93 1751.09 1115.17 1751.42 1115.31C1756.55 1117.51 1761.05 1114.51 1762.37 1114.46C1779.16 1113.75 1789.8 1117.14 1805.99 1117.04C1807.92 1117.02 1803.62 1115.35 1809.02 1115.4C1845.29 1115.78 1883.49 1117.32 1919.3 1119.53C1924.92 1119.87 1920.88 1120.95 1921.23 1121.11C1926.88 1123.54 1930.61 1120.58 1932.45 1120.51C1946.76 1120.05 1960.15 1122.96 1969.93 1119.55C1983.89 1120.18 1997.42 1120.62 2011.38 1120.97C2057.94 1122.14 2104.67 1121.88 2151.13 1124.68C2151.89 1124.72 2150.51 1126.22 2152.04 1126.3C2170.54 1127.25 2166.85 1124.88 2179.11 1122.07C2182.2 1121.36 2191.45 1124.86 2192.29 1125.11C2195.3 1126.06 2192.17 1128.29 2193.17 1128.48C2201.53 1129.93 2200.18 1122.5 2211.4 1122.53C2211.75 1122.55 2210.27 1123.91 2211.22 1124.05C2214.14 1124.48 2217.06 1123.95 2219.94 1124.42C2226.48 1125.53 2228.79 1129.14 2238.85 1127.06C2240.12 1126.79 2238.19 1122.58 2248.21 1122.8C2252.21 1122.89 2269.91 1122.84 2274.87 1123.12C2279.83 1123.39 2276.43 1124.75 2276.78 1124.81C2290.13 1126.61 2285.07 1127.35 2291.75 1130.01C2298.44 1132.66 2296.59 1126.35 2299.32 1125.65C2302.05 1124.95 2311.84 1126.43 2314.25 1126.95C2316.65 1127.46 2313.65 1128.32 2315.79 1128.62C2329.97 1130.53 2322.02 1125.49 2326.69 1124.49C2337.69 1122.12 2346.3 1126.8 2356.36 1127.26C2359.08 1127.38 2356.86 1126.32 2359.28 1126.22C2368.95 1125.84 2374.66 1127.3 2385.66 1125.96C2387.47 1125.74 2396.26 1122.93 2402.02 1125C2402.83 1125.29 2400.52 1126.46 2404.63 1126.72C2410.77 1127.11 2421.78 1127.37 2428.39 1126.98C2433.24 1126.7 2427.68 1124.77 2433.78 1125.37C2436.48 1125.64 2431.47 1126.76 2436.55 1127.17C2441.71 1127.58 2454.58 1127.54 2459.6 1127.51C2464.56 1127.47 2461.84 1126.01 2462.24 1125.91C2464.69 1125.35 2474.07 1124.66 2474.93 1124.66C2514.11 1124.55 2550.3 1126.73 2588.05 1126.71C2591.18 1126.71 2594.25 1126.69 2597.28 1126.66C2600.46 1126.63 2598.35 1125.07 2598.84 1125.05C2609.85 1124.51 2601.16 1128.51 2608.87 1129.96C2607.86 1126.83 2612.12 1127.43 2620.11 1127.18C2623.86 1127.05 2621.83 1125.82 2622.18 1125.7C2627.62 1123.93 2631.63 1126.35 2632.59 1126.85C2636.24 1128.67 2640.22 1126.62 2642.76 1127.84C2645.25 1129.06 2639.49 1130.74 2646.91 1130.81C2648.99 1129.73 2643.58 1126.73 2649.15 1126.34C2670.61 1124.82 2710.44 1127.89 2727.6 1128.55C2744.73 1129.18 2750.27 1129.12 2760.25 1129.76C2778.25 1130.91 2771.68 1128.59 2782.93 1127.85C2794.13 1127.1 2788.61 1132.31 2790.2 1133.49C2791.76 1134.66 2793.48 1133.52 2795.45 1134.19C2797.41 1134.86 2793.11 1135.55 2797.76 1135.88C2802.36 1136.21 2815.02 1134.41 2816.75 1133.24C2820.24 1130.77 2814.52 1128.01 2826.82 1129.15C2827.51 1129.22 2825.24 1130.58 2827.89 1130.77C2849.31 1132.19 2871.4 1132.52 2892.93 1133.68C2893.02 1133.68 2893.1 1133.69 2893.18 1133.7C2895.67 1133.93 2893.28 1135.38 2894.9 1135.48C2912.72 1136.64 2906.33 1133.95 2916.14 1131.11C2913.9 1134.98 2919.31 1137.4 2932.86 1137.52C2941.04 1137.59 2939.55 1135.88 2944.85 1134.72C2946.43 1134.37 2952.28 1135.57 2953.26 1134.77C2956.71 1132.19 2951.23 1129.24 2965.26 1130.48C2965.88 1130.54 2963.9 1131.95 2966.04 1132.05C2979.6 1132.68 2981.36 1129.97 2996.11 1129.7C3007.67 1129.49 3028.3 1131.23 3041.48 1131.53C3041.16 1135.9 3053.72 1134.93 3058.72 1131.93C3067.27 1132.08 3076.52 1131.93 3084.8 1132.36C3087.65 1132.5 3085.78 1133.76 3086.14 1133.9C3091.68 1136.05 3095.35 1133.13 3097.21 1133.02C3117.26 1131.93 3133.55 1134.17 3152.67 1132C3153.35 1131.93 3154.45 1128.89 3159.56 1131.11C3159.89 1131.26 3153.58 1132.64 3162.57 1132.75C3171.56 1132.86 3188.52 1134.48 3200.99 1133.06C3204.01 1132.72 3211.67 1130.26 3217.79 1132.17C3218.61 1132.43 3217.72 1133.3 3218.89 1133.79C3222.69 1135.32 3224.8 1132.26 3229.28 1134.85C3233.76 1137.45 3243.11 1139.39 3255.67 1137.57C3256.07 1137.52 3259.03 1135.08 3263.01 1135.11C3269.36 1135.16 3278.27 1135.65 3284.92 1135.61C3288.08 1135.6 3286.05 1134.09 3286.6 1134.06C3307.87 1133.16 3322.89 1134.45 3345.7 1134.94C3349.97 1135.03 3361.75 1132.92 3369.98 1134.5C3378.89 1136.23 3369.66 1143.69 3390.16 1141.81C3398.32 1141.05 3408.82 1131.58 3423.49 1136.34C3428.04 1136.11 3432.43 1135.98 3436.67 1135.9C3436.67 1135.9 3436.69 1135.9 3436.7 1135.9C3460.43 1134.83 3483.24 1135.51 3507.41 1133.09C3508.7 1132.96 3512.59 1130.18 3515.71 1130.09C3520.26 1129.96 3522.71 1131.09 3525.91 1131.04C3539.45 1130.86 3551.77 1129.29 3564.74 1128.92C3569.71 1128.77 3568.01 1130.11 3573.87 1129.93C3579.85 1129.76 3583.61 1127.93 3591.63 1128.41C3597.67 1128.77 3603.85 1131.94 3611.83 1132.02C3611.95 1128.65 3617.49 1128.5 3627.23 1127.26C3629.09 1127.02 3627.05 1125.92 3627.92 1125.74C3631.41 1125.01 3634.95 1125.86 3638.27 1125.09C3639.09 1124.91 3639.1 1123.76 3639.78 1123.54C3645.59 1121.65 3655.13 1123.97 3656.85 1124.38C3663.16 1125.93 3666.09 1124.37 3670.92 1124.95C3675.77 1125.54 3668.57 1126.51 3674.2 1126.82C3685.83 1127.47 3700.83 1127.26 3712.63 1127.64C3717.34 1127.78 3714.17 1126.16 3714.84 1126.14C3722.8 1126.05 3730.74 1127.46 3736.44 1126.58C3737.74 1126.37 3738.94 1126.02 3739.98 1125.51C3746.36 1133.71 3745.9 1125.09 3759.76 1127.04C3760.86 1127.19 3762.18 1130.96 3757.93 1131.41C3753.67 1131.85 3747.28 1130.48 3741.35 1131.04C3740.67 1131.11 3738.38 1131.87 3736.08 1132.63C3736.07 1132.63 3736.06 1132.63 3736.06 1132.63C3733.67 1133.44 3731.27 1134.28 3730.71 1134.36C3722.27 1135.59 3721.3 1130.01 3720.86 1129.68C3715.91 1126.16 3706.09 1129.72 3703.57 1129.96C3691.89 1131 3682.04 1130.31 3672.29 1131.33C3665.89 1131.99 3665.35 1135.67 3660.37 1135.67C3643.74 1135.73 3637.73 1130.85 3622.14 1135.85C3618.85 1136.92 3622.34 1140.78 3610.15 1138.11C3609.38 1137.94 3600.35 1135.42 3595.16 1137.45C3594.51 1137.71 3594.56 1138.87 3593.73 1139C3588.11 1139.86 3584.09 1139.1 3577.91 1139.8C3571.59 1140.51 3564.03 1141.49 3556.97 1141.39C3552.61 1141.33 3547 1139.39 3544.93 1138.95C3538.95 1137.66 3532.92 1140.42 3529.18 1138.72C3525.43 1137.01 3532.44 1133.89 3522.85 1133.08C3522.62 1136.12 3521.94 1139.26 3521.5 1142.32C3500.57 1143.06 3479.89 1142.9 3458.87 1143.82C3456.24 1143.93 3458.99 1145.46 3456.17 1145.63C3449.5 1146.02 3443.51 1145.94 3437.06 1145.96C3437 1145.96 3436.82 1145.97 3436.76 1145.97C3432 1145.84 3426.86 1145.78 3421.51 1146.02C3412.11 1146.46 3401.7 1148.26 3391.76 1148.75C3385.74 1145.33 3371.03 1146.59 3360.31 1146.33C3356.6 1146.24 3356.84 1145.31 3354.18 1145.02C3344.1 1143.95 3348.8 1146.99 3346.06 1147.48C3334.39 1149.59 3333.18 1142.67 3319.36 1142.89C3318.62 1142.9 3309.57 1146.62 3308.37 1146.86C3300.51 1148.38 3307.07 1145.58 3302.14 1145.32C3293.03 1144.85 3286.91 1143.98 3276.26 1145.09C3273.2 1145.42 3265.83 1147.74 3259.8 1145.97C3259.01 1145.74 3259.45 1144.52 3258.81 1144.45C3247.38 1143.28 3247.07 1147.11 3240.49 1148.42C3233.96 1149.73 3223.82 1147.1 3221.74 1146.34C3216.35 1144.37 3225.88 1145.49 3226.18 1145.29C3229.62 1142.98 3222.19 1143.39 3216.57 1143.2C3215.76 1139.44 3207.86 1139.68 3210.73 1143.02C3211.05 1143.39 3215.44 1143.03 3216.57 1143.2C3211.64 1146.9 3202.93 1147.38 3193.37 1143.93C3188.88 1142.32 3193.12 1140.44 3179.5 1141.13C3173.32 1141.44 3175.7 1144.03 3170.25 1144.74C3157.78 1146.35 3141.57 1143.93 3128.74 1144.3C3124.08 1144.43 3128.62 1145.85 3125.43 1145.99C3116.94 1146.37 3109.54 1145.3 3101 1145.83C3100.23 1145.88 3102.11 1147.37 3099.47 1147.38C3079.44 1147.52 3062.02 1146.54 3041.09 1146.45C3031.03 1146.41 3012.87 1147.17 3002.46 1146.96C2984.29 1146.62 2961.97 1144.35 2946.49 1144.78C2936.33 1145.05 2938.65 1146.55 2934.28 1147.53C2925.81 1149.43 2911.06 1145.81 2909.12 1145.25C2909.03 1145.23 2917.73 1144.95 2913.09 1144.15C2910.41 1142.54 2909.22 1145.24 2909.12 1145.25C2908.35 1145 2899.23 1144.68 2893.08 1144.6C2890.27 1144.56 2887.98 1144.57 2886.95 1144.65C2885.07 1144.78 2886.1 1146.2 2885.13 1146.24C2862.05 1147.27 2838.53 1147.32 2815.05 1146.24C2814.63 1146.21 2815.29 1144.65 2814.3 1144.58C2800.66 1143.64 2791.9 1145.38 2780.62 1146.27C2769.33 1147.16 2760.45 1146.57 2753.84 1143.71C2745.35 1143.85 2733.23 1142.37 2726.26 1141.48C2719.24 1140.6 2718.25 1143.64 2717.62 1143.68C2698.36 1145.2 2687.34 1143.23 2667.45 1142.62C2657.96 1142.33 2639.13 1142.51 2628.95 1142.73C2620.93 1142.91 2615.84 1142.13 2608.54 1142.52C2607.53 1142.57 2608.53 1143.94 2608.22 1143.99C2599.81 1145.54 2603.86 1142.25 2602.12 1141.64C2597.45 1139.94 2594.17 1138.85 2587.95 1138.84C2586.11 1138.83 2583.99 1138.94 2581.45 1139.16C2579 1139.37 2571.69 1144.12 2567.29 1144.37C2561.46 1144.69 2563.64 1142.99 2557.49 1143.37C2556.97 1143.4 2557.09 1144.46 2553.35 1144.4C2535.8 1144.1 2516.72 1143.43 2498.56 1143.5C2496.06 1143.5 2499.26 1145.19 2495.65 1145.23C2478.86 1145.4 2460.23 1145.31 2443.9 1144.52C2439.85 1144.32 2442.39 1143.14 2441.51 1142.79C2436.04 1140.67 2428.51 1143.74 2427.23 1143.8C2397.14 1145.27 2374.12 1142.49 2343.45 1143.81C2341.77 1143.89 2328.95 1147.18 2323.2 1144.35C2322.81 1144.16 2317.14 1141.27 2312.13 1143.24C2311.81 1143.37 2315.35 1144.86 2309.18 1144.7C2303.02 1144.55 2293.08 1145.54 2284.61 1143.89C2281.93 1143.37 2275.58 1140.48 2267.57 1142.77C2267.05 1142.93 2254.69 1148.12 2250.27 1144.52C2249.56 1143.93 2250.3 1140.13 2240.77 1142.06C2238.94 1142.44 2242.26 1143.29 2237.44 1143.81C2230.03 1144.61 2220.33 1143.57 2211.22 1145.24C2209.62 1145.53 2202.95 1148.09 2197.52 1146.12C2196.68 1145.81 2198.29 1144.54 2195.43 1144.39C2181.88 1143.67 2167.73 1144.45 2153.92 1143.5C2149.04 1143.17 2151.54 1141.13 2146.49 1140.55C2141.46 1139.97 2131.11 1139.38 2125.87 1140.28C2120.53 1141.17 2126.33 1144.48 2118.32 1144.69C2083.66 1145.55 2049.47 1143.26 2014.67 1142.24C2011.48 1142.15 2011.96 1142.61 2010.89 1142.93C2010.24 1143.12 2009.04 1143.26 2006.21 1143.21C1978.39 1142.68 1930.18 1142.54 1906.14 1139.4C1886.88 1136.89 1911.16 1136.03 1896.5 1134.83C1889.26 1134.25 1881.58 1137.84 1879.79 1137.91C1862.93 1138.67 1851.31 1136.67 1836.16 1136.8C1833.01 1136.83 1836.06 1138.45 1833.38 1138.46C1824.38 1138.5 1814.73 1137.58 1806.13 1137.52C1802.21 1137.49 1802.9 1138.68 1799.33 1138.52C1790.79 1138.14 1783.21 1137.5 1774.92 1136.27C1774.15 1136.16 1779.33 1134.77 1772.97 1134.62C1762.74 1134.38 1750.04 1133.15 1738.26 1134.22C1734.75 1134.55 1734.62 1137.23 1727.12 1135.37C1725.55 1134.98 1727.55 1131.74 1718.82 1134.56C1717.34 1135.01 1702.73 1138.87 1695.51 1136.56C1693.61 1135.95 1688.73 1133.38 1684.53 1133.88C1683.97 1133.96 1686.27 1135.36 1682.8 1135.57C1674.65 1136.05 1666.27 1136.3 1657.84 1136.7C1653.63 1136.91 1649.43 1137.15 1645.25 1137.47C1641.89 1137.74 1646.95 1139.02 1641.96 1139.37C1628.22 1140.35 1610.77 1140.72 1597.17 1140.7C1592.1 1140.69 1595.56 1139.34 1595.19 1139.21C1589.3 1137.22 1585.85 1140.28 1583.96 1140.51C1571.87 1141.91 1562.64 1140.76 1551.51 1141.4C1548.43 1141.57 1550.65 1142.93 1550.04 1143.07C1543.58 1144.45 1548.32 1141.81 1544.35 1141.62C1532.99 1141.09 1520.56 1141.47 1509.19 1141.86C1505.01 1142.01 1509.76 1143.56 1505.98 1143.67C1483.56 1144.37 1460.8 1144.58 1439.06 1144C1435.01 1143.88 1437.54 1142.59 1436.69 1142.31C1430.73 1140.39 1422.24 1143.25 1420.29 1143.53C1411.26 1144.85 1407.8 1143.78 1399.91 1144.09C1397.14 1144.2 1394.29 1144.3 1391.36 1144.39C1354.58 1145.59 1310.55 1145.39 1276.73 1145.31C1229.12 1145.19 1192.06 1144.33 1146.69 1145.03C1143.8 1145.08 1146.73 1146.73 1144.24 1146.78C1112.11 1147.46 1080.46 1147.07 1048.26 1147.81C1045.62 1147.87 1049.44 1149.42 1045.2 1149.57C1036.52 1149.88 1025.48 1149.88 1016.69 1149.44C1012.4 1149.23 1018.14 1147.83 1013.82 1147.64C1003.77 1147.21 992.989 1147.18 982.662 1147.51C978.269 1147.66 984.91 1149.23 979.2 1149.29C940.291 1149.75 902.077 1150.31 862.778 1148.49C860.068 1148.36 857.656 1145.08 851.921 1145.76C851.495 1146.67 851.526 1147.75 851.344 1148.73C794.811 1149.66 738.594 1148.9 681.812 1149.11C679.422 1149.12 683.56 1150.84 678.94 1150.86C656.666 1150.99 635.073 1151.46 612.737 1150.74C607.949 1150.59 603.248 1150.38 598.625 1150.12C595.938 1149.96 597.4 1146.88 589.22 1147.4C587.735 1147.49 575.87 1147.98 572.602 1148.67C572.179 1148.77 574.393 1150.2 570.495 1150.26C547.958 1150.63 524.044 1150.46 501.672 1149.73C497.925 1149.61 501.904 1148.06 499.236 1147.96C480.815 1147.27 460.698 1148.56 443.227 1147.28C431.323 1146.42 435.77 1143.75 429.477 1141.19C428.549 1140.83 421.366 1140.82 420.932 1139.31C419.941 1135.51 423.474 1131.32 421.972 1127.27C421.589 1126.41 412.07 1127.38 417.694 1125.25C418.053 1125.11 425.123 1124.37 426.866 1123.64C428.071 1123.14 425.841 1121.62 428.376 1120.97C430.737 1120.32 433.676 1121.59 437.649 1120.82C441.752 1120.04 439.956 1118.3 448.186 1118.04ZM2694.84 1137.57C2688.4 1135.97 2687.32 1141.34 2694.36 1140.19C2694.7 1140.12 2695.17 1137.65 2694.84 1137.57ZM3479.84 1138.82C3471.35 1136.77 3465.46 1140.49 3471.64 1142.09C3477.78 1143.69 3482.42 1139.44 3479.84 1138.82ZM3567.64 1133.53C3557.54 1132.07 3556.36 1139.76 3566.96 1137.78C3567.57 1137.66 3568.22 1133.61 3567.64 1133.53ZM458.489 1140.27C458.314 1140.2 453.291 1140.16 453.051 1140.23C450.287 1141.96 460.705 1142.03 458.489 1140.27ZM3654.66 1128.37C3651.61 1127.41 3642.69 1128.88 3646.56 1130.05C3649.74 1130.98 3658.54 1129.55 3654.66 1128.37ZM2356.63 1129.89C2356.53 1129.81 2352.77 1129.73 2352.85 1130.19C2353.11 1131.65 2358.33 1131.24 2356.63 1129.89ZM3802.83 1130.3C3780.9 1129.98 3767.7 1123.53 3791.51 1124.39C3795.83 1124.54 3782.2 1126.36 3787.69 1126.95C3797.75 1128.04 3804.43 1124.07 3814.7 1126.2C3816.56 1126.58 3804.08 1130.33 3802.79 1130.31C3802.81 1130.3 3802.82 1130.3 3802.83 1130.3ZM2691.23 1131.03C2691.09 1130.96 2685.89 1130.79 2685.78 1130.86C2682.94 1132.52 2693.4 1132.85 2691.23 1131.03ZM2137.19 1126.07C2136.88 1125.92 2124.88 1125.69 2124.47 1125.83C2118.17 1128.58 2142.51 1129.04 2137.19 1126.07ZM3041.68 1131.65C3047.35 1129.95 3054.21 1129.76 3058.69 1131.93C3053.1 1131.8 3047.34 1131.77 3041.68 1131.65Z" fill="black"/>
<path d="M425.872 1569C445.112 1568.97 470.247 1570.06 489.411 1571.2C495.37 1571.55 492.325 1572.43 496.533 1572.72C499.717 1572.95 502.914 1573.04 506.184 1573.1C510.633 1573.2 515.554 1573.25 520.12 1573.62C522.754 1573.84 519.429 1575.27 522.202 1575.46C537.436 1576.49 551.869 1576.44 567.322 1577.13C643.352 1580.54 718.149 1582.94 795.135 1585.66C820.533 1586.56 851.281 1588.77 877.615 1588.92C880.677 1588.94 878.891 1587.56 879.476 1587.47C888.572 1586.05 885.557 1588.65 891.506 1589.17C909.412 1590.76 928.879 1591.68 947.097 1592.14C953.115 1592.29 958.667 1592.39 964.277 1592.46C973.864 1592.56 964.309 1589.6 974.049 1591.41C974.721 1591.53 972.22 1592.86 974.865 1593.1C980.823 1593.64 992.333 1593.78 996.949 1594.05C1005.96 1594.58 1007.42 1594.62 1015.92 1594.91C1027.54 1595.32 1041.35 1596.44 1053.83 1596.43C1056.46 1596.43 1053.01 1594.89 1057.21 1594.75C1061.47 1594.62 1072.71 1594.99 1076.48 1595.41C1080.22 1595.82 1078.61 1596.92 1079.27 1597.2C1084.82 1599.51 1097.9 1596.69 1099.49 1596.64C1130.15 1595.84 1156.08 1597.79 1184.85 1597.95C1206.78 1598.07 1229.73 1597.57 1250.47 1597.68C1275.27 1597.82 1296 1598.61 1320.03 1598.46C1322.54 1598.45 1319.6 1596.75 1322.66 1596.73C1355.38 1596.51 1388.54 1596.63 1420.81 1597.69C1424.14 1597.8 1419.85 1599.3 1423.18 1599.5C1435.24 1600.18 1450.26 1601.44 1464.24 1601.05C1473.48 1600.78 1481.83 1599.68 1486.8 1596.97C1500.83 1597.18 1516.67 1597.38 1529.1 1598.64C1537.05 1599.45 1529.32 1601.11 1539.13 1600.37C1541.25 1600.21 1538.48 1598.8 1541.67 1598.66C1555.04 1598.09 1570.39 1598.48 1583.89 1597.69C1586.61 1597.53 1585.86 1596.25 1586.63 1596.02C1593.09 1594.13 1604.05 1597.16 1606.47 1597.37C1625.06 1598.95 1637.67 1598.23 1654.85 1598.19C1658.81 1598.18 1654.11 1596.49 1657.93 1596.42C1677.48 1596.08 1697.83 1596.13 1716.99 1596.79C1721.22 1596.94 1717.34 1598.42 1719.36 1598.56C1728.29 1599.19 1730.27 1596.43 1738.92 1596.98C1740.74 1597.09 1739.72 1598.35 1740.06 1598.48C1745.28 1600.61 1749.82 1597.53 1751.17 1597.46C1768.04 1596.45 1778.68 1599.57 1795.13 1599.03C1797.1 1598.96 1792.65 1597.41 1798.18 1597.31C1834.56 1596.68 1873.29 1596.89 1909.52 1597.94C1915.12 1598.1 1911.13 1599.31 1911.48 1599.45C1917.24 1601.7 1920.95 1598.62 1922.78 1598.49C1937.2 1597.57 1950.92 1600.06 1960.61 1596.35C2021.93 1597.24 2082.85 1594.8 2143.63 1597.67C2144.4 1597.7 2143.02 1599.22 2144.57 1599.28C2163.16 1600 2159.56 1597.68 2171.81 1594.73C2174.9 1593.99 2184.33 1597.39 2185.17 1597.63C2188.21 1598.55 2185.07 1600.81 2186.09 1600.99C2194.51 1602.35 2193.09 1594.94 2204.43 1594.86C2204.78 1594.87 2203.3 1596.25 2204.26 1596.38C2207.22 1596.78 2210.15 1596.22 2213.04 1596.67C2219.67 1597.71 2222.05 1601.3 2232.15 1599.13C2233.43 1598.85 2231.45 1594.66 2241.57 1594.79C2245.61 1594.84 2263.45 1594.64 2268.48 1594.88C2273.49 1595.12 2270.06 1596.5 2270.42 1596.55C2283.91 1598.25 2278.8 1599.03 2285.57 1601.64C2292.34 1604.24 2290.43 1597.94 2293.17 1597.22C2295.92 1596.5 2305.8 1597.91 2308.23 1598.4C2310.65 1598.9 2307.64 1599.78 2309.79 1600.06C2324.12 1601.86 2316.06 1596.88 2320.77 1595.85C2331.88 1593.4 2340.57 1598.01 2350.74 1598.4C2353.49 1598.5 2351.24 1597.45 2353.68 1597.34C2363.36 1596.88 2369.23 1598.3 2380.29 1596.88C2382.09 1596.65 2391.01 1593.77 2396.8 1595.79C2397.62 1596.09 2395.3 1597.27 2399.44 1597.5C2405.63 1597.85 2416.67 1598.02 2423.38 1597.58C2428.3 1597.25 2422.65 1595.37 2428.84 1595.93C2431.6 1596.17 2426.51 1597.33 2431.68 1597.7C2436.82 1598.07 2449.93 1597.92 2454.9 1597.85C2459.86 1597.77 2457.14 1596.33 2457.54 1596.23C2459.97 1595.65 2469.45 1594.87 2470.33 1594.87C2513.1 1594.37 2552.11 1596.52 2593.79 1595.37C2597.04 1595.28 2594.86 1593.76 2595.36 1593.74C2606.47 1593 2597.74 1597.16 2605.51 1598.46C2604.36 1595.35 2608.94 1595.88 2616.72 1595.48C2620.54 1595.28 2618.45 1594.09 2618.8 1593.96C2624.45 1592.08 2628.39 1594.42 2629.41 1594.9C2633.15 1596.65 2637.19 1594.51 2639.73 1595.68C2642.26 1596.84 2636.47 1598.64 2643.99 1598.56C2646.08 1597.42 2640.48 1594.55 2646.18 1594.03C2667.52 1592.07 2707.81 1594.02 2725.35 1594.11C2742.74 1594.2 2748.13 1593.95 2758.22 1594.26C2776.64 1594.83 2769.87 1592.72 2781.19 1591.63C2792.47 1590.54 2787.02 1595.92 2788.65 1597.05C2790.25 1598.18 2791.97 1596.99 2793.94 1597.6C2795.91 1598.21 2791.68 1599.02 2796.28 1599.22C2800.8 1599.42 2813.88 1597.26 2815.47 1596.05C2818.96 1593.48 2813.19 1590.87 2825.54 1591.7C2826.25 1591.75 2823.97 1593.17 2826.68 1593.28C2847.88 1594.17 2870.76 1594.03 2892.32 1594.77C2895.32 1594.88 2892.65 1596.46 2894.4 1596.54C2912.49 1597.36 2905.98 1594.8 2915.71 1591.79C2913.64 1595.69 2918.71 1598.02 2932.74 1597.9C2941.02 1597.84 2939.57 1596.15 2944.85 1594.91C2946.44 1594.53 2952.18 1595.64 2953.2 1594.83C2955.92 1592.7 2952.96 1590.43 2958.9 1590.16C2960.42 1590.1 2962.47 1590.15 2965.25 1590.34C2965.88 1590.39 2963.89 1591.84 2966.07 1591.9C2980.09 1592.33 2981.51 1589.59 2996.3 1589.1C3008.46 1588.71 3028.56 1590.16 3042.27 1590.28C3042.11 1594.64 3054.38 1593.51 3059.47 1590.44C3068.36 1590.46 3077.66 1590.18 3085.75 1590.5C3088.62 1590.61 3086.76 1591.89 3087.12 1592.03C3092.87 1594.1 3096.61 1591.13 3098.48 1590.99C3118.27 1589.63 3134.91 1591.64 3154.37 1589.21C3155.04 1589.12 3156.13 1586.08 3161.16 1588.22C3161.52 1588.37 3155.2 1589.84 3164.24 1589.82C3173.56 1589.8 3190.64 1591.19 3203 1589.6C3205.93 1589.21 3213.98 1586.63 3219.98 1588.46C3220.79 1588.71 3219.93 1589.59 3221.09 1590.06C3224.73 1591.55 3227.13 1588.44 3231.66 1590.97C3236.12 1593.51 3245.81 1595.3 3258.18 1593.29C3258.6 1593.23 3261.69 1590.75 3265.67 1590.72C3271.82 1590.67 3281.23 1591.01 3287.65 1590.87C3290.93 1590.79 3288.8 1589.33 3289.37 1589.29C3310.93 1588.02 3325.84 1589.06 3349.01 1589.08C3353.21 1589.09 3365.2 1586.73 3373.42 1588.15C3382.42 1589.7 3373.38 1597.33 3393.9 1595.04C3402.15 1594.13 3412.44 1584.47 3427.41 1589.06C3430.79 1588.87 3433.86 1588.72 3437.21 1588.62C3462.36 1587.8 3486.34 1589.39 3512.04 1587.69C3513.33 1587.61 3517.42 1584.96 3520.54 1584.97C3525.04 1585.01 3527.55 1586.22 3530.84 1586.28C3544.44 1586.58 3556.88 1585.48 3570.02 1585.6C3574.99 1585.64 3573.28 1586.91 3579.22 1586.96C3585.11 1587.01 3589.15 1585.33 3597.16 1586.12C3603.29 1586.72 3609.31 1590.11 3617.41 1590.49C3617.69 1587.13 3623.28 1587.19 3633.09 1586.28C3634.99 1586.11 3632.96 1584.94 3633.85 1584.79C3637.49 1584.18 3640.91 1585.15 3644.34 1584.49C3645.18 1584.33 3645.21 1583.18 3645.9 1582.98C3651.76 1581.28 3661.4 1583.86 3663.06 1584.3C3669.45 1586.01 3672.36 1584.51 3677.25 1585.18C3682.13 1585.85 3674.83 1586.69 3680.53 1587.1C3692.27 1587.93 3707.44 1587.74 3719.37 1587.78C3724.16 1587.8 3720.89 1586.26 3721.58 1586.23C3731.42 1585.84 3741.41 1587.46 3746.88 1584.41C3753.74 1592.31 3752.81 1583.64 3766.93 1585.22C3768.04 1585.35 3769.45 1589.08 3765.19 1589.63C3760.91 1590.18 3754.46 1589.01 3748.54 1589.87C3747.14 1590.07 3739.12 1593.57 3738.03 1593.79C3729.44 1595.45 3728.23 1589.86 3727.77 1589.56C3722.66 1586.25 3712.81 1590.03 3710.25 1590.29C3698.42 1591.49 3688.39 1590.71 3678.51 1591.57C3672.03 1592.13 3671.43 1595.79 3666.35 1595.68C3649.5 1595.33 3643.56 1590.24 3627.71 1594.69C3624.3 1595.64 3627.65 1599.63 3615.48 1596.51C3614.7 1596.31 3605.63 1593.46 3600.4 1595.29C3599.74 1595.52 3599.76 1596.69 3598.89 1596.79C3593.07 1597.43 3589.21 1596.52 3582.86 1596.98C3576.59 1597.44 3568.94 1598.13 3561.69 1597.76C3557.32 1597.54 3551.75 1595.4 3549.64 1594.87C3543.78 1593.37 3537.41 1595.91 3533.79 1594.08C3530.11 1592.23 3537.33 1589.36 3527.62 1588.21C3527.27 1591.24 3526.47 1594.35 3525.91 1597.4C3504.87 1597.41 3483.95 1596.58 3462.8 1596.95C3460.19 1597 3462.89 1598.6 3460.05 1598.69C3452.21 1598.96 3444.85 1598.6 3437.37 1598.53C3433.45 1598.5 3429.66 1598.54 3425.49 1598.77C3415.98 1599.32 3405.6 1601.28 3395.65 1601.96C3389.45 1598.65 3374.73 1600.21 3363.96 1600.17C3360.16 1600.16 3360.34 1599.23 3357.71 1598.99C3347.51 1598.13 3352.35 1601.07 3349.62 1601.62C3337.63 1603.96 3336.68 1597.06 3322.5 1597.54C3321.86 1597.56 3312.81 1601.45 3311.49 1601.71C3303.75 1603.37 3310.22 1600.45 3305.27 1600.28C3296.05 1599.96 3289.62 1599.21 3279.2 1600.48C3275.99 1600.86 3268.73 1603.3 3262.6 1601.62C3261.78 1601.41 3262.21 1600.18 3261.56 1600.12C3249.88 1599.13 3249.88 1602.96 3243.07 1604.37C3236.59 1605.78 3226.33 1603.3 3224.08 1602.57C3218.68 1600.68 3228.3 1601.66 3228.65 1601.46C3232.2 1599.1 3224.32 1599.62 3218.94 1599.51C3218.1 1595.76 3210.12 1596.11 3213.07 1599.41C3213.41 1599.77 3217.82 1599.35 3218.94 1599.51C3214.17 1603.27 3205 1603.88 3195.58 1600.57C3191.05 1599.02 3195.23 1597.08 3181.46 1597.96C3175.36 1598.36 3177.77 1600.92 3172.28 1601.7C3159.38 1603.49 3143.14 1601.29 3130.4 1601.83C3125.73 1602.03 3130.31 1603.39 3127.11 1603.57C3118.54 1604.07 3110.86 1603.1 3102.48 1603.75C3101.71 1603.81 3103.62 1605.27 3100.96 1605.32C3080.4 1605.74 3062.76 1604.99 3042.08 1605.2C3031.63 1605.31 3013.83 1606.32 3003.08 1606.27C2988.79 1606.21 2973.51 1605.09 2959.05 1604.85C2954.65 1604.76 2950.46 1604.77 2946.64 1604.94C2936.5 1605.37 2938.71 1606.84 2934.33 1607.89C2925.68 1609.94 2910.96 1606.57 2908.95 1606.04C2908.89 1606.03 2917.55 1605.59 2912.92 1604.88C2910.22 1603.31 2909.04 1606.04 2908.95 1606.04C2907.68 1605.7 2890.08 1605.54 2886.48 1605.85C2884.55 1606.03 2885.65 1607.42 2884.64 1607.49C2861.62 1608.96 2837.75 1609.54 2814.12 1609.09C2813.69 1609.07 2814.31 1607.49 2813.32 1607.45C2799.29 1606.88 2790.8 1608.88 2779.44 1610.12C2768.15 1611.36 2758.84 1611.06 2752.23 1608.42C2743.79 1608.83 2731.52 1607.74 2724.4 1607.08C2717.28 1606.42 2716.29 1609.49 2715.67 1609.55C2696.28 1611.65 2685.27 1609.99 2664.88 1609.89C2655.41 1609.83 2636.51 1610.43 2626.06 1610.85C2617.78 1611.19 2612.89 1610.51 2605.4 1611.03C2604.38 1611.1 2605.42 1612.45 2605.11 1612.51C2596.74 1614.21 2600.74 1610.84 2599.01 1610.26C2592.7 1608.15 2588.81 1607.03 2577.98 1608.13C2575.5 1608.38 2568.16 1613.24 2563.71 1613.55C2557.86 1613.96 2560.06 1612.22 2553.92 1612.69C2553.39 1612.72 2553.51 1613.78 2549.71 1613.77C2532.06 1613.7 2512.66 1613.24 2494.37 1613.48C2491.86 1613.51 2495.1 1615.17 2491.47 1615.24C2474.4 1615.57 2455.79 1615.65 2439.21 1614.99C2435.13 1614.82 2437.68 1613.62 2436.79 1613.28C2431.33 1611.2 2423.61 1614.33 2422.34 1614.4C2392.07 1616.11 2368.69 1613.49 2337.84 1615.04C2336.16 1615.13 2323.21 1618.52 2317.4 1615.74C2316.99 1615.55 2311.25 1612.7 2306.21 1614.71C2305.9 1614.84 2309.47 1616.3 2303.26 1616.2C2297.04 1616.09 2287.04 1617.15 2278.47 1615.58C2275.76 1615.08 2269.34 1612.24 2261.27 1614.6C2260.74 1614.76 2248.32 1620.05 2243.84 1616.49C2243.12 1615.91 2243.85 1612.1 2234.22 1614.12C2232.38 1614.51 2235.73 1615.33 2230.88 1615.89C2223.45 1616.76 2213.6 1615.81 2204.47 1617.57C2202.87 1617.88 2196.1 1620.5 2190.65 1618.58C2189.79 1618.28 2191.4 1617 2188.53 1616.88C2174.85 1616.29 2160.59 1617.24 2146.67 1616.45C2141.75 1616.18 2144.25 1614.11 2139.12 1613.59C2133.99 1613.08 2123.67 1612.62 2118.32 1613.59C2112.97 1614.56 2118.84 1617.79 2110.82 1618.11C2075.87 1619.47 2041.22 1617.78 2006.42 1617.71C2001.26 1617.7 2005.59 1618.85 1997.93 1618.92C1969.74 1619.18 1921.21 1620.57 1896.92 1618.23C1877.26 1616.36 1901.97 1614.7 1886.96 1613.97C1879.72 1613.63 1871.96 1617.47 1870.23 1617.6C1853.37 1618.92 1841.41 1617.3 1826.12 1617.9C1822.97 1618.03 1826.07 1619.55 1823.38 1619.64C1814.17 1619.96 1804.79 1619.32 1795.84 1619.5C1791.87 1619.58 1792.61 1620.75 1788.97 1620.68C1780.26 1620.53 1772.61 1620.07 1764.22 1619.02C1763.45 1618.92 1768.6 1617.43 1762.24 1617.41C1752.04 1617.38 1738.8 1616.37 1726.97 1617.55C1723.44 1617.91 1723.31 1620.59 1715.75 1618.78C1714.16 1618.4 1716.22 1615.16 1707.37 1617.99C1705.85 1618.46 1690.83 1622.3 1683.54 1619.91C1681.61 1619.29 1676.7 1616.67 1672.48 1617.11C1671.91 1617.17 1674.21 1618.61 1670.72 1618.76C1658.45 1619.3 1645.01 1619.21 1632.41 1619.72C1629.03 1619.86 1634.07 1621.33 1629.03 1621.49C1615.29 1621.93 1597.29 1621.63 1583.94 1621.22C1578.98 1621.07 1582.4 1619.82 1582.04 1619.68C1576.24 1617.52 1572.55 1620.49 1570.61 1620.67C1558.28 1621.76 1549.12 1620.41 1538.05 1620.82C1534.89 1620.93 1537.14 1622.33 1536.51 1622.46C1530 1623.71 1534.84 1621.16 1530.72 1620.9C1519.12 1620.15 1506.97 1620.31 1495.3 1620.54C1491.01 1620.62 1495.84 1622.24 1491.99 1622.29C1482.67 1622.44 1473.38 1622.52 1464.31 1622.49C1450.42 1622.46 1437.59 1622.23 1424.56 1621.73C1420.37 1621.57 1423 1620.3 1422.13 1620.02C1416.1 1618.03 1407.52 1620.79 1405.57 1621.06C1396.81 1622.27 1392.97 1621.17 1384.95 1621.39C1345.83 1622.51 1297.77 1621.81 1260.88 1621.31C1212.6 1620.64 1175.54 1619.32 1129.54 1619.13C1126.62 1619.11 1129.54 1620.82 1127.04 1620.83C1094.54 1620.86 1062.65 1619.6 1030.05 1619.09C1027.37 1619.05 1031.17 1620.75 1026.89 1620.73C1018.09 1620.71 1006.97 1620.25 998.114 1619.44C993.795 1619.05 999.621 1617.89 995.304 1617.52C985.127 1616.66 974.374 1616.18 963.95 1616.08C959.526 1616.04 966.156 1617.89 960.385 1617.72C955.562 1617.57 951.125 1617.45 946.282 1617.31C912.001 1616.34 877.903 1615.36 843.083 1612.54C840.355 1612.32 838.112 1608.96 832.299 1609.44C831.837 1610.34 831.831 1611.42 831.614 1612.39C774.501 1611.36 717.963 1608.78 660.716 1607.19C658.287 1607.13 662.439 1608.98 657.741 1608.86C630.673 1608.16 604.335 1608.01 576.764 1605.61C574.044 1605.38 575.453 1602.34 567.364 1602.61C566.016 1602.66 553.66 1602.78 550.613 1603.37C550.17 1603.46 552.409 1604.95 548.412 1604.9C534.368 1604.7 519.829 1604.28 505.465 1603.66C496.376 1603.27 487.67 1602.81 478.903 1602.27C475.253 1602.04 479.228 1600.61 476.559 1600.43C458.093 1599.19 437.697 1599.87 420.045 1598.09C408.145 1596.88 412.716 1594.34 406.391 1591.6C405.56 1591.22 398.148 1591.01 397.816 1589.49C396.907 1585.67 400.565 1581.57 399.173 1577.49C399.036 1576.59 388.617 1577.43 394.825 1575.37C395.29 1575.22 402.47 1574.67 404.24 1573.99C405.491 1573.52 403.298 1571.94 405.825 1571.36C408.382 1570.78 411.059 1572.13 415.222 1571.47C419.374 1570.81 417.598 1569.02 425.872 1569ZM2692.55 1604.11C2686.01 1602.7 2685.09 1608.09 2692.14 1606.74C2692.49 1606.67 2692.89 1604.18 2692.55 1604.11ZM3484.05 1592.55C3475.51 1590.25 3469.67 1593.8 3475.71 1595.57C3481.86 1597.35 3486.63 1593.24 3484.05 1592.55ZM3572.74 1590.31C3562.77 1588.47 3561.25 1596.12 3571.89 1594.53C3572.51 1594.44 3573.33 1590.42 3572.74 1590.31ZM435.674 1591.52C435.557 1591.45 430.334 1591.26 430.166 1591.33C427.311 1592.97 437.879 1593.35 435.674 1591.52ZM3660.77 1588.24C3657.66 1587.21 3648.67 1588.41 3652.55 1589.69C3655.69 1590.72 3664.65 1589.52 3660.77 1588.24ZM2351.03 1601.02C2350.93 1600.95 2347.14 1600.9 2347.22 1601.35C2347.49 1602.81 2352.76 1602.36 2351.03 1601.02ZM3810.41 1588.09C3788.31 1587.8 3774.89 1581.49 3798.97 1582.21C3803.33 1582.33 3789.59 1584.22 3795.13 1584.79C3805.28 1585.82 3812.02 1581.86 3822.39 1583.98C3824.26 1584.37 3811.67 1588.12 3810.37 1588.1C3810.39 1588.09 3810.4 1588.09 3810.41 1588.09ZM2688.74 1597.68C2688.61 1597.61 2683.35 1597.58 2683.22 1597.66C2680.39 1599.39 2690.98 1599.44 2688.74 1597.68ZM2129.58 1599.23C2129.28 1599.08 2117.1 1599.02 2116.71 1599.16C2110.37 1602 2135 1602.13 2129.58 1599.23ZM3042.48 1590.39C3048.24 1588.61 3054.77 1588.33 3059.45 1590.43C3053.7 1590.39 3048.24 1590.43 3042.48 1590.39Z" fill="black"/>
</svg>
