<svg width="685" height="53" viewBox="0 0 685 53" fill="none" xmlns="http://www.w3.org/2000/svg">
<path d="M5.68321 22.4425C9.49642 21.4437 14.6543 21.2854 18.5715 21.4949C19.7969 21.5584 19.3109 22.5799 20.1719 22.6655C21.8113 22.8377 23.2813 22.1877 24.9324 22.4341C25.4728 22.5213 25.0019 24.1002 25.5663 24.1571C28.6777 24.4561 31.5433 23.7303 34.6333 23.693C49.9026 23.5068 64.7651 22.4268 80.1417 21.4231C80.1752 21.4209 80.2088 21.4188 80.2424 21.4167C85.2579 21.0915 91.5806 21.7794 96.7232 20.6186C97.3332 20.4806 96.822 19.2017 96.9278 19.0802C98.569 17.2188 98.2378 19.9485 99.4556 20.1746C104.322 21.0614 109.609 20.6177 114.027 19.634C115.938 19.2083 113.717 16.7941 115.828 18.0576C115.975 18.1426 115.629 19.5958 116.179 19.6887C117.454 19.8934 119.635 19.4101 120.588 19.4221C122.402 19.4549 122.707 19.4085 124.414 19.246C126.695 19.0416 129.546 19.4489 132.003 18.8738C132.521 18.7476 131.677 17.383 132.49 17.0519C133.301 16.7212 135.55 16.6126 136.346 16.8732C137.14 17.134 136.933 18.2963 137.094 18.5413C138.44 20.6105 140.693 17.3231 141.02 17.2143C146.981 15.3184 152.394 16.5161 158.058 15.9501C162.428 15.5099 166.958 14.4923 171.107 14.1705C176.016 13.7962 180.255 14.1786 185.028 13.5952C185.533 13.5352 184.781 11.9003 185.398 11.8236C191.899 11.0157 198.425 10.6024 205.045 11.1596C205.706 11.2172 205 12.7773 205.669 12.9236C209.77 13.7852 216.339 16.1628 218.155 9.49107C220.905 9.50672 224.185 9.48843 226.726 10.5861C228.362 11.2927 226.978 13.0396 228.843 12.1866C229.264 11.9961 228.58 10.6264 229.221 10.448C231.905 9.69941 234.92 9.9124 237.573 8.9571C238.112 8.75948 237.858 7.50171 237.995 7.26014C239.155 5.30005 241.577 8.18544 242.071 8.3695C245.824 9.73585 248.42 8.87157 251.789 8.64735C252.572 8.59602 251.513 6.96206 252.262 6.85139C256.158 6.29964 260.205 6.13621 264.095 6.60524C264.96 6.71373 264.286 8.22673 264.705 8.353C266.553 8.89212 266.738 6.11659 268.502 6.58249C268.873 6.67726 268.761 7.93727 268.838 8.0691C270.03 10.1389 270.705 7.03177 270.966 6.94508C274.271 5.78068 276.65 8.8009 279.869 8.12076C280.254 8.03623 279.265 6.52276 280.355 6.38149C287.617 5.4311 295.36 5.34499 302.66 6.14673C303.794 6.26932 303.068 7.50437 303.148 7.64585C304.443 9.85366 304.994 6.75088 305.353 6.61279C308.189 5.60296 311.039 8.00179 312.783 4.24308C321.752 4.62765 330.602 3.29757 339.501 3.59551C342.826 3.70568 346.138 4.04242 349.467 4.77629C349.624 4.80699 349.416 6.32626 349.728 6.38102C353.478 7.05786 352.657 4.74943 354.984 1.77736C355.572 1.03096 357.597 4.40808 357.772 4.65468C358.419 5.56286 357.885 7.83133 358.096 8.00356C359.837 9.35284 359.252 1.95048 361.522 1.85432C361.593 1.86376 361.352 3.24061 361.547 3.36846C362.156 3.77014 362.72 3.20402 363.316 3.65043C364.683 4.68416 365.292 8.26788 367.225 6.09243C367.471 5.81046 366.917 1.6193 368.954 1.74021C369.767 1.79142 373.335 1.58656 374.342 1.82388C375.348 2.06027 374.713 3.44035 374.786 3.49648C377.536 5.19301 376.549 5.97218 377.99 8.57863C379.429 11.1756 378.838 4.88318 379.364 4.1605C379.892 3.43965 381.914 4.85235 382.414 5.35075C382.914 5.84917 382.34 6.73042 382.779 7.00733C385.687 8.81615 383.925 3.83665 384.834 2.80533C386.99 0.36399 388.869 4.98725 390.909 5.38497C391.461 5.4924 390.981 4.44052 391.467 4.32641C393.385 3.88907 394.602 5.31452 396.774 3.9151C397.129 3.68696 398.839 0.826059 400.046 2.8595C400.217 3.15279 399.784 4.33054 400.615 4.56994C401.849 4.92947 404.093 5.12737 405.411 4.70544C406.385 4.39325 405.214 2.49986 406.463 3.06662C407.017 3.31985 406.029 4.46787 407.068 4.84997C408.105 5.23176 410.699 5.12254 411.706 5.06165C412.704 4.99988 412.125 3.55498 412.204 3.45503C412.68 2.88178 414.579 2.13807 414.748 2.1364C423.252 1.77935 431.154 4.10482 439.427 3.18723C440.078 3.1174 439.625 1.58611 439.724 1.55962C441.943 0.888476 440.238 4.99553 441.806 6.34456C441.545 3.22883 442.469 3.78233 444.024 3.42314C444.773 3.24758 444.352 2.04456 444.419 1.9202C445.528 0.0739013 446.337 2.43492 446.543 2.91747C447.306 4.69253 448.093 2.57838 448.61 3.76516C449.125 4.94309 447.982 6.70713 449.483 6.67072C449.893 5.55055 448.752 2.64346 449.888 2.16027C454.172 0.330267 462.248 2.57009 465.713 2.79725C469.143 3.02233 470.296 2.81461 472.306 3.21435C475.942 3.93888 474.589 1.77627 476.86 0.784388C479.141 -0.206285 478.03 5.11956 478.358 6.26444C478.678 7.4089 479.028 6.23104 479.426 6.86039C479.821 7.48961 478.963 8.26744 479.895 8.50428C480.828 8.74064 483.363 6.70874 483.692 5.51253C484.401 2.97796 483.252 0.313189 485.734 1.25459C485.876 1.31048 485.41 2.70961 485.955 2.8526C490.262 3.9423 494.772 4.03086 499.05 5.01383C499.647 5.15126 499.101 6.70539 499.448 6.80301C503.05 7.82564 501.777 5.18975 503.767 2.28763C503.303 6.16737 504.332 8.55071 507.082 8.59919C508.728 8.62997 508.46 6.93143 509.532 5.74674C509.854 5.38958 510.997 6.56609 511.213 5.7708C511.935 3.17127 510.857 0.240107 513.671 1.43387C513.795 1.49051 513.382 2.91308 513.811 3.00441C516.579 3.60245 516.931 0.879298 519.903 0.587916C522.288 0.359958 526.351 2.08242 529.048 2.39689C528.925 6.76119 531.445 5.80255 532.5 2.81029C534.234 2.96324 536.118 2.82694 537.763 3.27394C538.329 3.42645 537.931 4.68325 538 4.82115C539.05 6.98384 539.873 4.07071 540.25 3.96322C544.317 2.92647 547.582 5.21613 551.439 3.13415C551.579 3.05922 551.876 0.0324158 552.864 2.27028C552.928 2.42444 551.614 3.77404 553.437 3.92323C555.245 4.07226 558.626 5.78073 561.17 4.44077C561.778 4.11792 563.378 1.69674 564.58 3.65315C564.739 3.91868 564.535 4.78331 564.761 5.27353C565.49 6.83586 565.992 3.78301 566.816 6.41061C567.612 9.03741 569.495 11.0401 572.051 9.31661C572.136 9.26682 572.782 6.85492 573.588 6.91697C574.884 7.01836 576.676 7.5784 577.978 7.60244C578.107 7.60465 578.194 7.54112 578.253 7.43879C578.485 7.0476 578.27 6.08788 578.361 6.06877C582.73 5.35772 585.649 6.79721 590.255 7.5396C591.064 7.67736 593.596 5.70779 595.14 7.3919C596.819 9.23553 594.772 16.5696 598.91 14.96C600.584 14.3178 603.014 5.00831 605.834 9.99746C611.62 9.03073 616.876 11.7654 622.708 10.3491C622.977 10.287 623.947 7.71263 624.545 7.78109C625.429 7.88755 625.899 9.14145 626.529 9.25791C629.225 9.7804 631.764 8.88373 634.372 9.21749C635.373 9.34277 634.916 10.5823 636.108 10.7335C637.287 10.8836 638.194 9.27323 639.737 10.1929C640.898 10.8932 641.855 14.385 643.416 14.9051C643.735 11.5552 644.839 11.7096 646.867 10.9821C647.261 10.841 646.948 9.64081 647.139 9.51385C647.909 8.9704 648.513 9.9933 649.243 9.39338C649.426 9.24989 649.527 8.10523 649.68 7.92318C650.977 6.33117 652.679 9.05866 652.976 9.53205C653.653 10.6177 654.185 10.5223 654.691 10.437C655.029 10.3811 655.357 10.3296 655.721 10.6223C656.645 11.3591 655.137 12.101 656.245 12.5844C658.543 13.5848 661.592 13.5593 663.985 13.7043C664.94 13.7553 664.346 12.1973 664.484 12.169C666.462 11.8558 668.416 13.5393 669.576 10.5091C670.77 18.4355 670.778 9.77366 673.549 11.394C673.768 11.5246 674.009 15.264 673.143 15.8012C672.277 16.3377 670.996 15.1491 669.787 15.9776C669.504 16.1731 667.791 19.6322 667.557 19.8369C665.751 21.4432 665.688 15.8514 665.608 15.5427C664.692 12.2024 662.581 15.8896 662.04 16.1244C659.591 17.2077 657.599 16.3051 655.541 17.021C654.883 17.2458 654.456 18.2254 654.064 19.1486C653.658 20.1183 653.295 21.0259 652.767 20.9287C649.366 20.2973 648.614 15.1082 645.124 19.2671C644.366 20.1536 644.732 24.1899 642.573 20.8695C642.441 20.6602 640.865 17.6562 639.704 19.395C639.559 19.6143 639.478 20.7763 639.301 20.8615C638.091 21.408 637.412 20.4295 636.144 20.7876C634.859 21.1447 633.309 21.7062 631.938 21.2236C631.073 20.932 630.142 18.7007 629.747 18.1446C628.658 16.5452 627.284 18.9791 626.658 17.0869C626.045 15.1863 627.626 12.4422 625.784 11.1328C625.543 14.1503 625.206 17.2425 624.922 20.2748C620.723 19.9348 616.699 18.7555 612.479 18.6966C611.961 18.6927 612.416 20.3419 611.858 20.3796C609.457 20.5299 607.441 19.2822 605.017 19.6443C603.064 19.9277 600.978 21.5688 598.953 21.9255C597.906 18.4196 594.889 19.4832 592.77 19.0914C592.016 18.9552 592.098 18.0327 591.564 17.7119C589.629 16.5276 590.445 19.6182 589.884 20.0806C587.448 22.0535 587.466 15.1235 584.684 15.2032C584.544 15.2052 582.567 18.8352 582.333 19.0579C580.73 20.5068 582.119 17.7652 581.149 17.4615C580.007 17.1052 579.079 16.5982 577.973 16.5492C577.383 16.5228 576.74 16.6388 575.972 17.0029C575.352 17.3047 573.775 19.5599 572.624 17.7457C572.475 17.5082 572.597 16.2908 572.474 16.2158C570.232 14.9591 570.051 18.7904 568.689 20.0512C567.297 21.3109 565.405 18.6114 564.996 17.8373C563.965 15.8353 565.849 17.0165 565.91 16.8246C566.656 14.5392 565.176 14.8957 564.037 14.6706C563.974 10.9077 562.357 11.0909 562.853 14.4525C562.91 14.8197 563.813 14.4928 564.037 14.6706C562.919 18.331 561.198 18.7583 559.361 15.2636C558.498 13.6259 559.402 11.7635 556.625 12.3845C555.391 12.6656 555.803 15.2652 554.698 15.9447C552.148 17.4944 548.974 15.0068 546.366 15.3318C545.417 15.4497 546.309 16.8861 545.659 17.0156C543.943 17.3639 542.503 16.271 540.772 16.7815C540.615 16.8296 540.966 18.3202 540.432 18.3286C536.414 18.4223 532.906 17.409 528.737 17.3154C526.68 17.2698 523.089 18.0345 520.971 17.8414C517.34 17.5148 512.847 15.3047 509.768 15.7977C507.738 16.1127 508.166 17.601 507.284 18.6035C505.56 20.5464 502.668 17.0123 502.263 16.4658C502.251 16.4476 503.994 16.112 503.072 15.3429C502.545 13.7515 502.282 16.4591 502.263 16.4658C502.011 16.1122 498.493 15.7497 497.81 16.0294C497.436 16.182 497.636 17.5891 497.441 17.6421C492.786 18.8704 488.129 19.2081 483.377 18.5417C483.294 18.5131 483.421 16.941 483.227 16.8935C480.511 16.1895 478.752 18.1121 476.481 19.2546C474.232 20.3969 472.456 20.0174 471.11 17.3208C469.397 17.664 466.955 16.4781 465.552 15.7596C464.145 15.041 463.96 18.1029 463.837 18.1639C459.96 20.1186 457.771 18.3797 453.742 18.1377C451.824 18.0172 448.089 18.4948 446.016 18.8517C444.376 19.1384 443.405 18.4319 441.912 18.9081C441.711 18.9717 441.931 20.3321 441.87 20.3853C440.22 22.0356 440.982 18.6947 440.63 18.1038C439.35 15.9557 438.56 14.8127 436.415 15.8598C435.924 16.0996 434.561 20.9162 433.666 21.21C432.503 21.5831 432.919 19.8572 431.699 20.2923C431.595 20.3279 431.633 21.3882 430.875 21.3532C427.328 21.2052 423.544 20.6538 419.865 20.8318C419.366 20.852 420.037 22.5218 419.321 22.5786C415.975 22.8436 412.23 22.862 408.947 22.1512C408.134 21.971 408.613 20.7814 408.43 20.4358C407.302 18.3451 405.842 21.4568 405.591 21.5217C399.601 23.1484 394.907 20.4936 388.82 22.0057C388.489 22.0934 386.011 25.4693 384.777 22.6807C384.693 22.4952 383.467 19.6406 382.529 21.6507C382.471 21.7765 383.227 23.2414 381.99 23.1307C380.752 23.0204 378.8 24.0821 377.04 22.5071C376.479 22.0111 375.115 19.172 373.597 21.5294C373.498 21.6935 371.222 26.9825 370.203 23.4305C370.037 22.8458 370.043 19.0448 368.199 21.0644C367.847 21.4558 368.546 22.2763 367.6 22.8424C366.164 23.7142 364.174 22.7756 362.431 24.5404C362.126 24.8526 360.889 27.4834 359.726 25.5745C359.544 25.2755 359.813 23.9952 359.235 23.8777C356.499 23.3124 353.709 24.284 350.911 23.534C349.921 23.2709 350.325 21.2006 349.282 20.699C348.243 20.1973 346.172 19.7663 345.153 20.7532C344.135 21.7404 345.454 24.9468 343.874 25.2851C342.79 25.5175 341.702 25.6745 340.612 25.7747C334.825 26.3076 328.968 25.2239 323.132 25.3195C322.104 25.3362 323.02 26.4545 321.512 26.5632C315.951 26.9662 306.41 28.6503 301.417 26.487C297.414 24.7528 302.193 22.9253 299.178 22.3098C297.722 22.0176 296.425 25.9091 296.089 26.0512C292.802 27.4863 290.345 25.9667 287.35 26.6903C286.732 26.8403 287.451 28.3335 286.924 28.4442C285.126 28.836 283.161 28.2849 281.432 28.5332C280.656 28.6483 280.883 29.8107 280.159 29.7712C278.427 29.6904 276.881 29.3062 275.122 28.3292C274.961 28.2401 275.886 26.7067 274.609 26.7449C272.544 26.811 269.909 25.9151 267.629 27.2111C266.953 27.6003 267.124 30.2815 265.474 28.545C265.128 28.1825 265.289 24.9347 263.739 27.8476C263.477 28.3318 260.812 32.3056 259.182 30.0008C258.752 29.3941 257.571 26.8373 256.756 27.3168C256.647 27.3918 257.218 28.7949 256.528 28.9897C254.093 29.6514 251.501 29.7011 249.008 30.3534C248.34 30.5307 249.469 31.9387 248.469 32.1554C245.718 32.7538 242.242 32.6542 239.49 32.4115C238.474 32.3194 239.065 31.0295 238.981 30.9013C237.629 28.8155 237.18 31.8185 236.806 32.0223C234.473 33.2512 232.54 32.0198 230.335 32.5744C229.727 32.7237 230.283 34.0911 230.171 34.2267C229.004 35.5575 229.737 32.9556 228.909 32.7457C226.588 32.1497 224.108 32.4755 221.846 32.8517C221.014 32.9921 222.096 34.5387 221.348 34.6459C216.93 35.3108 212.316 35.5603 207.909 35.0505C207.081 34.9513 207.48 33.6523 207.285 33.3812C205.941 31.4829 204.471 34.3691 204.096 34.6654C202.402 36.0163 201.604 34.9715 200.04 35.3226C192.385 37.0579 182.791 37.2188 175.417 37.4718C165.828 37.8068 158.364 37.3416 149.293 38.5685C148.723 38.6443 149.468 40.2515 148.979 40.3383C142.551 41.3933 136.236 41.3842 129.809 42.5399C129.286 42.6313 130.209 44.1305 129.376 44.3302C127.685 44.7493 125.457 44.8958 123.641 44.5773C122.759 44.4247 123.766 42.9496 122.88 42.8236C120.83 42.5261 118.667 42.641 116.615 43.1147C115.748 43.3191 117.244 44.7923 116.106 44.9321C108.345 45.9187 100.751 47.0195 92.6621 45.7886C92.1029 45.7045 91.2661 42.4777 90.1947 43.2313C90.2085 44.1507 90.3303 45.2206 90.3993 46.1973C87.9994 46.5767 85.3746 46.9001 82.9731 47.1465C74.0972 48.0602 65.3481 48.3008 56.4385 49.1666C55.9655 49.2128 56.9759 50.8576 56.0637 50.9557C50.7091 51.5342 45.5731 52.6067 39.8875 51.5179C39.3243 51.4123 39.2537 48.3249 37.7174 48.9722C37.409 49.0934 35.1211 49.7741 34.5313 50.5159C34.4583 50.6258 35.0673 51.9991 34.2921 52.1326C29.825 52.8788 25.094 53.1175 20.5059 52.8094C19.7824 52.7549 20.3417 51.1443 19.8269 51.0921C16.055 50.7484 12.2841 52.4147 8.63923 51.5192C6.18959 50.9163 6.68123 48.1812 5.07588 45.7807C4.85006 45.4419 3.39021 45.5899 3.10363 44.1025C2.37623 40.3631 2.49444 36.1388 1.63637 32.1647C1.45217 31.3085 -0.365076 32.5169 0.491666 30.2632C0.552119 30.1119 1.86902 29.2174 2.12174 28.4587C2.29528 27.9342 1.64159 26.4726 2.04981 25.7749C2.46348 25.0771 3.1857 26.2779 3.91975 25.4236C4.64153 24.5623 4.03879 22.8778 5.68321 22.4425ZM459.194 12.5542C457.887 11.0922 457.73 16.477 459.124 15.1804C459.192 15.1113 459.262 12.6259 459.194 12.5542ZM616.901 14.7055C615.327 12.2518 613.998 15.6857 615.109 17.5739C616.196 19.4593 617.391 15.4501 616.901 14.7055ZM634.603 13.9692C632.718 11.9696 631.936 19.5698 634.155 18.1675C634.284 18.0886 634.711 14.0853 634.603 13.9692ZM10.7328 44.2525C10.7023 44.1843 9.66419 44.2544 9.64161 44.3291C9.31977 46.0981 11.4111 45.9546 10.7328 44.2525ZM652.215 13.4137C651.677 12.3365 649.789 13.3805 650.461 14.7228C650.992 15.8026 652.896 14.7551 652.215 13.4137ZM391.042 8.01009C391.019 7.93049 390.261 7.88092 390.29 8.33378C390.385 9.79211 391.423 9.34869 391.042 8.01009ZM682.216 14.3107C677.787 14.0197 675.166 7.69413 679.943 8.42547C680.811 8.5566 678.068 10.4311 679.171 11.0029C681.194 12.0447 682.54 8.0848 684.607 10.2067C684.981 10.5951 682.469 14.3415 682.208 14.3195C682.211 14.3165 682.213 14.3136 682.216 14.3107ZM458.407 6.09235C458.38 6.02127 457.334 5.96045 457.309 6.03124C456.754 7.744 458.861 7.86749 458.407 6.09235ZM346.732 6.37742C346.668 6.22829 344.23 6.20247 344.157 6.34623C343.025 9.19837 347.948 9.2589 346.732 6.37742ZM529.088 2.514C530.264 0.813241 531.63 0.633634 532.495 2.808C531.372 2.67412 530.233 2.63826 529.088 2.514Z" fill="black"/>
</svg>
