<svg width="1764" height="608" viewBox="0 0 1764 608" fill="none" xmlns="http://www.w3.org/2000/svg">
<path d="M28.6474 18.6525C30.0171 21.6813 30.7119 25.8712 30.9609 29.2016C31.0371 30.231 29.9783 30.0054 29.9899 30.7288C30.0139 32.1442 30.819 33.2417 30.773 34.6719C30.7533 35.1473 29.1454 35.0281 29.158 35.517C29.2414 38.2073 30.2775 40.4044 30.6989 43.021C32.7536 55.8463 35.7001 68.1549 38.621 80.8792C39.5848 85.072 39.7002 90.4763 41.4912 94.5766C41.7019 95.0563 42.8931 94.3954 43.0253 94.4605C45.0592 95.4917 42.3424 95.7296 42.2767 96.7989C42.0212 101.035 43.1232 105.362 44.6653 108.925C45.3247 110.439 47.4126 108.142 46.4387 110.13C46.3739 110.268 44.9046 110.25 44.8832 110.726C44.8375 111.804 45.6082 113.602 45.7159 114.393C45.9168 115.919 45.9989 116.157 46.3743 117.544C46.8745 119.44 46.8443 121.909 47.723 123.849C47.9148 124.263 49.143 123.297 49.5744 123.921C50.0058 124.547 50.4012 126.402 50.2506 127.123C50.0979 127.837 48.9308 127.88 48.7113 128.06C46.8528 129.561 50.3776 130.86 50.5264 131.111C53.1573 135.732 52.6806 140.448 54.0032 145.159C54.9958 148.681 56.6198 152.375 57.4736 155.737C58.509 159.829 58.6818 163.381 59.9063 167.307C60.0324 167.716 61.5355 166.781 61.6927 167.279C63.3525 172.546 64.6624 178.011 64.9944 183.583C65.0301 184.157 63.4003 183.847 63.351 184.447C63.0789 188.102 61.6354 194.03 68.4231 194.276C68.7636 196.512 69.2657 199.395 68.5102 201.639C68.048 203.175 66.1395 202.32 67.2362 203.745C67.4811 204.065 68.7314 203.233 68.9943 203.739C70.0891 205.83 70.303 208.451 71.5888 210.461C71.8528 210.866 73.0539 210.422 73.3087 210.49C75.3769 211.051 72.8985 213.73 72.7764 214.15C71.9194 217.485 73.1101 219.497 73.7917 222.392C73.9433 223.042 75.4139 221.864 75.6188 222.473C76.4066 224.858 77.0335 227.621 77.2201 230.153C77.2759 230.908 77.3034 231.665 77.2991 232.423C77.2909 233.158 75.7225 232.847 75.6459 233.214C75.3265 234.832 78.0867 234.539 77.8365 236.074C77.7877 236.398 76.5335 236.518 76.4128 236.603C74.5188 237.947 77.6623 237.983 77.779 238.181C79.3322 240.721 76.6665 243.225 77.765 245.789C77.8991 246.092 79.2548 244.997 79.5381 245.873C81.4408 251.731 82.6404 258.122 82.9636 264.352C83.015 265.317 81.6962 264.964 81.5697 265.058C79.6047 266.577 82.7281 266.415 82.9185 266.687C84.3383 268.828 82.4388 271.696 86.3891 272.371C87.8068 282.697 92.4406 292.144 91.8823 302.931C91.879 303.068 90.3602 303.221 90.3599 303.492C90.3302 306.729 92.451 305.575 95.7464 306.855C96.5741 307.177 93.6256 309.594 93.4159 309.796C92.6407 310.531 90.3342 310.575 90.2024 310.788C89.1828 312.521 96.3053 310.426 96.7901 312.292C96.7932 312.354 95.4075 312.45 95.3165 312.64C95.0295 313.234 95.6802 313.584 95.3458 314.17C94.5708 315.522 91.1785 316.806 93.6385 317.949C93.9559 318.091 97.9501 316.721 98.1822 318.428C98.2729 319.115 99.0901 322.024 99.035 322.916C98.9806 323.808 97.5222 323.576 97.4802 323.649C97.2647 324.138 97.0574 324.516 96.8482 324.818C96.8664 324.874 96.8952 325.049 96.9084 325.107C95.8644 326.357 94.9176 326.099 92.9258 327.364C90.4942 328.907 96.6741 327.599 97.4431 327.95C98.2106 328.303 97.0091 330.188 96.5637 330.675C96.1184 331.161 95.188 330.786 94.9563 331.192C93.4452 333.874 98.2137 331.767 99.325 332.406C101.954 333.914 97.5458 336.079 97.3406 337.841C97.2854 338.32 98.285 337.79 98.4434 338.186C99.0576 339.765 97.7529 340.952 99.3384 342.616C99.5971 342.888 102.594 344.01 100.681 345.264C100.405 345.442 99.1963 345.209 99.0323 345.939C98.7853 347.026 98.7841 348.936 99.3167 349.999C99.7107 350.785 101.492 349.591 101.036 350.706C100.832 351.201 99.6061 350.493 99.3152 351.41C99.0248 352.327 99.3553 354.523 99.4983 355.355C99.6424 356.185 101.031 355.547 101.137 355.602C101.747 355.943 102.644 357.469 102.659 357.612C103.718 364.779 102.016 371.67 103.55 378.573C103.668 379.116 105.159 378.592 105.193 378.673C106.027 380.487 101.81 379.425 100.584 380.873C103.667 380.366 103.185 381.197 103.659 382.487C103.889 383.108 105.056 382.64 105.185 382.686C107.105 383.451 104.813 384.345 104.347 384.561C102.635 385.361 104.799 385.839 103.654 386.381C102.519 386.922 100.678 386.114 100.824 387.379C101.97 387.626 104.782 386.401 105.347 387.319C107.484 390.788 105.833 397.796 105.855 400.74C105.879 403.68 106.166 404.604 105.913 406.339C105.453 409.475 107.511 408.161 108.663 409.984C109.814 411.816 104.427 411.337 103.31 411.71C102.193 412.077 103.392 412.271 102.793 412.66C102.195 413.047 101.358 412.39 101.19 413.195C101.021 413.999 103.232 415.98 104.448 416.159C107.025 416.536 109.596 415.344 108.838 417.504C108.793 417.629 107.365 417.357 107.262 417.827C106.493 421.564 106.739 425.348 106.089 429.067C105.997 429.577 104.408 429.259 104.337 429.557C103.594 432.67 106.123 431.372 109.168 432.793C105.267 432.74 102.975 433.851 103.143 436.157C103.242 437.542 104.913 437.164 106.178 437.959C106.56 438.196 105.481 439.273 106.29 439.384C108.937 439.752 111.769 438.589 110.809 441.055C110.762 441.163 109.312 440.951 109.256 441.318C108.887 443.687 111.628 443.738 112.17 446.217C112.595 448.162 111.239 451.8 111.167 454.06C106.814 454.395 107.996 456.427 111.072 457.016C111.073 457.343 111.09 457.674 111.112 458.008C111.117 458.041 111.119 458.143 111.123 458.177C111.144 459.319 111.223 460.553 110.942 461.651C110.818 462.14 109.543 461.87 109.409 461.936C107.303 462.949 110.252 463.485 110.379 463.801C111.614 467.178 109.479 470.048 111.733 473.254C111.814 473.367 114.851 473.485 112.66 474.406C112.509 474.466 111.102 473.429 111.034 474.959C110.966 476.506 109.408 479.435 110.856 481.535C111.204 482.038 113.692 483.308 111.789 484.393C111.53 484.536 110.658 484.401 110.178 484.61C108.648 485.285 111.719 485.583 109.129 486.396C106.539 487.22 104.617 488.817 106.447 490.948C106.5 491.015 108.937 491.492 108.909 492.161C108.862 493.229 108.378 494.79 108.408 495.904C108.424 496.44 109.928 496.077 109.957 496.17C110.85 499.795 109.534 502.384 108.989 506.274C108.886 507 110.962 509.002 109.348 510.408C107.58 511.945 100.162 510.439 101.953 513.899C102.67 515.308 112.079 516.993 107.227 519.561C108.464 524.444 105.994 528.967 107.734 533.864C107.811 534.084 110.436 534.772 110.402 535.292C110.347 536.064 109.122 536.493 109.043 537.04C108.682 539.337 109.736 541.448 109.578 543.666C109.521 544.51 108.253 544.217 108.184 545.226C108.117 546.227 109.787 546.892 108.983 548.257C108.371 549.289 104.961 550.321 104.566 551.684C107.931 551.731 107.863 552.667 108.753 554.336C108.926 554.655 110.097 554.311 110.239 554.462C110.843 555.076 109.873 555.647 110.531 556.231C110.689 556.374 111.838 556.379 112.032 556.495C113.725 557.483 111.142 559.122 110.692 559.4C108.984 560.473 110.479 560.973 109.806 561.798C109.134 562.621 108.292 561.391 107.884 562.353C107.041 564.345 107.228 566.902 107.176 568.922C107.162 569.728 108.696 569.178 108.729 569.293C109.119 570.959 107.488 572.652 110.543 573.572C102.644 574.73 111.31 574.576 109.729 576.964C109.601 577.152 105.865 577.391 105.316 576.669C104.768 575.948 105.936 574.854 105.081 573.854C104.88 573.617 101.379 572.264 101.167 572.078C99.5096 570.626 105.092 570.42 105.399 570.343C108.707 569.47 104.935 567.819 104.675 567.38C103.48 565.378 104.264 563.692 103.41 562.015C102.859 560.922 99.2018 560.818 99.3131 559.962C99.6805 557.114 104.781 556.109 100.354 553.429C99.4099 552.854 95.414 553.431 98.5537 551.364C98.7517 551.232 101.624 549.704 99.8041 548.816C99.5746 548.705 98.4099 548.711 98.3117 548.564C97.677 547.581 98.6037 546.924 98.1571 545.858C97.7104 544.794 97.045 543.499 97.437 542.28C97.6714 541.544 99.8391 540.599 100.369 540.241C101.897 539.238 99.3845 538.179 101.236 537.558C103.097 536.932 105.93 538.135 107.128 536.506C104.102 536.456 100.995 536.327 97.9513 536.239C98.046 532.657 99.0103 529.156 98.8584 525.564C98.8366 525.12 97.212 525.582 97.1466 525.107C96.8778 523.117 98.0275 521.33 97.5525 519.267C97.1784 517.643 95.4438 515.911 94.997 514.22C98.4521 513.158 97.2566 510.68 97.5564 508.855C97.66 508.219 98.5852 508.253 98.8827 507.8C99.9825 506.092 96.93 506.912 96.4439 506.45C94.3687 504.453 101.293 504.237 101.096 501.855C101.088 501.727 97.3785 500.239 97.146 500.034C95.6309 498.72 98.4284 499.802 98.691 498.959C99.1703 497.406 100.039 496.351 98.932 494.56C98.6044 494.037 96.2854 492.815 98.0497 491.782C98.2808 491.646 99.5021 491.7 99.5719 491.593C100.733 489.609 96.8974 489.625 95.5805 488.541C94.264 487.46 96.8794 485.681 97.6357 485.324C99.5921 484.378 98.4919 486.006 98.6863 486.053C101.001 486.594 100.582 485.344 100.759 484.394C104.515 484.186 104.263 482.834 100.926 483.39C100.562 483.451 100.927 484.2 100.759 484.394C97.0544 483.614 96.5535 482.156 99.9655 480.467C101.564 479.668 103.464 480.339 102.723 478.047C102.388 477.013 99.8092 477.476 99.0815 476.562C97.4212 474.486 99.7631 471.697 99.3172 469.52C99.1554 468.735 97.7621 469.546 97.6027 469.012C97.1756 467.617 98.1965 466.289 97.6034 464.897C97.5478 464.77 96.0761 465.134 96.042 464.696C95.8654 462.637 96.1015 460.743 96.2842 458.81L96.319 459.336C96.3747 458.038 96.4106 456.712 96.2975 455.307C96.1577 453.583 95.0758 450.57 95.0878 448.771C95.0986 445.652 96.93 441.673 96.1886 439.077C95.7115 437.386 94.2642 437.886 93.1957 437.232C91.1247 435.97 94.4152 433.167 94.9289 432.783C94.946 432.771 95.4167 434.221 96.1106 433.369C97.6543 432.78 94.9372 432.799 94.9289 432.783C95.2604 432.531 95.3525 429.551 95.0214 428.988C94.8406 428.682 93.4544 428.976 93.3866 428.814C91.8071 424.971 91.1242 421.051 91.4432 417.005C91.4656 416.932 93.0413 416.906 93.0744 416.737C93.5758 414.362 91.5338 413.051 90.2323 411.241C88.9319 409.439 89.1814 407.897 91.7721 406.536C91.3083 405.134 92.3141 402.964 92.9293 401.718C93.5442 400.469 90.4806 400.579 90.411 400.48C88.1881 397.409 89.76 395.376 89.7125 391.988C89.6951 390.374 88.9456 387.25 88.4399 385.558C88.0357 384.221 88.666 383.324 88.0816 382.114C88.0033 381.951 86.665 382.261 86.6075 382.214C84.8422 380.982 88.2252 381.314 88.7874 380.963C90.8315 379.693 91.9101 378.916 90.7081 377.227C90.4324 376.836 85.5339 376.139 85.1737 375.418C84.714 374.477 86.4634 374.659 85.9378 373.682C85.8943 373.598 84.8419 373.731 84.8191 373.095C84.6988 370.14 84.9475 366.872 84.4809 363.847C84.4211 363.433 82.8137 364.164 82.6998 363.569C82.1665 360.78 81.8478 357.7 82.277 354.867C82.3878 354.168 83.6106 354.44 83.9387 354.249C85.9213 353.074 82.7053 352.203 82.6195 352.001C80.4933 347.198 82.7156 342.991 80.6495 338.1C80.5314 337.831 76.9527 336.204 79.6017 334.832C79.7779 334.74 82.4922 333.358 80.4079 332.83C80.2776 332.797 78.8976 333.611 78.888 332.568C78.8784 331.526 77.6372 330.051 79.0245 328.387C79.1165 328.276 79.3082 328.122 79.53 327.937L79.7821 329.15C80.5464 328.379 81.6948 327.155 79.6716 326.567C79.4947 326.522 73.9376 325.78 77.2274 324.162C77.7698 323.899 81.4792 323.075 79.1923 321.995C78.7501 321.791 78.0688 322.543 77.3545 321.888C76.25 320.864 76.8275 319.027 74.8022 317.951C74.4447 317.764 71.6634 317.303 73.3295 315.933C73.5904 315.719 74.8854 315.662 74.9025 315.162C74.981 312.753 73.5536 310.636 73.8147 308.165C73.9024 307.282 75.9927 307.174 76.3047 306.197C76.6163 305.219 76.6891 303.413 75.5513 302.768C74.4153 302.131 71.5064 303.914 70.9105 302.675C68.3188 297.279 68.6755 291.142 67.4367 285.368C67.2528 284.51 66.3084 285.509 65.9575 284.271C64.6587 279.708 61.4954 272.014 62.854 267.367C63.9446 263.659 66.4605 267.316 66.6059 264.658C66.6704 263.37 62.6653 263.05 62.4737 262.785C60.5751 260.287 61.7034 257.908 60.5638 255.507C60.3279 255.01 58.9653 255.901 58.7804 255.471C58.1359 254.008 58.4009 252.236 57.9177 250.808C57.6978 250.169 56.5856 250.569 56.5244 249.942C56.3658 248.448 56.5315 247.043 57.2623 245.377C57.3289 245.225 58.9594 245.747 58.754 244.664C58.4161 242.907 58.9634 240.511 57.4037 238.761C56.9367 238.243 54.3134 238.828 55.8257 237.128C56.1417 236.771 59.364 236.394 56.3063 235.524C56.1727 235.485 55.7818 235.341 55.3161 235.118C54.0515 234.673 52.147 233.445 53.6895 232.217C54.2416 231.783 56.6251 230.404 56.0499 229.798C55.9624 229.718 54.6535 230.442 54.3747 229.893C53.4386 228.048 53.0354 225.81 52.0956 223.952C51.8359 223.433 50.5978 224.622 50.256 223.834C49.2904 221.576 48.9497 218.749 48.8211 216.413C48.7803 215.565 50.1223 215.807 50.2373 215.714C52.1083 214.216 49.0982 214.392 48.8473 214.115C47.3048 212.31 48.2853 210.591 47.4324 208.813C47.2021 208.328 45.9367 209.053 45.7882 208.983C44.3198 208.241 46.9758 208.379 47.0656 207.633C47.3447 205.614 46.6923 203.617 46.0012 201.741C45.7541 201.086 44.3793 202.265 44.1767 201.675C42.9395 198.163 42.064 194.338 41.9545 190.512C41.9352 189.786 43.2661 189.883 43.5046 189.665C45.1848 188.184 42.1602 187.52 41.8192 187.264C40.2671 186.11 41.1823 185.24 40.6201 183.975C37.8935 177.938 36.4251 169.861 35.1979 163.747C33.6001 155.812 33.0389 149.359 30.6591 142.03C30.508 141.559 29.0311 142.491 28.8802 142.091C27.0135 136.935 26.1822 131.571 24.2245 126.418C24.0664 125.993 22.7163 127.052 22.4111 126.384C21.773 125.013 21.351 123.203 21.4298 121.621C21.4658 120.851 23.0429 121.424 23.0523 120.656C23.0777 118.872 22.6809 117.056 21.9596 115.444C21.6484 114.756 20.3944 116.283 20.1115 115.354C18.1481 109.019 16.0975 102.83 16.2826 95.815C16.2954 95.3336 19.3569 94.0411 18.4804 93.2748C17.5799 93.4552 16.5455 93.7545 15.5958 93.9921C12.441 84.8563 10.9079 75.3525 8.4024 66.001C8.29627 65.6063 6.8118 66.768 6.5978 66.0066C5.36158 61.6153 3.66035 57.4601 4.0376 52.5043C4.07141 52.009 7.09156 51.3851 6.26379 50.1949C6.1149 49.9851 5.14825 48.1169 4.35959 47.7923C4.24283 47.7509 2.96833 48.5098 2.74413 47.8849C1.47324 44.2737 0.64969 40.2521 0.425039 36.3308C0.389233 35.6897 2.04266 35.9037 2.02991 35.4435C1.92599 32.1739 -0.126785 29.2731 0.356655 25.9686C0.691868 23.7772 3.4365 23.7539 5.63552 22.0046C5.94557 21.7571 5.65574 20.5544 7.09058 20.0704C10.6973 18.8487 14.8642 18.2574 18.6888 16.8874C19.5127 16.5924 18.1476 15.2711 20.4475 15.6186C20.6021 15.6441 21.6102 16.5996 22.3807 16.6845C22.9138 16.7442 24.287 15.9568 25.0133 16.184C25.739 16.4115 24.6302 17.2171 25.5412 17.6828C26.4613 18.1465 28.0552 17.359 28.6474 18.6525ZM95.6671 396.089C97.029 394.855 91.6534 395.191 93.0458 396.258C93.1195 396.309 95.6005 396.152 95.6671 396.089ZM103.07 529.149C105.438 527.7 101.942 526.72 100.113 527.753C98.2856 528.775 102.352 529.592 103.07 529.149ZM104.853 544.135C106.721 542.439 99.0861 542.192 100.634 543.999C100.721 544.104 104.744 544.235 104.853 544.135ZM7.73409 26.5658C7.79837 26.5308 7.61333 25.645 7.53934 25.6444C5.76341 25.6608 6.1344 27.4311 7.73409 26.5658ZM106.763 559.017C107.795 558.489 106.602 556.966 105.318 557.625C104.286 558.156 105.479 559.674 106.763 559.017ZM94.747 338.268C94.824 338.239 94.8026 337.595 94.3557 337.674C92.9171 337.929 93.4537 338.749 94.747 338.268ZM106.859 584.315C107.147 580.58 113.453 578.308 112.741 582.382C112.613 583.119 110.73 580.793 110.162 581.732C109.126 583.447 113.086 584.587 110.964 586.341C110.575 586.658 106.829 584.528 106.85 584.308C106.853 584.311 106.856 584.313 106.859 584.315ZM102.047 394.859C102.116 394.831 102.101 393.939 102.029 393.924C100.283 393.604 100.312 395.399 102.047 394.859ZM89.8556 301.002C89.9918 300.923 89.6028 298.88 89.4509 298.853C86.4743 298.521 87.2481 302.634 89.8556 301.002ZM111.054 454.106C112.852 454.919 113.155 456.051 111.073 457.011C111.102 456.044 111.033 455.078 111.054 454.106Z" fill="black"/>
<path d="M77.0204 16.4026C95.7398 16.1627 119.738 16.7384 139.757 17.4951C142.501 17.601 145.26 17.7116 147.963 17.8245C154.567 18.1059 151.196 19.0254 155.869 19.264C164.829 19.7278 173.366 19.3491 182.253 19.8851C185.246 20.068 181.511 21.5399 184.634 21.6968C201.595 22.5449 217.724 22.3348 234.972 22.8484C315.854 25.2811 395.483 26.7761 477.137 28.9043C481.317 29.0151 485.187 29.1227 489.353 29.2391C517.692 30.0137 552.115 32.3239 581.326 32.4135C584.741 32.4212 582.737 31.0478 583.39 30.9535C593.596 29.5108 590.145 32.1113 596.799 32.6101C623.125 34.5788 652.485 35.1068 677.913 34.8459C688.607 34.7286 677.807 31.9903 688.774 33.5718C689.511 33.6784 686.82 35.0629 689.715 35.2393C696.339 35.6386 709.252 35.4886 714.369 35.6357C718.071 35.745 720.696 35.8128 723.007 35.8591C726.72 35.9358 729.546 35.9524 735.636 35.9989C748.527 36.1101 763.987 36.887 778.01 36.6264C780.946 36.5663 777.057 35.1061 781.755 34.8797C786.48 34.6543 799.063 34.8237 803.3 35.1781C807.564 35.5333 805.747 36.6621 806.502 36.9248C812.608 39.1421 827.257 36.1442 829.059 36.0734C863.187 34.8859 892.379 36.6664 924.424 36.6925C948.727 36.7081 974.705 36.1438 997.824 36.2158C1025.37 36.3069 1048.73 37.0685 1075.49 36.8924C1078.32 36.8754 1075.01 35.1827 1078.45 35.1584C1115.09 34.9004 1151.5 34.992 1188 35.9845C1191.66 36.0853 1186.95 37.5963 1190.6 37.7861C1204.05 38.464 1222.15 39.728 1237.33 39.192C1247.7 38.8341 1256.21 37.675 1261.67 35.0309C1276.63 35.1517 1295.29 35.1855 1308.75 36.28C1317.53 36.9811 1309.11 38.745 1319.72 37.8723C1322.12 37.6757 1318.93 36.3096 1322.61 36.1201C1337.81 35.3285 1354.64 35.4197 1369.7 34.2652C1372.75 34.0272 1371.87 32.7763 1372.73 32.5226C1380.01 30.4618 1392.25 33.1359 1394.92 33.2621C1415.09 34.2184 1429.95 32.9224 1448.67 31.9322C1452.97 31.7 1447.74 30.2818 1451.96 29.9894C1473.61 28.5007 1496.18 26.9616 1517.29 25.4429C1522.04 25.0993 1517.85 27.0244 1520.13 26.9323C1530.13 26.4833 1531.94 23.4839 1541.49 22.8175C1543.51 22.6665 1542.55 24.0565 1542.93 24.1426C1548.92 25.4989 1553.46 21.7365 1554.89 21.4546C1555.07 21.4187 1555.24 21.3832 1555.42 21.3482C1573.19 17.7397 1585.38 18.0864 1602.69 13.2753C1604.78 12.6829 1599.66 12.3631 1605.54 10.7919C1621.74 6.84315 1636.96 0.740485 1656.85 0.418885C1663.83 0.757232 1672.1 2.68406 1678.12 8.6726C1684.1 14.6323 1686.22 22.1013 1687.44 28.6592C1689.62 41.9823 1688.89 54.2537 1688.45 66.3609C1688.16 72.5998 1687.04 68.1212 1686.89 68.5095C1684.49 74.9444 1687.46 79.1429 1687.54 81.1833C1688.02 97.3028 1685.37 112.315 1689.24 123.159C1689.24 128.83 1689.34 134.464 1689.53 140.188C1692.79 193.508 1703.68 248.169 1703.44 302.657C1703.54 310.165 1704.32 318.069 1705.22 325.872C1705.32 326.706 1703.59 325.472 1703.8 327.135C1706.65 347.559 1708.36 343.229 1714.05 355.88C1715.47 359 1714.53 370.007 1714.52 370.962C1714.4 374.441 1711.4 371.591 1711.49 372.726C1712.36 382.215 1719.16 378.9 1722.31 391.106C1722.4 391.495 1720.66 390.221 1720.8 391.289C1721.2 394.544 1722.57 397.609 1722.94 400.818C1723.79 408.214 1720.99 411.731 1726.01 422.03C1726.66 423.344 1730.11 420.1 1732.96 431.022C1734.08 435.367 1739.62 454.488 1740.93 459.913C1742.22 465.345 1739.85 462.046 1739.91 462.444C1742.39 477.366 1740.09 472.108 1739.66 480.084C1739.26 488.06 1744.72 484.268 1746.26 487.009C1747.81 489.759 1749.53 500.745 1749.82 503.482C1750.1 506.218 1748.31 503.235 1748.72 505.622C1751.47 521.458 1753.73 511.441 1756.2 516.191C1758.33 520.278 1759.47 524.33 1760.17 528.297C1761.45 535.43 1761.08 542.378 1761.7 549.657C1761.93 552.805 1762.72 550.114 1763.08 552.931C1764.04 564.139 1762.63 571.176 1757.76 583.484C1757.26 584.67 1755.85 589.127 1752.7 593.01C1750.54 595.718 1747.45 597.964 1744.59 598.686C1743.57 598.903 1745.44 596.618 1740.95 598.697C1734.3 601.837 1721.74 604.013 1714.32 605.043C1708.78 605.849 1715.21 607.233 1708.29 607.176C1705.15 607.111 1710.89 605.63 1704.95 605.579C1699.23 605.572 1684.53 605.687 1678.96 605.556C1673.39 605.473 1676.39 606.995 1675.95 607.084C1673.11 607.599 1662.36 607.899 1661.5 607.845C1613.87 605.724 1570.43 599.397 1524.19 597.057C1520.52 596.861 1522.85 598.566 1522.29 598.552C1509.79 598.325 1519.9 594.932 1511.37 592.971C1512.43 596.171 1507.28 595.247 1498.53 595.001C1494.36 594.89 1496.54 596.247 1496.16 596.345C1489.85 597.762 1485.57 595.11 1484.47 594.552C1480.41 592.501 1475.91 594.324 1473.15 592.955C1470.4 591.597 1477.02 590.257 1468.58 589.748C1466.13 590.714 1472.25 594.019 1465.77 594.088C1449.26 594.288 1422.85 592.047 1401.59 590.328C1392.39 589.568 1383.53 588.859 1377.7 588.502C1358.46 587.335 1352.31 587.267 1340.97 586.347C1320.74 584.71 1328.15 587.209 1315.36 587.641C1302.76 588.089 1309.1 583.032 1307.34 581.81C1305.62 580.591 1303.63 581.685 1301.43 580.962C1299.24 580.24 1304.08 579.666 1298.87 579.209C1293.56 578.746 1279.37 580.195 1277.46 581.315C1273.43 583.689 1279.81 586.612 1265.94 585.111C1265.15 585.023 1267.8 583.729 1264.74 583.464C1240.85 581.417 1215.63 580.372 1191.67 578.519C1188.34 578.26 1191.38 576.815 1189.44 576.648C1169.45 574.905 1176.54 577.798 1165.4 580.308C1168.04 576.519 1161.95 573.915 1146.8 573.344C1137.64 572.999 1139.15 574.751 1133.16 575.732C1131.34 576.027 1124.97 574.635 1123.76 575.39C1119.8 577.859 1125.81 580.991 1110.13 579.275C1109.44 579.195 1111.69 577.846 1109.31 577.676C1093.9 576.57 1092.05 579.234 1075.35 578.989C1062.35 578.8 1039.18 576.351 1024.35 575.587C1024.81 571.234 1010.75 571.766 1004.97 574.588C995.339 574.146 984.922 573.976 975.624 573.257C972.424 573.011 974.571 571.816 974.171 571.666C968.044 569.324 963.764 572.115 961.683 572.163C939.093 572.55 920.793 569.747 899.233 571.239C898.466 571.293 897.126 574.285 891.44 571.891C891.074 571.727 898.224 570.571 888.105 570.147C878.04 569.724 858.919 567.503 844.89 568.477C841.458 568.71 832.754 570.905 825.941 568.772C825.033 568.483 826.062 567.644 824.755 567.12C820.54 565.448 818.098 568.44 813.103 565.682C808.067 562.923 797.823 560.66 783.469 562.023C783.015 562.062 779.573 564.388 775.13 564.216C768.095 563.94 757.912 563.127 750.498 562.921C746.95 562.823 749.176 564.399 748.559 564.408C724.641 564.537 707.604 562.685 682.04 561.344C677.254 561.092 663.941 562.757 654.726 560.858C644.747 558.782 655.457 551.688 632.27 552.77C623.089 553.205 610.922 562.248 594.558 556.894C588.774 556.936 583.195 556.869 577.791 556.736C577.787 556.735 577.775 556.735 577.771 556.735C551.667 556.559 526.714 554.853 500.089 556.035C498.738 556.099 493.965 558.679 490.532 558.615C485.414 558.513 482.783 557.266 479.147 557.157C463.8 556.667 450.046 557.623 435.385 557.386C429.857 557.3 431.678 556.04 425.084 555.941C418.703 555.846 413.951 557.497 405.081 556.673C398.254 556.045 391.465 552.626 382.511 552.239C382.122 555.606 375.967 555.536 365.036 556.474C362.917 556.656 365.222 557.816 364.199 557.963C359.942 558.588 356.503 557.639 352.451 558.328C351.506 558.494 351.472 559.643 350.71 559.844C344.254 561.584 333.402 559.145 331.622 558.729C324.448 557.137 321.33 558.698 315.767 558.162C310.435 557.628 318.423 556.575 312.075 556.337C299.277 555.843 282.958 556.793 269.834 557.817L269.898 557.813C269.534 557.825 269.169 557.837 268.804 557.849C263.493 558.014 267.166 559.425 266.408 559.484C255.424 560.203 244.197 558.952 238.278 562.334C230.207 554.884 231.705 563.347 215.946 563.039C214.724 563.02 212.784 559.432 217.52 558.478C222.251 557.528 229.562 558.177 236.137 556.976C237.696 556.677 246.53 552.776 247.773 552.529C257.356 550.518 258.87 556.086 259.386 556.37C262.214 557.884 266.207 557.712 269.87 557.063L269.777 557.068C273.69 556.216 277.237 554.894 278.732 554.659C291.873 552.571 303.14 552.953 314.226 551.803C321.443 551.07 322.084 547.407 327.741 547.413C346.773 547.477 353.19 552.554 370.992 548.051C374.916 547.098 370.892 543.102 384.736 546.225C385.429 546.421 395.824 549.294 401.484 547.486C402.22 547.258 402.198 546.093 403.175 545.997C409.931 545.377 413.854 546.315 421.152 545.898C428.051 545.478 436.682 544.857 444.756 545.298C449.855 545.564 455.723 547.772 458.156 548.32C464.985 549.896 471.661 547.436 475.87 549.322C480.003 551.217 471.945 553.982 482.703 555.271C483.117 552.248 484.043 549.15 484.701 546.112C508.291 546.412 531.579 547.621 555.305 547.745C558.254 547.757 555.282 546.098 558.372 546.068C564.986 546.01 571.327 546.316 577.887 546.594C577.928 546.595 578.05 546.596 578.091 546.598C584.094 546.971 590.31 547.32 597.241 547.297C607.669 547.241 619.76 545.874 630.706 545.762C637.543 549.428 653.867 548.733 666.084 549.411C670.228 549.642 669.927 550.559 672.889 550.948C684.12 552.397 678.943 549.182 682.058 548.793C695.61 547.138 696.182 554.084 712.044 554.384C712.961 554.405 723.037 551.011 724.469 550.824C733.386 549.59 725.893 552.152 731.453 552.591C741.746 553.397 748.504 554.481 760.544 553.761C764.099 553.548 772.382 551.495 779.073 553.478C779.952 553.737 779.425 554.942 780.137 555.035C793.056 556.618 793.521 552.796 800.897 551.721C808.269 550.646 819.707 553.643 821.959 554.475C827.931 556.633 817.318 555.177 816.944 555.36C812.993 557.545 821.365 557.404 827.661 557.791C828.457 561.577 837.344 561.624 834.23 558.18C833.874 557.803 828.925 558.002 827.661 557.791C833.302 554.274 843.201 554.105 853.806 557.882C858.797 559.653 853.947 561.386 869.325 561.174C876.315 561.081 873.715 558.41 879.853 557.895C893.898 556.722 912.072 559.71 926.551 559.79C931.814 559.819 926.736 558.24 930.335 558.211C939.862 558.13 948.209 559.461 957.802 559.225C958.67 559.202 956.599 557.651 959.577 557.728C982.108 558.284 1001.71 559.876 1025.25 560.687C1036.61 561.077 1056.98 560.947 1068.74 561.515C1089.15 562.488 1114.25 565.525 1131.62 565.622C1143.06 565.696 1140.6 564.124 1145.51 563.289C1154.95 561.668 1171.52 565.789 1173.73 566.415C1173.81 566.435 1163.98 566.424 1169.19 567.378C1172.18 569.076 1173.62 566.418 1173.73 566.415C1175.19 566.819 1194.7 567.883 1198.63 567.749C1200.75 567.674 1199.62 566.225 1200.72 566.212C1226.9 565.944 1253.08 566.612 1279.63 568.364C1280.09 568.411 1279.32 569.953 1280.42 570.046C1295.53 571.37 1305.71 569.877 1318.33 569.282C1331.18 568.699 1340.99 569.525 1348.49 572.57C1357.92 572.659 1371.84 574.512 1379.49 575.612C1387.32 576.719 1388.69 573.726 1389.37 573.698C1394.19 573.512 1398.47 573.481 1402.45 573.562C1417.16 573.883 1428.53 575.616 1445.9 576.847C1456.76 577.612 1477.77 578.476 1489.41 578.913C1498.6 579.248 1503.96 580.329 1512.47 580.453C1513.6 580.47 1512.55 579.032 1512.9 579.003C1522.31 578.019 1517.6 581.033 1519.47 581.76C1526.54 584.423 1530.5 585.855 1542.76 585.716C1545.59 585.686 1553.84 581.474 1559.03 581.573C1565.64 581.699 1562.93 583.225 1569.87 583.317C1570.47 583.326 1570.45 582.261 1574.7 582.621C1594.4 584.266 1615.6 586.47 1636.05 587.645C1638.85 587.808 1635.38 585.908 1639.4 586.112C1658.1 587.035 1678.66 588.149 1696.27 588.551C1700.62 588.637 1697.94 589.885 1698.9 590.208C1704.71 592.191 1712.6 588.423 1713.74 588.192C1725.53 586.384 1734.82 583.328 1738.32 579.554C1746.71 571.669 1748.46 557.634 1742.86 539.298C1742.68 538.703 1741.7 536.768 1740.48 534.219C1738.25 529.396 1735.5 522.583 1736.04 518.139C1736.1 517.669 1737.03 510.705 1733.52 505.863C1733.3 505.56 1733.02 509.809 1731.17 503.096C1729.33 496.391 1725.19 485.927 1724.07 476.282C1723.71 473.224 1724.47 465.551 1719.76 457.5C1719.44 456.979 1710.59 444.991 1712.69 439.182C1713.04 438.24 1716.92 438.039 1712.14 428.153C1711.23 426.266 1711.41 430.119 1709.45 424.992C1706.44 417.167 1704.53 406.229 1700.31 396.689C1699.56 395.007 1695.14 388.213 1695.57 381.792C1695.63 380.774 1697.3 382.256 1696.66 379.049C1693.65 363.941 1689.17 348.224 1687.24 332.267C1686.6 326.679 1689.06 329.079 1688.7 323.22C1688.42 318.486 1687.74 310.125 1687.17 303.378C1687.02 301.678 1686.81 300.145 1686.55 298.883C1685.32 293.045 1682.39 299.668 1681.67 290.8C1678.63 252.353 1676.05 214.988 1671.22 175.898C1670.58 170.062 1669.96 175.054 1668.98 166.389C1668.19 159.124 1667.33 150.533 1666.85 141.203C1664.99 110.182 1666.63 72.1535 1668.26 52.2759C1669.52 31.8307 1672.11 57.4258 1672.16 41.7796C1672.11 34.0451 1666.66 28.2446 1666.14 27.5895C1664.53 24.4197 1663.6 23.8443 1662.58 23.1515C1661.52 22.4535 1659.11 21.6196 1655.87 21.3601C1652.57 21.014 1646.54 21.8246 1640.41 23.4037C1637.21 24.2301 1640.72 25.0123 1637.97 25.72C1628.59 28.1898 1617.96 30.3916 1608.39 32.9501C1604.08 34.104 1605.15 35.0482 1601.14 35.9486C1591.5 38.1069 1582.73 39.5812 1572.93 40.3252C1572.04 40.3904 1577.65 37.8422 1570.37 39.1581C1566.64 39.818 1562.6 40.3771 1558.36 40.8879C1549.49 41.9524 1539.73 43.0131 1530.7 44.8645C1526.77 45.6651 1526.91 48.3782 1518.13 47.4596C1516.32 47.254 1518.2 43.8458 1508.56 47.6008C1506.96 48.2483 1490.49 53.5051 1482.07 51.672C1479.81 51.2036 1474.2 48.9657 1469.35 49.7035C1468.71 49.8119 1471.36 51.0831 1467.48 51.4811C1453.57 52.8659 1438.91 53.4903 1424.6 54.5797C1420.74 54.874 1426.52 56.1151 1420.84 56.4998C1405.2 57.5596 1385.62 57.8399 1370.29 57.7904C1364.63 57.7702 1368.51 56.4265 1368.09 56.3033C1361.28 54.2972 1357.66 57.3401 1355.42 57.5674C1341.77 58.928 1331.47 57.7442 1318.82 58.3319C1315.41 58.488 1317.85 59.8556 1317.17 59.9929C1310.08 61.3388 1315.35 58.7207 1310.81 58.5151C1298.07 57.9284 1284.06 58.2207 1271.12 58.5326C1266.48 58.6477 1271.72 60.2293 1267.54 60.3132C1257.59 60.5219 1247.72 60.6435 1237.47 60.664C1222.18 60.6927 1206.91 60.4978 1192.14 60.0181C1187.56 59.8653 1190.44 58.5946 1189.48 58.3113C1182.79 56.3296 1173.26 59.1088 1170.99 59.3783C1160.84 60.6083 1156.95 59.5084 1148.01 59.7442C1104.41 60.9165 1050.55 60.2583 1009.37 59.819C955.726 59.2534 914.09 58.0259 862.934 58.2356C859.693 58.247 862.955 59.9278 860.165 59.9591C823.912 60.2848 788.408 59.5211 752.066 59.8185C749.126 59.8399 753.365 61.449 748.632 61.5364C740.719 61.6867 731.223 61.6156 722.838 61.2894C720.598 61.2054 718.453 61.105 716.439 60.9876C711.636 60.7093 718.077 59.3936 713.262 59.1412C701.869 58.5482 689.837 58.3347 678.195 58.4726C673.178 58.5336 680.743 60.2336 674.21 60.1855C630.471 59.9269 587.127 59.329 543.013 56.0572C539.992 55.8372 537.384 52.4716 530.956 52.9469C530.446 53.8502 530.446 54.9273 530.209 55.9003C512.293 55.6102 494.574 55.2384 476.648 54.8445C431.154 53.8533 385.521 52.6039 339.6 51.8837C336.909 51.8422 341.538 53.6492 336.327 53.5779C306.121 53.1681 276.795 53.3049 245.915 51.2187C242.842 51.0142 244.435 47.957 235.423 48.3213C233.802 48.3878 220.192 48.6472 216.684 49.2766C216.208 49.3721 218.66 50.8341 214.302 50.8283C189.714 50.7698 163.964 50.202 139.433 49.1435C138.497 49.1041 137.572 49.0641 136.657 49.0235C132.551 48.8373 136.929 47.3536 134.023 47.208C113.372 46.1869 90.7117 47.1209 70.9433 45.5572C57.7458 44.509 62.6472 41.9092 55.6102 39.2548C54.6158 38.8783 46.4243 38.7715 46.0185 37.2611C44.944 33.4522 48.9188 29.3027 47.3264 25.2407C46.9587 24.3564 35.9308 25.2922 42.4637 23.1841C42.9298 23.0373 50.9245 22.3696 52.9325 21.6709C54.2841 21.1849 51.8283 19.6295 54.6453 19.015C57.4697 18.4017 60.4984 19.7148 65.1287 19.0092C69.7911 18.2954 67.698 16.5255 77.0204 16.4026ZM1414.89 580.656C1422.06 582.516 1423.41 577.198 1415.51 578.06C1415.12 578.108 1414.52 580.564 1414.89 580.656ZM531.373 551.688C541.013 554.16 547.34 550.737 540.731 548.833C534.258 546.933 528.37 550.938 531.373 551.688ZM432.384 552.645C443.444 554.572 445.182 546.948 433.395 548.431C432.678 548.515 431.717 552.533 432.384 552.645ZM88.2875 38.8C88.1708 38.7273 82.2777 38.602 82.1405 38.6717C78.9843 40.3519 90.7753 40.6012 88.2875 38.8ZM334.089 554.762C337.598 555.738 347.586 554.438 343.244 553.201C339.875 552.199 329.737 553.541 334.089 554.762ZM1759.13 550.277C1759.22 550.163 1758.69 545.986 1758.24 546.144C1756.89 546.667 1758.03 552.29 1759.13 550.277ZM167.437 566.394C191.974 562.642 207.468 567.373 180.947 570.192C176.131 570.761 190.988 566.716 184.805 567.025C173.435 567.613 166.726 572.751 155.02 572.823C152.894 572.81 165.995 566.566 167.478 566.378C167.464 566.383 167.451 566.389 167.437 566.394ZM1418.71 587.339C1418.86 587.418 1424.59 587.8 1424.8 587.741C1428.04 586.208 1416.34 585.427 1418.71 587.339ZM1701.64 310.728C1701.7 310.521 1701.34 306.389 1701.22 302.756C1701.11 299.558 1700.96 296.708 1700.89 296.512C1699.38 293.219 1698.84 297.736 1698.97 302.856C1699.09 308.241 1700.47 313.976 1701.64 310.728ZM1024.12 575.463C1017.66 576.968 1010.02 576.917 1005 574.591C1011.35 574.915 1017.73 575.144 1024.12 575.463Z" fill="black"/>
</svg>
