<svg width="4815" height="3321" viewBox="0 0 4815 3321" fill="none" xmlns="http://www.w3.org/2000/svg">
<path d="M271.656 318.481C274.744 395.104 281.814 495.714 287.959 572.464C289.853 596.209 287.553 584.469 288.849 601.013C291.436 633.631 294.967 663.257 297.706 695.583C298.589 706.078 295.325 693.207 296.302 704.255C301.521 762.853 308.028 818.491 314.376 877.559C314.63 879.925 314.885 882.306 315.141 884.702C347.957 1189.07 385.333 1487.47 424.231 1794.99C437.08 1896.26 451.502 2019.66 466.153 2124.28C467.856 2136.42 468.575 2128.95 469.02 2131.24C475.974 2167.38 470.995 2155.87 473.693 2179.61C484.469 2274.22 498.462 2379.57 511.438 2470.03C516.778 2507.22 515.233 2472.96 518.046 2503.88C518.179 2505.31 518.321 2506.88 518.472 2508.58C518.721 2511.35 515.575 2501.62 516.857 2512.42C519.739 2536.7 526.169 2581.69 528.601 2600.8C533.139 2636.59 533.96 2642.57 538.477 2676.59C544.585 2722.76 551.016 2778.56 557.743 2828.25C559.194 2838.95 559.243 2824.66 561.691 2841.49C564.184 2858.56 569.585 2903.48 570.96 2918.73C572.344 2933.91 570.122 2927.59 570.112 2930.29C570.028 2952.84 579.751 3004.34 580.542 3011.18C587.237 3065.83 591.852 3117.16 595.586 3167.47C595.676 3168.73 595.88 3169.6 596.09 3170.16C596.307 3170.71 596.438 3170.89 596.697 3171.16C597.138 3171.68 599.027 3172.66 601.925 3173.17C607.558 3174.2 615.037 3173.96 622.37 3173.4C637.02 3172.21 652.402 3169.8 667.526 3167.41C698.071 3162.48 728.688 3157.13 760.26 3151.93C829.981 3140.31 904.209 3129.62 973.875 3121.76C990.313 3119.89 1006.98 3118.16 1023.22 3116.62C1122.28 3107.35 1206.47 3102.95 1302.9 3097.33C1313.05 3096.75 1301.01 3095.24 1313.45 3094.53C1445.61 3087.1 1576.8 3082.22 1708.41 3079.49C1721.56 3079.23 1704.67 3081.66 1717.82 3081.51C1798.62 3080.48 1926.36 3081.04 1974.13 3071.73C2028.8 3070.83 2095.19 3069.88 2144.13 3070.71C2175.7 3071.25 2145.12 3073.84 2183.83 3072.32C2192.56 3071.98 2181.17 3070.34 2194.27 3069.98C2217.03 3069.34 2240.64 3068.93 2264.39 3068.55C2298.22 3068.01 2332.27 3067.61 2364.32 3066.77C2375.44 3066.47 2372.38 3064.87 2375.53 3064.55C2401.94 3061.94 2446.04 3065.62 2455.59 3065.87C2528.7 3067.67 2582.03 3066.84 2650.12 3067.13C2665.95 3067.2 2647.26 3064.94 2662.48 3064.94C2741.29 3064.95 2823.02 3065.89 2900.17 3067.89C2917.26 3068.34 2901.52 3069.99 2909.68 3070.3C2945.97 3071.68 2953.94 3068.28 2988.63 3069.6C2995.9 3069.88 2991.77 3071.41 2993.1 3071.6C3013.99 3074.7 3032.19 3071.14 3037.49 3071.15C3105.49 3071.23 3148.81 3076.23 3214.49 3077.24C3222.34 3077.36 3204.72 3074.91 3226.74 3075.37C3334.88 3077.64 3448.02 3081.25 3557.99 3086.07C3597.69 3087.81 3636.03 3089.64 3674.59 3091.65C3696.93 3092.83 3680.91 3093.68 3682.32 3093.93C3705.64 3097.82 3720.49 3094.55 3727.93 3094.72C3786.23 3096.19 3840.4 3102.1 3880.1 3099.5C4061.23 3110.78 4242.17 3119.06 4420.79 3148.24C4446.4 3152.5 4475.03 3154.39 4494.28 3140.13C4522.96 3118.53 4540.84 3084.92 4550.1 3049.74C4550.88 3046.77 4551.45 3052.6 4552.98 3046.63C4566.8 2973.91 4559.23 2986.99 4555.98 2938.53C4554.94 2926.38 4556.43 2888.53 4556.27 2885.21C4556.26 2872.96 4560.37 2885.27 4560.19 2881.18C4558.32 2847.36 4549.74 2853.94 4543.12 2809.05C4542.91 2807.64 4545.55 2813.29 4545.14 2809.49C4543.86 2797.61 4541.3 2786.21 4539.93 2774.62C4536.79 2748.21 4539.65 2738 4529.47 2698.52C4528.16 2693.53 4524.38 2702.27 4516.95 2662.21C4513.93 2646.25 4500.47 2575.61 4497.63 2555.54C4494.62 2535.49 4498.63 2548.93 4498.46 2547.49C4492.18 2493.43 4496.41 2513.62 4496.1 2486.31C4496.12 2464.55 4491.84 2465.43 4488.92 2461.23C4488.18 2460.15 4487.54 2458.74 4487.13 2456.5C4485.01 2445.41 4483.7 2405.53 4483.79 2395.86C4483.78 2386 4485.7 2398.18 4485.49 2389.41C4484.41 2331.92 4479.98 2364.43 4477.64 2345.53C4472.36 2300.99 4477.19 2265.83 4476.75 2224.92C4476.65 2213.82 4475.5 2222.88 4475.14 2213.02C4473.82 2173.98 4475.34 2150.44 4473.28 2106.01C4472.93 2098.69 4469.15 2062.82 4471.82 2039.52C4472.2 2036.23 4473.68 2045.59 4474.03 2028.94C4474.54 2004.06 4475.13 1959.25 4474.93 1932.5C4474.77 1912.76 4472.06 1935.37 4473.11 1910.52C4473.59 1899.48 4474.77 1919.96 4475.55 1899.22C4476.31 1878.58 4477.13 1825.84 4477.51 1805.76C4477.87 1785.76 4475.79 1796.67 4475.7 1795.05C4475.17 1785.18 4475.16 1746.74 4475.26 1743.35C4475.43 1736.07 4475.61 1728.86 4475.8 1721.71C4480.13 1558.56 4490.53 1406.84 4500.64 1247.44C4501.48 1234.28 4498.91 1242.91 4499.02 1240.9C4501.37 1196.28 4504.07 1231.66 4508.07 1200.67C4503.76 1204.93 4505.81 1186.47 4507.77 1154.93C4508.71 1139.79 4506.54 1147.92 4506.49 1146.53C4505.88 1123.76 4510.11 1108.47 4511.05 1104.39C4514.48 1089.81 4513.09 1073.18 4515.4 1063.28C4517.71 1053.2 4518.1 1076.71 4520.45 1046.55C4519.69 1038.04 4514.22 1060.07 4515.42 1037.1C4517.86 987.144 4524.97 911.913 4527.48 844.474C4529.14 794.75 4530.44 748.901 4530.81 719.473C4531.62 649.908 4531.01 627.507 4530.71 586.895C4529.42 513.736 4527.54 540.534 4523.58 495.49C4518.66 450.277 4527.09 471.752 4528.02 465.094C4528.82 458.371 4526.58 451.776 4526.34 443.574C4526.08 435.577 4529.4 452.602 4527.13 433.871C4525.93 415.258 4509.72 364.389 4501.12 362.042C4499.61 360.9 4498.52 360.468 4497.72 360.293L4498.04 360.532C4495.08 360.456 4495.73 362.284 4492.88 361.742C4489.91 361.308 4484.2 358.308 4463.08 354.794C4460.25 354.328 4469.61 353.819 4458.99 352.176C4372.95 341.673 4282.27 340.312 4195.78 336.059C4184.1 335.541 4194.63 333.862 4187.79 333.538C4115.65 330.196 4140.86 334.292 4101.49 336.969C4110.49 332.247 4088.85 328.61 4033.68 327.24C4001.21 326.44 4005.48 328.714 3984.93 329.762C3978.73 330.077 3955.24 328.052 3950.77 328.971C3936.31 331.981 3959.16 336.211 3902.18 333.469C3899.65 333.343 3907.77 331.696 3899 331.394C3843.96 329.48 3837.36 332.826 3776.7 331.998C3776.02 331.989 3775.33 331.979 3774.64 331.969C3728.41 331.277 3644.86 327.562 3592.87 326.243C3593.83 320.68 3543.66 321.014 3522.94 324.482C3487.11 323.664 3451.3 323.236 3416.74 322.092C3405.39 321.71 3412.88 320.227 3411.45 320.027C3389.5 316.901 3374.25 320.379 3366.71 320.394C3285.35 320.409 3219.28 316.473 3141.52 317.997C3138.77 318.053 3134.33 321.857 3113.61 318.698C3112.26 318.482 3138 317.126 3101.38 316.41C3064.58 315.69 2995.62 312.548 2945.43 313.598C2933.31 313.849 2901.79 316.529 2877.04 313.712C2873.77 313.331 2877.38 312.272 2872.64 311.584C2857.32 309.392 2848.86 313.187 2830.7 309.599C2812.4 306.011 2774.71 302.982 2723.58 304.577C2721.95 304.622 2709.77 307.559 2693.53 307.291C2667.96 306.863 2631.83 305.735 2604.79 305.403C2591.87 305.245 2600.12 307.281 2597.87 307.287C2511.89 307.252 2450.5 304.769 2357.88 302.932C2341.12 302.593 2292.38 304.658 2259.4 302.212C2223.58 299.539 2260.78 290.478 2177.87 291.831C2143.98 292.369 2102.52 303.935 2042.04 297.106C1926.01 297.484 1818.19 293.317 1701.5 294.564C1696.18 294.618 1679.63 297.835 1667.35 297.691C1649.1 297.472 1639.07 295.827 1625.99 295.623C1570.94 294.726 1521.22 295.705 1468.16 295.134C1448.04 294.921 1455.04 293.349 1431.22 293.1C1407.38 292.854 1391.46 294.883 1359.01 293.651C1334.42 292.714 1310.11 288.209 1277.67 287.516C1276.4 291.809 1254.15 291.59 1214.37 292.513C1206.72 292.692 1214.91 294.232 1211.29 294.394C1196.59 295.088 1183.12 293.778 1169.19 294.547C1165.81 294.732 1165.64 296.199 1162.87 296.433C1139.35 298.476 1100.49 294.991 1093.8 294.386C1068.19 292.086 1056.38 293.944 1036.79 293.001C1017.24 292.059 1046.48 291.107 1023.64 290.49C976.207 289.212 915.453 289.227 867.3 289.01C848.08 288.933 861.186 290.933 858.436 290.968C818.601 291.341 778.697 289.153 756.622 293.004C729.146 282.847 732.552 293.921 675.941 291.79C671.478 291.618 665.809 286.834 682.946 286.166C700.044 285.498 726.127 287.044 749.948 286.009C755.595 285.765 787.893 281.373 792.29 281.114C826.771 279.089 831.597 286.24 833.438 286.636C854.196 290.924 893.697 286.232 904.076 285.935C951.505 284.57 992.037 285.73 1031.77 284.807C1057.75 284.213 1060.31 279.552 1080.67 279.786C1148.8 280.571 1172.1 287.207 1236.28 281.9C1250.02 280.771 1236.45 275.584 1285.55 279.879C1288.69 280.15 1324.86 284.034 1346.14 281.842C1348.8 281.565 1348.73 280.076 1352.23 279.973C1375.7 279.308 1391.31 280.593 1416.76 280.19C1442.11 279.788 1472.91 279.149 1502.04 279.859C1519.6 280.283 1542.03 283.219 1550.39 283.959C1573.87 286.086 1599.62 283.073 1614.26 285.554C1629.07 288.049 1600.08 291.439 1638.91 293.278C1640.37 289.422 1643.71 285.479 1646.05 281.609C1731 282.412 1814.93 284.381 1900.26 285C1910.8 285.073 1900.04 282.894 1911.34 282.919C1959.3 283.036 2001.16 284.924 2050.7 284.833C2089.49 284.759 2131.15 282.991 2171.56 282.871C2196.45 287.562 2255.21 286.704 2299.13 287.612C2314.34 287.925 2313.31 289.096 2324.09 289.606C2364.69 291.503 2345.69 287.372 2356.81 286.887C2404.58 284.824 2409.1 293.727 2465.2 294.196C2468.02 294.221 2504.88 289.961 2509.94 289.731C2542.06 288.22 2515.25 291.44 2535.3 292.042C2571.71 293.142 2597.14 294.596 2640.18 293.784C2652.84 293.542 2682.13 290.992 2706.9 293.604C2710.11 293.945 2708.31 295.48 2710.9 295.607C2757.64 297.769 2758.79 292.888 2785.2 291.597C2812.06 290.313 2853.2 294.286 2861.43 295.381C2883.13 298.216 2844.76 296.217 2843.53 296.448C2829.57 299.194 2859.59 299.116 2882.2 299.694C2885.26 304.543 2917.77 304.731 2906.08 300.282C2904.81 299.796 2886.61 299.978 2882.2 299.694C2902.41 295.274 2938.12 295.195 2976.41 300.178C2994.42 302.516 2977.5 304.661 3032.89 304.63C3057.91 304.618 3048.32 301.161 3070.24 300.601C3121.36 299.339 3186.87 303.479 3238.82 303.856C3257.5 303.99 3239.35 301.877 3252.1 301.907C3287.15 302 3316.62 303.859 3351.38 303.763C3354.54 303.753 3346.86 301.724 3357.7 301.887C3438.21 303.064 3510.2 305.576 3594.66 307.207C3635.6 307.994 3708.3 308.367 3751.51 309.456C3759.28 309.651 3767.16 309.876 3775.09 310.122C3844.01 312.241 3922.15 316.063 3978.47 316.77C4018.8 317.278 4010.84 315.202 4028.13 314.322C4061.95 312.616 4122.31 318.671 4129.8 319.581C4130.03 319.605 4095.2 319.133 4113.83 320.598C4124.61 322.912 4129.24 319.574 4129.8 319.581C4135.98 320.173 4204.99 322.565 4219.89 322.704C4227.43 322.743 4223.28 320.815 4227.17 320.869C4319.55 325.448 4405.21 314.404 4507.06 344.966C4507.67 345.321 4509.32 346.526 4509.84 347.003C4513.61 350.485 4516.39 354.298 4518.65 357.982C4519.76 359.899 4516.52 358.281 4518.79 362.405C4542.04 420.996 4541.48 455.127 4547.65 501.528C4552.06 547.561 4552.19 584.03 4549.2 611.272C4550.21 645.801 4548.57 695.434 4547.34 723.886C4546.12 752.363 4549.92 756.452 4549.97 758.923C4550.53 791.726 4550.16 818.729 4549.41 844.992C4548.28 881.801 4545.18 916.596 4541.57 963.677C4538.61 1002.27 4533.05 1078.18 4530.26 1119.87C4528.05 1152.89 4525.66 1172.25 4524.02 1202.67C4523.8 1206.74 4525.83 1202.76 4525.81 1204.01C4525.44 1237.94 4522.37 1221.48 4521.11 1228.33C4516.58 1253.24 4513.97 1269.08 4512.47 1312.24C4512.12 1322.15 4516.41 1351.7 4515.7 1369.8C4514.75 1393.72 4513.09 1384.27 4512.22 1409.23C4512.15 1411.33 4513.51 1411.12 4512.63 1426.22C4508.5 1497.18 4504.31 1574.43 4502.01 1648.19C4501.7 1658.21 4504.26 1645.41 4503.85 1659.94C4503.27 1680.48 4502.71 1701 4502.16 1722.4C4500.86 1772.14 4499.55 1823.05 4498.13 1869.82C4497.63 1886.18 4496.28 1875.9 4495.78 1879.45C4492.74 1901.27 4496.33 1932.29 4496.37 1937.4C4497.24 2059.3 4493.75 2152.63 4499.42 2276.58C4499.69 2283.34 4505.95 2335.03 4503.73 2358.27C4503.58 2359.84 4501.16 2382.85 4505.15 2402.9C4505.41 2404.18 4506.24 2389.78 4507.9 2414.62C4508.72 2426.45 4510.31 2442.4 4512.03 2458.87C4513.82 2476.09 4516.11 2495.03 4517.6 2512.34C4518.52 2523.14 4518.8 2548.88 4527.47 2580.23C4527.97 2582.26 4543.67 2630.15 4542.6 2648.62C4542.4 2651.61 4537.07 2649.5 4546.82 2687.18C4548.68 2694.38 4547.23 2680.93 4551.54 2700.03C4558.13 2729.3 4564.08 2768.69 4571.86 2805.11C4573.25 2811.46 4580.6 2838.29 4580.64 2860.85C4580.65 2864.35 4578.31 2857.99 4579.42 2869.62C4584.39 2925.25 4588.93 2984.99 4576.19 3043.31C4571.09 3063.87 4571.43 3052.71 4564.31 3073.59C4557.85 3094.65 4534.38 3134.05 4516.1 3150C4510.92 3155.13 4509.12 3157.21 4508.65 3158.53C4507.88 3160.16 4509.05 3160.48 4507.25 3162.69C4505.46 3164.68 4500.45 3169.64 4486.47 3174.26C4460.95 3181.92 4437.82 3179.5 4416.12 3176.19C4299.43 3157.6 4181.01 3146.61 4061.7 3137.94C4040.92 3136.5 4058.27 3139.13 4027.47 3137.16C3915.03 3129.77 3720.15 3122.25 3622.37 3115.42C3543.95 3109.86 3642.54 3111.7 3582.88 3108.39C3574.38 3107.92 3565.58 3107.91 3557.18 3108.13C3537.71 3108.67 3520.28 3110.51 3515.45 3110.45C3446.98 3109.61 3399.71 3105.98 3338.19 3104.87C3325.59 3104.64 3337.91 3106.96 3327.15 3106.75C3290.2 3106.05 3251.41 3104.15 3216.22 3103.45C3200.41 3103.14 3203.08 3104.71 3188.7 3104.25C3153.81 3103.17 3123.07 3101.87 3089.17 3099.78C3086.06 3099.59 3107.08 3098.14 3081.16 3097.55C3039.55 3096.62 2987.78 3094.32 2939.75 3095.04C2925.58 3095.27 2924.72 3098.68 2894.33 3095.9C2887.93 3095.33 2896.16 3091.3 2860.43 3094.42C2854.5 3094.93 2794.49 3099.08 2765.15 3095.76C2757.46 3094.88 2737.51 3091.35 2720.5 3091.77C2718.18 3091.84 2727.46 3093.74 2713.29 3093.83C2663.28 3094.12 2610.8 3093.75 2559.48 3094.33C2545.74 3094.49 2566.19 3096.39 2545.74 3096.58C2489.52 3097.08 2419.34 3096.93 2364.38 3096.84C2344.12 3096.8 2358.11 3095.09 2356.63 3094.93C2332.91 3092.36 2318.9 3096.3 2311.04 3096.61C2294.56 3097.25 2279.4 3097.54 2264.8 3097.69C2236.07 3097.98 2209.59 3097.71 2179.67 3098.51C2167.23 3098.84 2176.08 3100.49 2173.61 3100.69C2147.91 3102.69 2167.02 3099.14 2150.73 3099.05C2105.14 3098.82 2054.28 3099.93 2008.18 3101.15C1991.25 3101.59 2010.32 3103.27 1995.13 3103.65C1905.21 3105.95 1811.78 3108.17 1723.91 3109.75C1707.41 3110.05 1717.74 3108.12 1714.29 3107.86C1690.45 3106.03 1655.92 3110.7 1647.81 3111.31C1611.53 3114.09 1597.25 3113.19 1565.2 3114.68C1408.3 3121.96 1214.88 3130.52 1067.3 3142.87C1036.05 3145.47 1006.13 3148.22 977.172 3151.3C907.491 3158.72 842.997 3167.18 778.359 3177.37C746.352 3182.38 714.029 3187.99 681.194 3193.55C664.645 3196.29 647.895 3199.17 630.163 3201.08C621.215 3201.93 612.152 3202.9 600.576 3201.7C594.998 3200.92 587.802 3199.99 579.68 3194.06C571.149 3188 567.356 3176.57 567.086 3169.76C566.167 3158.42 565.218 3147.03 564.214 3135.48C563.2 3123.86 562.072 3135.77 561.163 3125.74C549.513 2996.5 533.743 2869.4 516.272 2739.91C514.838 2729.37 514.839 2744.91 512.45 2727.87C507.542 2692.95 501.742 2648.71 497.599 2613.15C495.601 2596 500.428 2618.77 498.369 2601.43C494.754 2571.04 490.747 2540.04 486.338 2508.21C484.874 2497.65 483.353 2486.88 481.79 2476.01C479.204 2458.07 480.801 2485.19 477.666 2462.32C456.174 2305.66 435.365 2152.19 417.187 1993.38C415.93 1982.41 418.884 1972.54 415.048 1949.51C413.66 1947.92 412.308 1948.19 410.969 1947.6C380.424 1719.62 352.839 1493.67 324.755 1264.77C323.564 1255.05 323.419 1272.1 321.106 1253.31C307.81 1145.19 294.479 1040.24 283.902 929.184C282.882 918.398 287.358 923.065 283.102 890.956C282.929 889.653 282.474 886.074 281.858 881.239C279.702 864.261 275.857 833.933 274.099 823.933C273.784 822.24 272.938 831.323 271.156 815.624C260.835 724.152 251.376 628.493 244.634 536.613C243.563 521.834 246.839 537.348 246.103 526.888C240.834 452.208 233.819 370.679 233.707 298.899C233.779 250.77 237.614 268.522 240.612 243.008C241.021 239.415 240.984 209.746 242.933 208.227C247.788 204.295 253.135 218.607 258.306 212.727C259.406 211.485 258.204 171.86 260.902 195.325C261.075 196.976 262.004 225.664 262.982 232.712C263.646 237.627 265.553 228.8 266.431 238.748C267.32 248.823 265.772 259.718 267.042 276.29C268.383 292.893 270.331 285.513 271.656 318.481ZM4540.91 851.973C4538.09 878.351 4544.77 882.64 4544.21 853.835C4544.17 852.426 4541.04 850.608 4540.91 851.973ZM1814.25 289.584C1848.84 292.923 1872.4 288.677 1848.11 286.114C1823.8 283.555 1803.7 288.572 1814.25 289.584ZM1457.26 289.02C1497.63 291.688 1504.03 281.978 1460.79 283.653C1458.27 283.748 1454.9 288.865 1457.26 289.02ZM244.927 361.025C244.986 360.705 244.117 339.451 244.019 338.833C241.328 327.544 243.059 370.287 244.927 361.025ZM1103.06 289.409C1115.65 290.786 1151.84 289.438 1136.23 287.722C1123.68 286.34 1087.38 287.695 1103.06 289.409ZM4480.08 2223.73C4479.99 2224.17 4480.28 2239.37 4480.86 2239.05C4482.69 2238 4481.64 2216.79 4480.08 2223.73ZM500.994 287.902C589.91 288.335 643.826 296.481 546.994 295.456C529.47 295.273 584.76 292.926 562.46 292.175C521.654 290.809 494.516 295.849 452.772 293.124C445.219 292.623 495.925 287.857 501.152 287.891C501.1 287.895 501.046 287.898 500.994 287.902ZM4532.11 866.88C4532.02 867.515 4530.93 888.464 4530.96 889.104C4532.59 900.697 4534.83 857.99 4532.11 866.88ZM4531.67 3101.79C4531.33 3102.2 4525.11 3112.91 4517.14 3122.26C4509.3 3131.79 4499.79 3139.65 4499.22 3140.22C4497.83 3141.74 4497.01 3142.72 4496.73 3143.26C4496.51 3143.7 4496.64 3143.84 4497.09 3143.72C4499.99 3143.04 4514.58 3131.45 4523.58 3118.74C4532.8 3106.18 4537.38 3094.57 4531.67 3101.79ZM3592.02 326.078C3568.11 327.823 3541.73 327.59 3523.05 324.487C3546.28 325.062 3568.21 325.492 3592.02 326.078Z" fill="black"/>
<path d="M412.388 2834.82C422.087 2844.35 434.06 2857.47 443.047 2867.54C445.87 2870.7 443.697 2869.81 445.62 2872.02C449.387 2876.34 453.449 2879.77 457.159 2884.07C458.374 2885.48 455.695 2884.89 456.996 2886.35C464.167 2894.39 471.71 2901.25 479.343 2909.04C505.353 2935.61 532.022 2960.95 559.465 2986.23C571.627 2997.43 583.955 3008.63 596.43 3019.89C609.785 3031.94 625.409 3047.36 639.848 3059.11C641.538 3060.49 641.402 3058.66 641.784 3058.85C647.732 3061.86 644.403 3062.42 647.376 3065.45C659.176 3077.48 673.252 3089.77 685.845 3099.92C691.205 3104.23 687.638 3097.8 691.96 3103.4C692.262 3103.78 690.045 3103.69 691.383 3105.03C694.419 3108.06 700.736 3113.15 703.192 3115.39C707.91 3119.71 708.712 3120.37 713.309 3124.32C719.566 3129.7 726.595 3136.58 733.57 3142.1C735.057 3143.27 734.058 3140.58 736.51 3142.35C738.946 3144.11 744.992 3149.4 746.82 3151.38C748.653 3153.37 747.067 3153.47 747.266 3153.97C748.883 3158.14 757.852 3161.86 758.793 3162.56C776.183 3175.63 789.297 3188.88 804.897 3201.94C816.748 3211.86 829.814 3222.03 841.068 3231.46C844.331 3234.2 847.714 3237.08 850.732 3239.68C860.089 3247.73 868.795 3255.41 878.707 3263.32C880.08 3264.41 879.522 3261.84 881.194 3263.17C889.82 3270.03 898.291 3276.8 906.752 3283.47C910.985 3286.8 915.241 3290.13 919.411 3293.22C921.478 3294.74 923.604 3296.27 925.532 3297.48C926.438 3298.06 927.493 3298.62 927.683 3298.72C927.712 3298.75 927.645 3298.73 927.335 3298.69C927.15 3298.67 926.882 3298.65 926.515 3298.67C926.089 3298.69 925.488 3298.75 924.738 3299C923.039 3299.44 921.054 3301.56 920.708 3302.76C920.246 3303.97 920.331 3304.4 920.32 3304.59C920.396 3304.35 920.371 3303.51 920.213 3302.64C919.864 3300.93 921.888 3302.75 921.565 3300.95C918.87 3288.87 907.263 3268.18 897.457 3265.24C892.099 3257.36 885.32 3247.94 881.054 3240.28C878.373 3235.44 882.902 3238.74 878.186 3233.73C877.11 3232.58 877.264 3235.04 875.727 3233.25C869.465 3225.97 863.188 3217.24 856.706 3210.18C855.36 3208.71 854.721 3209.9 854.197 3209.6C849.978 3207.17 847.376 3199.07 846.561 3197.69C839.799 3186.55 833.497 3179.66 826.027 3170.2C824.278 3167.98 825.042 3171.62 823.329 3169.54C814.512 3158.84 805.692 3147.51 797.757 3136.3C796.033 3133.85 798.852 3135.12 798.084 3133.91C794.678 3128.54 791.676 3129.06 788.311 3123.87C787.614 3122.8 789.012 3122.61 788.972 3122.34C788.359 3118.19 784.045 3117.5 783.405 3116.8C775.259 3107.9 772.933 3099.92 765.504 3091.14C764.605 3090.07 765.326 3093.49 762.869 3090.45C751.233 3076.05 739.51 3060.71 728.421 3045.36C723.963 3039.19 719.68 3033.01 715.581 3026.86C713.359 3023.52 715.983 3025.14 715.948 3024.85C715.314 3020.24 711.344 3019.84 710.487 3018.85C703.771 3010.97 700.281 3001.69 693.367 2997.97C669.411 2961.47 644.538 2925.85 624.213 2887.72C623.951 2887.24 625.718 2887.29 625.186 2886.32C618.836 2874.76 618.264 2878.11 611.239 2872.26C609.469 2870.79 608.729 2863.39 608.599 2862.73C608.197 2860.43 611.243 2861.13 611 2860.43C608.941 2854.68 603.398 2859.38 599.03 2852.67C598.903 2852.45 600.593 2852.61 600.334 2851.97C599.528 2849.98 597.98 2848.58 597.216 2846.59C595.796 2842.82 596.958 2839.83 594.008 2836.16C593.433 2835.44 592.709 2834.7 591.791 2833.92C591.061 2833.33 588.445 2836.71 584.582 2830.78C583.13 2828.49 575.703 2818.25 573.776 2815.29C571.865 2812.29 574.377 2813.45 574.272 2813.21C569.925 2804.58 572.749 2807.12 571.787 2801.67C570.812 2796.27 566.836 2801.14 565.1 2800.06C563.421 2799.03 560.04 2792.65 559.329 2791.05C558.616 2789.43 560.624 2790.51 559.865 2789.17C554.687 2780.27 554.655 2787.77 551.751 2785.91C544.966 2781.69 544.183 2774.17 539.381 2768.65C538.107 2767.2 538.479 2769.04 537.206 2767.9C532.103 2763.35 530.092 2759.46 523.439 2755.28C522.365 2754.6 515.867 2752.59 513.997 2748.52C513.728 2747.93 515.723 2748.08 513.601 2746.05C510.512 2743.07 504.329 2738.14 500.226 2735.82C497.238 2734.13 499.462 2737.88 496.189 2734.99C494.713 2733.71 498.321 2734.77 495.487 2732.44C492.766 2730.14 484.715 2725.39 481.62 2723.81C478.527 2722.18 479.537 2724.34 479.247 2724.29C477.465 2723.93 471.246 2721.58 470.697 2721.35C448.775 2710.83 426.706 2704.2 403.719 2697.19C398.812 2695.65 393.83 2694.27 388.758 2693.13C386.536 2692.63 387.646 2694.45 387.304 2694.39C379.621 2693.2 386.501 2690.72 381.412 2688.23C381.557 2691.39 378.506 2690.07 373.092 2689.59C370.496 2689.39 371.747 2690.75 371.497 2690.84C367.564 2692.12 365.415 2689.87 364.721 2689.44C363.99 2688.93 363.249 2688.83 362.64 2688.95C362.041 2689.05 361.624 2689.46 361.787 2689.46C361.845 2689.5 362.071 2689.19 362.035 2689C362.013 2688.82 361.876 2688.87 361.721 2689.08C361.347 2689.7 360.604 2689.77 360.011 2689.81C359.482 2689.84 358.931 2690.47 360.679 2692.7C362.4 2693.08 362.353 2688.61 364.975 2690.98C376.021 2699.76 398.336 2718.44 407.87 2726.03C417.541 2733.54 420.967 2735.82 426.387 2740.34C436.301 2748.59 433.867 2744.16 440.805 2748.11C447.949 2752.22 441.618 2753.96 441.903 2755.56C442.135 2757.12 443.803 2756.93 444.575 2758.27C445.347 2759.6 442.432 2758.38 444.975 2760.56C447.561 2762.76 455.953 2766.53 457.614 2766.32C461.061 2765.81 459.297 2761.27 465.821 2767.25C466.199 2767.6 464.053 2767.7 465.545 2768.98C468.77 2771.74 471.936 2774.36 475.355 2777.13C484.035 2784.18 493.234 2791.27 501.733 2798.4C503.371 2799.77 500.936 2799.85 501.881 2800.67C511.515 2808.99 509.403 2804.25 516.746 2806.15C513.274 2808.28 514.891 2812.34 522.771 2818.18C527.437 2821.63 527.593 2819.7 531.319 2821C532.435 2821.39 535.11 2824.76 536.183 2824.59C539.672 2824.01 538.206 2819.41 545.571 2826.22C545.893 2826.53 543.944 2826.82 545.118 2827.78C552.769 2834.09 555.151 2832.55 563.942 2838.61C570.734 2843.28 581.71 2853.33 589.179 2859.13C586.506 2862.43 594.27 2866.92 598.946 2866.71C603.787 2870.4 609.268 2874.21 613.798 2878.03C615.358 2879.34 613.554 2879.54 613.683 2879.8C615.629 2883.81 619.466 2883.08 620.601 2883.78C632.818 2891.37 640.98 2900.01 653.281 2906.39C653.718 2906.61 656.093 2904.7 657.777 2908.59C657.881 2908.85 653.439 2907.27 658.577 2911.15C663.72 2915.04 672.582 2923.47 680.617 2927.65C682.562 2928.66 688.382 2929.95 690.831 2934.05C691.155 2934.61 690.138 2934.91 690.544 2935.79C691.868 2938.61 694.831 2937.09 695.928 2941.02C697.014 2944.95 701.312 2950.44 709.609 2954.34C709.873 2954.47 712.971 2953.81 715.255 2955.52C718.897 2958.26 723.757 2962.42 727.599 2965.21C729.439 2966.54 729.13 2964.5 729.464 2964.71C742.204 2973 750.245 2980.5 763.015 2990.54C765.41 2992.42 773.478 2995.84 777.23 3000.55C781.357 3005.72 771.832 3007.67 784.608 3014.89C789.789 3017.84 801.217 3014.89 806.905 3024.93C821.603 3034.47 833.857 3045.47 847.974 3055.21L847.957 3055.2C850.452 3056.98 852.958 3058.69 855.499 3060.31C856.271 3060.8 860.094 3060.51 861.861 3061.9C864.429 3063.92 865.1 3065.93 866.853 3067.37C874.417 3073.58 881.928 3078.03 889.307 3083.88C892.087 3086.08 890.258 3086.23 893.638 3088.9C897.001 3091.56 900.121 3091.91 904.231 3096.06C907.181 3099.08 908.666 3104.4 912.979 3108.22C915.157 3105.77 918.224 3108.22 924.252 3111.8C925.387 3112.46 924.978 3110.71 925.551 3110.97C928.015 3112.14 929.296 3114.33 931.61 3115.32C932.189 3115.58 932.897 3114.71 933.406 3114.87C937.707 3116.13 941.482 3122.28 942.205 3123.4C944.693 3127.47 947.28 3127.66 949.578 3130.31C951.893 3132.98 947.337 3130.41 950.237 3133.22C956.266 3139.05 964.719 3145.62 971.153 3151.12C973.709 3153.31 972.925 3150.69 973.312 3150.97C977.859 3154.42 981.493 3159.02 985.294 3160.83C985.303 3160.84 985.326 3160.86 985.333 3160.87C986.14 3161.38 986.977 3161.77 987.857 3161.99C984.855 3170.56 991.104 3164.86 995.826 3173.9C996.182 3174.59 993.853 3177.56 991.633 3175.43C989.412 3173.31 987.638 3168.91 984.45 3166.23C984.093 3165.93 982.486 3165.26 980.874 3164.72L981.319 3165.17C979.442 3164.72 977.528 3164.3 977.166 3164.11C971.657 3161.33 974.584 3156.74 974.524 3156.28C973.918 3151.48 966.161 3149.77 964.642 3148.86C957.488 3144.46 952.413 3139.44 946.423 3135.74C942.471 3133.3 939.928 3135.82 937.194 3133.53C928.044 3125.9 927.783 3119.42 916.241 3115.92C913.742 3115.15 913.283 3119.7 908.3 3111.99C907.906 3111.44 904.659 3105.41 900.567 3104.5C900.07 3104.4 899.391 3105.3 898.854 3105.01C895.257 3103.02 893.533 3100.56 889.767 3098.22C885.84 3095.75 881.316 3093.1 877.38 3089.61C875.13 3087.6 873.228 3083.49 872.331 3082.16C869.933 3078.46 864.931 3077.71 863.894 3074.66C862.902 3071.62 868.597 3072.5 863.943 3067.49C861.961 3069.68 859.671 3071.73 857.555 3073.84C852.471 3069.91 847.783 3066.1 842.763 3062.03L842.878 3062.12C836.214 3056.86 829.368 3051.47 822.272 3046.34C820.773 3045.26 821.36 3047.66 819.725 3046.53C812.738 3041.71 807.504 3036.47 800.151 3031.63C794.505 3027.93 787.498 3024.87 781.524 3021.02C779.97 3015.71 770.841 3010.44 764.869 3005.69C762.778 3004.03 763.451 3003.41 762.086 3002.05C756.903 2996.91 757.872 3001.31 755.995 3000.52C748.056 2997.18 751.379 2991.27 743.266 2985.55C742.842 2985.25 735.516 2984.34 734.66 2983.99C729.22 2981.82 734.628 2982.42 731.934 2980.12C727.052 2975.95 723.881 2972.57 717.176 2968.98C715.216 2967.93 709.622 2966.61 707.163 2962.68C706.842 2962.16 707.794 2961.39 707.47 2961.06C701.54 2955.3 699.158 2958.17 694.615 2956.42C690.072 2954.66 685.751 2948.32 684.99 2946.85C683 2943.02 687.866 2947.93 688.144 2947.9C691.449 2947.54 686.953 2944.73 683.793 2942.19C685.47 2938.89 680.789 2935.74 680.519 2939.57C680.499 2940 683.23 2941.57 683.793 2942.19C678.812 2942.99 673.536 2939.71 669.964 2932.95C668.297 2929.78 671.831 2930.1 663.559 2924.88C659.806 2922.52 659.702 2925.56 656.142 2923.81C648.011 2919.8 640.025 2911.06 632.384 2905.93C629.612 2904.07 631.422 2907.1 629.5 2905.87C624.375 2902.59 620.682 2898.61 615.461 2895.44C614.986 2895.16 615.225 2897.12 613.682 2896.01C602.003 2887.68 592.48 2879.56 580.404 2870.68C574.564 2866.39 563.677 2859.4 557.708 2854.82C547.389 2846.91 535.76 2835.77 526.503 2829.58C520.476 2825.55 520.914 2827.67 517.857 2826.64C511.808 2824.55 505.431 2815.6 504.531 2814.28C504.497 2814.23 509.784 2817.71 507.509 2815.11C506.849 2812.71 504.592 2814.31 504.531 2814.28C503.958 2813.43 494.181 2805.8 492.003 2804.53C490.836 2803.85 490.625 2805.4 490.033 2805.02C482.058 2799.99 474.055 2794.56 466.474 2789.05C460.55 2784.74 454.814 2780.36 449.238 2775.87C449.01 2775.67 450.289 2774.72 449.743 2774.25C442.224 2767.82 436.246 2765.71 429.012 2761.72C421.927 2757.84 416.941 2753.68 414.74 2748.77C409.572 2745.34 403.443 2739.33 399.727 2735.68C396.193 2732.15 393.75 2734.04 393.387 2733.84C381.22 2727.02 375.86 2720.98 364.532 2711.49C362.653 2709.88 359.892 2707.64 356.885 2704.94C355.3 2703.49 353.752 2702.09 351.842 2699.84C350.836 2698.56 349.83 2697.5 348.521 2694.52C347.969 2693.1 347.16 2690.98 347.431 2687.57C347.634 2684.27 349.695 2680.61 351.62 2678.88C354.79 2675.97 356.974 2675.52 358.558 2674.98C360.177 2674.53 361.371 2674.35 362.45 2674.22C364.551 2673.98 366.144 2673.96 367.489 2673.96C374.951 2674.13 378.287 2675.61 384.088 2676.31C384.851 2676.42 384.368 2674.96 384.608 2674.96C391.231 2674.8 387.478 2677.3 388.625 2678.15C392.72 2681.3 395.148 2683.05 402.988 2684.3C403.863 2684.45 405.837 2683.82 408.026 2683.24C410.162 2682.58 412.532 2681.94 414.09 2682.25C418.087 2683.04 416.155 2684.23 420.417 2685C420.781 2685.07 420.998 2684.06 423.563 2684.83C435.566 2688.35 449.202 2692.84 462.08 2697.75C463.855 2698.43 462.169 2696.01 464.763 2696.99C476.795 2701.51 489.636 2708.02 499.941 2715.31C502.505 2717.13 500.221 2717.06 500.613 2717.7C502.92 2721.55 509.395 2722.34 510.204 2722.84C529.819 2734.88 540.968 2748.7 557.498 2764.29C558.407 2765.11 567.25 2770.05 567.969 2775.12C568.048 2775.49 568.63 2780.46 572.453 2782.05C572.695 2782.15 572.125 2779.2 574.943 2782.82C577.824 2786.52 583.087 2791.54 585.639 2797.5C586.41 2799.33 587.051 2804.8 592.276 2808.16C592.587 2808.3 602.104 2812.86 601.053 2817.48C600.882 2818.25 597.53 2819.85 603.044 2824.54C604.105 2825.45 603.406 2822.95 605.835 2825.61C606.302 2826.13 606.763 2826.68 607.221 2827.27C610.309 2831.21 613.254 2836.7 617.563 2840.68C618.446 2841.5 623.184 2844.18 623.701 2848.5C623.779 2849.17 622.118 2848.87 623.111 2850.67C627.838 2859.23 633.995 2867.4 638.549 2876.19C640.176 2879.32 637.524 2878.86 639.016 2882.22C640.518 2885.59 644.004 2892.06 646.792 2894.77C649.596 2897.49 650.061 2892.29 653.321 2896.96C667.483 2917.26 679.093 2938.83 692.524 2959.4C694.518 2962.45 693.782 2959.31 696.791 2963.75C707.846 2980.17 728.347 3007.32 736.734 3022.37C743.436 3034.49 731.867 3021.59 737.56 3030.43C738.723 3032.23 740.513 3033.65 742.256 3034.74C744.682 3036.29 747 3037.23 747.49 3037.76C755.736 3046.55 759.605 3054.22 766.605 3062.42C768.071 3064.14 767.896 3061.47 769.13 3062.94C773.359 3067.96 776.953 3073.66 780.928 3078.55C782.693 3080.71 783.277 3079.6 784.781 3081.67C788.331 3086.53 791.425 3091.25 794.228 3096.55C794.486 3097.03 791.114 3095.04 793.855 3098.62C798.382 3104.5 803.118 3112.22 809.286 3118.26C811.101 3120.02 813.198 3118.46 815.117 3123.8C815.53 3124.92 812.181 3125.75 818.226 3129.01C819.233 3129.56 828.655 3135.56 830.041 3141.09C830.413 3142.55 830.51 3146.8 832.756 3148.98C833.063 3149.26 833.132 3147.09 834.81 3148.98C840.65 3155.6 846.279 3162.91 852.295 3169.78C853.902 3171.61 852.788 3167.87 855.141 3170.62C861.561 3178.11 869.064 3188.16 874.694 3196.04C876.804 3198.99 874.309 3197.77 874.37 3198.06C875.319 3202.7 879.048 3202.8 880.056 3203.81C886.268 3210.1 889.223 3216.08 894.422 3222.24C895.861 3223.95 895.98 3221.86 896.348 3222.13C900.084 3225.03 896.062 3223.84 897.592 3226.28C901.983 3233.27 907.424 3240.28 912.534 3246.96C914.354 3249.34 913.658 3245.69 915.267 3247.83C925.035 3261.33 934.926 3273.62 941.777 3293.21C942.358 3295.19 942.116 3295.74 941.769 3295.82C941.413 3295.88 940.913 3295.51 940.916 3296.02C940.915 3297.29 941.027 3298.61 941.168 3299.98C941.333 3301.48 941.534 3303.29 941.568 3305.11C941.503 3306.57 941.659 3308.43 940.042 3312.01C938.676 3315.62 933.157 3319.62 929.907 3320.04C923.459 3321.13 922.102 3319.95 920.511 3319.81C917.633 3319.15 916.49 3318.82 915.751 3318.55C907.565 3315.28 906.642 3312.95 901.527 3309.59C879.317 3294.34 855.681 3273.93 836.166 3257.32C834.801 3256.15 833.438 3254.98 832.085 3253.82C806.057 3231.53 786.563 3213.66 761.445 3192.9C759.858 3191.58 760.399 3194.17 759.016 3193.05C741.138 3178.48 724.267 3163.35 706.379 3148.73C704.91 3147.52 705.994 3150.47 703.602 3148.58C698.718 3144.72 692.743 3139.51 688.279 3135.05C686.095 3132.87 690.092 3134.54 687.876 3132.37C682.714 3127.3 676.922 3122.2 671.142 3117.56C668.68 3115.59 671.26 3119.89 668.141 3117.23C646.874 3099.18 625.934 3081.44 606.039 3061.38C604.681 3060 605.49 3056.45 601.994 3054.22C601.175 3054.68 600.498 3055.48 599.771 3056.11C580.294 3039.51 561.321 3022.34 542.558 3005.07C531.539 2994.93 520.536 2984.7 509.467 2974.44C508.2 2973.27 509.244 2976.54 506.791 2974.28C492.645 2961.22 478.551 2948.68 465.467 2933.8C464.16 2932.31 466.945 2930.85 462.493 2927.19C461.676 2926.52 455.166 2920.77 453.1 2919.66C452.814 2919.52 452.969 2921.62 450.946 2919.7C439.099 2908.44 427.226 2896.14 416.451 2883.9C414.711 2881.92 417.731 2882.88 416.504 2881.47C407.804 2871.44 397.012 2861.82 389.284 2851.73C384.12 2844.98 388.14 2845.48 386.885 2840.48C386.706 2839.78 383.154 2835.95 384.035 2834.74C386.243 2831.69 390.924 2830.74 393.071 2827.28C393.536 2826.53 388.061 2822.08 392.399 2823.68C392.698 2823.79 396.681 2827.01 398.044 2827.43C398.991 2827.73 398.999 2825.57 400.667 2826.43C402.335 2827.3 402.76 2829.57 405.31 2831.2C407.865 2832.82 408.204 2830.71 412.388 2834.82ZM383.523 2719.52C380.728 2715.59 376.96 2719.29 381.731 2721.37C381.964 2721.46 383.671 2719.73 383.523 2719.52ZM836.871 3052.02C833.406 3046.6 828.027 3046.86 830.424 3050.84C832.774 3054.78 837.962 3053.69 836.871 3052.02ZM888.03 3088.68C883.511 3082.93 878.088 3088.13 885.056 3091.57C885.455 3091.77 888.291 3089.02 888.03 3088.68ZM401.751 2855.06C401.756 2854.97 399.215 2852.21 399.099 2852.19C396.514 2851.89 401.609 2857.42 401.751 2855.06ZM938.538 3125.38C937.502 3123.29 931.671 3120.21 933.076 3122.89C934.29 3125.11 939.942 3128.07 938.538 3125.38ZM541.063 2766.72C541.058 2766.82 542.9 2768.8 543.179 2768.46C544.067 2767.33 541.136 2764.93 541.063 2766.72ZM1012.33 3200.15C1002.74 3187.61 1002.02 3176.34 1011.8 3190.24C1013.6 3192.76 1006.18 3186.18 1008.15 3189.63C1011.77 3195.95 1017.74 3197.26 1020.78 3204.25C1021.31 3205.52 1012.85 3200.87 1012.31 3200.13C1012.32 3200.14 1012.33 3200.14 1012.33 3200.15ZM385.233 2712.92C385.174 2712.79 382.274 2710.47 382.188 2710.49C379.583 2710.58 385.414 2715.24 385.233 2712.92ZM630.747 2895.38C630.732 2895.63 635.241 2903.02 635.507 2903.19C640.216 2905.55 631.107 2890.61 630.747 2895.38ZM589.232 2859.31C593.487 2860.35 597.539 2863.08 598.933 2866.7C595.716 2864.21 592.437 2861.78 589.232 2859.31Z" fill="black"/>
<path d="M621.379 158.604C611.928 163.795 600.148 169.659 589.169 174.889C584.643 177.042 580.152 179.141 576.132 180.994C571.798 182.998 573.552 181.047 570.536 182.401C564.722 185.008 559.542 188.232 553.829 190.77C551.888 191.632 553.536 189.095 551.507 190.034C540.578 195.097 530.75 200.849 519.918 206.495C466.6 234.308 415.84 264.952 364.448 297.926C347.625 308.717 326.696 321.204 309.942 333.385C309.824 333.471 309.706 333.557 309.588 333.643C307.646 335.061 309.557 335.313 309.24 335.659C304.232 341.079 304.727 337.579 300.627 339.99C284.396 349.541 267.201 361.481 252.739 372.39C246.606 377.025 254.37 374.635 247.23 377.963C246.735 378.197 247.529 375.947 245.726 377.056C241.627 379.578 234.397 385.069 231.322 387.153C225.391 391.161 224.439 391.867 218.951 395.824C211.45 401.22 202.154 407.159 194.338 413.289C192.67 414.603 195.764 414.071 193.181 416.267C190.588 418.468 183.364 423.654 180.718 425.206C178.092 426.74 178.469 425.087 177.889 425.202C173.084 426.103 166.571 434.648 165.535 435.517C146.847 451.051 129.266 462.305 111.298 476.286C97.6552 486.912 83.5417 498.823 70.8306 509.18C55.7957 521.523 42.3414 531.655 29.5728 544.784C28.2385 546.204 30.9633 545.722 29.4245 547.39C28.3283 548.587 26.9024 550.232 26.0479 551.359C25.9375 551.504 25.833 551.642 25.7349 551.775C25.6316 551.915 25.4841 552.118 25.3768 552.271C25.1518 552.592 24.9758 552.863 24.8528 553.068C24.7284 553.275 24.6639 553.403 24.6403 553.457C24.6234 553.48 24.7718 553.258 24.8978 552.468C25.0291 552.3 25.1775 548.616 22.7755 546.39C21.5741 545.242 20.861 545 20.2458 544.74C19.6327 544.51 19.1841 544.435 18.8911 544.398C18.2814 544.341 18.3857 544.384 18.448 544.367C18.5373 544.358 18.7485 544.328 19.0499 544.266C20.4508 543.959 21.6556 543.577 23.6844 542.844C38.9787 536.882 55.3159 528.258 71.3341 520.491C73.632 519.364 71.4293 522.221 73.7767 521.164C88.2381 514.643 111.97 504.391 116.695 494.361C126.411 489.045 137.659 482.775 146.603 478.993C152.355 476.561 147.946 480.988 154.217 476.513C155.641 475.499 152.986 475.459 155.178 474.026C164.291 468.062 174.92 462.268 183.642 456.225C185.439 454.979 184.293 454.22 184.71 453.711C188.236 449.5 197.377 447.5 199.026 446.762C212.17 440.753 220.878 434.749 232.438 427.786C235.136 426.161 231.089 426.67 233.656 425.054C246.758 416.826 260.639 408.527 274.061 401.172C277.062 399.531 275.123 402.381 276.596 401.658C283.024 398.49 282.944 395.397 289.094 392.299C290.389 391.642 290.33 393.103 290.625 393.078C295.241 392.698 296.761 388.281 297.636 387.666C308.526 379.914 317.57 377.969 328.304 370.815C329.592 369.952 325.812 370.485 329.484 368.14C353.977 352.485 380.284 336.596 405.308 322.375C409.194 320.164 407.104 322.835 407.417 322.806C412.484 322.254 413.425 318.15 414.601 317.281C423.922 310.484 434.337 306.887 439.078 299.714C480.942 274.822 520.798 247.173 563.253 223.74C563.792 223.439 563.653 225.269 564.724 224.663C577.56 217.409 573.904 217.046 580.684 209.375C582.393 207.445 590.461 206.254 591.136 206.112C593.627 205.588 592.735 208.758 593.5 208.474C594.301 208.168 594.92 207.812 595.408 207.415C598.871 204.61 596.07 199.881 602.673 195.616C602.916 195.473 602.645 197.229 603.35 196.931C605.543 196.008 607.195 194.312 609.343 193.468C614.279 191.535 617.913 193.36 623.507 187.303C624.203 186.535 620.717 183.921 627.461 179.774C630.325 178.013 642.082 170.28 645.566 168.322C649.09 166.34 647.49 168.958 647.763 168.848C657.757 164.408 654.712 167.257 660.585 166.503C666.393 165.777 661.864 161.409 663.329 159.632C664.834 157.832 672.191 154.728 674.04 154.111C675.903 153.487 674.383 155.487 675.949 154.797C686.506 150.073 678.478 149.492 681.088 146.611C687.143 139.866 695.492 139.805 702.408 135.761C704.271 134.673 702.236 134.778 703.776 133.641C710.14 128.981 714.585 127.734 721.294 121.703C722.434 120.689 726.65 114.591 731.674 113.645C732.382 113.52 731.46 115.5 734.364 113.863C738.66 111.449 746.162 106.713 750.314 103.461C753.349 101.079 748.643 101.997 752.987 99.7695C754.979 98.7387 752.171 101.95 755.855 99.9433C759.51 97.9578 768.07 92.1068 771.336 89.8412C774.547 87.6146 771.979 87.6454 772.188 87.3882C773.4 85.9057 779.455 80.956 779.949 80.6195C807.719 61.4835 834.797 45.4977 861.241 25.8282C863.263 24.3291 861.032 24.0739 861.332 23.8327C868.282 18.1709 864.77 25.5011 870.656 22.9894C868.182 21.0252 871.474 19.3666 876.425 15.5335C878.815 13.6872 876.807 13.6469 876.961 13.3943C878.449 11.1639 880.385 10.1854 881.857 9.82582C883.124 9.47486 884.099 9.51209 884.506 9.4937C887.953 9.2932 889.609 5.82859 891.964 5.78263C894.331 5.7425 891.192 9.47791 896.316 6.57018C897.412 4.77751 891.781 4.48573 896.038 1.80541C896.325 1.6394 896.601 1.48605 896.887 1.33688C897.236 1.16126 897.578 1.00109 897.925 0.856663C898.107 0.781308 898.368 0.686151 898.599 0.611829C898.718 0.573444 898.839 0.536976 898.964 0.502784C899.027 0.48569 899.09 0.469166 899.155 0.453291C899.238 0.433759 899.334 0.413066 899.427 0.395089C899.826 0.324934 900.16 0.264229 900.817 0.292444C901.612 0.39843 902.602 0.357922 904.052 1.83596C905.346 3.42742 905.22 4.65587 905.169 5.49259C905.093 6.15449 904.961 6.55976 904.816 6.96876C904.597 7.5799 904.308 8.11849 904.116 8.467C904.007 8.66262 903.892 8.85673 903.771 9.05202C903.66 9.2312 903.563 9.38399 903.452 9.55234C903.343 9.71811 903.229 9.88577 903.11 10.056C903.002 10.2116 902.901 10.3543 902.79 10.5067C900.996 12.945 899.091 15.0051 896.98 17.1749C892.815 21.4219 888.098 25.5979 883.379 29.5469C874.446 36.987 865.577 43.612 860.425 47.8538C849.75 56.5985 846.565 59.5914 840.208 64.5324C828.79 73.4367 834.195 71.558 828.03 78.1891C821.857 84.8516 821.77 78.059 820.061 78.073C818.386 78.0601 818.098 79.8342 816.485 80.4356C814.881 81.0293 816.964 78.1942 814.02 80.4725C811.115 82.7123 804.715 91.0087 804.575 92.6931C804.145 96.3723 809.236 95.3051 801.329 101.121C800.872 101.456 801.335 99.2206 799.628 100.557C786.093 111.211 772.803 123.133 759.52 133.996C757.679 135.5 758.227 132.95 757.142 133.815C748.961 140.33 749.679 141.271 749.127 144.202C748.947 145.262 748.604 146.587 747.572 148.572C746.346 144.574 741.463 145.913 733.548 153.177C728.674 157.652 730.685 158.041 728.369 161.762C727.687 162.869 723.479 165.218 723.4 166.348C723.104 170.076 728.258 169.168 719.247 175.977C718.847 176.275 719.062 174.183 717.747 175.287C709.369 182.307 710.184 185.169 701.711 193.487C695.121 199.959 681.836 210.132 673.972 217.114C671.227 213.869 664.598 221.388 663.624 226.302C658.504 230.922 653.209 236.097 648.084 240.335C646.325 241.791 646.58 239.87 646.279 239.97C641.634 241.462 641.388 245.59 640.377 246.688C629.39 258.449 618.35 265.825 608.586 277.847C608.24 278.274 609.611 281.029 605.146 282.258C604.851 282.331 607.635 277.89 602.294 282.744C596.951 287.599 585.931 295.741 579.548 303.576C578.003 305.469 575.145 311.415 570.279 313.401C569.627 313.663 569.574 312.556 568.562 312.857C565.303 313.848 566.108 317.174 561.753 317.776C557.405 318.371 550.622 322.11 544.442 330.257C544.241 330.514 544.093 333.881 541.742 336.02C538.002 339.421 532.372 343.989 528.518 347.594C526.674 349.32 528.857 349.293 528.554 349.612C516.618 361.83 506.824 369.136 493.022 381.115C490.516 383.284 484.741 391.334 478.951 394.51C472.494 398.092 473.044 387.82 462.143 400.144C457.757 405.091 457.806 417.43 445.779 421.957C445.105 422.635 444.432 423.303 443.761 423.961L443.789 423.937C427.657 438.832 410.564 450.314 394.473 465.416C393.749 466.098 392.752 470.183 390.823 471.688C387.948 473.927 385.718 474.183 383.623 475.754C374.904 482.242 367.745 489.142 359.369 495.37C356.196 497.727 356.51 495.939 352.715 498.739C348.988 501.48 347.314 504.778 341.797 507.905C337.481 510.366 331.705 510.501 326.273 513.953C328.019 516.723 324.355 519.311 318.511 524.496C317.361 525.513 319.354 525.5 318.844 526.029C316.769 528.21 314.083 528.935 312.165 531.041C311.694 531.554 312.304 532.49 311.955 532.96C309.056 536.974 301.225 539.23 299.928 539.564C294.74 541.033 293.676 543.469 290.002 545.082C286.402 546.638 290.797 542.814 286.807 544.925C278.507 549.324 268.445 555.765 260.202 560.53C256.913 562.439 259.904 562.416 259.451 562.72C252.855 567.015 245.191 569.445 242.763 574.135C234.32 569.947 238.967 577.086 228.253 580.871C227.411 581.159 224.772 578.432 227.529 576.423C230.308 574.402 235.324 573.063 239.087 570.086C239.949 569.409 243.898 563.361 244.514 562.773C249.632 558.066 253.094 562.303 253.576 562.377C258.728 563.146 263.552 556.03 265.185 554.74C272.589 548.926 279.671 545.356 285.778 540.411C289.813 537.146 288.205 533.942 291.616 531.811C302.847 524.728 309.494 526.143 317.271 515.368C318.908 513.068 314.554 511.434 324.089 508.319C324.695 508.122 332.128 506.167 334.413 502.269C334.702 501.778 334.015 500.878 334.515 500.389C337.832 497.161 340.806 496.063 344.557 492.687C348.242 489.361 352.661 485.173 357.408 481.983C360.347 480.001 365.017 479.031 366.666 478.394C371.328 476.634 373.636 471.695 377.055 471.278C380.479 470.866 377.711 476.591 384.451 472.712C382.833 470.239 381.449 467.478 379.952 464.887C393.067 454.519 406.404 444.786 419.216 433.872C420.786 432.529 418.149 432.678 419.81 431.204C425.79 425.901 431.583 421.993 437.664 416.771L437.43 416.977C438.507 415.996 439.593 414.968 440.689 413.876C446.109 408.477 451.145 401.614 456.644 396.006C462.529 395.185 470.443 386.368 476.897 380.836C479.181 378.876 479.644 379.672 481.426 378.428C488.031 373.809 483.266 374.157 484.562 372.323C490.207 364.387 495.297 368.853 503.404 361.115C503.825 360.717 506.679 353.175 507.265 352.325C510.924 346.941 508.89 352.521 511.962 350.032C517.572 345.483 521.847 342.68 527.336 336.136C528.953 334.205 531.737 328.556 536.44 326.539C537.058 326.274 537.611 327.38 538.031 327.084C545.562 321.648 543.177 318.773 546.172 314.253C549.161 309.738 556.843 306.087 558.566 305.493C563.044 303.937 556.698 308.36 556.656 308.656C556.169 312.176 560.253 307.836 563.682 304.892C566.655 307.118 571.132 302.635 567.234 301.822C566.801 301.741 564.46 304.395 563.682 304.892C564.132 299.564 568.914 294.468 576.811 291.674C580.512 290.365 579.281 294.024 586.805 286.071C590.222 282.462 587.103 281.933 589.831 278.442C596.067 270.466 607.161 263.302 614.437 255.988C617.081 253.331 613.475 254.817 615.249 252.967C619.943 248.064 625.036 244.715 629.642 239.682C630.058 239.225 627.974 239.199 629.505 237.742C641.135 226.636 651.994 217.748 664.279 206.316C670.193 200.811 680.27 190.328 686.537 184.715C697.387 174.98 711.948 164.328 720.744 155.507C726.468 149.774 724.164 149.941 726.086 146.83C729.158 141.802 737.623 137.005 740.987 135.325C741.621 134.998 742.087 134.773 742.325 134.664C742.34 134.658 741.889 135.119 741.341 135.712C740.145 137.018 738.463 138.998 740.704 137.641C741.593 137.536 742.053 137.171 742.277 136.732C742.74 135.852 742.289 134.703 742.325 134.664C743.362 134.171 753.895 124.986 755.717 122.961C756.711 121.852 755.169 121.407 755.724 120.831C768.794 107.283 782.376 94.583 797.038 82.4458C797.303 82.2484 797.946 83.7205 798.554 83.2431C807.206 76.4935 811.255 70.457 817.38 63.6521C823.508 56.8492 829.209 52.438 834.979 50.95C839.971 46.2342 848.168 40.7973 852.923 37.6933C857.667 34.5969 856.333 31.8255 856.673 31.4603C862.371 25.286 867.218 21.1929 872.266 17.0809C876.519 13.5977 881.049 10.0595 885.913 5.29455C887.115 4.10972 888.646 2.5003 889.795 1.06496C890.079 0.710253 890.322 0.379836 890.433 0.204011C890.48 0.129583 890.495 0.0876446 890.407 0.226791C890.366 0.293309 890.273 0.451094 890.15 0.710848C890.047 0.939356 889.812 1.41363 889.569 2.3752C889.482 3.04388 888.573 5.41993 890.255 9.47671C891.19 11.7198 893.395 13.921 895.254 14.847C896.802 15.6726 898.155 15.966 899.161 16.0924C902.416 16.3179 902.467 15.883 902.867 15.8705C903.168 15.7865 903.122 15.7985 903.06 15.8346C902.978 15.8767 902.854 15.9394 902.668 16.0368C899.303 17.8268 894.279 21.3691 891.129 23.6659C891.025 23.7418 890.922 23.8174 890.82 23.8924C885.772 27.6133 882.158 29.3018 877.538 33.0823C876.916 33.5915 878.34 34.2105 878.169 34.3929C873.586 39.5517 874.397 35.024 872.928 35.3497C867.573 36.5487 864.477 37.3654 858.018 43.1321C856.499 44.4805 854.518 51.5816 851.681 53.9085C848.105 56.8431 848.482 54.5363 844.741 57.6545C844.415 57.9228 845.104 58.7007 842.574 60.416C830.785 68.427 817.99 76.5707 805.932 84.9789C804.279 86.1269 807.339 86.0095 804.952 87.6989C793.878 95.5374 781.579 103.834 770.183 110.611C767.395 112.262 768.433 110.177 767.66 110.289C762.886 111.031 759.467 116.939 758.679 117.537C739.42 132.219 722.497 140.235 702.633 154.901C701.428 155.788 694.815 163.989 689.349 164.291C688.98 164.315 683.568 164.508 681.331 168.276C681.188 168.513 684.342 168.176 680.146 170.752C675.935 173.339 669.711 178.571 663.211 180.915C661.18 181.643 655.168 182.218 651.137 187.513C650.895 187.857 645.358 197.494 640.405 196.549C639.615 196.377 638.047 192.995 632.741 198.694C631.72 199.794 634.389 199.045 631.445 201.566C626.928 205.439 619.692 208.944 614.57 214.209C613.669 215.138 610.484 220.176 605.74 220.971C605.04 221.088 605.388 219.543 603.727 220.325C603.628 220.37 603.523 220.424 603.41 220.488C594.095 225.703 584.708 232.716 575.076 237.877C571.615 239.739 572.231 236.978 568.488 238.742C564.682 240.547 557.594 244.472 554.477 247.544C551.368 250.612 557.019 250.77 551.745 254.44C528.918 270.325 504.65 283.531 481.015 298.146C477.527 300.302 481.012 299.445 475.904 302.696C457.007 314.741 424.893 336.175 407.142 344.417C392.928 351.022 408.745 339.399 398.249 345.03C393.188 347.75 389.875 354.168 388.762 354.999C377.915 363.155 369.056 366.741 358.985 373.585C356.907 374.997 359.788 374.97 358.011 376.158C351.972 380.211 345.03 383.727 339.173 387.494C336.543 389.19 337.634 389.859 335.143 391.296C329.199 394.737 323.692 397.572 317.424 400.177C316.852 400.415 319.618 397.04 315.253 399.668C308.248 403.889 298.839 408.435 291.367 414.297C289.137 416.05 290.456 418.306 284.293 419.966C283.007 420.311 282.751 416.791 278.129 422.796C277.312 423.825 269.253 433.033 262.944 434.116C261.3 434.392 256.603 434.247 253.922 436.35C253.564 436.643 255.863 436.887 253.539 438.461C245.453 443.914 236.25 449.317 227.91 454.867C225.665 456.363 229.878 455.515 226.463 457.731C216.977 463.886 204.984 470.658 195.339 475.888C191.825 477.788 193.577 475.341 193.26 475.378C188.178 475.933 187.283 479.809 185.986 480.777C177.987 486.704 171.265 489.117 163.522 494.096C161.432 495.438 163.644 495.725 163.28 496.081C159.488 499.699 161.511 495.653 158.603 497.049C150.671 500.822 141.649 506.22 133.972 510.867C131.034 512.645 135.166 512.089 132.526 513.664C117.441 522.703 100.812 531.995 85.0711 539.629C82.1068 541.062 83.3348 538.994 82.6009 539.077C77.7471 539.511 72.5396 545.337 71.3253 546.266C65.8126 550.511 62.0863 551.235 56.7908 554.151C48.9834 558.343 41.965 562.101 32.2098 565.904C30.153 566.676 28.226 567.322 26.289 567.845C25.1532 568.153 23.5056 568.536 21.9538 568.749C21.152 568.862 20.3073 568.948 19.3771 568.986C17.8931 569.038 15.9935 569.007 13.6405 568.436C11.2103 567.66 8.67599 567.374 4.38482 562.751C0.585196 558.602 0.0650782 551.921 0.39237 550.08C0.786248 545.697 2.41558 542.842 3.06432 541.584C4.49489 538.961 6.23908 536.733 7.3423 535.369C12.5384 529.114 17.3342 524.719 22.1552 520.254C31.786 511.477 41.3233 503.662 49.8921 496.717C80.1004 472.443 104.267 455.337 133.298 432.903C135.13 431.494 132.289 431.603 133.858 430.371C154.269 414.448 175.131 399.782 195.804 384.13C197.505 382.846 194.113 383.408 196.815 381.305C202.335 376.995 209.573 371.855 215.612 368.111C218.554 366.284 215.568 370.067 218.513 368.206C225.363 363.886 232.503 358.908 239.115 353.897C241.927 351.762 236.672 353.565 240.403 350.889C258.682 337.756 276.809 324.851 295.728 312.676C303.241 307.839 310.683 303.245 318.429 298.709C320.313 297.608 323.61 299.25 327.161 296.125C326.956 295.191 326.356 294.332 325.953 293.457C363.608 267.578 402.246 244.09 441.63 220.581C443.278 219.598 439.563 219.849 442.745 217.942C461.382 206.784 479.344 195.785 499.543 186.411C501.563 185.472 501.964 188.663 507.453 185.097C508.41 184.465 516.798 179.388 518.651 177.646C518.914 177.391 516.651 177.035 519.43 175.475C535.345 166.556 552.573 157.884 569.137 150.357C571.771 149.164 569.708 151.892 571.599 151.049C573.078 150.385 574.524 149.715 575.932 149.045C588.104 143.242 600.316 136.121 612.14 131.436C620.946 127.961 619.01 131.833 624.651 131.797C625.442 131.793 630.7 129.19 631.637 130.368C633.995 133.32 633.29 138.214 636.111 141.206C636.704 141.85 643.249 137.552 640.044 141.451C639.823 141.711 635.094 144.862 634.179 146.11C633.519 146.986 635.754 147.528 634.283 148.967C632.796 150.413 630.269 150.293 627.685 152.424C625.077 154.578 627.165 155.421 621.379 158.604ZM874.086 23.7211C875.321 23.1252 876.053 22.3747 876.378 21.6937C877.069 20.2762 876.129 19.0966 874.653 19.7583C874.059 20.0194 873.371 20.5902 872.65 21.5835C872.496 21.808 873.842 23.8421 874.086 23.7211ZM408.839 447.822C415.503 445.306 416.91 439.704 412.089 441.4C407.311 443.057 406.787 448.61 408.839 447.822ZM354.866 493.03C362.244 489.666 358.667 483.048 352.926 489.351C352.58 489.722 354.429 493.232 354.866 493.03ZM604.205 143.044C604.338 143.054 608.081 141.216 608.16 141.098C609.405 138.594 601.827 142.319 604.205 143.044ZM299.295 535.39C301.904 534.854 307.164 529.856 303.924 530.557C301.299 531.143 296.055 536.063 299.295 535.39ZM703.998 137.773C703.89 137.751 701.361 139.341 701.652 139.677C702.61 140.746 705.846 138.123 703.998 137.773ZM196.52 595.158C211.832 585.816 224.094 586.768 207.234 595.239C204.188 596.846 212.68 589.871 208.606 591.558C204.875 593.097 202.33 595.443 199.873 597.731C198.648 598.877 197.428 600.017 196.149 601.075C195.516 601.602 194.848 602.126 194.299 602.56C194.166 602.664 194.042 602.763 193.949 602.832C193.86 602.884 193.803 602.957 193.848 602.733C193.858 602.63 193.932 602.371 193.845 601.925C193.763 601.426 193.353 600.906 193.046 600.741C192.485 600.459 192.52 600.652 192.592 600.696C192.663 600.748 192.682 600.846 192.599 600.979C192.561 601.045 192.508 601.118 192.461 601.196C192.412 601.278 192.364 601.34 192.448 601.499C192.483 601.576 192.584 601.729 192.61 601.916C192.641 602.109 192.568 602.241 192.51 602.256C192.385 602.279 192.357 602.031 192.389 601.797C192.453 601.304 192.718 600.687 192.996 600.113C194.205 597.745 196.103 595.425 196.542 595.134C196.534 595.142 196.527 595.15 196.52 595.158ZM880.479 26.4584C880.489 26.457 880.522 26.4359 880.572 26.3985C881.133 25.9875 883.761 23.6816 883.783 23.5716C884.204 21.4474 880.53 24.2903 879.971 25.7236C879.817 26.1341 879.926 26.4306 880.479 26.4584ZM554.565 231.003C554.305 230.996 546.106 236.075 545.901 236.366C543.124 241.367 559.715 231.099 554.565 231.003ZM673.772 217.145C671.546 221.51 667.746 225.327 663.641 226.29C667.043 223.264 670.339 220.208 673.772 217.145Z" fill="black"/>
<path d="M4057.34 193.506C4065.47 200.798 4075.47 211.071 4082.85 219.02C4085.15 221.499 4083.27 220.987 4084.86 222.763C4087.95 226.196 4091.45 228.89 4094.38 232.256C4095.37 233.389 4093.01 233.177 4094.06 234.344C4100.03 240.878 4106.07 246.057 4112.4 252.418C4142.82 283.062 4173.89 312.446 4205.84 342.526C4216.22 352.309 4228.62 365.393 4239.9 374.827C4241.24 375.953 4241.33 374.295 4241.65 374.441C4246.63 376.761 4243.59 377.518 4245.92 380.096C4254.88 390.053 4265.93 400.2 4276.04 408.64C4276.12 408.705 4276.2 408.767 4276.27 408.826C4280.17 411.937 4277.94 406.652 4281.02 411.316C4281.25 411.645 4279.29 411.735 4280.32 412.849C4282.64 415.373 4287.7 419.541 4289.59 421.353C4293.27 424.888 4293.95 425.469 4297.58 428.662C4302.5 433.01 4308.05 438.722 4313.62 443.097C4314.82 444.033 4314.21 441.657 4316.2 443.055C4318.22 444.472 4322.98 448.687 4324.41 450.341C4325.84 451.992 4324.43 452.238 4324.56 452.678C4325.59 456.357 4333.15 458.875 4333.92 459.427C4348.03 469.675 4358.43 480.477 4371.07 490.818C4380.67 498.675 4391.3 506.579 4400.46 514.04C4411.34 522.919 4420.19 530.945 4430.98 539.328C4432.12 540.213 4431.82 537.871 4433.21 538.949C4447.99 550.408 4462.5 562.008 4476.52 574.323C4477.92 575.561 4475.13 575.225 4476.48 576.53C4484.73 584.46 4497.36 597.833 4506.57 596.957C4512.57 601.886 4519.82 607.773 4524.59 613.031C4527.64 616.396 4523.24 615.018 4527.99 617.807C4529.06 618.435 4528.63 616.365 4530.17 617.39C4536.72 621.765 4543.19 627.263 4549.8 631.399C4551.14 632.23 4551.55 630.984 4552.03 631.075C4556.05 631.864 4559.29 638.074 4560.22 639.054C4567.44 646.574 4573.85 650.632 4581.55 656.509C4583.32 657.86 4582.23 654.946 4583.97 656.196C4593.05 662.771 4602.12 669.799 4610.46 677.011C4612.3 678.606 4609.66 678.395 4610.49 679.214C4614.12 682.772 4616.73 681.386 4620.29 684.794C4621.04 685.509 4619.85 686.129 4619.92 686.348C4620.98 689.772 4624.84 688.965 4625.5 689.381C4628.09 690.989 4630.14 692.668 4631.95 694.37C4636.16 698.287 4639.13 702.238 4644.47 705.856C4645.38 706.467 4644.33 703.762 4646.83 705.55C4663.83 717.701 4681.1 730.981 4697.36 743.658C4699.8 745.555 4697.33 745.266 4697.41 745.494C4698.95 749.237 4702.24 747.848 4703.24 748.377C4710.2 752.049 4716.33 758.832 4721.37 756.927C4721.5 756.984 4721.58 757.012 4721.55 757.015C4721.53 757.015 4721.46 757.004 4721.31 756.994C4721.24 756.989 4721.15 756.984 4721.04 756.983C4720.98 756.982 4720.93 756.982 4720.85 756.985C4720.75 756.987 4720.63 756.994 4720.5 757.007C4719.98 757.07 4719.23 757.176 4718.18 757.811C4716.95 758.495 4715.85 760.249 4715.67 761.253C4715.44 762.216 4715.51 762.882 4715.57 763.29C4715.63 763.633 4715.68 763.759 4715.72 763.874C4715.88 764.231 4715.73 763.821 4715.57 763.553C4715.49 763.399 4715.38 763.214 4715.24 763.006C4715.13 762.821 4715.01 762.638 4714.87 762.432C4713.74 760.782 4712.3 759.008 4710.79 757.242C4691.19 735.364 4668.19 715.376 4649.13 692.155C4648.84 691.814 4650.44 691.339 4649.87 690.67C4642.99 682.588 4642.82 685.649 4635.9 682.612C4634.18 681.863 4632.77 675.635 4632.64 675.144C4632.08 673.277 4634.89 673.024 4634.61 672.489C4632.24 668.098 4627.63 673.705 4623.1 669.069C4622.97 668.915 4624.51 668.601 4624.23 668.117C4623.33 666.605 4621.8 665.783 4620.98 664.285C4619.1 660.833 4620.68 657.431 4615.21 654.695C4614.52 654.36 4612.3 657.963 4608.47 653.693C4606.93 651.973 4599.82 644.629 4598.05 642.372C4596.29 640.124 4598.59 640.636 4598.49 640.449C4594.47 633.654 4596.99 635.27 4596.24 630.713C4595.49 626.152 4591.74 631.124 4590.16 630.441C4588.57 629.743 4585.81 624.675 4585.21 623.301C4584.63 621.94 4586.43 622.642 4585.79 621.542C4581.61 614.325 4581.13 620.996 4578.59 619.684C4577.42 619.083 4576.48 618.342 4575.69 617.504C4572.46 614.077 4571.87 608.947 4569 605.273C4568.03 604.031 4568.13 605.677 4567.12 604.707C4563.09 600.836 4561.93 597.438 4556.74 593.622C4555.9 593.01 4550.43 591.021 4549.74 587.234C4549.64 586.693 4551.37 586.925 4549.99 584.999C4547.92 582.114 4543.88 577.209 4541.08 574.617C4539.01 572.704 4539.74 576.346 4537.84 573.323C4537 571.981 4539.74 573.426 4538.09 570.965C4536.45 568.516 4531.47 562.927 4529.57 560.813C4527.66 558.7 4527.62 560.804 4527.4 560.694C4526.07 560.004 4521.97 556.353 4521.65 555.986C4505.53 537.759 4492.78 519.173 4476.94 501.565C4475.7 500.182 4475.35 502.09 4475.15 501.889C4470.59 497.426 4476.86 498.714 4475.02 494.452C4473.11 496.892 4471.84 494.523 4468.72 491.307C4467.21 489.759 4467.06 491.41 4466.85 491.337C4463.42 490.01 4463.76 486.823 4463.76 486.081C4463.74 483.346 4460.69 482.886 4460.66 481.028C4460.62 479.183 4464.05 480.652 4461.29 477.356C4459.69 477.121 4459.54 481.386 4457.11 479.167C4447.91 470.805 4435.09 451.577 4429.07 443.719C4423.07 435.894 4420.93 433.531 4417.64 428.761C4411.74 420.2 4412.43 424.453 4407.7 420.008C4402.91 415.476 4408.95 414.777 4409.24 413.353C4409.56 411.95 4408.04 411.877 4407.84 410.617C4407.62 409.355 4409.73 410.818 4408.26 408.57C4406.78 406.306 4400.78 401.812 4399.27 401.756C4396.1 401.681 4396.06 405.879 4392.47 399.726C4392.26 399.368 4394.15 399.592 4393.31 398.266C4391.06 394.765 4388.66 391.218 4386.31 387.781C4381.54 380.819 4376.86 374.029 4372.59 366.925C4371.73 365.475 4373.83 365.831 4373.35 364.98C4368.25 355.995 4368.3 360.515 4362.75 357.424C4366.59 356.347 4366.72 352.499 4362.47 346.007C4359.92 342.082 4359.03 343.726 4356.38 341.757C4355.58 341.169 4354.76 337.772 4353.8 337.688C4350.61 337.376 4349.84 341.536 4346.53 334.054C4346.4 333.727 4348.16 333.953 4347.6 332.875C4343.95 325.827 4341.18 326.377 4336.62 319.113C4333.05 313.434 4328.73 302.096 4325.54 295.157C4329.38 293.363 4325.31 287.408 4321.43 286.047C4319.36 281.482 4317.01 276.763 4315.42 272.162C4314.89 270.611 4316.44 271.1 4316.48 270.857C4317.11 267.107 4313.67 266.283 4313.14 265.333C4307.63 255.065 4306.3 245.42 4300.59 235.809C4300.4 235.499 4297.38 235.829 4298.43 232.378C4298.5 232.153 4301 235.11 4299.34 230.198C4298.75 228.476 4298.12 226.048 4297.39 223.5C4296.37 220.784 4300.76 219.041 4301.89 221.716C4303.35 226.22 4305.45 231.559 4308.25 235.205C4309.32 236.641 4313.38 239.331 4313.42 243.307C4313.42 243.831 4312.43 243.792 4312.34 244.602C4312.06 247.224 4315.25 246.82 4314.32 250.309C4313.37 253.751 4314.48 259.468 4319.87 264.704C4320.03 264.874 4322.94 265.046 4324.15 266.989C4326.06 270.05 4328.56 274.642 4330.72 277.722C4331.77 279.214 4332.31 277.416 4332.51 277.66C4340.19 287.153 4344.35 294.825 4352.12 305.402C4353.53 307.322 4359.47 311.411 4361.23 315.92C4363.24 320.926 4354.31 321.654 4363.38 329.452C4367.08 332.615 4377.82 330.954 4380.11 340.39C4392.21 351.709 4401.17 364.243 4414.25 374.579C4414.83 375.043 4418.3 374.845 4419.55 376.09C4421.38 377.92 4421.57 379.746 4422.86 381.079C4428.3 386.721 4434.19 390.795 4439.57 395.919C4441.64 397.873 4440.07 398.114 4442.55 400.457C4445.05 402.797 4447.76 403.05 4450.69 406.706C4452.92 409.492 4453.26 414.217 4456.51 417.566C4458.79 415.211 4461.17 417.386 4465.95 420.367C4466.87 420.943 4466.74 419.326 4467.22 419.554C4469.17 420.462 4470.02 422.435 4471.95 423.242C4472.42 423.439 4473.16 422.604 4473.58 422.718C4477.15 423.605 4479.72 429.059 4480.17 430.01C4481.91 433.638 4484.1 433.579 4485.81 435.854C4487.52 438.126 4483.81 436.109 4486.05 438.482C4487.44 439.963 4489.04 441.488 4490.75 443.021C4490.76 443.029 4490.78 443.051 4490.79 443.059C4494.89 446.426 4499.48 449.705 4503.32 452.542C4505.51 454.145 4504.89 451.851 4505.22 452.053C4510 455.048 4513.69 459.645 4517.96 459.061C4516.62 467.574 4521.16 460.425 4526.74 466.44C4527.17 466.919 4525.65 470.309 4523.39 469.304C4521.13 468.298 4518.83 465.216 4515.62 463.921C4514.86 463.612 4509.16 463.705 4508.54 463.509C4503.62 461.957 4506.23 457.146 4506.19 456.754C4505.7 452.433 4499.01 452.101 4497.67 451.426C4494.24 449.712 4491.45 447.698 4488.77 445.759C4488.73 445.733 4488.63 445.655 4488.6 445.627C4486.52 443.981 4484.54 442.408 4482.38 441.092C4479.2 439.139 4476.68 441.666 4474.5 439.691C4467.28 433.152 4467.96 427.212 4458.28 424.531C4456.21 423.951 4455.13 428.173 4451.82 421.229C4451.6 420.783 4449.58 415.29 4446.14 414.608C4445.71 414.522 4444.97 415.377 4444.53 415.115C4441.6 413.341 4440.54 411.184 4437.57 409.093C4434.56 406.966 4430.86 404.474 4428.09 401.409C4426.38 399.528 4425.45 395.783 4424.93 394.594C4423.48 391.219 4419.16 390.509 4418.86 387.747C4418.58 384.981 4423.45 385.81 4420.26 381.172C4418.08 383.165 4415.66 385.029 4413.38 386.944C4404.62 378.449 4396.76 369.364 4388.14 360.702C4387.06 359.619 4387.02 361.843 4385.83 360.71C4380.88 355.956 4377.55 350.82 4372.38 345.882C4368.38 342.077 4363.04 338.671 4358.91 334.614C4359.07 329.713 4352.6 323.982 4348.86 318.986C4347.53 317.219 4348.32 316.76 4347.56 315.373C4344.7 310.169 4344.14 314.181 4342.75 313.21C4336.82 309.013 4341.73 304.384 4336.68 298.083C4336.43 297.774 4330.35 295.667 4329.75 295.218C4325.85 292.375 4330.32 293.885 4328.81 291.373C4326.07 286.791 4324.65 283.311 4320.31 278.791C4319.01 277.435 4314.76 275.106 4314.27 271.129C4314.21 270.615 4315.34 270.191 4315.2 269.839C4312.6 263.583 4309.31 265.291 4306.24 262.644C4303.1 259.885 4302.36 253.351 4302.43 251.916C4302.57 248.197 4304.33 253.658 4304.6 253.726C4307.55 254.404 4305.04 250.766 4303.65 247.777C4306.62 245.603 4304.29 241.643 4302.18 244.628C4301.95 244.961 4303.47 247.101 4303.65 247.777C4299.09 246.889 4296.23 242.417 4296.81 235.836C4297.1 232.728 4299.77 234.305 4295.9 227.232C4295.09 225.722 4294.29 225.427 4293.45 225.254L4305.96 220.289C4306.88 220.513 4307.84 220.563 4308.78 222.056C4312.75 228.369 4313.6 237.825 4316.56 244.517C4317.64 246.945 4318.01 244.054 4318.77 245.67C4320.85 250.008 4321.44 254.268 4323.77 258.486C4323.98 258.866 4324.91 257.334 4325.5 258.697C4330.01 268.985 4333.27 278.238 4338.57 288.778C4341.1 293.852 4346.6 302.436 4349.38 307.642C4354.12 316.655 4358.9 328.557 4364.08 335.671C4367.48 340.361 4367.98 338.45 4370.14 339.973C4374.33 342.911 4376.18 351.718 4376.38 352.92C4376.39 352.972 4373.33 349.081 4374.21 351.691C4373.79 353.811 4376.34 352.879 4376.38 352.92C4376.49 353.718 4381.87 361.997 4383.25 363.425C4384 364.21 4384.76 362.927 4385.13 363.351C4389.53 368.434 4393.81 373.568 4398.04 378.908C4402.04 383.955 4406.06 389.315 4409.8 394.663C4409.92 394.868 4408.5 395.52 4408.8 395.991C4413.05 402.583 4417.6 405.346 4422.48 409.749C4427.31 414.09 4430.2 418.319 4430.54 422.953C4433.82 426.535 4437.29 432.719 4439.26 436.281C4441.26 439.872 4443.91 438.419 4444.18 438.658C4452.6 446.061 4455.27 452.03 4462.34 461.052C4465.69 465.337 4472.91 473.389 4476.92 477.689C4480.11 481.11 4481.36 483.69 4484.46 486.7C4484.88 487.107 4485.52 485.806 4485.67 485.909C4489.96 488.563 4486 488.876 4486.19 490.006C4486.88 494.094 4487.46 496.531 4492.16 500.57C4493.25 501.503 4499.47 501.645 4501.34 503.426C4503.77 505.754 4501.68 505.873 4504.26 508.284C4504.48 508.491 4505.23 507.775 4506.59 509.454C4512.95 517.226 4519.63 525.933 4526.54 533.754C4527.48 534.826 4527.52 532.373 4528.9 533.903C4535.37 541.073 4542.3 549.093 4547.95 556.655C4549.33 558.522 4547.51 558.189 4547.59 558.792C4548.09 562.47 4553.23 563.765 4553.76 564.27C4566.27 576.209 4573.04 587.784 4585.87 599.876C4586.28 600.256 4588.92 601.51 4591.09 603.303C4592.68 604.628 4594.03 606.237 4594.11 608.028C4594.14 608.321 4594.25 612.585 4597.64 613.397C4597.85 613.445 4597.53 610.979 4599.83 613.662C4602.11 616.321 4606.72 619.828 4608.87 624.425C4609.57 625.903 4610 630.441 4614.8 632.239C4615.13 632.365 4623.63 633.953 4622.88 638.205C4622.75 638.898 4619.78 641.146 4624.93 643.77C4625.93 644.273 4625.2 642.33 4627.49 643.964C4630.97 646.438 4634.16 651.146 4638.95 653.711C4639.81 654.175 4644.23 655.117 4645.07 658.689C4645.2 659.244 4643.67 659.449 4644.72 660.712C4649.68 666.712 4655.95 671.88 4660.92 678.084C4662.65 680.246 4660.26 680.672 4661.94 683.113C4663.61 685.537 4667.41 690.057 4670.21 691.567C4673.02 693.079 4672.91 688.49 4676.3 691.506C4691.18 704.79 4703.93 719.732 4717.92 734.516C4720.04 736.786 4719.03 734.08 4722.21 737.406C4723.69 738.965 4725.44 740.813 4727.21 742.767C4728.78 744.504 4730.3 746.209 4732.1 748.532C4733.07 749.821 4733.96 750.936 4735.31 753.334C4735.92 754.897 4737.09 755.222 4737.8 761.886C4737.8 763.986 4737.91 765.983 4736.14 769.926C4734.55 773.681 4729.98 777.189 4727.7 777.961C4725.14 779.047 4723.02 779.28 4721.39 779.334C4720.09 779.363 4719.33 779.287 4718.5 779.188C4713.06 778.235 4712.32 777.406 4710.5 776.693C4708.94 775.967 4707.73 775.332 4706.41 774.611C4704.08 773.324 4701.8 771.938 4699.78 770.647C4691.49 765.334 4684.61 760.031 4680.16 755.655C4672.06 747.595 4684.42 754.5 4677.91 748.945C4674.68 746.2 4668.95 746.627 4668.05 746.118C4659.38 741.333 4654.99 736.079 4647.61 731.258C4646.1 730.272 4646.63 732.527 4645.35 731.67C4640.85 728.662 4636.91 724.899 4632.82 721.997C4631 720.707 4630.65 721.869 4629.03 720.548C4625.26 717.494 4622.42 714.803 4619.24 711.219C4619.07 711.018 4618.89 710.813 4618.72 710.607C4618.43 710.269 4621.6 710.881 4618.77 708.681C4614.12 705.072 4608.94 699.84 4602.75 696.542C4600.97 695.607 4599.35 697.658 4596.97 693.605C4596.46 692.75 4599.31 690.966 4593.58 690.039C4592.64 689.897 4583.69 687.72 4581.74 683.294C4581.25 682.146 4580.57 678.421 4578.39 677.273C4578.08 677.125 4578.29 679.043 4576.6 677.933C4570.62 673.989 4564.77 669.376 4558.74 665.353C4557.12 664.275 4558.55 667.182 4556.16 665.536C4549.52 660.961 4541.82 654.651 4535.92 649.584C4533.73 647.707 4536.04 647.954 4535.95 647.723C4534.57 643.99 4531.23 645.057 4530.23 644.507C4524.13 641.118 4520.68 636.785 4515.4 633.197C4513.95 632.202 4514.11 634.049 4513.75 633.933C4510.13 632.665 4513.79 632.363 4512.12 630.743C4507.41 626.168 4501.67 621.904 4496.33 618.02C4494.38 616.597 4495.56 619.512 4493.82 618.224C4483.56 610.678 4473.08 602.376 4463.8 594.054C4462.04 592.478 4463.96 592.42 4463.75 591.899C4462.27 588.277 4456.74 587.346 4455.69 586.848C4450.9 584.584 4449.97 582.486 4446.24 579.826C4428.04 566.869 4406.85 549.181 4390.68 535.625C4369.61 517.967 4353.81 503.583 4333.44 487.025C4332.15 485.971 4332.4 488.298 4331.27 487.405C4316.75 475.808 4303.21 463.493 4288.82 451.629C4287.64 450.65 4288.3 453.265 4286.36 451.732C4282.41 448.609 4277.66 444.334 4274.15 440.582C4272.45 438.762 4275.82 439.972 4274.09 438.161C4270.12 433.994 4265.42 429.653 4260.89 425.896C4260.88 425.892 4260.88 425.888 4260.87 425.884C4258.89 424.24 4260.71 428.013 4258.22 425.787C4241.49 410.916 4224.9 396.272 4209.55 379.553C4208.49 378.402 4209.64 375.109 4206.81 373.365C4206.03 373.858 4205.33 374.641 4204.61 375.272C4180.18 353.726 4157.14 331.108 4133.19 308.709C4132.2 307.78 4132.77 310.621 4130.84 308.833C4119.47 298.268 4108.16 288.389 4097.77 276.34C4096.74 275.156 4099.35 273.501 4095.74 270.739C4095.05 270.201 4089.66 265.687 4087.96 264.983C4087.72 264.89 4087.67 266.761 4086.04 265.282C4076.41 256.511 4066.64 246.819 4057.78 237.179C4056.36 235.627 4059 236.094 4058 234.985C4050.9 227.112 4041.72 219.833 4035.41 211.792C4031.18 206.378 4034.84 206.365 4033.96 201.959C4033.89 201.392 4030.91 198.369 4031.78 197.15C4033.98 194.124 4038.31 192.72 4040.47 189.308C4040.93 188.569 4036.44 185.379 4040.15 186.19C4040.41 186.253 4043.68 188.537 4044.97 188.834C4045.77 188.948 4045.99 187.06 4047.37 187.553C4048.81 188.116 4048.97 190.032 4051.25 191.244C4053.35 192.278 4053.9 190.443 4057.34 193.506ZM4448.22 452.326C4449.48 456.126 4453.88 453.243 4450.36 450.904C4450.18 450.795 4448.16 452.133 4448.22 452.326ZM4399.68 366.583C4397.81 361.45 4393.06 361.457 4394.23 365.174C4395.42 368.911 4400.24 368.134 4399.68 366.583ZM4437.63 400.358C4434.64 395.171 4428.96 400.035 4434.5 403.06C4434.82 403.238 4437.8 400.662 4437.63 400.358ZM4046.45 213.14C4046.44 213.037 4044.36 210.923 4044.28 210.942C4041.99 211.038 4046.14 215.251 4046.45 213.14ZM4476.71 432.086C4475.98 430.165 4471.34 427.748 4472.22 430.125C4472.91 432.038 4477.61 434.478 4476.71 432.086ZM4570.78 603.436C4570.77 603.532 4572.17 605.174 4572.47 604.844C4573.42 603.78 4571.1 601.83 4570.78 603.436ZM4544.65 483.766C4535.03 475.733 4532.59 466.218 4543.1 475.229C4544.98 476.861 4537.67 473.462 4539.82 475.844C4543.77 480.215 4549.16 479.597 4552.48 484.964C4553.05 485.914 4545.2 484.233 4544.63 483.759C4544.64 483.761 4544.65 483.763 4544.65 483.766ZM4444.71 457.97C4444.71 458.076 4446.55 460.434 4446.65 460.444C4448.96 460.646 4445.25 455.896 4444.71 457.97ZM4655.82 696.828C4655.85 697.065 4660.65 702.046 4660.92 702.126C4665.41 702.762 4655.66 692.635 4655.82 696.828ZM4325.59 294.997C4322.6 292.807 4320.66 289.31 4321.43 286.062C4322.74 289.033 4324.19 292.005 4325.59 294.997Z" fill="black"/>
<path d="M4670.32 2801.37C4659.26 2808.42 4644.34 2816.87 4632.69 2823.22C4629.14 2825.15 4630.41 2823.29 4627.89 2824.62C4622.93 2827.23 4618.72 2830.36 4613.88 2832.84C4612.25 2833.68 4613.42 2831.23 4611.72 2832.14C4602.5 2837.07 4594.2 2842.68 4585.07 2848.02C4543.04 2872.63 4502.55 2897.88 4460.95 2924.19C4457.85 2926.14 4454.78 2928.12 4451.7 2930.13C4437.24 2939.53 4419.41 2950.8 4405.65 2962.25C4404.04 2963.58 4405.82 2963.84 4405.57 2964.17C4401.67 2969.27 4401.69 2965.95 4398.29 2968.2C4384.77 2977.15 4370.88 2988.64 4359.48 2999.28C4354.63 3003.81 4361.32 3001.35 4355.36 3004.68C4354.95 3004.91 4355.3 3002.77 4353.84 3003.86C4350.53 3006.35 4344.86 3011.76 4342.42 3013.83C4337.71 3017.81 4336.97 3018.51 4332.66 3022.45C4326.77 3027.83 4319.38 3033.83 4313.38 3039.96C4312.11 3041.28 4314.83 3040.62 4312.88 3042.81C4310.94 3044.99 4305.28 3050.25 4303.19 3051.83C4301.08 3053.4 4301.11 3051.84 4300.61 3051.98C4296.39 3053.08 4292.05 3061.45 4291.28 3062.31C4284.82 3069.45 4278.4 3075.74 4272 3081.82C4264.47 3088.98 4256.99 3095.88 4249.57 3103.53C4239.17 3114.27 4228.58 3126.25 4218.83 3136.61C4207.21 3148.93 4196.93 3159.05 4186.01 3171.35C4184.86 3172.66 4187.45 3172.24 4186.04 3173.84C4171.08 3190.75 4156.18 3207.4 4140.64 3223.68C4139.06 3225.34 4139.89 3222.17 4138.25 3223.76C4133.93 3227.97 4128.34 3233.19 4123.47 3238.52C4117.28 3245.26 4111.25 3253.42 4112.84 3257.75C4112.8 3257.81 4112.76 3257.88 4112.87 3257.61C4112.93 3257.47 4113.01 3257.25 4113.11 3256.85C4113.22 3256.27 4113.57 3255.1 4112.98 3253C4112.6 3251.63 4111.43 3249.85 4109.99 3248.91C4109.31 3248.43 4108.49 3248.08 4108.02 3247.93C4107.59 3247.8 4107.2 3247.71 4106.86 3247.66C4105.52 3247.46 4104.71 3247.67 4104.56 3247.69C4104.01 3247.81 4103.97 3247.87 4104.01 3247.85C4104.33 3247.77 4105.35 3247.29 4106.35 3246.76C4108.33 3245.71 4110.45 3244.49 4112.64 3243.25C4116.92 3240.8 4121.23 3238.4 4125.08 3236.6C4129.96 3234.34 4126.6 3238.48 4131.66 3234.29C4132.84 3233.33 4130.42 3233.28 4132.26 3231.9C4139.76 3226.29 4148.67 3220.89 4156.09 3215.13C4156.12 3215.11 4156.15 3215.09 4156.17 3215.06C4157.52 3213.95 4156.46 3213.22 4156.78 3212.75C4159.57 3208.73 4167.53 3207.08 4169.01 3206.37C4180.33 3200.86 4187.63 3195.32 4197.39 3188.97C4199.64 3187.5 4196.07 3187.86 4198.21 3186.39C4209.36 3178.8 4221.11 3171.24 4232.53 3164.59C4235.09 3163.1 4233.6 3165.78 4234.87 3165.13C4240.34 3162.3 4240.08 3159.26 4245.31 3156.49C4246.41 3155.9 4246.5 3157.3 4246.76 3157.29C4250.88 3157.07 4251.87 3152.85 4252.58 3152.3C4261.74 3145.13 4269.64 3143.58 4278.72 3136.96C4279.81 3136.17 4276.43 3136.58 4279.54 3134.42C4300.13 3120.09 4322.39 3105.44 4343.5 3092.31C4346.79 3090.26 4345.18 3092.78 4345.46 3092.76C4350 3092.31 4350.4 3088.41 4351.37 3087.6C4359.08 3081.25 4368.13 3077.95 4371.6 3071.17C4395.11 3055.6 4417.51 3038.7 4440.28 3022.4C4451.56 3014.32 4462.93 3006.38 4474.58 2998.84C4475.03 2998.55 4475.16 3000.3 4476.04 2999.71C4486.7 2992.62 4483.37 2992.29 4488.37 2984.94C4489.62 2983.1 4496.81 2981.81 4497.41 2981.65C4499.62 2981.1 4499.24 2984.15 4499.9 2983.86C4505.32 2981.41 4500.15 2976.29 4506.32 2971.5C4506.52 2971.36 4506.52 2973.04 4507.12 2972.74C4508.98 2971.82 4510.25 2970.17 4512.09 2969.31C4516.34 2967.34 4519.79 2969.1 4523.99 2963.21C4524.52 2962.46 4520.95 2960.06 4526.54 2955.91C4528.77 2954.27 4538.39 2946.59 4541.23 2944.67C4544.1 2942.74 4543.06 2945.24 4543.29 2945.13C4551.65 2940.73 4549.34 2943.48 4554.58 2942.62C4559.82 2941.73 4554.99 2937.73 4556.05 2936.02C4557.11 2934.29 4563.29 2931.2 4564.93 2930.53C4566.55 2929.88 4565.44 2931.84 4566.78 2931.13C4575.62 2926.41 4568.25 2926.05 4570.16 2923.26C4574.7 2916.67 4582.17 2916.5 4587.91 2912.43C4589.46 2911.34 4587.61 2911.5 4588.86 2910.37C4593.83 2905.88 4597.82 2904.47 4602.93 2898.65C4603.77 2897.69 4606.77 2891.74 4611.16 2890.76C4611.78 2890.62 4611.25 2892.51 4613.62 2890.91C4617.13 2888.55 4623.29 2883.85 4626.55 2880.7C4629 2878.34 4624.81 2879.35 4628.48 2877.1C4630.11 2876.1 4628.09 2879.16 4631.09 2877.22C4634.05 2875.32 4641.06 2869.53 4643.65 2867.36C4646.3 2865.14 4643.94 2865.24 4644.09 2864.99C4645.06 2863.49 4649.71 2858.81 4650.14 2858.45C4672.75 2839.73 4695.16 2824.37 4716.95 2805.87C4718.67 2804.41 4716.57 2804.18 4716.82 2803.95C4720.62 2800.37 4720.78 2802.4 4722.07 2803.35C4722.69 2803.8 4723.57 2803.99 4725.2 2803.24C4722.73 2801.34 4725.46 2799.85 4729.56 2796.19C4731.51 2794.45 4729.67 2794.41 4729.78 2794.16C4731.64 2790.43 4735.3 2790.49 4736.1 2790.47C4739.1 2790.32 4740.18 2786.9 4742.21 2786.79C4744.28 2786.64 4742.14 2790.45 4746.26 2787.24C4746.76 2785.48 4741.96 2785.6 4744.82 2782.82C4755.47 2772.35 4779.32 2757.59 4789.78 2751.5C4796.18 2747.69 4799.93 2745.53 4804.08 2744.07C4805.48 2743.61 4806.67 2743.29 4807.77 2743.07C4808.52 2742.91 4809.35 2742.79 4810.1 2742.76C4810.57 2742.82 4812.36 2742.46 4814 2744.06C4815.18 2745.28 4815 2747.03 4814.78 2747.69C4814.63 2748.23 4814.42 2748.67 4814.19 2749.09C4814.07 2749.3 4813.95 2749.51 4813.83 2749.71C4813.76 2749.81 4813.7 2749.91 4813.63 2750C4813.57 2750.1 4813.54 2750.14 4813.5 2750.21C4813.32 2750.46 4813.15 2750.7 4812.97 2750.93C4812.29 2751.86 4811.52 2752.8 4811.17 2753.28C4810.31 2754.43 4809.8 2755.28 4809.45 2756.05C4808.92 2757.39 4808.9 2758.55 4806.3 2761.7C4801.17 2767.83 4800.38 2761.46 4798.84 2761.38C4797.33 2761.25 4797.24 2762.88 4795.8 2763.35C4794.36 2763.82 4796.1 2761.25 4793.5 2763.27C4791 2765.21 4785.64 2772.52 4785.58 2774.1C4785.38 2777.53 4790.04 2776.94 4782.99 2781.8C4782.59 2782.08 4782.89 2780.03 4781.4 2781.12C4769.42 2790.01 4757.54 2799.94 4745.63 2808.87C4743.98 2810.1 4744.4 2807.76 4743.43 2808.46C4733.3 2815.82 4738.44 2814.8 4735.06 2821.42C4733.77 2817.56 4729.4 2818.24 4722.27 2824.36C4717.92 2828.09 4719.78 2828.66 4717.79 2831.92C4717.19 2832.9 4713.43 2834.67 4713.38 2835.74C4713.25 2839.21 4717.87 2838.94 4709.9 2844.39C4709.55 2844.63 4709.65 2842.7 4708.5 2843.6C4700.97 2849.46 4701.91 2852.16 4694.42 2859.23C4688.59 2864.73 4676.91 2873.06 4669.95 2879.09C4667.21 2875.84 4661.53 2882.36 4660.93 2886.91C4656.45 2890.9 4651.95 2895.34 4647.47 2899.02C4645.93 2900.28 4646.04 2898.49 4645.76 2898.57C4641.55 2899.68 4641.66 2903.52 4640.81 2904.49C4631.5 2914.88 4621.92 2921.25 4614.06 2932.14C4613.78 2932.53 4615.34 2935.14 4611.33 2936.15C4611.06 2936.21 4613.17 2932.15 4608.73 2936.51C4604.28 2940.87 4594.96 2948.25 4590.04 2955.5C4588.84 2957.25 4586.99 2962.76 4582.75 2964.61C4582.18 2964.86 4581.97 2963.83 4581.07 2964.11C4579.36 2964.67 4579.1 2965.97 4578.35 2967.06C4578.34 2967.07 4578.32 2967.09 4578.31 2967.1C4577.78 2967.83 4577.02 2968.46 4575.39 2968.65C4571.41 2969.14 4565.53 2972.49 4560.71 2979.96C4560.56 2980.19 4560.8 2983.33 4558.84 2985.29C4555.78 2988.35 4551.03 2992.52 4547.85 2995.79C4546.32 2997.38 4548.35 2997.39 4548.11 2997.68C4538.36 3008.83 4530.08 3015.4 4518.58 3026.29C4516.48 3028.27 4512.04 3035.64 4506.99 3038.5C4501.43 3041.68 4500.74 3032.13 4492.03 3043.4C4488.5 3047.95 4489.93 3059.52 4479.34 3063.5C4466.17 3078.49 4451.51 3089.85 4438.63 3105.23C4438.05 3105.92 4437.87 3109.73 4436.36 3111.2C4434.12 3113.39 4432.05 3113.78 4430.42 3115.32C4423.58 3121.72 4418.25 3128.55 4411.79 3134.85C4409.32 3137.26 4409.29 3135.54 4406.37 3138.39C4403.45 3141.25 4402.67 3144.34 4398.23 3147.72C4394.83 3150.31 4389.57 3150.91 4385.36 3154.62C4387.55 3157.06 4384.81 3159.74 4380.67 3165.16C4379.88 3166.2 4381.66 3166.01 4381.33 3166.55C4380.01 3168.72 4377.65 3169.77 4376.45 3171.89C4376.16 3172.41 4376.93 3173.21 4376.74 3173.68C4375.06 3177.72 4368.69 3180.62 4367.52 3181.18C4363.24 3183.17 4362.91 3185.58 4360.05 3187.56C4357.24 3189.48 4360.15 3185.35 4357.14 3187.85C4356.67 3188.24 4356.19 3188.65 4355.71 3189.07C4349.77 3194.23 4343.29 3201.09 4337.96 3206.52C4335.71 3208.82 4338.31 3208.28 4338.01 3208.63C4333.54 3213.78 4327.61 3217.66 4327.18 3222.41C4318.37 3220.52 4324.91 3225.84 4317.1 3231.87C4316.5 3232.34 4313.16 3230.58 4314.81 3228.05C4316.41 3225.58 4320.36 3223.06 4322.54 3219.58C4323.1 3218.71 4324.42 3212.42 4324.85 3211.67C4327.74 3206.35 4332.28 3209.47 4332.69 3209.47C4337.47 3209.15 4339.59 3201.7 4340.6 3200.31C4344.73 3194.67 4349.05 3190.8 4352.93 3186.35C4353.64 3185.53 4354.33 3184.69 4355 3183.82C4357.76 3180.25 4355.53 3177.45 4358.04 3175.04C4366.45 3167.01 4372.86 3167.57 4377.47 3156.78C4378.46 3154.47 4374.11 3153.35 4382.15 3149.55C4382.66 3149.31 4389.04 3146.83 4390.32 3143.02C4390.48 3142.54 4389.66 3141.76 4390.02 3141.26C4392.44 3137.94 4394.89 3136.75 4397.69 3133.3C4400.43 3129.92 4403.71 3125.69 4407.46 3122.45C4409.72 3120.49 4413.97 3119.2 4415.32 3118.57C4419.21 3116.75 4420.59 3111.9 4423.61 3111.4C4426.68 3110.88 4425.15 3116.34 4430.66 3112.44C4428.74 3110.19 4426.99 3107.66 4425.17 3105.3C4435.49 3095.02 4446.26 3085.51 4456.44 3075.03C4457.7 3073.73 4455.28 3073.93 4456.6 3072.51C4462.18 3066.51 4468.02 3062.21 4473.67 3055.85C4478.04 3050.93 4481.92 3044.61 4486.45 3039.43C4491.8 3038.8 4498.15 3030.73 4503.56 3025.67C4505.47 3023.89 4505.98 3024.65 4507.49 3023.54C4513.13 3019.35 4508.73 3019.58 4509.74 3017.89C4514.06 3010.64 4519.36 3014.85 4525.99 3007.86C4526.34 3007.5 4528.18 3000.49 4528.61 2999.73C4531.38 2994.82 4530.12 2999.98 4532.72 2997.7C4537.45 2993.56 4541.12 2991.04 4545.45 2985.09C4546.75 2983.31 4548.7 2978.11 4552.85 2976.32C4553.39 2976.09 4554.03 2977.13 4554.39 2976.86C4560.75 2971.98 4558.25 2969.2 4560.49 2965.07C4562.11 2962.05 4566.37 2959.34 4568.94 2958.07L4568.72 2958.31C4569.62 2957.82 4570.34 2957.48 4570.73 2957.34C4573.75 2956.2 4571.39 2958.35 4570.1 2959.57L4570.29 2959.37C4569.88 2959.73 4569.58 2960 4569.58 2960.07C4569.57 2961.71 4570.39 2961.52 4571.56 2960.6L4571.41 2960.76C4572.56 2959.8 4574.04 2958.1 4575.43 2956.73C4578.51 2958.78 4582.08 2954.59 4578.34 2953.84C4577.92 2953.77 4576.09 2956.26 4575.43 2956.73C4575.13 2951.76 4578.97 2946.94 4586.01 2944.39C4589.31 2943.2 4588.57 2946.59 4594.68 2939.27C4597.46 2935.95 4594.49 2935.4 4596.66 2932.19C4601.62 2924.84 4611.29 2918.46 4617.43 2911.91C4619.67 2909.53 4616.43 2910.78 4617.93 2909.11C4621.9 2904.7 4626.35 2901.83 4630.28 2897.33C4630.63 2896.92 4628.69 2896.79 4630.01 2895.5C4640 2885.71 4649.59 2878.02 4660.34 2868.21C4665.58 2863.43 4674.41 2854.39 4679.95 2849.68C4689.64 2841.38 4702.59 2832.83 4710.51 2825.3C4715.57 2820.49 4713.48 2820.4 4715.14 2817.66C4718.34 2812.39 4728.37 2808.29 4729.77 2807.79C4729.83 2807.77 4725.42 2811.99 4728.37 2810.43C4730.81 2810.38 4729.73 2807.84 4729.77 2807.79C4730.64 2807.49 4740.14 2799.83 4741.73 2798.12C4742.61 2797.17 4741.18 2796.59 4741.65 2796.12C4753.12 2784.76 4765.38 2773.99 4778.04 2763.87C4778.27 2763.71 4778.95 2765.14 4779.48 2764.74C4787.05 2759.05 4790.26 2753.73 4794.78 2747.87C4797.1 2744.87 4799.13 2742.44 4800.14 2741.53C4800.32 2741.44 4800.4 2741.28 4799.98 2742.58C4799.88 2742.9 4799.77 2743.32 4799.66 2743.87C4799.55 2744.47 4799.26 2746.07 4799.54 2747.96C4799.77 2749.86 4800.75 2752.34 4802.36 2754.15C4803.93 2755.9 4805.28 2756.62 4806.54 2757.16C4808.98 2758.12 4810.4 2757.88 4810.72 2757.8C4811.1 2757.68 4811.27 2757.54 4811.33 2757.4C4811.45 2757.12 4810.98 2756.9 4810.69 2756.64C4810.26 2756.81 4809.55 2757.02 4808.59 2757.34C4806 2758.13 4799.29 2761.06 4795.88 2762.55C4791.52 2764.49 4792.61 2767.37 4792.33 2767.63C4782.66 2776.38 4775.57 2779.48 4764.42 2787.47C4759.15 2791.25 4749.14 2799.49 4743.78 2804.12C4739.53 2807.79 4736.44 2809.34 4732.69 2812.89C4732.18 2813.38 4733.56 2813.97 4733.42 2814.14C4732.87 2814.89 4732.41 2815.43 4732.01 2815.8C4729.93 2817.76 4729.84 2814.77 4728.76 2815.01C4724.07 2816.07 4721.31 2816.84 4716.13 2822.29C4714.99 2823.5 4713.96 2830.34 4711.78 2832.46C4708.87 2835.27 4708.99 2833.02 4705.93 2836.02C4705.67 2836.27 4706.39 2837.02 4704.34 2838.63C4694.8 2846.14 4684.16 2854.08 4674.44 2862.17C4673.11 2863.27 4675.86 2863.14 4673.95 2864.75C4665.01 2872.32 4655.03 2880.42 4645.68 2887.07C4643.4 2888.69 4644.03 2886.69 4643.35 2886.81C4639.17 2887.57 4636.89 2893.29 4636.27 2893.87C4620.99 2908.18 4606.82 2916.21 4591.02 2930.6C4590.18 2931.37 4585.17 2939.51 4580.37 2939.84C4580.04 2939.86 4575.21 2940.13 4573.67 2943.83C4573.58 2944.05 4576.4 2943.65 4572.96 2946.22C4569.53 2948.76 4564.69 2953.86 4559.1 2956.27C4557.33 2957.04 4552.11 2957.6 4549.14 2962.8C4548.96 2963.14 4545.31 2972.46 4540.75 2971.61C4540 2971.47 4538.14 2968.24 4534.06 2973.85C4533.29 2974.92 4535.61 2974.15 4533.29 2976.61C4529.75 2980.4 4523.76 2983.82 4519.8 2988.98C4519.11 2989.89 4516.93 2994.75 4512.8 2995.54C4512.15 2995.67 4512.28 2994.01 4510.62 2995.12C4502.74 3000.37 4495.4 3007.05 4487.25 3012.18C4484.37 3013.99 4484.54 3011.36 4481.4 3013.07C4478.26 3014.79 4472.26 3018.68 4469.85 3021.63C4467.44 3024.58 4472.59 3024.69 4468.29 3028.23C4463.38 3032.28 4458.34 3036.14 4453.23 3039.88C4438.91 3050.36 4424 3059.89 4409.45 3070.08C4406.51 3072.13 4409.58 3071.33 4405.31 3074.41C4389.58 3085.8 4362.71 3105.91 4347.46 3113.47C4335.24 3119.54 4348.39 3108.7 4339.46 3113.89C4335.18 3116.38 4332.79 3122.49 4331.88 3123.26C4322.86 3130.86 4315.19 3134.09 4306.74 3140.42C4304.99 3141.73 4307.6 3141.77 4306.1 3142.87C4301.02 3146.61 4295.08 3149.8 4290.15 3153.26C4287.91 3154.83 4288.97 3155.5 4286.84 3156.82C4281.8 3159.96 4277.07 3162.54 4271.66 3164.86C4271.17 3165.07 4273.38 3161.89 4269.64 3164.31C4263.63 3168.22 4255.69 3172.22 4249.39 3177.7C4247.52 3179.33 4248.95 3181.52 4243.52 3182.94C4242.4 3183.23 4241.82 3179.86 4238.24 3185.46C4237.62 3186.41 4231.08 3195.1 4225.54 3195.92C4224.09 3196.13 4219.87 3195.83 4217.61 3197.8C4217.31 3198.07 4219.42 3198.37 4217.46 3199.82C4210.55 3204.9 4202.97 3209.69 4195.83 3214.89C4193.95 3216.27 4197.64 3215.58 4194.82 3217.6C4186.99 3223.16 4176.84 3229.39 4168.8 3234.16C4168.76 3234.19 4168.71 3234.21 4168.67 3234.24C4165.64 3236.04 4167.01 3233.7 4166.72 3233.73C4162.14 3234.2 4161.77 3237.9 4160.72 3238.8C4154.31 3244.26 4148.27 3246.67 4142.03 3251.26C4140.33 3252.51 4142.33 3252.82 4142.05 3253.16C4139.04 3256.6 4140.39 3252.74 4137.92 3254.06C4130.8 3257.8 4124.37 3262.51 4115.83 3267.49C4113.85 3268.56 4114.09 3268.85 4114.47 3269.14C4114.65 3269.28 4114.85 3269.41 4114.76 3269.62C4114.69 3269.82 4114.25 3270.19 4112.67 3270.81C4112.08 3271.04 4110.74 3271.54 4109.05 3271.85C4108.82 3271.9 4108.65 3271.93 4108.3 3271.98C4107.91 3272.03 4107.48 3272.08 4107.01 3272.12C4106.06 3272.18 4104.93 3272.2 4103.52 3272.02C4102.81 3271.93 4102.04 3271.79 4101.2 3271.56C4100.76 3271.44 4100.4 3271.33 4099.84 3271.13C4099.18 3270.89 4098.49 3270.6 4097.79 3270.23C4094.96 3268.82 4092.01 3265.95 4090.52 3262.88C4088.89 3259.41 4088.91 3258.05 4088.72 3256.25C4088.62 3254.58 4088.76 3253.28 4088.93 3252.22C4089.02 3251.71 4089.15 3251.15 4089.22 3250.85C4089.29 3250.58 4089.36 3250.32 4089.43 3250.08C4089.57 3249.6 4089.72 3249.18 4089.86 3248.8C4090.14 3248.05 4090.44 3247.38 4090.66 3246.92C4090.85 3246.54 4091.03 3246.2 4091.2 3245.87C4092.61 3243.38 4093.33 3242.48 4094.23 3241.22C4095.85 3239 4097.31 3237.2 4098.83 3235.35C4101.78 3231.76 4104.7 3228.4 4107.66 3225.05C4112.14 3220 4116.72 3215.03 4121.29 3210.32C4123.28 3208.26 4123.04 3210.42 4123.64 3210.15C4127.77 3208.35 4129.67 3202.1 4130.41 3200.86C4133.62 3195.4 4136.06 3194.25 4139.54 3189.97C4156.58 3168.97 4179.47 3144.6 4197.16 3126.2C4218.61 3103.88 4236.32 3086.91 4256.65 3066.44C4258.18 3064.89 4259.73 3063.33 4261.29 3061.75C4262.71 3060.32 4260.12 3060.59 4261.33 3059.35C4276.97 3043.26 4293.27 3028.28 4309.44 3012.53C4310.77 3011.24 4307.76 3011.93 4309.87 3009.82C4314.17 3005.49 4319.93 3000.3 4324.84 2996.51C4327.24 2994.66 4325.13 2998.36 4327.52 2996.48C4333.09 2992.11 4338.82 2987.16 4344.12 2982.2C4346.38 2980.08 4341.82 2981.96 4344.84 2979.3C4365.4 2961.2 4386.27 2943.9 4409.91 2929.09C4411.53 2928.08 4414.76 2929.68 4417.68 2926.82C4417.41 2925.92 4416.78 2925.08 4416.33 2924.23C4426.39 2916.81 4436.69 2909.75 4447.19 2903.02C4470.03 2888.38 4492.85 2874.34 4515.91 2859.77C4517.31 2858.89 4513.98 2858.99 4516.68 2857.27C4532.41 2847.28 4547.52 2837.16 4564.63 2828.42C4566.33 2827.55 4567.07 2830.61 4571.55 2827.28C4572.41 2826.64 4579.2 2821.93 4580.78 2820.18C4580.99 2819.94 4578.93 2819.57 4581.24 2818.09C4594.5 2809.58 4608.75 2801.15 4622.61 2793.71C4624.8 2792.54 4623.29 2795.2 4624.91 2794.34C4636.37 2788.29 4647.67 2780.17 4659.01 2775.07C4666.57 2771.7 4665.27 2775.44 4670.32 2775.44C4671.02 2775.44 4675.5 2772.97 4676.47 2774.12C4678.85 2777.03 4678.67 2781.77 4681.49 2784.71C4681.64 2784.87 4682.1 2784.73 4682.6 2784.53C4683.09 2784.33 4683.83 2783.96 4684.25 2783.82C4684.86 2783.57 4685.12 2783.56 4685.25 2783.73C4685.36 2783.92 4685.49 2784.22 4684.86 2785.13C4684.82 2785.29 4681.03 2788.18 4680.27 2789.42C4679.83 2790.23 4681.81 2790.82 4680.7 2792.16C4679.5 2793.56 4677.31 2793.38 4675.24 2795.42C4673.16 2797.48 4675.15 2798.29 4670.32 2801.37ZM4776.37 2772.01C4771.94 2773.43 4774.48 2778.05 4777.61 2774.26C4777.76 2774.07 4776.6 2771.93 4776.37 2772.01ZM4449 3088.34C4454.79 3085.78 4455.21 3080.53 4451.02 3082.22C4446.83 3083.93 4447.24 3089.13 4449 3088.34ZM4407.2 3132.95C4413.37 3129.31 4408.85 3123.32 4404.71 3129.64C4404.47 3130.01 4406.84 3133.16 4407.2 3132.95ZM4653.22 2786.31C4653.32 2786.33 4656.44 2784.56 4656.52 2784.43C4657.34 2782.01 4651 2785.62 4653.22 2786.31ZM4365.92 3177.36C4368.1 3176.57 4371.65 3171.32 4368.87 3172.36C4366.64 3173.2 4363.15 3178.4 4365.92 3177.36ZM4589.66 2914.3C4589.56 2914.29 4587.48 2915.87 4587.8 2916.18C4588.83 2917.17 4591.41 2914.58 4589.66 2914.3ZM4295.05 3252.39C4305.11 3240.67 4315.96 3238.34 4304.46 3250.05C4302.4 3252.2 4307.22 3243.96 4304.32 3246.41C4298.9 3251.08 4298.96 3256.8 4293.45 3261.4C4292.37 3262.26 4294.32 3253.07 4295.06 3252.36C4295.05 3252.37 4295.05 3252.38 4295.05 3252.39ZM4770.62 2768.39C4770.5 2768.39 4767.54 2770.46 4767.51 2770.56C4766.91 2773.05 4772.87 2768.9 4770.62 2768.39ZM4467.74 3005.83C4467.5 3005.83 4460.72 3010.77 4460.58 3011.04C4458.71 3015.85 4472.44 3005.86 4467.74 3005.83ZM4669.77 2879.1C4667.99 2882.99 4664.69 2886.3 4660.95 2886.9C4663.91 2884.31 4666.8 2881.68 4669.77 2879.1Z" fill="black"/>
</svg>
