<svg width="4944" height="3549" viewBox="0 0 4944 3549" fill="none" xmlns="http://www.w3.org/2000/svg">
<path d="M306.251 364.054C305.176 444.266 305.371 551.507 305.783 631.909C305.923 657.487 304.489 644.34 304.549 661.861C304.691 696.438 305.953 727.815 306.192 761.898C306.271 773.292 304.003 759.236 304.128 771.053C304.834 835.41 307.094 896.498 308.791 961.571C310.917 1042.79 313.461 1123.32 316.328 1203.96C325.203 1442.33 348.879 1679.61 372.383 1921.99C382.831 2028.86 394.269 2158.99 405.031 2269.46C406.287 2282.33 407.28 2274.5 407.641 2276.94C413.225 2315.33 408.662 2302.75 410.404 2327.97C413.605 2374.79 417.106 2424.07 420.38 2473.16C424.103 2528.91 427.731 2584.33 431.064 2635.47C433.702 2676.29 434.727 2635.19 435.169 2676.47C435.2 2679.32 432.827 2669.1 433.258 2680.26C434.267 2705.88 437.135 2754.11 437.994 2773.84C439.66 2812 439.976 2818.15 441.752 2854.22C444.155 2903.32 446.109 2961.79 449.522 3014.61C450.258 3025.81 451.239 3010.84 452.593 3028.72C453.909 3046.66 456.827 3093.97 457.672 3110.08C458.45 3126.01 456.5 3119.42 456.384 3122.26C455.222 3145.83 464.644 3199.9 465.826 3206.82C469.321 3232.41 473.318 3257.62 478.735 3281.05C487.277 3394.6 610.902 3367.49 699.452 3356.71C789.145 3343.14 885.079 3325.03 971.334 3311.09C972.087 3310.97 972.841 3310.85 973.594 3310.72C1076.54 3293.97 1164.58 3281.36 1264.52 3266.33C1275.14 3264.74 1262.35 3264.44 1275.36 3262.49C1412.81 3241.93 1549.45 3223.3 1687.02 3207.04C1700.73 3205.43 1683.33 3209.59 1697.04 3208.09C1781.35 3198.73 1915.18 3186.4 1964.25 3172.47C2021.46 3166.16 2090.81 3158.8 2142.16 3155.03C2175.24 3152.6 2143.41 3158.04 2183.88 3152.9C2193.02 3151.75 2180.96 3151.18 2194.62 3149.6C2252.2 3142.95 2315.4 3137.28 2372.42 3131C2384.03 3129.72 2380.7 3128.4 2383.97 3127.8C2411.41 3122.84 2457.91 3122.63 2467.96 3122.05C2544.67 3117.47 2600.53 3112.11 2671.9 3106.84C2688.47 3105.63 2668.72 3104.89 2684.66 3103.66C2740.59 3099.35 2798.12 3095.51 2854.44 3092.47C2881.45 3091.02 2907.91 3089.76 2934.17 3088.68C2952.24 3087.94 2935.73 3090.68 2944.37 3090.43C2982.38 3089.33 2990.64 3085.41 3027.13 3084.48C3034.81 3084.29 3030.56 3086.08 3031.97 3086.19C3053.89 3087.96 3072.96 3083.26 3078.57 3082.94C3149.84 3078.86 3195.71 3081.39 3264.64 3078.9C3272.89 3078.61 3254.22 3077.09 3277.42 3076.39C3431.97 3071.74 3595.54 3070.86 3748.53 3073.33C3772.22 3073.72 3755.3 3075.13 3756.79 3075.33C3780.96 3078.39 3797.11 3074.62 3804.76 3074.54C3866.1 3074.01 3922.76 3078.13 3964.71 3074.21C4149.3 3078.5 4332.78 3083.89 4515.96 3090.76C4590.15 3093.02 4664.46 3097.67 4737.56 3092.54C4740.77 3092.26 4735.23 3094.77 4741.62 3094.19C4780.48 3090.35 4795.02 3083.67 4805.59 3077.81C4815.52 3071.3 4824.19 3066.48 4835.19 3046.21C4841.97 3037.1 4852.47 3000.17 4852.25 2996.33C4854.2 2983.91 4856.3 2996.98 4856.78 2992.83C4859.46 2957.38 4850.08 2963.58 4846.22 2916.01C4846.09 2914.48 4848.43 2920.74 4848.22 2916.62C4847.62 2904.45 4845.58 2892.12 4844.76 2879.86C4844.67 2878.52 4844.59 2877.22 4844.52 2875.94C4843.15 2851.06 4845.83 2839.44 4837.8 2799.46C4836.7 2794.25 4832.58 2802.89 4826.79 2760.66C4824.57 2743.91 4813.13 2668.97 4810.15 2648.19C4807.2 2627.23 4811.17 2641.31 4811.01 2639.79C4804.35 2583.15 4808.67 2604.44 4807.48 2575.65C4806.25 2547.01 4799.53 2555.96 4796.78 2544.71C4794.03 2533.39 4789.08 2491.83 4788.03 2481.6C4786.99 2471.38 4790.18 2483.81 4789.05 2474.76C4781.44 2414.67 4780.71 2449.24 4776.14 2429.78C4765.33 2383.96 4765.06 2346.88 4758.34 2304.37C4756.53 2292.88 4756.8 2302.49 4754.91 2292.27C4747.47 2251.96 4745.07 2227.2 4735.41 2181.5C4733.85 2174.17 4723.8 2137.29 4722.25 2112.95C4722.03 2109.45 4725.19 2118.93 4722.51 2101.53C4718.54 2075.75 4710.82 2029.21 4705.59 2001.66C4701.71 1981.15 4703.29 2004.96 4699.68 1979.3C4698.03 1967.62 4703.1 1988.83 4699.92 1967.06C4699.47 1963.96 4698.9 1960.19 4698.24 1956C4694.17 1930.43 4687.44 1888.09 4684.74 1870.05C4681.59 1849.28 4681.45 1860.93 4681.07 1859.27C4678.8 1849.15 4672.29 1809.25 4671.84 1805.67C4647.22 1626.97 4638.1 1460.84 4621.09 1286.37C4619.75 1272.67 4618.63 1281.98 4618.41 1279.9C4613.21 1233.09 4621.88 1269.58 4620.51 1236.63C4616.99 1241.76 4615.9 1222.29 4612.13 1189.38C4610.29 1173.46 4609.64 1182.3 4609.34 1180.86C4604.6 1157.6 4605.81 1140.79 4605.98 1136.54C4606.55 1120.66 4601.96 1104.03 4602.25 1093.21C4602.51 1082.42 4607.59 1106.57 4603.87 1074.98C4601.4 1066.31 4600.48 1090.15 4597.03 1066.28C4592.54 1035.27 4587.26 994.913 4581.4 952.448C4570.05 871.161 4563.58 781.394 4560.08 733.408C4554.79 660.36 4553.21 636.784 4550.77 594.244C4546.31 517.311 4545.6 545.682 4540.5 498.187C4534.98 450.729 4543.76 473.145 4544.6 466.173C4545.4 459.366 4543.15 452.084 4543.02 443.635C4542.88 435.189 4545.92 453.131 4543.98 433.514C4543.64 430.153 4543.09 425.856 4542.38 421.068C4538.58 397.546 4537.09 359.203 4536.19 353.336C4533.94 339.233 4528.81 359.996 4532.98 318.44C4533.3 315.849 4533.68 313.275 4533.67 310.965C4533.65 309.846 4534.19 311.055 4534.66 311.579C4534.9 311.835 4535.15 311.877 4535.34 311.249C4535.5 310.639 4535.69 309.278 4535.16 307.214C4466.76 263.884 4357.81 273.324 4270.01 263.512C4257.76 262.69 4268.86 261.285 4261.68 260.785C4185.79 255.727 4212.8 260.478 4170.82 262.361C4180.38 257.819 4157.62 253.711 4099.94 251.562C4064.6 250.272 4071.24 252.688 4048.66 253.45C4041.87 253.679 4017.06 251.387 4012.87 252.278C3999.31 254.912 4018.05 258.866 3974.51 256.941C3970.75 256.774 3966.49 256.56 3961.62 256.293C3959.05 256.147 3967.3 254.565 3958.41 254.193C3899.59 251.779 3892.81 255.086 3830.02 253.9C3780.29 252.959 3692.65 248.815 3636.45 247.286C3637.84 241.731 3584.29 241.882 3562.91 245.304C3525.97 244.398 3487.24 243.862 3451.42 242.656C3439.4 242.249 3447.33 240.783 3445.81 240.58C3422.59 237.406 3406.56 240.856 3398.65 240.858C3313.34 240.732 3243.26 236.709 3161.97 238.17C3159.1 238.224 3154.2 242.02 3132.53 238.846C3131.12 238.629 3157.99 237.291 3119.76 236.55C3081.42 235.806 3009.07 232.624 2955.79 233.648C2942.93 233.892 2910.19 236.566 2884.1 233.741C2880.62 233.358 2884.44 232.3 2879.43 231.611C2863.19 229.412 2854.26 233.204 2835.17 229.613C2816.07 226.022 2776.37 222.984 2722.59 224.575C2720.88 224.619 2708.11 227.556 2691.22 227.289C2664.29 226.859 2625.94 225.726 2597.81 225.399C2584.34 225.243 2592.94 227.277 2590.6 227.283C2499.83 227.247 2435.52 224.775 2338.35 222.958C2320.45 222.62 2269.43 224.699 2234.84 222.263C2196.87 219.599 2236.12 210.526 2148.94 211.908C2113.93 212.464 2069.29 224.036 2006.31 217.246C1883.88 217.689 1770.94 213.604 1648.27 215.056C1645.73 215.086 1640.64 215.81 1634.69 216.562C1627.5 217.418 1619.17 218.312 1612.22 218.248C1592.71 218.066 1583.29 216.451 1568.83 216.275C1511.9 215.52 1458.31 216.657 1402.98 216.342C1382.48 216.232 1389.19 214.62 1364.13 214.503C1339.4 214.396 1322.82 216.519 1288.25 215.538C1262.74 214.796 1236.72 210.503 1202.7 210.181C1201.37 214.497 1178.02 214.492 1136.53 216.043C1128.43 216.347 1137.2 217.752 1133.32 217.974C1117.63 218.912 1103.48 217.851 1088.97 218.91C1085.33 219.168 1085.2 220.638 1082.29 220.932C1057.65 223.449 1016.79 221.121 1009.93 220.77C982.848 219.358 970.578 221.735 949.957 221.66C929.41 221.601 960.015 219.329 936.039 219.746C918.59 220.053 899.536 220.582 879.704 221.036C843.259 221.868 804.725 222.54 771.873 222.896C751.693 223.113 765.482 224.913 762.597 224.989C720.897 225.958 678.673 224.117 655.596 228.138C626.623 218.176 630.441 229.262 570.782 227.405C566.123 227.253 560.087 222.495 578.151 221.749C596.16 221.002 623.51 222.407 648.528 221.193C654.44 220.915 688.384 216.247 692.97 215.939C729.195 213.567 734.421 220.621 736.347 221.002C758.121 225.049 799.565 219.693 810.457 219.161C834.997 218.011 857.964 217.395 879.576 216.686C902.03 215.953 923.196 215.079 944.321 213.7C971.661 211.943 974.085 207.184 995.647 206.642C1067.07 205.093 1092.01 211.425 1159.39 205.098C1173.33 203.791 1159.5 198.736 1211.07 202.455C1214.26 202.685 1252.23 206.194 1274.89 203.833C1277.8 203.534 1277.55 202.046 1281.16 201.914C1305.59 201.063 1321.67 202.237 1349.12 201.679C1375.26 201.121 1407.75 200.326 1438.57 200.915C1456.37 201.263 1481.22 204.122 1489.38 204.832C1514.08 206.878 1541.07 203.793 1556.34 206.235C1572.03 208.693 1541.23 212.152 1582.56 213.899C1584.05 210.04 1587.46 206.089 1589.87 202.213C1604.51 202.313 1619.47 202.45 1634.78 202.613C1708.93 203.415 1782.26 204.785 1857.06 205.239C1868.24 205.303 1856.81 203.133 1868.83 203.149C1919.2 203.226 1963.05 205.085 2015.4 204.969C2055.65 204.869 2100.37 203.091 2142.32 202.95C2168.34 207.629 2230.86 206.76 2276.39 207.65C2292.3 207.959 2291.23 209.13 2302.59 209.637C2345.53 211.528 2325.52 207.402 2337.21 206.913C2387.29 204.84 2391.98 213.741 2451.06 214.202C2454.17 214.229 2492.85 209.963 2498.07 209.732C2531.65 208.216 2503.6 211.44 2524.61 212.039C2563.08 213.139 2589.74 214.591 2634.88 213.777C2648.09 213.534 2679.6 210.994 2705.13 213.601C2708.48 213.943 2706.61 215.478 2709.31 215.604C2758.27 217.768 2759.59 212.889 2787.59 211.606C2815.57 210.322 2858.77 214.304 2867.54 215.403C2890.5 218.247 2849.9 216.234 2848.65 216.465C2833.97 219.207 2865.5 219.135 2889.55 219.725C2892.93 224.576 2926.67 224.77 2914.52 220.318C2913.13 219.831 2894.36 220.012 2889.55 219.725C2910.74 215.31 2947.82 215.236 2988.57 220.244C3007.69 222.594 2989.63 224.725 3047.69 224.722C3073.95 224.725 3063.94 221.264 3087.25 220.722C3140.47 219.486 3209.23 223.682 3264.38 224.132C3284.24 224.293 3264.93 222.154 3278.5 222.202C3314.31 222.322 3346.6 224.247 3382.56 224.201C3385.87 224.195 3377.82 222.154 3389.18 222.335C3474.31 223.665 3549.21 226.325 3638.34 228.255C3680.94 229.168 3759.01 229.891 3802.96 231.194C3857.32 232.771 3920.2 235.855 3975.07 238.109C4000.07 239.12 4020.96 239.889 4041.83 240.376C4084.94 241.394 4075.26 239.188 4094.13 238.562C4129.03 237.265 4193.37 244.44 4201.05 245.521C4201.56 245.553 4164.35 244.4 4184.19 246.225C4195.6 248.748 4200.62 245.512 4201.05 245.521C4207.28 246.176 4280.05 250.18 4295.66 250.833C4303.53 251.094 4299.24 249.044 4303.31 249.214C4345.87 251.073 4389.66 253.574 4432.65 257.948C4454.16 260.204 4476.18 262.861 4498.16 267.438C4509.41 269.914 4520.56 272.449 4532.75 278.219C4538.93 281.432 4546.51 285.317 4552.26 295.463C4557.92 306.155 4555.77 316.194 4555.38 320.879C4553.92 333.685 4553.07 346.798 4552.66 359.914C4552.58 361.632 4550.62 358.996 4550.49 363.046C4549.83 384.464 4550.82 403.079 4553.28 419.685C4557.57 448.774 4561.29 474.467 4564.69 504.284C4570.07 552.196 4571.99 590.303 4570.51 618.834C4573.37 654.916 4575.47 706.824 4576.94 736.567C4578.39 766.374 4582.71 770.181 4583 772.782C4591.19 841.854 4594.64 886.152 4602.73 949.444C4604.21 960.778 4605.74 972.575 4607.38 985.2C4612.74 1025.46 4622.82 1105.25 4627.77 1148.88C4631.77 1183.35 4632.92 1204.24 4636.57 1235.97C4637.06 1240.25 4638.38 1235.76 4638.57 1237.06C4644.03 1272.41 4638.16 1255.71 4638.09 1263.11C4637.81 1289.95 4637.85 1306.47 4643.18 1351.78C4644.4 1362.22 4653.19 1392.22 4655.22 1411.27C4657.85 1436.05 4654.84 1426.88 4657.67 1452.81C4657.91 1455.03 4659.21 1454.44 4660.59 1470.48C4666.97 1544.89 4673.92 1625.91 4683.07 1702.82C4684.31 1713.31 4684.86 1699.59 4686.71 1714.77C4695.38 1785.88 4706.21 1863.75 4716.61 1932.68C4719.17 1949.68 4715.93 1939.3 4716.1 1943.06C4716.25 1946.18 4716.56 1949.47 4716.97 1952.83C4719.58 1973.95 4726.75 1998.29 4727.61 2002.9C4751.19 2128.84 4764.79 2226.43 4788.49 2355.09C4789.8 2362.08 4803.15 2415.45 4803.63 2440.2C4803.67 2441.87 4804.05 2466.4 4810.05 2487.07C4810.42 2488.36 4809.82 2473.14 4813.95 2499.19C4818.07 2525.19 4826.18 2566.77 4829.84 2602.91C4830.99 2614.33 4831.64 2641.73 4839.75 2675.03C4840.33 2677.25 4854.83 2728.41 4852.97 2747.78C4852.63 2750.83 4847.49 2748.54 4855.64 2788.61C4857.19 2796.27 4856.35 2782.2 4859.79 2802.29C4863.29 2822.87 4866.22 2847.54 4869.52 2873C4871.3 2886.84 4873.15 2900.56 4875.15 2913.8C4876.19 2920.85 4882.25 2949.57 4879.76 2974.12C4879.35 2977.92 4877.84 2970.69 4877.48 2983.47C4876.06 3013.23 4873 3050.47 4845.36 3078.6C4817.57 3105.52 4782.72 3111.17 4752.71 3114.99C4731.3 3117.05 4741.47 3113.43 4719.61 3114.36C4697.48 3115.31 4653 3115.01 4630.49 3115.86C4607.72 3116.75 4632.77 3121.34 4598.33 3121.05C4570.37 3120.74 4543.16 3120.06 4515.06 3119.21C4395.8 3115.53 4276.64 3109.61 4157.08 3106.16C4135.29 3105.54 4153.39 3107.5 4121.02 3106.7C4002.45 3103.56 3797.51 3102.06 3694.55 3098.97C3611.78 3096.35 3715.99 3094.48 3652.75 3093.42C3622.5 3092.94 3589.32 3097.94 3582.11 3098.13C3510.31 3100.08 3460.46 3098.53 3395.92 3100.31C3382.58 3100.68 3395.71 3102.41 3384.35 3102.71C3345.55 3103.77 3304.76 3103.83 3267.84 3104.98C3251.21 3105.51 3254.27 3106.93 3238.97 3107.26C3202.56 3108.06 3170.07 3108.5 3134.42 3108.41C3131.15 3108.41 3153.04 3105.72 3125.92 3106.66C3082.19 3108.2 3027.8 3109.13 2977.45 3113.08C2962.57 3114.26 2962.2 3117.69 2929.9 3117.03C2923.13 3116.91 2931.47 3112.29 2894.35 3117.93C2891.36 3118.39 2875.47 3120.54 2856.24 3122.58C2835.46 3124.78 2810.75 3126.87 2794.56 3126.31C2786.36 3126.02 2765.46 3124.02 2747.53 3125.78C2745.1 3126.03 2754.98 3127.2 2740.11 3128.41C2687.75 3132.63 2632.85 3136.56 2579.09 3141.48C2564.74 3142.8 2586.28 3142.97 2564.89 3144.88C2506.07 3150.15 2432.56 3156.15 2375 3160.96C2353.77 3162.74 2368.28 3159.78 2366.72 3159.76C2341.63 3159.31 2327.37 3164.49 2319.14 3165.51C2268.04 3171.8 2228.89 3173.99 2181.8 3179.38C2168.78 3180.87 2178.21 3181.69 2175.63 3182.13C2148.91 3186.52 2168.59 3181.19 2151.55 3182.64C2103.87 3186.68 2050.66 3192.69 2002.65 3198.4C1985.01 3200.5 2005.13 3200.31 1989.22 3202.18C1895.32 3213.3 1797.71 3224.99 1706.07 3235.58C1688.88 3237.56 1699.47 3234.58 1695.85 3234.68C1670.81 3235.3 1634.85 3243.54 1626.72 3244.96C1588.65 3251.52 1574.25 3252.02 1540.49 3256.86C1377.07 3280.27 1175.57 3309.06 1021.52 3333.48C1006.21 3335.89 990.634 3338.37 976.202 3340.68C886.296 3355 805.347 3368.97 723.879 3381.38C682.788 3387.43 642.188 3393.5 598.683 3395.41C576.914 3396.09 554.381 3396.18 530.054 3389.75C505.763 3384.1 480.5 3364.66 469.089 3341.14C462.74 3328.43 466.951 3342.18 461.876 3331.15C455.63 3316.58 451.728 3302.22 448.409 3288C423.249 3163.07 422.551 3042.1 414.603 2918.55C413.992 2907.33 412.782 2923.66 411.731 2905.57C409.567 2868.51 407.367 2821.5 406.1 2784.06C405.477 2765.78 408.464 2790.08 407.806 2771.81C406.258 2728.98 403.934 2683.12 401.046 2639.21C399.809 2620.53 399.397 2648.88 397.939 2624.54C394.918 2574.6 391.644 2524.97 388.128 2475.45C379.977 2361.02 369.787 2246.71 360.286 2129.99C359.35 2118.53 362.569 2108.13 359.352 2083.84C358.007 2082.13 356.648 2082.36 355.324 2081.69C330.916 1841.41 306.42 1603.19 290.516 1360.83C289.86 1350.63 288.778 1368.46 287.501 1348.61C284.444 1300.58 281.768 1253.09 279.894 1205.42C277.299 1139.29 275.155 1073.31 274.132 1005.29C273.957 993.627 278.07 999.441 276.359 965.437C276.029 958.988 273.903 908.083 272.656 894.353C272.474 892.552 270.919 901.996 270.374 885.4C267.268 789.254 265.273 687.33 265.19 590.997C265.183 575.346 267.337 591.951 267.353 580.859C267.494 502.279 265.696 416.282 269.456 341.261C272.279 290.388 275.05 309.481 279.74 282.764C280.249 279.464 282.902 247.841 285.331 246.307C290.631 242.796 294.174 258.561 300.036 252.813C300.35 252.52 300.803 249.578 301.315 246.426C301.911 242.627 302.614 238.576 303.395 235.76C303.544 235.226 303.811 234.34 303.976 233.926C304.153 233.467 304.281 233.243 304.352 233.179C304.444 233.071 304.361 233.39 304.121 233.834C303.89 234.277 303.505 234.806 303.357 235.057C303.196 235.318 303.355 235.288 303.775 234.963C304.185 234.655 304.755 234.046 305.048 233.735C305.199 233.58 305.287 233.518 305.319 233.603C305.361 233.667 305.38 233.797 305.374 234.031C305.375 234.435 305.195 235.625 305.144 236.61C304.571 236.896 302.153 266.601 302.824 273.665C303.096 278.91 305.676 269.866 305.8 280.204C305.959 290.492 303.694 302.292 304.02 319.338C304.414 336.713 306.771 329.292 306.251 364.054ZM4585.4 870.613C4586.67 898.256 4593.99 901.469 4588.93 872.051C4588.68 870.623 4585.33 869.186 4585.4 870.613ZM1766.87 209.911C1802.6 213.205 1828.2 208.944 1802.26 206.402C1776.49 203.867 1756.05 208.914 1766.87 209.911ZM1391.77 210.284C1433.54 212.754 1440.5 203.018 1395.33 204.899C1392.76 205.006 1389.37 210.141 1391.77 210.284ZM277.125 407.008C277.211 406.35 277.572 384.603 277.507 383.722C275.475 371.793 274.727 416.448 277.125 407.008ZM1019.38 215.494C1032.52 216.437 1070.66 214.169 1054.22 212.853C1041 211.758 1002.83 214.283 1019.38 215.494ZM4761.45 2302.65C4761.43 2303.09 4764.05 2318.92 4764.57 2318.51C4766.22 2317.11 4761.92 2295.21 4761.45 2302.65ZM386.902 223.919C480.39 224.274 537.112 232.26 435.26 231.424C416.838 231.268 474.982 228.835 451.537 228.12C408.599 226.818 380.09 231.876 336.26 229.165C328.34 228.669 381.547 223.882 387.068 223.908C387.012 223.912 386.957 223.915 386.902 223.919ZM4579 887.365C4578.96 887.943 4581.54 909.978 4581.72 910.509C4585.34 922.172 4580.11 877.757 4579 887.365ZM4678.66 3097.5C4677.27 3097.54 4626.14 3097.33 4624.25 3097.34C4597.3 3100.9 4701.5 3101.35 4678.66 3097.5ZM3635.57 247.118C3611.2 248.795 3582.17 248.455 3563.02 245.309C3586.94 245.939 3611.3 246.466 3635.57 247.118Z" fill="black"/>
<path d="M753.264 46.029C739.163 56.8895 720.545 70.339 705.154 81.1573C703.739 82.1501 702.325 83.1406 700.922 84.1214C695.917 87.6199 697.857 85.0027 694.327 87.425C687.521 92.0927 681.68 97.0725 674.919 101.666C672.681 103.181 674.472 99.9753 672.138 101.597C659.356 110.496 647.951 119.728 635.35 129.135C573.269 175.491 514.288 223.702 455.398 275.505C454.887 275.955 454.372 276.407 453.854 276.862C434.74 293.617 411.419 313.375 392.832 331.622C390.607 333.807 392.845 333.474 392.485 333.958C386.824 341.519 387.289 337.506 382.63 341.43C364.149 357.011 344.709 375.55 328.429 392.145C321.512 399.207 330.392 394.105 322.27 400.043C321.708 400.458 322.543 397.722 320.502 399.518C315.881 403.584 307.732 411.958 304.283 415.222C297.584 421.551 296.553 422.595 290.362 428.74C281.946 437.08 271.465 446.639 262.739 455.917C260.876 457.904 264.405 456.327 261.529 459.582C258.673 462.812 250.513 470.949 247.584 473.474C244.627 476.024 244.997 474.067 244.335 474.383C238.874 476.908 231.705 488.53 230.604 489.778C209.822 513.038 190.185 531.26 170.338 552.712C167.54 555.74 164.551 559.019 161.747 562.129C149.412 575.803 137.199 589.985 126.002 602.856C109.605 621.751 95.4449 637.676 81.2301 657.256C79.7456 659.315 82.8292 657.879 81.0265 660.396C72.6924 672.033 65.0081 683.85 57.6321 696.103C48.9482 710.632 38.9103 726.893 33.2212 739.984C33.2127 740.005 33.2127 739.997 33.2216 739.944C33.2307 739.884 33.2462 739.818 33.2792 739.556C33.2939 739.431 33.3098 739.271 33.3187 739.059C33.3231 738.953 33.3256 738.834 33.324 738.699C33.3231 738.63 33.3216 738.566 33.3178 738.478C33.3132 738.368 33.3055 738.249 33.2933 738.119C33.1121 737.117 33.1245 735.205 30.3523 732.903C29.0881 731.924 27.4711 731.499 26.55 731.437C25.8613 731.377 25.3134 731.421 24.8813 731.483C24.0193 731.615 23.5684 731.817 23.4309 731.868C23.0402 732.03 22.91 732.123 22.9016 732.133C22.8753 732.184 23.4672 731.811 23.895 731.512C26.2898 729.793 24.1616 733.31 26.6778 731.567C42.7484 719.688 69.1499 699.882 73.9852 687.298C84.5694 678.306 97.4044 667.355 107.546 660.14C114.125 655.452 109.441 661.666 116.259 654.783C117.81 653.222 114.745 654.073 117.153 651.798C127.375 642.152 139.179 632.402 149.099 622.768C151.113 620.807 149.724 620.377 150.179 619.682C154.225 613.738 164.324 608.874 166.415 607.334C167.541 606.508 168.644 605.686 169.73 604.865C182.763 595.073 192.266 586.054 204.261 575.638C207.278 573.019 202.621 574.873 205.492 572.302C220.474 558.917 236.132 545.465 251.424 533.133C254.807 530.411 252.727 534.101 254.393 532.854C261.726 527.343 261.648 523.861 268.567 518.609C270.038 517.486 270.05 519.085 270.392 518.964C275.745 517.08 277.302 511.797 278.297 510.845C290.685 498.888 301.104 493.934 313.355 482.713C314.83 481.358 310.414 483.16 314.624 479.421C342.567 454.592 372.635 429.077 401.373 405.818C405.832 402.208 403.492 405.759 403.858 405.631C409.759 403.46 410.698 398.71 412.043 397.398C422.704 387.103 434.764 379.972 440.043 370.72C488.179 330.728 534.089 288.504 583.224 250.479C583.849 249.991 583.728 252.028 584.97 251.049C599.914 239.299 595.581 240.018 603.353 229.676C605.309 227.075 614.771 223.393 615.567 223.036C618.493 221.724 617.491 225.457 618.388 224.92C625.807 220.381 620.098 215.772 628.872 208.253C629.154 208.027 628.867 210.022 629.688 209.492C632.248 207.845 634.143 205.528 636.69 203.95C642.56 200.317 646.695 201.391 653.171 193.169C654.014 192.101 649.724 190.383 657.816 183.722C661.059 181.055 674.774 169.253 678.92 166.069C682.983 162.952 681.167 166.234 681.482 166.04C693.064 158.458 689.474 162.468 696.481 159.891C703.442 157.341 697.991 153.927 699.693 151.579C701.411 149.22 709.909 143.882 712.209 142.585C714.44 141.346 712.605 144.004 714.482 142.781C726.835 134.716 717.402 136.307 720.423 132.465C727.637 123.32 737.176 121.202 745.529 114.724C747.771 112.987 745.339 113.686 747.196 111.989C750.171 109.28 752.801 107.247 755.375 105.255C759.355 102.163 763.218 99.1551 767.756 94.3258C768.889 93.0952 774.428 84.869 780.092 82.7446C780.904 82.4425 779.858 84.7967 783.18 82.3469C788.481 78.4046 797.068 71.564 802.239 66.7832C805.896 63.3861 800.333 65.5708 805.483 62.0575C807.757 60.5119 804.534 64.5968 808.769 61.6067C813.24 58.4158 823.442 49.9717 827.382 46.7234C831.2 43.5662 828.199 44.1827 828.451 43.8535C830.088 41.8098 837.306 35.1082 837.872 34.6642C846.523 27.6747 854.918 21.193 863.541 14.9773C867.883 11.8626 871.991 8.99127 876.761 5.99356C877.329 5.64022 877.771 5.37242 878.411 4.98596C879.061 4.5945 879.681 4.23111 880.275 3.89543C880.869 3.55973 881.436 3.25177 881.977 2.97096C882.704 2.58815 883.411 2.24176 884.067 1.95229C884.397 1.80688 884.718 1.67381 885.032 1.55306C885.151 1.50806 885.442 1.39635 885.674 1.31721C885.915 1.23391 886.155 1.15823 886.396 1.09077C886.879 0.956455 887.365 0.851709 887.902 0.800642C888.341 0.756144 889.933 0.639449 891.266 1.58821C894.179 3.86494 892.833 6.91938 892.819 7.18699C892.577 8.00494 892.108 9.01263 891.78 9.62421C879.786 27.9801 865.431 42.1805 851.749 58.7255C849.67 61.1709 852.204 60.5581 851.899 60.9413C844.871 69.817 847.879 60.4406 841.468 65.6468C844.425 66.8832 841.126 69.773 835.919 76.0656C833.385 79.1263 835.701 78.3067 835.549 78.6551C833.011 84.1413 828.743 85.4216 827.671 85.905C823.842 87.553 822.414 92.1718 819.939 93.1718C817.384 94.2715 820.061 88.7973 814.972 94.4202C814.327 96.7403 820.261 94.4387 816.672 99.0603C811.947 105.1 806.08 111.72 798.977 119.33C785.523 133.736 769.262 149.736 761.313 158.062C748.855 171.125 745.49 175.021 737.96 182.519C724.872 195.5 731.027 191.99 723.769 201.165C716.555 210.286 716.643 202.612 714.691 203.07C712.774 203.49 712.4 205.566 710.568 206.627C708.74 207.684 711.181 203.971 707.761 207.287C704.34 210.606 696.771 221.575 696.526 223.537C695.888 227.82 701.807 225.295 692.503 233.881C691.965 234.376 692.592 231.719 690.581 233.66C674.664 249.087 659.002 265.644 643.103 281.171C640.949 283.269 641.689 280.274 640.422 281.484C627.172 294.135 633.506 291.135 628.63 300.444C627.441 296.201 621.919 298.693 612.372 308.78C606.604 314.873 608.791 314.957 605.894 319.72C605.009 321.168 600.136 324.681 599.967 325.99C599.382 330.302 605.289 328.18 594.597 337.857C594.124 338.279 594.497 335.864 592.937 337.394C582.806 347.318 583.636 350.301 573.394 361.606C565.312 370.524 549.624 384.762 540.059 394.49C537.174 391.364 529.068 401.346 527.605 407.15C521.43 413.502 515.026 420.508 508.864 426.429C506.746 428.467 507.179 426.221 506.829 426.399C501.412 429.09 500.838 433.838 499.608 435.3C486.218 451.023 473.07 461.768 461.062 477.514C460.637 478.074 462 480.923 456.816 483.265C456.475 483.41 459.978 477.76 453.524 484.424C447.058 491.1 433.934 502.658 426.049 512.97C424.145 515.459 420.468 522.822 414.778 526.111C414.016 526.546 414.034 525.297 412.859 525.854C409.064 527.68 409.743 531.297 404.725 532.914C399.692 534.547 391.764 540.161 384.078 550.819C383.83 551.155 383.425 555.018 380.591 557.957C376.048 562.666 369.421 568.95 364.697 573.963C362.455 576.343 364.96 575.831 364.589 576.262C350.136 592.728 338.47 603.153 321.933 619.816C318.86 622.91 311.924 633.158 305.013 638.169C297.453 643.649 298.629 631.918 285.514 648.3C280.22 654.906 279.402 669.078 265.58 676.833C246.207 699.081 225.594 717.435 206.564 740.155C205.702 741.181 204.685 745.991 202.55 748.217C199.412 751.48 196.723 752.606 194.372 755.001C190.171 759.261 186.377 763.455 182.741 767.56C177.523 773.435 172.694 779.043 167.449 784.533C163.858 788.3 164.18 786.147 159.973 790.563C155.789 794.957 154.348 798.886 148.056 804.51C143.381 808.667 136.829 810.855 130.855 816.745C132.975 819.271 129.369 823.064 122.967 831.285C121.775 832.826 124.022 832.067 123.502 832.835C121.383 836.001 118.499 837.742 116.524 840.837C116.04 841.59 116.835 842.376 116.488 843.032C113.549 848.662 105.25 854.011 103.678 855.086C98.0057 858.834 97.2712 861.8 93.2905 865.207C89.4404 868.474 93.8562 862.393 89.6477 866.439C80.9888 874.758 70.8322 886.316 62.639 895.491C59.4778 899.04 62.7446 897.6 62.3177 898.132C55.7841 906.083 48.1636 912.43 46.6116 918.796C36.3407 919 43.2327 923.792 32.8399 933.879C32.0075 934.694 28.2614 933.52 30.6892 929.75C32.9883 926.14 38.1794 921.741 41.4921 916.607C42.2167 915.452 45.1139 906.897 45.6448 905.981C50.3607 898.118 55.0735 901.004 55.6471 900.798C61.6488 898.837 65.4259 889.068 67.0586 886.863C74.1731 877.149 81.781 869.867 87.8145 861.987C91.9744 856.612 89.671 853.863 93.2407 850.109C105.234 837.511 112.811 836.601 120.776 821.617C122.562 818.331 117.205 818.398 127.921 811.309C128.596 810.862 137.029 805.868 139.286 800.838C139.578 800.196 138.734 799.442 139.267 798.727C142.854 793.959 146.362 791.51 150.327 786.615C154.338 781.671 159.426 775.268 164.58 770.311C167.754 767.247 173.256 764.451 175.129 763.204C175.702 762.827 176.247 762.413 176.767 761.973C180.85 758.565 183.303 753.361 186.765 752.015C190.684 750.481 187.597 757.799 195.29 751.301C193.397 749.017 191.78 746.327 190.033 743.865C204.685 728.386 220.262 713.207 234.857 697.519C236.691 695.543 233.648 696.468 235.588 694.318C243.944 685.08 251.727 678.469 260.236 668.794C266.594 661.539 272.759 652.568 279.496 644.82C286.136 642.691 295.825 630.771 303.554 623.043C306.263 620.331 306.742 621.134 308.833 619.349C316.725 612.581 311.238 614.055 312.849 611.669C319.841 601.367 325.333 605.36 335.091 594.803C335.604 594.251 339.417 584.998 340.137 583.912C344.627 577.046 341.961 583.802 345.631 580.31C352.333 573.933 357.437 569.787 364.16 561.156C366.105 558.648 369.705 551.592 375.211 548.293C375.935 547.858 376.487 549.001 376.988 548.573C385.992 540.748 383.474 537.985 387.196 532.219C390.914 526.456 399.975 520.631 401.981 519.592C407.208 516.862 399.638 523.258 399.569 523.605C398.755 527.723 403.74 521.898 407.864 517.819C411.094 519.724 416.518 513.678 412.133 513.576C411.644 513.575 408.785 517.089 407.864 517.819C408.76 511.657 414.564 504.861 423.801 499.982C428.124 497.702 426.454 502.128 435.608 491.489C439.767 486.658 436.247 486.714 439.616 482.159C447.326 471.742 460.491 461.256 469.332 451.38C472.54 447.797 468.32 450.251 470.478 447.769C476.201 441.181 482.238 436.309 487.867 429.593C488.375 428.984 485.997 429.398 487.854 427.41C501.931 412.297 514.962 399.873 529.768 384.259C536.94 376.695 549.135 362.641 556.667 354.906C569.714 341.495 587.059 326.187 597.588 314.288C604.544 306.443 601.909 307.132 604.263 303.206C608.769 295.655 621.702 286.911 623.514 285.759C623.574 285.721 617.639 292.512 621.477 289.521C624.517 288.545 623.449 285.838 623.514 285.759C624.731 284.967 637.1 272.317 639.414 269.456C640.639 267.935 638.897 267.791 639.554 267.017C655.052 248.773 671.224 231.065 688.3 213.789C688.609 213.5 689.289 215.01 690.002 214.317C700.153 204.484 704.866 196.714 712.005 187.454C719.233 178.099 725.504 171.924 732.263 168.524C738.026 161.86 747.321 153.576 752.819 148.691C758.229 143.9 756.684 141.188 757.07 140.685C767.676 126.842 775.931 119.492 786.926 108.251C788.669 106.462 790.461 104.599 792.311 102.633C798.913 95.6404 811.598 81.0973 818.537 72.9174C823.667 66.8464 827.95 63.1207 832.499 57.3516C833.173 56.5054 831.458 56.4384 831.639 56.1584C836.289 48.5486 835.882 53.875 837.509 52.9159C843.164 49.6978 846.859 47.2347 853.2 38.4009C854.744 36.2746 855.889 27.7744 858.604 24.0983C861.881 19.6241 862.13 21.9601 865.51 17.1638C865.798 16.7476 864.892 16.2549 867.346 13.2291C869.889 10.0778 872.771 6.42559 874.792 3.43494C874.981 3.16011 875.296 2.6734 875.483 2.37264C875.682 2.05358 875.824 1.8122 875.901 1.68203C875.986 1.55202 876.001 1.46721 875.824 2.01777C875.782 2.15338 875.733 2.32617 875.678 2.54803C875.651 2.65901 875.623 2.78232 875.595 2.91982C875.581 2.99013 875.568 3.0558 875.552 3.14167C875.526 3.2812 875.5 3.43373 875.476 3.60063C875.333 4.87859 874.992 7.41028 876.723 11.0728C877.533 12.7799 879.172 14.8623 881.127 16.1835C883.061 17.5282 885.019 18.1302 886.471 18.3719C887.206 18.4952 887.838 18.5378 888.377 18.5452C888.909 18.5538 889.409 18.5155 889.549 18.5015C889.984 18.4619 890.33 18.4059 890.61 18.3509C891.721 18.1144 891.844 17.9784 891.761 18.015C891.699 18.0294 891.48 18.1159 891.16 18.2688C891 18.3453 890.813 18.4382 890.604 18.547C890.433 18.635 890.28 18.7147 890.101 18.8109C883.53 22.4826 875.381 28.5009 868.298 33.9698C866.253 35.5548 869.906 34.8056 866.923 37.1595C853.685 47.6511 838.898 59.6235 825.406 69.7365C822.076 72.2292 823.357 69.6899 822.443 70.0024C816.67 72.0941 812.794 79.194 811.764 80.1242C795.844 94.6496 781.432 105.448 766.127 118.001C759.748 123.228 752.612 129.29 745.775 135.593C744.573 136.708 736.361 147.87 730.213 149.485C729.791 149.604 723.539 151.222 720.787 156.085C720.62 156.385 724.36 155.106 719.371 159.154C714.555 163.054 707.286 170.51 699.635 174.939C697.229 176.331 690.479 178.397 685.581 185.517C685.204 186.043 678.961 198.021 673.19 198.363C672.26 198.403 670.428 195.111 664.157 202.961C662.979 204.451 666.088 202.877 662.687 206.461C657.506 211.934 649.051 217.867 643.14 225.096C642.1 226.37 638.477 232.772 632.985 234.975C632.125 235.32 632.589 233.299 630.252 235.121C619.315 243.625 608.676 253.84 597.405 262.398C593.391 265.451 594.047 262.261 589.709 265.284C585.402 268.281 577.102 274.739 573.523 279.018C569.954 283.289 576.561 281.795 570.505 287.339C544.195 311.43 516.221 333.087 489.089 356.154C485.065 359.575 489.121 357.573 483.245 362.677C461.577 381.496 424.792 414.728 404.395 429.205C388.041 440.814 406.056 423.259 394.021 432.644C388.242 437.154 384.616 445.183 383.349 446.436C371.04 458.668 360.789 465.394 349.385 475.955C347 478.162 350.386 477.205 348.347 479.07C341.368 485.471 333.648 491.289 326.862 497.344C323.857 500.031 325.166 500.408 322.32 502.764C315.573 508.362 309.266 513.206 302.074 518.038C301.419 518.479 304.473 513.94 299.516 518.179C291.539 525.006 280.86 532.892 272.369 541.728C269.842 544.363 271.429 546.444 264.414 550.158C262.93 550.951 262.498 547.168 257.415 555.187C256.473 556.604 247.572 569.204 240.293 572.422C238.383 573.264 232.886 574.65 229.912 577.778C229.515 578.209 232.195 577.734 229.603 580.176C220.266 588.924 210.159 597.543 200.647 606.433C198.148 608.774 202.935 606.521 199.193 609.965C194.788 614.012 189.907 618.312 185.099 622.446C177.738 628.78 170.614 634.697 164.13 640.017C160.188 643.242 162.042 640.02 161.676 640.166C155.919 642.378 154.898 647.093 153.549 648.498C145.047 657.281 136.854 662.672 128.512 670.471C126.256 672.578 128.804 672.164 128.423 672.661C124.279 677.889 126.322 672.82 123.003 675.375C113.931 682.321 104.162 691.058 95.5099 698.907C92.3759 701.754 96.9806 699.817 94.1839 702.334C77.0888 717.678 59.661 733.151 41.3899 747.466C37.6232 750.308 39.1591 747.482 38.226 747.876C37.2437 748.294 36.2867 748.82 34.8978 749.63C34.5105 749.857 34.0005 750.16 33.4508 750.454C33.2283 750.571 32.7298 750.841 32.1765 751.095C31.8947 751.225 31.5834 751.36 31.2256 751.5C31.0466 751.569 30.8558 751.64 30.6504 751.711C30.5955 751.73 30.5584 751.742 30.4828 751.768C30.3946 751.797 30.3037 751.827 30.2098 751.857C30.022 751.916 29.8226 751.974 29.6091 752.032C28.7549 752.258 27.6772 752.487 26.1983 752.523C25.8289 752.53 25.4349 752.524 25.0156 752.497C24.7945 752.482 24.6281 752.469 24.3338 752.436C23.9795 752.395 23.6098 752.339 23.2265 752.263C21.7004 751.967 19.9187 751.317 18.3004 750.232C11.2672 744.756 12.4828 740.013 12.2053 738.67C12.3265 735.675 12.6438 735.324 12.7725 734.615C14.0878 730.008 14.7798 728.026 15.3976 725.63C16.0008 723.392 16.3879 721.701 16.6575 720.944C20.0269 711.622 22.7678 708.974 26.6729 701.54C29.7923 695.654 33.135 689.669 36.6591 683.599C54.6974 651.628 80.8061 619.899 101.69 595.952C117.261 578.085 131.619 562.705 145.875 547.594C161.362 531.208 176.774 515.136 193.572 497.31C195.62 495.141 192.363 496.194 194.117 494.306C216.812 470.008 240.13 447.084 263.294 423.182C265.198 421.223 261.322 422.923 264.346 419.739C270.538 413.202 278.659 405.232 285.48 399.174C288.802 396.221 285.509 401.342 288.824 398.36C296.551 391.415 304.585 383.673 312.041 376.048C315.217 372.797 309.207 376.456 313.424 372.317C342.125 344.125 370.572 316.657 401.866 290.563C404.019 288.77 407.963 289.493 411.932 285.019C411.66 284.061 410.935 283.305 410.436 282.472C419.222 274.278 428.15 266.13 437.074 258.143C471.716 227.142 507.275 197.613 543.431 168.05C545.353 166.479 540.962 167.887 544.673 164.844C566.162 147.238 586.936 129.99 610.336 113.821C612.636 112.234 613.361 115.452 619.621 110.003C620.69 109.059 630.362 101.056 632.522 98.5782C632.806 98.2359 630.166 98.5085 633.301 96.0411C650.43 82.5914 668.841 68.9991 686.689 56.5311C688.043 55.5825 689.369 54.6587 690.667 53.7595C693.751 51.6248 691.422 55.2255 693.662 53.6889C709.315 42.9555 725.23 29.6632 740.759 19.991C751.189 13.5279 749.023 18.2819 755.768 16.5485C756.718 16.2992 762.908 11.9859 764.075 12.971C767.017 15.4237 766.375 20.8283 769.866 23.1917C770.599 23.7077 778.301 17.1998 774.606 22.2915C774.334 22.6456 768.817 27.3573 767.768 28.9655C767.046 30.0703 769.724 29.9994 768.028 31.9645C766.321 33.9388 763.372 34.5105 760.384 37.5702C757.416 40.6341 759.933 40.8952 753.264 46.029ZM777.108 127.105C782.795 123.052 779.638 118.755 775.532 125.049C775.332 125.364 776.832 127.3 777.108 127.105ZM222.89 716.184C230.687 711.265 232.166 704.742 226.721 707.925C221.168 711.227 220.537 717.665 222.89 716.184ZM162.158 783.47C170.511 777.182 166.123 771.006 159.771 780.015C159.39 780.548 161.666 783.843 162.158 783.47ZM731.965 34.8005C732.073 34.8057 736.444 31.6646 736.533 31.5153C737.866 28.4665 729.08 34.7802 731.965 34.8005ZM102.465 850.751C105.45 848.97 110.612 841.624 107.069 843.642C104.244 845.235 98.8241 852.883 102.465 850.751ZM747.395 116.492C747.266 116.498 744.221 118.981 744.563 119.27C745.691 120.175 749.595 116.35 747.395 116.492ZM4.35711 968.199C16.568 948.614 30.3293 942.448 15.3387 961.392C12.7137 964.926 19.2149 952.503 15.505 956.782C8.69342 964.749 8.40277 972.19 2.91007 980.955C1.73294 982.612 3.36777 969.357 4.36988 968.158C4.36561 968.172 4.36135 968.185 4.35711 968.199ZM784.399 128.476C784.55 128.415 788.28 124.468 788.309 124.335C789.079 121.05 781.573 128.991 784.399 128.476ZM573.271 260.919C572.957 260.994 563.417 269.015 563.191 269.39C560.032 275.689 579.328 259.476 573.271 260.919ZM539.83 394.567C537.032 399.958 532.362 405.18 527.624 407.132C531.71 402.977 535.745 398.736 539.83 394.567Z" fill="black"/>
<path d="M4064.28 121.876C4070.8 128.52 4078.4 136.715 4085.59 144.578C4089.39 148.745 4092.95 152.645 4096.22 156.123C4099.24 159.306 4096.94 158.391 4099.03 160.628C4103.05 164.902 4107.45 168.259 4111.58 172.467C4112.96 173.873 4110.15 173.357 4111.63 174.819C4119.66 182.694 4128.14 189.297 4136.87 196.85C4171.75 226.902 4207.47 254.903 4244.26 283.42C4252.79 290.024 4261.59 296.796 4270.4 303.565C4285.57 315.213 4303.38 330.163 4319.52 341.437C4321.42 342.766 4321.08 340.906 4321.5 341.084C4328.01 343.897 4324.58 344.593 4327.98 347.543C4341.52 359.301 4357.28 371.123 4371.39 380.936C4377.37 385.09 4373.01 378.686 4378.07 384.21C4378.42 384.592 4376.12 384.591 4377.64 385.9C4381.13 388.885 4388.15 393.766 4390.92 395.947C4396.25 400.147 4397.18 400.82 4402.31 404.618C4409.33 409.84 4417.32 416.574 4425.07 421.897C4426.73 423.032 4425.42 420.324 4428.14 422.032C4430.88 423.752 4437.6 428.849 4439.71 430.813C4441.82 432.774 4440.18 432.941 4440.44 433.445C4442.53 437.636 4452.17 441.055 4453.23 441.743C4472.49 454.362 4487.37 467.38 4504.78 480.151C4517.99 489.833 4532.47 499.76 4544.97 509.02C4559.89 520.074 4572.15 529.998 4586.77 540.543C4588.31 541.65 4587.49 539.01 4589.37 540.358C4609.42 554.802 4629.09 569.423 4648.31 584.875C4650.26 586.441 4646.8 585.711 4648.7 587.344C4660.07 597.146 4677.83 613.692 4688.71 613.846C4695.1 618.766 4702.68 624.565 4708.64 629.804C4710.35 631.286 4711.92 632.719 4713.33 634.087C4717.57 638.215 4712.07 636.137 4718.21 639.808C4719.66 640.68 4718.72 638.278 4720.81 639.663C4729.41 645.347 4738.27 652.412 4746.86 657.839C4748.58 658.917 4748.91 657.621 4749.52 657.789C4754.66 659.328 4759.45 666.556 4760.78 667.805C4770.83 677.21 4779.14 682.532 4789.43 690.156C4791.83 691.931 4789.99 688.515 4792.31 690.153C4798.27 694.386 4804.25 698.759 4810.12 703.156C4813.06 705.355 4816.04 707.617 4818.85 709.74C4820.28 710.816 4821.8 711.956 4822.81 712.654C4822.89 712.713 4823.01 712.785 4822.86 712.721C4822.82 712.705 4822.77 712.682 4822.69 712.65C4822.57 712.6 4822.33 712.491 4821.85 712.357C4821.6 712.291 4821.28 712.214 4820.82 712.157C4820.58 712.129 4820.31 712.107 4819.99 712.105C4819.38 712.106 4817.96 712.144 4816.33 713.048C4814.67 713.898 4813.13 715.99 4812.77 717.646C4812.34 719.288 4812.61 720.559 4812.63 720.686C4812.75 721.437 4812.92 721.892 4813.06 722.233C4813.65 723.532 4813.67 723.34 4813.75 723.492C4813.81 723.574 4813.82 723.567 4813.81 723.545C4813.79 723.507 4813.68 723.367 4813.59 723.245C4813.15 722.685 4812.6 722.035 4812.01 721.334C4811.93 721.244 4811.86 721.152 4811.78 721.06C4809.74 718.634 4812.77 719.792 4811.84 718.578C4807.74 713.289 4804.76 714.082 4800.67 709.186C4799.78 708.14 4801.19 707.824 4801.1 707.554C4799.82 703.347 4795.33 703.141 4794.56 702.492C4784.88 694.453 4781.02 686.722 4771.65 678.849C4770.52 677.906 4771.97 681.274 4768.84 678.54C4752.7 664.494 4735.9 649.733 4719.75 635.119C4715.31 631.093 4710.82 627.006 4706.43 622.961C4703.35 620.118 4706.38 621.162 4706.27 620.884C4704.4 616.406 4700.29 616.839 4699.19 616.065C4690.31 609.669 4684.16 601.281 4676.19 599.248C4641.62 568.805 4605.02 541.006 4572.09 509.12C4571.67 508.717 4573.41 508.266 4572.57 507.468C4562.41 497.828 4563.01 501.314 4554.14 497.468C4551.92 496.507 4548.68 489.355 4548.36 488.758C4547.21 486.589 4550.42 486.454 4549.95 485.826C4546.04 480.694 4542.15 486.858 4535.64 481.326C4535.45 481.144 4537.16 480.857 4536.7 480.294C4535.28 478.54 4533.26 477.513 4531.89 475.751C4528.78 471.705 4529.72 467.9 4522.6 464.502C4521.7 464.078 4520.15 468.136 4514.49 463.039C4512.24 461.004 4501.99 452.291 4499.31 449.622C4496.63 446.958 4499.45 447.651 4499.29 447.432C4492.76 439.489 4496.14 441.453 4493.99 436.177C4491.83 430.908 4488.88 436.466 4486.87 435.626C4484.85 434.784 4480.18 428.814 4479.14 427.239C4478.09 425.663 4480.36 426.526 4479.32 425.247C4472.43 416.778 4473.76 424.434 4470.44 422.832C4462.63 419.057 4460.73 411.335 4455.29 405.938C4453.81 404.477 4454.4 406.372 4452.95 405.224C4448.31 401.525 4445.88 398.204 4441.37 394.657C4440.31 393.829 4439.14 392.987 4437.81 392.126C4436.64 391.376 4429.82 388.953 4427.91 384.541C4427.64 383.913 4429.7 384.239 4427.55 381.969C4424.35 378.586 4418.28 372.783 4414.33 369.716C4411.41 367.451 4413.29 371.679 4410.23 368.122C4408.87 366.54 4412.44 368.305 4409.83 365.402C4407.24 362.52 4399.91 355.911 4397.11 353.407C4394.33 350.913 4394.88 353.339 4394.6 353.206C4392.88 352.382 4387.1 348.005 4386.64 347.579C4362.89 326.004 4342.94 304.056 4319.77 283.122C4317.95 281.474 4318.11 283.683 4317.82 283.443C4311.32 278.117 4318.84 279.802 4315.53 274.803C4314.05 277.587 4311.9 274.775 4307.42 270.951C4305.26 269.112 4305.57 271.026 4305.3 270.934C4301 269.285 4300.47 265.588 4300.25 264.726C4299.45 261.555 4295.83 260.91 4295.26 258.752C4294.68 256.605 4299.01 258.409 4294.92 254.5C4293.03 254.183 4294.08 259.133 4290.68 256.491C4277.77 246.494 4257.61 223.724 4248.49 214.397C4239.36 205.093 4236.24 202.276 4231.13 196.658C4221.94 186.527 4223.97 191.515 4217.28 186.2C4210.55 180.842 4217.16 180.129 4217.08 178.474C4217.04 176.858 4215.26 176.697 4214.63 175.208C4214.01 173.718 4216.83 175.469 4214.51 172.826C4212.23 170.22 4204.03 164.783 4202.31 164.704C4198.7 164.562 4199.96 169.51 4194.02 162.224C4193.68 161.807 4195.87 162.078 4194.53 160.531C4193.97 159.891 4193.42 159.257 4192.86 158.628C4182.54 146.908 4171.56 135.398 4161.76 123.426C4160.36 121.704 4162.82 122.14 4162.02 121.132C4153.67 110.479 4155.05 115.794 4147.96 112.03C4151.9 110.775 4150.91 106.295 4144.39 98.3707C4140.54 93.6098 4139.93 95.4561 4136.56 93.0294C4135.53 92.2842 4133.82 88.1019 4132.75 87.9202C4129.21 87.2469 4129.15 92.4704 4124.04 82.6644C4123.83 82.2339 4125.82 82.7818 4125 81.3271C4120.81 72.9704 4117.48 72.3698 4115.39 62.6272C4115.18 61.1062 4115.72 58.5359 4117.26 56.9116C4118.76 55.2794 4120.33 54.6774 4121.59 54.2891C4127.74 52.8549 4132.54 54.4268 4137.92 56.1224C4145.46 58.6682 4152.23 63.015 4157.37 65.9377C4155.17 69.5392 4163.9 73.3032 4168.68 72.7606C4174.26 76.1833 4180.34 79.7065 4185.48 83.3708C4187.28 84.6492 4185.4 84.9304 4185.57 85.1894C4187.99 89.1481 4191.9 88.2402 4193.17 88.9071C4194.38 89.5481 4195.58 90.2179 4196.77 90.9125C4208.36 97.6423 4217.09 105.184 4229.19 110.796C4229.65 111.008 4232 109.019 4234.04 112.936C4234.17 113.2 4229.44 111.694 4235.08 115.524C4240.74 119.362 4250.6 127.799 4259.22 131.956C4261.31 132.963 4267.47 134.229 4270.27 138.395C4270.64 138.953 4269.6 139.272 4270.08 140.164C4271.63 143.034 4274.62 141.46 4276 145.47C4277.39 149.49 4282.13 155.029 4290.97 159.044C4291.25 159.174 4294.46 158.532 4296.9 160.279C4300.8 163.079 4306.09 167.396 4310.18 170.281C4312.15 171.663 4311.74 169.578 4312.1 169.797C4325.72 178.477 4334.28 186.271 4347.81 197.029C4350.29 198.999 4358.78 202.871 4362.7 207.854C4362.79 207.974 4362.88 208.093 4362.96 208.21C4366.58 213.411 4357.43 214.973 4370.37 222.889C4375.66 226.151 4387.58 223.897 4393.33 234.631C4410.99 247.417 4424.76 262.215 4442.24 275.341C4443 275.914 4447.05 276.086 4448.74 277.624C4451.29 279.961 4451.86 282.072 4453.65 283.778C4461.02 290.862 4468.64 296.429 4475.79 303.279C4478.49 305.869 4476.7 305.879 4479.92 308.985C4483.12 312.073 4486.43 312.952 4490.27 317.682C4491.1 318.708 4491.81 319.926 4492.42 321.187L4492.41 321.173C4493.96 324.432 4495.21 328.181 4498.04 331.421C4500.54 329.297 4503.43 332.289 4509.23 336.972C4510.34 337.866 4510.09 335.985 4510.66 336.367C4513 337.913 4514.07 340.369 4516.37 341.823C4516.92 342.17 4517.75 341.414 4518.24 341.652C4522.5 343.681 4525.72 350.704 4526.23 351.896C4528.29 356.499 4530.9 357.177 4532.89 360.308C4534.88 363.452 4530.59 359.977 4533.16 363.381C4538.53 370.463 4546.07 378.906 4551.68 385.906C4553.93 388.689 4553.55 385.857 4553.9 386.233C4558.86 391.754 4562.24 398.661 4567.1 400.072C4566.54 401.728 4566.32 402.874 4566.37 403.705C4566.37 403.716 4566.4 403.748 4566.41 403.758C4566.8 407.265 4571.51 404.67 4576.39 411.817C4576.86 412.505 4574.93 415.774 4572.34 413.76C4569.98 411.915 4567.74 408.082 4564.66 405.299C4564.63 405.266 4564.55 405.168 4564.53 405.133C4564.25 404.849 4563.96 404.576 4563.67 404.316C4562.88 403.612 4556.48 400.945 4555.83 400.451C4550.6 396.413 4554.27 392.346 4554.29 391.888C4554.4 386.854 4546.88 383.478 4545.46 382.185C4538.92 376.18 4534.53 370.089 4528.94 365.207C4525.28 362.012 4522.36 364.102 4519.86 361.266C4511.53 351.911 4511.97 345.281 4500.56 339.794C4498.12 338.63 4497.13 343.144 4492.86 334.504C4492.64 334.037 4490.47 328.778 4487.17 326.414L4487.31 326.549C4486.85 326.242 4486.37 325.989 4485.87 325.814C4485.36 325.636 4484.59 326.468 4484.05 326.085C4480.48 323.541 4478.98 320.883 4475.23 317.948C4471.48 315.027 4466.88 311.62 4463.17 307.68C4460.93 305.305 4459.27 300.928 4458.46 299.493C4456.2 295.42 4451.06 294.069 4450.21 290.894C4449.37 287.709 4455.25 289.273 4450.6 283.55C4448.45 285.568 4445.98 287.416 4443.69 289.341C4431.97 278.755 4420.81 267.849 4408.57 257.755C4407.04 256.502 4407.57 259.008 4405.91 257.701C4398.94 252.202 4393.65 246.398 4386.2 240.958C4380.41 236.745 4373.26 233.2 4367.14 228.951C4366.07 225.109 4361.11 221.078 4356.06 217.25C4353.93 215.639 4351.78 214.053 4349.93 212.538C4347.75 210.759 4348.44 210.153 4347.01 208.713C4341.6 203.307 4342.66 207.819 4340.72 206.953C4332.39 203.26 4335.78 197.385 4327.18 191.317C4326.72 190.99 4319.1 189.904 4318.21 189.541C4312.53 187.247 4318.14 187.951 4315.27 185.56C4310.03 181.202 4306.66 177.752 4299.53 174.009C4297.44 172.919 4291.58 171.539 4288.87 167.541C4288.51 167.015 4289.46 166.229 4289.1 165.898C4282.64 159.993 4280.32 162.929 4275.53 161.164C4270.73 159.389 4265.88 152.963 4265 151.468C4262.7 147.582 4268.05 152.554 4268.33 152.518C4271.74 152.129 4266.9 149.294 4263.48 146.743C4265.03 143.381 4259.93 140.193 4259.91 144.107C4259.91 144.536 4262.87 146.131 4263.48 146.743C4258.35 147.601 4252.68 144.32 4248.52 137.5C4246.58 134.316 4250.26 134.558 4241.3 129.406C4237.22 127.056 4237.38 130.183 4233.53 128.459C4224.8 124.569 4215.81 115.896 4207.46 110.961C4204.41 109.157 4206.57 112.184 4204.45 110.989C4199.22 108.047 4195.23 104.448 4190.05 101.557C4189.69 101.357 4189.33 101.163 4188.97 100.973C4188.45 100.704 4188.88 102.682 4187.18 101.632C4174.33 93.7791 4163.61 85.9412 4150.23 78.5668C4145.77 76.1533 4138.93 73.0162 4133.5 71.7651C4130.9 71.111 4128.48 70.716 4127 70.5542C4126.2 70.4434 4125.38 70.4842 4125.76 70.3738C4125.98 70.2539 4126.64 70.278 4128.37 68.9514C4130.24 67.7805 4131.95 63.4799 4131.53 61.6857C4130.97 66.9541 4138.03 79.6495 4143.55 86.0836C4148.35 91.7543 4148.49 89.5201 4151.24 91.3804C4156.51 94.8835 4161.15 105.384 4161.77 106.853C4161.82 106.944 4157.23 102.225 4158.97 105.338C4159.18 107.915 4161.71 106.797 4161.77 106.853C4162.14 107.83 4170.61 117.664 4172.62 119.391C4173.68 120.305 4174.15 118.807 4174.68 119.303C4184.62 128.591 4194.23 137.905 4203.8 147.808C4206.53 150.631 4209.36 153.614 4212.08 156.56C4212.28 156.804 4210.86 157.543 4211.36 158.104C4218.15 165.905 4224.16 169.268 4230.99 174.513C4237.76 179.702 4242.33 184.76 4244.06 190.161C4248.85 194.444 4254.65 201.797 4257.89 205.972C4261.2 210.21 4263.81 208.606 4264.18 208.885C4275.89 217.733 4280.74 224.836 4291.4 235.539C4296.43 240.602 4307.05 250.242 4312.85 255.349C4317.5 259.448 4319.63 262.454 4324.07 266.074C4324.67 266.563 4325.02 265.067 4325.23 265.192C4330.88 268.388 4326.46 268.646 4327 269.962C4328.97 274.746 4330.33 277.582 4336.88 282.43C4338.41 283.566 4345.54 283.891 4348.21 286.03C4351.67 288.816 4349.32 288.903 4352.95 291.766C4353.26 292.013 4353.91 291.203 4355.96 293.192C4365.49 302.418 4375.67 312.733 4385.85 322.011C4387.25 323.285 4386.59 320.448 4388.61 322.256C4398.11 330.776 4408.36 340.255 4417.05 349.189C4419.19 351.387 4417 350.947 4417.26 351.644C4418.89 355.909 4425.2 357.587 4425.94 358.176C4436.12 366.277 4444.12 374.148 4452.52 382.116C4458.85 388.114 4465.4 394.158 4473.26 400.329C4474.26 401.109 4483.68 405.105 4485.14 410.027C4485.24 410.36 4486.63 415.304 4490.75 416.346C4491.01 416.41 4489.94 413.562 4493.37 416.739C4496.79 419.917 4503.09 424.105 4506.91 429.508C4508.12 431.214 4509.92 436.48 4515.98 438.743C4516.38 438.884 4526.77 441.149 4527.03 445.97C4527.07 446.758 4524.23 449.191 4530.96 452.461C4532.25 453.083 4530.88 450.824 4533.98 452.803C4538.74 455.825 4543.73 461.387 4550.01 464.57C4551.1 465.116 4556.62 466.523 4558.5 470.608C4558.79 471.248 4557.07 471.403 4558.63 472.901C4566.04 480.054 4574.76 486.349 4582.19 493.723C4584.82 496.331 4582.1 496.641 4584.69 499.522C4587.29 502.406 4592.91 507.799 4596.57 509.685C4600.25 511.586 4598.92 506.321 4603.71 510.007C4624.51 526.013 4643.31 544.096 4663.29 561.097C4666.25 563.616 4664.51 560.683 4668.9 564.319C4685.23 577.799 4713.94 600.368 4726.43 614.115C4736.48 625.158 4721.37 614.283 4729.42 622.142C4729.67 622.382 4729.93 622.609 4730.19 622.824C4734.24 626.121 4740.25 626.995 4741.29 627.738C4751.82 635.199 4757.42 642.211 4766.52 649.515C4768.39 651.02 4767.61 648.347 4769.19 649.633C4774.59 654.036 4779.61 659.394 4784.64 663.763C4786.89 665.712 4787.24 664.487 4789.24 666.42C4793.99 670.996 4797.98 675.316 4801.93 680.49C4802.3 680.968 4798.44 679.297 4801.98 682.691C4807.69 688.176 4814.03 695.749 4821.27 701.67C4823.32 703.343 4825.28 701.864 4827.79 706.611C4827.9 706.813 4828.01 707.024 4828.12 707.245C4828.4 707.821 4827.72 708.383 4827.81 709.209C4827.83 709.411 4827.92 709.654 4828.1 709.949C4828.19 710.095 4828.3 710.25 4828.44 710.421C4828.62 710.636 4828.83 710.87 4829.1 711.173C4829.21 711.289 4829.46 711.584 4829.72 711.912C4830.05 712.408 4830.12 712.128 4831.31 714.542C4831.58 715.164 4831.92 715.968 4832.18 717.364C4832.21 717.538 4832.24 717.724 4832.27 717.92C4832.28 718.018 4832.29 718.12 4832.3 718.224C4832.32 718.417 4832.35 718.697 4832.36 718.955C4832.41 720.014 4832.35 721.376 4831.89 722.985C4831.15 726.268 4827.58 730.08 4824.57 731.076C4821.59 732.241 4819.43 731.928 4819.3 731.96C4818.71 731.934 4818.22 731.874 4817.8 731.807C4816.97 731.67 4816.4 731.508 4815.92 731.365C4815.46 731.22 4815.1 731.087 4814.79 730.966C4814.61 730.892 4814.58 730.883 4814.5 730.852C4814.43 730.824 4814.36 730.797 4814.29 730.771C4814.02 730.666 4813.79 730.57 4813.57 730.479C4811.99 729.815 4811.34 729.648 4810.21 729.319C4808.67 728.907 4797.29 725.208 4794.24 720.05C4793.35 718.63 4791.88 714.375 4789.13 712.855C4788.74 712.647 4789.33 714.818 4787.09 713.344C4779.16 708.091 4771.47 702.25 4763.43 696.876C4761.34 695.487 4763.5 698.881 4760.39 696.754C4751.69 690.811 4741.37 682.76 4733.28 676.252C4730.4 673.92 4733.18 674.468 4733.04 674.203C4730.79 669.908 4726.89 670.612 4725.57 669.85C4717.73 665.338 4712.91 660.119 4705.77 655.326C4703.88 654.061 4704.37 656.117 4703.93 655.948C4699.42 654.116 4703.72 654.219 4701.45 652.216C4699.66 650.636 4697.73 649.043 4695.71 647.443C4690.87 643.587 4685.13 639.498 4680.22 636.055C4677.63 634.244 4679.56 637.624 4677.24 635.979C4663.53 626.275 4649.34 615.696 4636.72 605.37C4634.3 603.391 4636.61 603.564 4636.25 602.954C4633.75 598.705 4627.04 597.096 4625.65 596.394C4619.43 593.274 4617.95 590.853 4612.99 587.476C4588.66 570.91 4559.81 548.897 4537.69 532.138C4508.85 510.294 4486.91 492.761 4458.95 472.587C4457.17 471.303 4457.99 473.923 4456.44 472.834C4436.55 458.703 4417.58 443.955 4397.63 429.833C4395.99 428.668 4397.41 431.63 4394.74 429.803C4389.27 426.059 4382.64 421.06 4377.52 416.673C4375.04 414.545 4379.34 416.077 4376.83 413.958C4371 409.04 4364.46 404.066 4358.02 399.613C4355.28 397.723 4358.37 401.974 4354.89 399.42C4331.1 382.02 4307.52 364.871 4284.82 345.396C4283.25 344.053 4283.81 340.47 4279.9 338.321C4279.1 338.835 4278.49 339.685 4277.81 340.361C4261.32 328.351 4245.11 316.051 4229.01 303.616C4211.09 289.781 4193.46 275.915 4175.51 261.917C4174.06 260.786 4175.53 264.071 4172.72 261.895C4156.68 249.434 4140.64 237.449 4125.42 222.941C4123.88 221.478 4126.59 219.841 4121.58 216.33C4120.65 215.687 4113.26 210.116 4111.04 209.102C4110.73 208.965 4111.15 211.139 4108.79 209.22C4095.33 198.229 4081.62 185.938 4069.63 172.655C4067.73 170.539 4070.9 171.634 4069.57 170.128C4067.96 168.313 4066.34 166.523 4064.7 164.76C4056.52 155.984 4047.49 147.263 4040.74 138.229C4035.33 130.964 4039.49 131.696 4038.16 126.469C4037.97 125.731 4034.29 121.574 4035.2 120.377C4037.45 117.355 4042.26 116.636 4044.45 113.18C4044.93 112.441 4039.29 107.544 4043.75 109.433C4044.06 109.571 4048.15 113.102 4049.55 113.611C4050.53 113.969 4050.53 111.741 4052.24 112.714C4053.95 113.688 4054.39 116.05 4057.01 117.849C4059.64 119.633 4059.97 117.491 4064.28 121.876ZM4272.78 224.963C4275.3 229.416 4279.46 226.164 4274.8 223.364C4274.57 223.231 4272.65 224.734 4272.78 224.963ZM4423.39 264.963C4420.02 259.044 4414.47 258.809 4416.75 263.08C4419.06 267.37 4424.41 266.764 4423.39 264.963ZM4474.15 308.028C4469.88 301.586 4463.98 306.236 4470.88 310.586C4471.28 310.846 4474.4 308.407 4474.15 308.028ZM4053.64 142.271C4053.65 142.182 4050.96 139.199 4050.86 139.182C4048.19 138.754 4053.53 144.699 4053.64 142.271ZM4522.28 353.277C4521.37 350.852 4515.89 346.817 4516.99 349.767C4517.92 352.173 4523.36 356.236 4522.28 353.277ZM4456.82 403.885C4456.83 403.995 4458.92 405.936 4459.17 405.567C4459.96 404.374 4456.72 402.048 4456.82 403.885ZM4597.64 436.887C4585.48 425.289 4583.01 413.782 4595.26 426.856C4597.52 429.202 4588.86 423.393 4591.45 426.668C4596.25 432.704 4602.55 433.262 4607.02 439.869C4607.84 441.101 4598.32 437.595 4597.61 436.874C4597.62 436.878 4597.63 436.883 4597.64 436.887ZM4270.42 231.439C4270.44 231.554 4273.21 234.351 4273.33 234.37C4276.02 234.668 4270.43 229.034 4270.42 231.439ZM4581.11 514.833C4581.19 515.093 4588.09 521.073 4588.43 521.175C4593.83 522.167 4579.83 510.034 4581.11 514.833ZM4157.46 66.1155C4162.09 66.7201 4166.76 69.1883 4168.66 72.7487C4165.01 70.4726 4161.23 68.2782 4157.46 66.1155Z" fill="black"/>
<path d="M262.933 2945.51C267.445 2956.54 273.325 2971.59 277.784 2983.09C279.173 2986.67 277.53 2985.29 278.468 2987.8C279.93 2991.7 281.78 2995.15 283.407 2998.87C283.774 2999.71 284.123 3000.55 284.454 3001.39C284.991 3002.76 282.846 3001.81 283.454 3003.24C286.744 3010.92 292.367 3017.3 298.572 3024.63C327.675 3057.58 361.602 3088.04 394.831 3119.46C397.874 3122.31 401.05 3125.27 404.239 3128.25C416.382 3139.58 430.454 3154.09 443.619 3165.17C445.135 3166.44 445.122 3164.69 445.473 3164.86C450.965 3167.62 447.759 3168.24 450.43 3171.11C461.013 3182.47 473.844 3194.15 485.225 3203.68C490.113 3207.77 487.082 3201.61 490.877 3206.94C491.14 3207.31 489.035 3207.26 490.225 3208.52C492.921 3211.38 498.686 3216.21 500.901 3218.34C505.127 3222.41 505.864 3223.05 510.021 3226.79C515.682 3231.89 522.002 3238.45 528.293 3243.65C529.641 3244.76 528.853 3242.18 531.087 3243.85C533.318 3245.52 538.764 3250.54 540.384 3252.43C542.016 3254.33 540.493 3254.45 540.652 3254.93C541.925 3258.93 550.275 3262.41 551.136 3263.08C566.896 3275.46 578.588 3288.12 592.628 3300.59C603.265 3310.04 615.075 3319.78 625.135 3328.81C637.195 3339.64 646.883 3349.25 658.751 3359.58C659.992 3360.67 659.642 3358.15 661.159 3359.47C677.382 3373.58 693.225 3387.83 708.563 3402.86C710.114 3404.38 707.061 3403.62 708.551 3405.2C717.53 3414.72 731.319 3430.69 741.336 3431.1C745.876 3435.33 751.296 3440.34 755.687 3444.91C757.648 3446.94 759.424 3448.88 760.922 3450.7C764.202 3454.67 759.34 3452.5 764.623 3456.24C765.802 3457.08 765.314 3454.81 767.006 3456.13C773.967 3461.57 781.203 3468.51 788.291 3473.76C789.764 3474.85 790.2 3473.58 790.734 3473.75C795.064 3475.14 798.609 3482.19 799.573 3483.32C807.484 3492.35 814.509 3497.6 822.791 3504.74C824.753 3506.44 823.495 3503.17 825.442 3504.77C830.36 3508.81 835.37 3513.03 840.189 3517.12C842.643 3519.2 845.076 3521.28 847.408 3523.21C848.615 3524.2 849.714 3525.1 850.8 3525.93C851.334 3526.34 851.839 3526.71 852.158 3526.93C852.317 3527.04 852.424 3527.11 852.323 3527.09C852.187 3527.08 851.87 3526.87 850.546 3526.9C849.798 3526.93 849.106 3527.16 848.849 3527.29C847.995 3527.71 847.778 3528.13 847.767 3528.33C847.76 3528.54 847.946 3528.63 848.136 3528.71C848.549 3528.87 848.858 3529.02 848.375 3529.52C847.981 3530 848.002 3530.19 848.005 3530.17C848.019 3530.16 848.05 3529.99 848.047 3529.79C848.046 3529.38 847.931 3528.84 847.756 3528.33C847.403 3527.29 846.854 3526.3 846.495 3524.95C846.299 3524.23 846.192 3523.68 846.111 3522.9C846.007 3522.09 847.29 3522.17 847.376 3521.99C848.535 3518.68 844.461 3517.07 844.099 3516.41C841.235 3511.43 839.625 3506.84 838.017 3502.24C836.658 3498.37 835.248 3494.49 832.734 3490.34C832.082 3489.27 832.108 3492.49 830.34 3489.43C818.546 3469.1 804.667 3448.33 791.514 3428.73C789.482 3425.71 791.962 3427.09 791.937 3426.82C791.471 3422.5 787.587 3422.32 786.792 3421.47C780.437 3414.48 776.929 3406.03 770.139 3403.23C767.533 3399.76 764.898 3396.36 762.16 3392.91C740.068 3365.11 715.664 3339.23 694.186 3310.95C693.877 3310.55 695.573 3310.25 694.951 3309.45C687.456 3299.86 687.313 3303.12 679.87 3299.03C677.999 3298 676.363 3291.18 676.18 3290.61C675.521 3288.53 678.519 3288.59 678.203 3287.98C675.53 3282.97 670.793 3288.48 665.801 3283C665.654 3282.82 667.291 3282.65 666.97 3282.1C665.975 3280.39 664.294 3279.33 663.354 3277.63C661.212 3273.71 662.762 3270.21 656.779 3266.71C656.016 3266.27 653.873 3269.98 649.533 3264.97C647.806 3262.97 639.833 3254.44 637.804 3251.86C635.77 3249.28 638.268 3250.03 638.151 3249.82C633.437 3242.17 636.247 3244.14 635.12 3239.13C633.992 3234.15 630.339 3239.23 628.615 3238.38C626.885 3237.52 623.52 3231.81 622.812 3230.32C622.085 3228.81 624.059 3229.7 623.295 3228.46C618.235 3220.35 618.262 3227.54 615.45 3225.97C608.773 3222.22 608.224 3215 603.97 3209.85C602.815 3208.46 603.075 3210.24 601.901 3209.14C597.294 3204.81 595.69 3201.06 589.739 3196.7C588.798 3196.02 582.739 3193.63 581.606 3189.55C581.441 3188.96 583.321 3189.29 581.613 3187.14C580.75 3186.05 579.625 3184.72 578.404 3183.33C575.923 3180.53 573.121 3177.6 570.911 3175.68C568.489 3173.58 569.692 3177.51 567.319 3174.23C566.236 3172.74 569.368 3174.4 567.274 3171.67C565.246 3169.01 559.189 3162.89 556.88 3160.6C554.59 3158.33 554.81 3160.57 554.564 3160.46C553.026 3159.67 548.177 3155.74 547.778 3155.34C528.076 3135.7 511.262 3116.32 490.55 3098.65C488.937 3097.24 488.97 3099.3 488.713 3099.1C488.603 3099.01 488.498 3098.93 488.397 3098.85C483.121 3094.5 489.782 3095.51 487.072 3091.1C485.49 3093.78 483.687 3091.32 479.813 3087.82C477.967 3086.14 478.063 3087.93 477.818 3087.85C473.92 3086.36 473.88 3082.88 473.77 3082.06C473.4 3079.08 470.109 3078.43 469.892 3076.4C469.69 3074.39 473.447 3076.18 470.248 3072.45C468.518 3072.07 468.732 3076.75 465.937 3074.12C455.081 3064.36 442.236 3040.38 437.94 3029.64C434.562 3021.66 432.964 3018.45 432.236 3012.66C432.308 3012.13 432.061 3011.73 432.988 3010.31C433.406 3009.62 434.829 3008.99 435.475 3009.07C436.127 3009.05 436.693 3009.26 436.901 3009.35C437.163 3009.46 437.377 3009.58 437.573 3009.7C437.746 3009.81 437.859 3009.9 437.993 3010C438.266 3010.2 438.454 3010.37 438.645 3010.55C439.393 3011.24 439.978 3011.93 440.569 3012.64C448.011 3022.38 446.59 3017.63 452.071 3022.84C457.452 3028.03 451.17 3028.46 450.958 3029.98C450.724 3031.47 452.365 3031.69 452.681 3033.07C453.018 3034.47 450.655 3032.72 452.406 3035.28C454.139 3037.82 460.9 3043.06 462.513 3043.2C465.857 3043.4 465.494 3038.87 469.89 3045.7C470.144 3046.09 468.132 3045.78 469.153 3047.25C472.036 3051.36 475.082 3055.43 478.201 3059.48C483.83 3066.78 489.924 3073.88 495.71 3080.9C496.956 3082.41 494.654 3082.17 495.372 3083.07C502.804 3092.26 501.743 3087.43 508.28 3090.07C504.578 3091.67 505.405 3095.87 511.753 3102.19C515.59 3105.99 516.066 3104.14 519.375 3105.74C520.395 3106.25 522.292 3109.66 523.348 3109.59C526.767 3109.35 526.098 3104.81 531.985 3111.97C532.238 3112.28 530.361 3112.42 531.305 3113.43C537.49 3120.01 540.074 3118.8 547.446 3125.14C553.215 3130.11 562.247 3140.39 568.605 3146.32C565.643 3149.38 572.509 3154.11 576.911 3154.05C581.125 3157.88 585.822 3161.7 589.708 3165.55C591.056 3166.88 589.314 3167.01 589.409 3167.27C590.836 3171.22 594.525 3170.62 595.539 3171.33C601.125 3175.32 605.631 3179.51 610.295 3183.56C614.561 3187.28 618.945 3190.87 624.318 3193.95C624.719 3194.18 627.126 3192.35 628.371 3196.14C628.448 3196.39 624.37 3194.8 628.904 3198.63C633.438 3202.46 641.15 3210.73 648.442 3214.8C650.202 3215.79 655.644 3217.07 657.642 3221.04C657.907 3221.58 656.918 3221.87 657.236 3222.72C658.281 3225.47 661.213 3223.99 661.955 3227.8C662.706 3231.62 666.367 3236.93 674.005 3240.69C674.244 3240.82 677.246 3240.17 679.284 3241.81C682.546 3244.43 686.905 3248.45 690.367 3251.12C692.02 3252.39 691.864 3250.41 692.167 3250.61C703.759 3258.55 710.872 3265.67 722.478 3275.25C724.61 3277.01 732.115 3280.21 735.413 3284.69C739.026 3289.6 729.895 3291.72 741.671 3298.47C746.444 3301.21 757.415 3298.04 762.389 3307.67C778.246 3318.07 790.873 3330.45 807.177 3340.34C807.914 3340.78 811.6 3340.33 813.179 3341.52C815.56 3343.34 816.19 3345.27 817.85 3346.58C824.856 3352.14 832.029 3356.09 838.898 3361.24C841.528 3363.21 839.898 3363.55 842.999 3365.87C843.492 3366.24 843.981 3366.55 844.471 3366.83C844.473 3366.83 844.479 3366.83 844.48 3366.83C847.198 3368.31 849.867 3368.87 853.12 3371.89C856.153 3374.68 857.459 3379.58 861.666 3382.92C863.661 3380.32 866.648 3382.44 872.428 3385.34C873.527 3385.89 873.092 3384.21 873.645 3384.42C875.945 3385.28 877.29 3387.34 879.483 3388.07C880.017 3388.25 880.668 3387.34 881.139 3387.43C885.298 3388.28 889.025 3393.87 889.703 3394.87C892.121 3398.53 894.664 3398.52 896.853 3400.81C899.117 3403.16 894.675 3401.1 897.575 3403.57C903.455 3408.6 911.745 3414.09 918.093 3418.57C920.661 3420.37 919.757 3417.93 920.143 3418.16C925.669 3421.54 930.079 3426.61 934.71 3426.28C933.807 3435.11 938.347 3427.9 944.822 3434.72C945.315 3435.26 943.801 3438.67 941.325 3437.45C938.822 3436.21 936.114 3432.8 932.495 3431.22C931.64 3430.84 925.368 3430.55 924.712 3430.35C919.203 3428.43 921.699 3423.56 921.605 3423.13C920.756 3418.6 913.285 3417.88 911.817 3417.17C904.815 3413.74 899.833 3409.39 894.005 3406.4C890.292 3404.5 887.849 3407.14 885.207 3405.2C876.31 3398.67 875.918 3392.4 864.917 3390.1C862.569 3389.61 862.115 3394 857.319 3387.03C856.995 3386.58 853.69 3380.94 849.85 3380.46C849.366 3380.4 848.739 3381.34 848.21 3381.1C844.666 3379.43 843.196 3377.33 839.442 3375.3C839.266 3375.2 839.087 3375.1 838.907 3375.01C838.865 3374.98 838.739 3374.89 838.699 3374.86C835.232 3372.9 831 3370.55 827.553 3367.6C825.325 3365.71 823.666 3361.9 822.834 3360.65C820.557 3357.16 815.819 3356.73 814.911 3353.84C814.047 3350.96 819.454 3351.51 815.063 3346.85C813.138 3349.09 810.921 3351.21 808.869 3353.37C797.71 3345.09 787.294 3336.23 776.048 3328.04C774.655 3327.03 775.126 3329.35 773.606 3328.3C767.165 3323.83 762.404 3318.87 755.644 3314.37C750.425 3310.9 743.923 3308.11 738.429 3304.5C737.262 3299.4 728.823 3294.46 723.378 3289.93C721.474 3288.35 722.151 3287.73 720.929 3286.44C716.307 3281.55 716.977 3285.8 715.245 3285.07C707.826 3281.92 711.379 3276.16 703.983 3270.7C703.594 3270.41 696.68 3269.62 695.892 3269.29C690.869 3267.26 695.97 3267.77 693.548 3265.57C689.121 3261.54 686.382 3258.33 680.207 3254.86C678.408 3253.86 673.168 3252.61 671.112 3248.81C670.841 3248.31 671.798 3247.55 671.511 3247.24C666.256 3241.65 663.784 3244.45 659.601 3242.76C655.39 3241.06 651.75 3234.9 651.127 3233.46C649.511 3229.73 653.794 3234.52 654.051 3234.48C657.22 3234.13 653.148 3231.41 650.336 3228.93C652.183 3225.73 647.982 3222.67 647.427 3226.38C647.372 3226.8 649.852 3228.33 650.336 3228.93C645.553 3229.71 640.739 3226.47 637.902 3219.89C636.566 3216.8 639.886 3217.13 632.466 3212.01C629.081 3209.67 628.73 3212.62 625.496 3210.88C618.07 3206.88 611.298 3198.29 604.489 3193.11C602.32 3191.46 603.192 3193.61 602.225 3193.25C602.101 3193.21 601.947 3193.12 601.753 3192.98C597.177 3189.65 594.049 3185.68 589.436 3182.47C589.015 3182.18 589.045 3184.1 587.681 3182.97C577.408 3174.49 569.235 3166.24 558.84 3157.06C553.805 3152.62 544.327 3145.21 539.28 3140.38C530.518 3132.06 521.106 3120.34 513.382 3113.54C508.302 3109.05 508.377 3111.13 505.611 3109.79C500.276 3107.23 495.714 3097.73 495.207 3096.43C495.172 3096.38 499.501 3100.31 497.847 3097.57C497.687 3095.2 495.259 3096.48 495.207 3096.43C494.799 3095.56 487.015 3086.94 485.252 3085.41C484.283 3084.59 483.761 3086.03 483.277 3085.59C477.612 3080.36 472.116 3074.78 466.963 3068.89C461.753 3062.93 456.797 3056.79 452.053 3050.41C451.9 3050.18 453.351 3049.54 452.977 3049.01C447.81 3041.53 442.756 3038.16 437.267 3033.08C434.535 3030.56 432.341 3028.13 430.812 3025.88C430.046 3024.75 429.453 3023.67 429.126 3022.76C429.036 3022.52 428.976 3022.31 428.956 3022.13C428.92 3021.93 428.93 3021.78 429.006 3021.67C429.099 3021.58 429.201 3021.5 429.675 3021.67C429.791 3021.7 429.929 3021.75 430.094 3021.81C430.291 3021.89 430.569 3022.01 430.914 3022.14C431.287 3022.27 431.609 3022.39 432.327 3022.58C433.136 3022.8 434.245 3023.03 435.753 3022.96C437.118 3023.03 440.367 3022.27 442.318 3020.55C444.357 3018.81 445.002 3017.38 445.519 3016.13C446.008 3014.78 446.021 3014.36 446.112 3013.81C446.179 3013.3 446.193 3012.92 446.195 3012.62C446.178 3011.53 446.125 3011.59 446.142 3011.6C446.155 3011.65 446.182 3011.8 446.234 3012.02C446.277 3012.22 446.33 3012.46 446.399 3012.74C446.459 3013 446.524 3013.27 446.602 3013.59C446.885 3014.75 447.256 3016.17 447.593 3017.48C448.305 3020.19 449.038 3022.87 449.62 3024.87C450.871 3029.1 453.857 3028.28 454.066 3028.57C461.28 3038.11 463.52 3044.77 470.722 3055.05C474.13 3059.96 482.027 3068.78 486.685 3073.23C490.356 3076.8 491.997 3079.46 495.683 3082.44C496.185 3082.84 496.642 3081.44 496.818 3081.54C501.659 3083.99 497.635 3084.61 498.022 3085.77C498.254 3086.46 498.481 3087.1 498.722 3087.71C499.99 3090.89 501.574 3093.22 506.51 3096.61C507.852 3097.52 514.537 3097.32 516.925 3099.16C520.019 3101.55 517.8 3101.77 521.078 3104.27C521.357 3104.49 521.982 3103.66 523.822 3105.45C532.215 3113.6 540.962 3122.91 549.637 3131.37C550.82 3132.52 550.458 3129.86 552.198 3131.53C560.299 3139.3 568.881 3148.07 575.98 3156.45C577.714 3158.5 575.718 3158.1 575.88 3158.75C576.879 3162.72 582.567 3164.29 583.186 3164.85C585.82 3167.22 588.106 3169.41 590.431 3171.76C601.214 3182.67 609.237 3193.53 621.53 3205.02C622.366 3205.79 630.517 3209.78 631.101 3214.43C631.14 3214.73 631.666 3219.41 635.335 3220.52C635.564 3220.59 635.029 3217.89 637.699 3220.97C640.384 3224.06 645.565 3228.2 648.226 3233.41C649.056 3235.04 649.88 3240.05 655.101 3242.4C655.448 3242.55 664.723 3245.14 664.132 3249.65C664.028 3250.39 660.986 3252.53 666.653 3255.9C667.74 3256.54 666.863 3254.37 669.395 3256.37C673.285 3259.43 676.914 3264.87 682.17 3268.19C683.089 3268.77 687.946 3270.38 688.94 3274.31C689.095 3274.92 687.468 3274.96 688.634 3276.45C694.173 3283.55 701.08 3289.97 706.529 3297.33C708.46 3299.94 705.876 3300.04 707.716 3302.9C709.569 3305.77 713.674 3311.15 716.704 3313.19C719.721 3315.22 719.55 3310.24 723.232 3314.02C739.281 3330.49 752.828 3348.91 767.396 3366.71C769.534 3369.33 768.617 3366.46 771.864 3370.32C774.012 3372.88 776.563 3375.89 779.166 3378.98C791.06 3393.05 806.091 3411.86 812.312 3423.77C818.415 3435.43 807.587 3423.04 812.782 3431.54C815.279 3435.64 821.281 3437.77 822.022 3438.64C829.507 3447.34 832.499 3454.83 838.372 3463.32C839.595 3465.1 839.761 3462.52 840.779 3464.04C844.239 3469.18 846.991 3475.22 849.982 3480.4C851.33 3482.73 852.076 3481.71 853.186 3483.96C854.64 3486.9 855.877 3489.71 856.937 3492.52C857.786 3494.76 858.557 3497.06 859.267 3499.53C859.412 3500.04 856.568 3497.54 858.46 3501.43C860.698 3506.73 863.838 3511.7 865.857 3522.58C866.177 3524.68 866.492 3526.84 866.594 3529.56C866.636 3531.35 867.106 3532.61 867.077 3534.72C867.028 3535.8 866.913 3537.11 865.934 3539.28C864.966 3541.22 862.745 3545.41 856.407 3547.69C855.047 3548.19 852.246 3548.7 850.265 3548.52C849.748 3548.48 849.211 3548.42 848.744 3548.34C848.332 3548.27 847.931 3548.19 847.545 3548.09C847.16 3547.99 846.782 3547.88 846.435 3547.76C846.149 3547.66 845.872 3547.55 845.605 3547.44C844.564 3547 844.4 3546.62 844.216 3546.21C844.053 3545.81 843.85 3545.35 843.444 3544.87C842.63 3543.92 840.915 3542.83 837.448 3541.99C836.066 3541.66 825.685 3538.1 823.472 3533.15C822.852 3531.83 821.982 3527.76 819.606 3526.28C819.264 3526.08 819.565 3528.17 817.639 3526.72C811.099 3521.79 804.691 3516.08 798.057 3510.93C796.26 3509.53 797.883 3512.86 795.212 3510.72C788.013 3504.97 779.612 3497.16 773.208 3490.96C770.777 3488.61 773.327 3489.24 773.229 3488.98C771.715 3484.83 768.16 3485.54 767.057 3484.79C760.377 3480.28 756.73 3475.28 750.941 3470.68C749.32 3469.38 749.521 3471.38 749.13 3471.2C745.18 3469.32 749.159 3469.54 747.371 3467.61C745.492 3465.57 743.394 3463.51 741.161 3461.43C737.717 3458.22 733.753 3454.84 730.246 3451.9C728.155 3450.15 729.41 3453.37 727.539 3451.78C716.353 3442.29 704.965 3432.05 694.882 3421.98C692.959 3420.05 695.048 3420.27 694.809 3419.68C693.129 3415.59 687.231 3413.94 686.057 3413.24C680.815 3410.16 679.815 3407.83 675.774 3404.53C655.911 3388.31 632.763 3366.85 614.982 3350.49C591.788 3329.15 574.341 3312.09 551.715 3292.35C550.279 3291.09 550.633 3293.58 549.382 3292.52C533.266 3278.69 518.087 3264.3 501.907 3250.48C500.583 3249.34 501.428 3252.17 499.27 3250.38C494.868 3246.76 489.426 3241.79 485.46 3237.58C483.517 3235.52 487.217 3237.05 485.245 3235.01C480.572 3230.16 475.424 3225.4 470.128 3220.99C467.886 3219.12 470.105 3223.23 467.275 3220.72C448.013 3203.66 429.083 3187.02 411.121 3168.04C409.889 3166.73 410.916 3163.34 407.693 3161.25C406.881 3161.72 406.191 3162.51 405.459 3163.13C396.092 3154.89 386.842 3146.48 377.816 3138.13C359.447 3121.13 341.538 3104.05 323.22 3086.79C322.078 3085.71 322.892 3088.8 320.687 3086.73C307.663 3074.46 294.724 3062.96 282.936 3048.16C281.732 3046.63 284.63 3045.4 280.521 3041.59C279.801 3040.97 273.918 3034.86 272.032 3033.48C271.761 3033.29 271.693 3035.44 269.861 3033.22C264.777 3027.06 259.782 3019.31 256.395 3011.56C253.142 3004.27 250.111 2996.93 247.366 2989.62C246.516 2987.35 248.924 2989.13 248.321 2987.48C244.083 2975.86 237.871 2963.88 235.082 2951.99C233.285 2943.99 236.698 2946 237.833 2941.15C237.973 2940.5 236.715 2935.53 238.142 2934.9C241.634 2933.57 246.063 2934.82 249.708 2933.06C250.099 2932.89 249.783 2931.5 249.875 2931.03C249.916 2930.77 250.037 2930.92 250.25 2930.98C250.472 2931.06 250.776 2930.64 251.313 2930.89C251.381 2930.88 251.654 2931.43 252.157 2932.4C252.647 2933.33 253.324 2934.5 253.79 2934.87C254.443 2935.41 255.535 2933.79 256.523 2934.99C257.506 2936.15 256.787 2938.08 258.279 2940.25C259.8 2942.42 261.002 2940.77 262.933 2945.51ZM456.494 3043.82C457.51 3048.09 462.232 3045.75 458.8 3042.69C458.631 3042.55 456.442 3043.6 456.494 3043.82ZM789.718 3333.09C786.571 3327.9 781.49 3328.35 783.601 3332.14C785.693 3335.9 790.69 3334.68 789.718 3333.09ZM837.661 3366.01C833.422 3360.71 828.252 3366.13 834.798 3369C835.184 3369.18 837.914 3366.32 837.661 3366.01ZM245.001 2959.36C245.047 2959.3 243.849 2955.98 243.767 2955.95C241.546 2954.79 243.922 2961.39 245.001 2959.36ZM886.303 3397.17C885.099 3395.13 879.711 3392.85 881.072 3395.29C882.151 3397.25 887.718 3399.65 886.303 3397.17ZM605.702 3207.97C605.69 3208.07 607.363 3209.94 607.646 3209.6C608.562 3208.5 605.878 3206.24 605.702 3207.97ZM963.865 3456.14C959.384 3452.15 956.235 3447.81 955.501 3444.97L955.554 3445.04C955.31 3443.55 955.164 3442.54 955.545 3442.14C955.906 3441.77 956.748 3441.84 958.133 3443.46L957.805 3443.01C958.745 3443.74 960.086 3445 962.045 3446.94C963.982 3448.93 956.404 3444.29 958.549 3447.11C962.644 3452.35 968.653 3452.21 972.407 3458.26C973.082 3459.34 964.473 3456.7 963.84 3456.13C963.849 3456.13 963.857 3456.14 963.865 3456.14ZM452.48 3049.23C452.474 3049.36 454.282 3052.24 454.398 3052.28C456.793 3052.9 453.142 3047.09 452.48 3049.23ZM701.378 3316.86C701.393 3317.09 706.591 3323.15 706.864 3323.25C711.663 3324.56 701.157 3312.31 701.378 3316.86ZM568.634 3146.5C572.51 3147.69 576.052 3150.52 576.9 3154.04C574.199 3151.54 571.334 3149.02 568.634 3146.5Z" fill="black"/>
<path d="M4903.42 2657.55C4895.38 2668.13 4883.62 2681.46 4874.56 2691.05C4871.71 2694.07 4872.38 2691.87 4870.33 2693.98C4866.46 2697.95 4863.32 2702.3 4859.39 2706.19C4858.06 2707.5 4858.47 2704.78 4857.1 2706.19C4849.77 2713.66 4843.25 2721.67 4836.08 2729.33C4800.01 2767.83 4764.63 2805.49 4727.72 2843.93C4721.74 2850.16 4715.5 2856.26 4708.7 2863.06C4701.48 2870.26 4693.99 2877.66 4687.46 2884.69C4685.99 2886.27 4687.81 2886.27 4687.6 2886.63C4684.29 2892.28 4683.94 2888.93 4680.78 2891.61C4668.13 2902.32 4655 2914.85 4643.85 2926.1C4639.13 2930.87 4645.78 2928.1 4639.87 2931.71C4639.46 2931.96 4639.76 2929.79 4638.32 2930.95C4635.02 2933.61 4629.45 2939.16 4626.99 2941.3C4622.28 2945.38 4621.49 2946.13 4617.18 2950.09C4611.25 2955.52 4603.69 2961.51 4597.5 2967.54C4596.18 2968.84 4598.94 2968.23 4596.91 2970.39C4594.88 2972.56 4589.02 2977.68 4586.84 2979.19C4584.66 2980.7 4584.76 2979.13 4584.24 2979.25C4579.97 2980.23 4575.22 2988.44 4574.4 2989.26C4559.43 3004.26 4544.69 3014.96 4529.7 3027.97C4518.36 3037.82 4506.47 3048.77 4495.53 3058.01C4482.45 3069.04 4470.95 3077.77 4458.32 3088.56C4456.98 3089.7 4459.62 3089.64 4457.99 3091.03C4440.72 3105.79 4423.26 3120.08 4405.12 3133.61C4403.3 3134.96 4404.62 3131.99 4402.76 3133.27C4391.25 3141.23 4372.64 3152.8 4370.16 3162.98C4362.77 3168.71 4353.64 3175.84 4346.48 3180.04C4341.67 3182.91 4344.78 3178.33 4340.06 3183.05C4339.02 3184.09 4341.37 3183.96 4339.75 3185.44C4332.85 3191.7 4325.01 3197.57 4318.42 3203.78C4318.16 3204.02 4317.9 3204.27 4317.65 3204.51C4316.19 3205.9 4317.41 3206.5 4317.12 3207.02C4315.04 3211.08 4306.7 3213.94 4305.49 3214.58C4303.88 3215.58 4302.83 3216.18 4301.28 3217.14C4300.92 3217.35 4300.75 3217.44 4300.14 3217.81C4299.89 3217.96 4299.65 3218.1 4299.39 3218.24C4299.25 3218.32 4299.11 3218.39 4298.95 3218.47C4298.9 3218.49 4298.9 3218.49 4298.8 3218.54C4298.62 3218.63 4298.42 3218.73 4298.12 3218.85C4297.82 3218.96 4297.46 3219.11 4296.76 3219.24C4296.06 3219.32 4294.91 3219.66 4292.74 3218.73C4290.41 3217.86 4288.78 3214.44 4288.96 3212.88C4288.96 3212.46 4288.99 3212.11 4289.03 3211.81C4289.06 3211.66 4289.08 3211.52 4289.11 3211.39C4289.15 3211.23 4289.14 3211.25 4289.16 3211.18C4289.21 3210.98 4289.26 3210.8 4289.32 3210.65C4289.53 3210.03 4289.72 3209.7 4289.88 3209.43C4290.19 3208.91 4290.39 3208.67 4290.58 3208.44C4290.76 3208.22 4290.94 3208.02 4291.07 3207.88C4291.15 3207.8 4291.22 3207.73 4291.3 3207.66C4291.6 3207.36 4291.92 3207.07 4292.27 3206.75C4294.53 3204.74 4296.72 3202.87 4298.62 3201.18C4302.61 3197.65 4306.62 3193.93 4310.96 3190.2C4313.09 3188.37 4309.52 3189.26 4311.48 3187.49C4321.52 3178.5 4332.51 3169.45 4343.16 3161.58C4345.53 3159.84 4344.35 3162.66 4345.53 3161.88C4350.81 3158.37 4350.07 3155.51 4355.12 3152.12C4356.18 3151.4 4356.4 3152.8 4356.66 3152.75C4360.72 3152.13 4361.28 3147.86 4361.96 3147.22C4370.45 3139.17 4378.29 3136.85 4386.81 3129.52C4387.83 3128.63 4384.48 3129.33 4387.43 3126.91C4404.68 3112.77 4423.48 3098.65 4442.04 3086.04C4444.52 3084.35 4447 3082.69 4449.46 3081.07C4452.71 3078.93 4451.15 3081.5 4451.44 3081.47C4455.97 3080.91 4456.31 3076.98 4457.27 3076.15C4464.91 3069.62 4474 3066.24 4477.51 3059.44C4512.95 3036.07 4547.28 3011.33 4584.82 2992.04C4585.3 2991.8 4585.24 2993.55 4586.19 2993.05C4597.56 2987.07 4594.25 2986.43 4600.12 2979.63C4601.59 2977.92 4608.91 2977.47 4609.53 2977.39C4611.8 2977.09 4611.05 2980.08 4611.74 2979.87C4617.4 2978.12 4612.97 2972.35 4619.69 2968.39C4619.9 2968.28 4619.69 2969.94 4620.32 2969.72C4622.31 2969.03 4623.8 2967.54 4625.75 2966.93C4630.2 2965.56 4633.42 2967.73 4638.43 2962.47C4639.06 2961.8 4635.86 2958.92 4642 2955.61C4644.51 2954.25 4655.13 2948.1 4658.33 2946.61C4661.47 2945.14 4660.05 2947.46 4660.29 2947.38C4669.25 2944.33 4666.56 2946.68 4671.85 2946.67C4677.21 2946.61 4673.07 2941.91 4674.39 2940.38C4675.7 2938.87 4682.37 2936.81 4684.1 2936.42C4685.82 2936.04 4684.39 2937.79 4685.84 2937.31C4695.35 2934.17 4688.17 2932.55 4690.55 2930.13C4691.22 2929.44 4691.91 2928.86 4692.61 2928.36C4698 2924.57 4704.29 2925.2 4710 2922.54C4711.72 2921.74 4709.87 2921.57 4711.31 2920.68C4716.94 2917.19 4721.29 2916.45 4727.32 2911.72C4728.34 2910.93 4732.5 2905.59 4736.93 2905.5C4737.57 2905.48 4736.68 2907.25 4739.34 2906.11C4743.32 2904.42 4750.19 2901.04 4754.09 2898.56C4756.93 2896.74 4752.66 2896.89 4756.66 2895.43C4758.48 2894.77 4755.84 2897.39 4759.21 2896.06C4762.57 2894.74 4770.54 2890.51 4773.59 2888.89C4776.6 2887.28 4774.29 2886.88 4774.49 2886.67C4775.68 2885.43 4781.33 2881.74 4781.82 2881.49C4807.9 2867.86 4833.34 2857.86 4858.95 2845C4860.98 2843.99 4858.98 2843.28 4859.29 2843.11C4866.01 2839.29 4862.12 2845.47 4867.61 2844.4C4865.65 2841.97 4868.71 2841.15 4873.56 2838.58C4875.88 2837.35 4874.09 2836.87 4874.26 2836.67C4877 2833.46 4880.51 2834.42 4881.31 2834.58C4884.31 2835.14 4886.11 2832.1 4888.16 2832.47C4890.21 2832.83 4887.23 2835.99 4891.97 2833.9C4892.89 2832.31 4888.17 2831.27 4891.65 2829.26C4902.48 2822.91 4923.1 2815.86 4936.21 2811.77C4937.23 2811.44 4938.79 2811.06 4940.59 2811.85C4942.4 2812.68 4943.13 2814.24 4943.43 2815.19C4944.01 2817.19 4943.84 2818.47 4943.77 2819.66C4942.46 2828.28 4939.93 2832.03 4937.8 2835.7C4936.51 2837.71 4935.19 2839.51 4933.45 2841.53C4924.67 2851.03 4929.22 2848.7 4924.28 2855.19C4919.18 2861.45 4918.43 2854.96 4916.84 2854.94C4915.25 2854.91 4915.19 2856.52 4913.75 2857.02C4912.32 2857.49 4913.99 2854.94 4911.48 2856.92C4908.97 2858.91 4903.63 2866.14 4903.5 2867.77C4903.22 2871.24 4907.99 2870.6 4900.84 2875.45C4900.43 2875.72 4900.78 2873.65 4899.25 2874.76C4887.06 2883.61 4875.1 2893.3 4862.99 2902.13C4861.36 2903.32 4861.78 2901 4860.81 2901.68C4850.64 2908.86 4855.65 2908.03 4852.28 2914.53C4851.03 2910.65 4846.66 2911.28 4839.38 2917.35C4835.09 2920.94 4836.86 2921.61 4834.79 2924.87C4834.2 2925.82 4830.41 2927.54 4830.34 2928.62C4830.22 2930.58 4831.66 2931.35 4831.5 2932.62L4831.57 2932.55C4831.48 2933.53 4830.46 2934.79 4826.9 2937.31C4826.55 2937.54 4826.62 2935.62 4825.48 2936.52C4818 2942.47 4818.96 2945.16 4811.52 2952.32C4805.69 2957.91 4794.04 2966.35 4787.11 2972.4C4784.4 2969.13 4778.63 2975.78 4778.09 2980.29C4773.61 2984.29 4769.04 2988.8 4764.59 2992.44C4763.05 2993.7 4763.16 2991.91 4762.88 2991.99C4758.64 2993.13 4758.75 2996.95 4757.88 2997.92C4748.52 3008.3 4738.84 3014.63 4730.79 3025.44C4730.51 3025.82 4732.01 3028.47 4727.97 3029.42C4727.7 3029.47 4729.89 3025.45 4725.36 3029.74C4720.81 3034.06 4711.34 3041.23 4706.17 3048.38C4704.92 3050.09 4702.87 3055.56 4698.56 3057.29C4697.98 3057.51 4697.81 3056.48 4696.9 3056.73C4693.97 3057.57 4695.08 3060.7 4691.09 3061.16C4687.11 3061.62 4681.19 3064.97 4676.38 3072.52C4676.22 3072.76 4676.49 3075.89 4674.56 3077.86C4671.48 3081 4666.83 3085.21 4663.69 3088.58C4662.19 3090.19 4664.23 3090.16 4663.99 3090.46C4654.49 3101.83 4646.42 3108.7 4635.46 3120.17C4633.43 3122.28 4629.42 3129.85 4624.55 3133.07C4623.09 3134.03 4621.94 3134.03 4620.86 3133.75C4618 3133.02 4615.69 3130.34 4609.92 3139.06C4606.7 3143.93 4609.07 3155.3 4598.92 3160.28C4587.24 3176.51 4574.02 3189.7 4563.59 3206.94C4563.12 3207.71 4563.53 3211.51 4562.27 3213.21C4560.4 3215.73 4558.44 3216.45 4557.08 3218.23C4551.38 3225.73 4547.38 3233.4 4542.25 3240.87C4540.31 3243.71 4539.94 3242.03 4537.64 3245.43C4535.34 3248.84 4535.23 3252.01 4531.6 3256.29C4528.86 3259.52 4523.81 3261.34 4520.56 3265.92C4523.25 3267.81 4521.18 3271.04 4518.45 3277.34C4517.93 3278.55 4519.63 3277.92 4519.43 3278.52C4518.66 3280.98 4516.67 3282.51 4516.02 3284.9C4515.86 3285.48 4516.81 3286.06 4516.74 3286.57C4516.14 3290.87 4510.7 3295.39 4509.76 3296.18C4506.17 3299.19 4506.45 3301.69 4504.27 3304.32C4502.09 3306.96 4503.77 3302.16 4501.55 3305.41C4496.94 3312.17 4492.24 3321.54 4488.49 3328.9C4487 3331.85 4489.34 3330.5 4489.16 3330.94C4486.44 3337.19 4482.01 3342.72 4483.07 3347.4C4474.11 3348.38 4481.96 3351.41 4476.5 3359.59C4476.07 3360.23 4472.36 3359.62 4473.1 3356.71C4473.86 3353.79 4476.77 3350.22 4477.78 3346.16C4478.02 3345.2 4477.36 3338.7 4477.52 3337.92C4478.69 3331.83 4483.94 3333.49 4484.34 3333.34C4488.8 3331.58 4488.59 3323.88 4489.19 3322.16C4491.9 3314.33 4495.84 3308.53 4498.39 3302.11C4500.07 3297.91 4497.18 3295.81 4498.99 3292.77C4505.08 3282.65 4511.4 3281.64 4513.36 3269.93C4513.8 3267.43 4509.23 3267.43 4516.28 3261.72C4516.72 3261.36 4522.41 3257.44 4522.86 3253.42C4522.91 3252.91 4521.95 3252.32 4522.19 3251.76C4523.83 3247.99 4526.05 3246.19 4528.09 3242.24C4530.13 3238.29 4532.51 3233.48 4535.65 3229.49C4537.53 3227.09 4541.47 3225.04 4542.72 3224.14C4546.26 3221.59 4546.76 3216.59 4549.7 3215.54C4552.65 3214.48 4552.04 3220.14 4556.84 3215.35C4554.58 3213.45 4552.44 3211.24 4550.26 3209.2C4558.89 3197.21 4568.32 3186.13 4577.28 3174.37C4578.39 3172.91 4575.99 3173.42 4577.15 3171.83C4582.06 3165.12 4587.47 3160.15 4592.55 3153.21C4596.48 3147.82 4599.86 3141.13 4604.04 3135.53C4607.25 3134.87 4610.6 3131.54 4613.93 3127.77C4616.13 3125.28 4618.31 3122.61 4620.38 3120.43C4622.19 3118.53 4622.74 3119.25 4624.2 3118.05C4629.67 3113.49 4625.26 3113.99 4626.19 3112.23C4630.21 3104.72 4635.7 3108.67 4642.11 3101.36C4642.45 3100.97 4644.06 3093.89 4644.49 3093.1C4647.16 3088.04 4646.03 3093.27 4648.57 3090.91C4653.21 3086.6 4656.82 3083.98 4661.13 3077.88C4662.38 3076.1 4664.33 3070.79 4668.48 3068.95C4669.02 3068.71 4669.67 3069.75 4670.02 3069.48C4676.42 3064.48 4673.87 3061.76 4676.17 3057.57C4678.46 3053.38 4685.26 3050.1 4686.8 3049.6C4690.82 3048.25 4685.36 3052.23 4685.36 3052.51C4685.28 3055.8 4688.62 3051.83 4691.52 3049.15C4694.52 3051.32 4698.24 3047.23 4694.52 3046.37C4694.11 3046.28 4692.19 3048.71 4691.52 3049.15C4691.39 3044.17 4695.33 3039.53 4702.45 3037.14C4705.78 3036.03 4704.96 3039.43 4711.24 3032.24C4714.1 3028.98 4711.13 3028.37 4713.37 3025.2C4718.47 3017.96 4728.23 3011.71 4734.43 3005.23C4736.69 3002.86 4733.44 3004.08 4734.95 3002.43C4738.95 2998.07 4743.44 2995.2 4747.38 2990.73C4747.73 2990.32 4745.78 2990.19 4747.12 2988.89C4757.17 2979.13 4766.71 2971.46 4777.45 2961.58C4782.67 2956.77 4791.44 2947.67 4796.97 2942.88C4804.81 2936.07 4814.94 2928.92 4822.6 2922.45C4822.63 2922.42 4822.73 2922.33 4822.76 2922.3C4824.54 2920.86 4826.17 2919.48 4827.61 2918.15C4832.8 2913.35 4830.7 2913.23 4832.36 2910.55C4835.66 2905.29 4845.7 2901.36 4847.15 2900.84C4847.17 2900.84 4842.76 2904.96 4845.7 2903.48C4848.12 2903.47 4847.11 2900.88 4847.15 2900.84C4848.09 2900.5 4857.58 2893.05 4859.3 2891.28C4860.2 2890.34 4858.77 2889.75 4859.25 2889.28C4870.94 2878.01 4883.35 2867.47 4896.03 2857.49C4896.26 2857.32 4896.93 2858.76 4897.47 2858.36C4904.99 2852.79 4908.2 2847.41 4912.57 2841.52C4916.94 2835.59 4920.36 2831.97 4924.7 2830.26C4925.06 2829.64 4925.47 2828.98 4925.89 2828.32C4928.05 2825.19 4930.73 2819.76 4931.21 2818.48C4931.43 2818.2 4931.14 2818.46 4931.69 2820.09C4932.09 2821.78 4934.98 2824.38 4936.81 2824.89C4938.64 2825.57 4939.45 2825.69 4940.01 2825.9C4940.59 2826.07 4940.83 2826.2 4941.03 2826.16C4941.18 2826.12 4941.32 2826.09 4941.44 2826.06C4929.95 2832.25 4922.24 2833.52 4909.59 2838.51C4903.52 2840.9 4891.77 2846.48 4885.46 2849.69C4880.46 2852.22 4877.09 2852.99 4872.59 2855.55C4871.98 2855.9 4873.18 2856.81 4873.01 2856.95C4868.42 2860.81 4869.6 2856.7 4868.27 2856.68C4863.46 2856.59 4860.58 2856.7 4854.29 2860.78C4852.88 2861.7 4850.32 2868.09 4847.7 2869.66C4844.23 2871.72 4844.82 2869.57 4841.22 2871.77C4840.91 2871.96 4841.43 2872.85 4839.07 2873.95C4828.09 2879.09 4815.97 2884.46 4804.77 2890.27C4803.23 2891.07 4805.96 2891.52 4803.74 2892.69C4793.42 2898.16 4782.03 2903.99 4771.58 2908.61C4769.01 2909.74 4770.03 2907.91 4769.34 2907.89C4765.04 2907.82 4761.76 2912.93 4761.02 2913.39C4743.25 2924.42 4727.85 2929.65 4709.82 2940.97C4709.17 2941.39 4706.14 2944.7 4702.71 2946.73C4701.08 2947.7 4699.34 2948.36 4697.74 2948.21C4697.37 2948.2 4692.65 2947.6 4690.48 2951C4690.36 2951.2 4693.18 2951.3 4689.4 2953.22C4685.59 2955.17 4680.01 2959.39 4674.16 2960.86C4672.26 2961.35 4667.09 2961.05 4663.35 2965.74C4663.12 2966.05 4658.19 2974.68 4653.8 2973.18C4653.09 2972.93 4651.67 2969.48 4646.9 2974.42C4645.99 2975.37 4648.4 2974.93 4645.75 2977.05C4641.75 2980.29 4635.42 2982.83 4630.81 2987.45C4630.04 2988.25 4627.3 2992.77 4623.12 2993.04C4622.47 2993.08 4622.79 2991.46 4621.03 2992.34C4612.6 2996.58 4604.65 3002.34 4596.08 3006.58C4593.05 3008.09 4593.48 3005.49 4590.18 3006.89C4586.94 3008.25 4580.59 3011.58 4577.97 3014.29C4575.33 3017.01 4580.43 3017.57 4575.88 3020.72C4556.19 3034.37 4535.33 3045.71 4515.36 3058.9C4512.41 3060.85 4515.48 3060.14 4511.17 3063.1C4495.26 3073.96 4468.87 3094.05 4454.05 3102.11C4454.02 3102.12 4453.99 3102.14 4453.97 3102.15C4442.21 3108.48 4454.78 3097.31 4446.11 3102.78C4441.92 3105.44 4439.87 3111.62 4438.99 3112.43C4430.41 3120.4 4423 3124.04 4415.02 3130.89C4413.37 3132.31 4415.97 3132.18 4414.56 3133.37C4409.78 3137.43 4404.14 3141.02 4399.49 3144.86C4397.41 3146.59 4398.51 3147.18 4396.52 3148.65C4391.75 3152.2 4387.38 3155.08 4382.15 3157.93C4381.67 3158.18 4383.57 3154.83 4380.1 3157.56C4374.57 3161.93 4366.92 3166.8 4361.36 3172.8C4359.68 3174.61 4361.22 3176.72 4356.08 3178.63C4355 3179.04 4354.11 3175.7 4351.1 3181.73C4350.6 3182.73 4345.17 3192.03 4339.76 3193.53C4338.34 3193.92 4334.18 3194.08 4332.15 3196.34C4331.89 3196.64 4334.01 3196.69 4332.26 3198.36C4326.07 3204.25 4319.25 3209.94 4313.12 3216.03C4311.48 3217.68 4314.95 3216.5 4312.59 3218.82C4311.86 3219.54 4310.82 3220.55 4310.12 3221.23C4309.27 3222.06 4308.35 3222.98 4308.17 3223.19C4308.17 3223.18 4308.18 3223.17 4308.2 3223.15C4308.21 3223.15 4308.28 3223.06 4308.43 3222.88C4308.58 3222.7 4308.8 3222.43 4309.21 3221.84C4309.61 3221.16 4310.27 3220.51 4311.26 3217.52C4311.32 3217.33 4311.38 3217.12 4311.44 3216.9C4311.47 3216.79 4311.49 3216.68 4311.52 3216.56C4311.54 3216.48 4311.54 3216.49 4311.57 3216.33C4311.61 3216.19 4311.64 3216.04 4311.67 3215.89C4311.9 3214.66 4312.11 3213.02 4311.84 3210.78C4311.79 3206.35 4306.69 3199.04 4301.69 3197.54C4296.86 3195.75 4294.29 3196.4 4292.69 3196.59C4291.09 3196.89 4290.28 3197.21 4289.65 3197.45C4289.04 3197.69 4288.66 3197.87 4288.37 3198.02C4288.3 3198.05 4288.23 3198.09 4288.17 3198.12C4288.15 3198.13 4288.14 3198.14 4288.12 3198.14C4288.1 3198.16 4288.07 3198.17 4288.04 3198.19C4287.94 3198.24 4287.85 3198.29 4287.78 3198.33C4287.48 3198.5 4287.37 3198.58 4287.32 3198.61C4287.27 3198.64 4287.31 3198.62 4287.38 3198.57C4287.45 3198.52 4287.5 3198.49 4287.57 3198.44C4287.71 3198.34 4287.9 3198.2 4288.13 3198.04C4289.18 3197.28 4289.88 3196.76 4291.11 3195.83C4295.2 3192.75 4299.31 3189.67 4303.16 3186.8C4303.49 3186.56 4303.76 3186.37 4304 3186.23C4305.69 3185.26 4304.93 3187.14 4305.17 3187.09C4309.48 3186.31 4309.76 3182.37 4310.68 3181.4C4316.4 3175.42 4322.44 3172.24 4328.1 3167.16C4329.69 3165.74 4327.65 3165.63 4327.91 3165.27C4330.6 3161.53 4329.58 3165.54 4331.96 3163.95C4338.46 3159.64 4345.14 3154.04 4351.22 3148.84C4353.48 3146.91 4349.9 3147.78 4351.92 3146.08C4363.67 3136.11 4376.09 3126.11 4388.31 3117.16C4390.59 3115.5 4390 3117.57 4390.63 3117.41C4394.98 3116.36 4398.02 3110.39 4398.85 3109.37C4402.86 3104.54 4405.43 3103.82 4409.6 3100.09C4429.64 3082.16 4455.57 3061.32 4475.21 3045.17C4500.8 3024.12 4520.97 3008.22 4544.46 2987.12C4545.95 2985.78 4543.36 2985.9 4544.63 2984.72C4561.1 2969.66 4577.87 2955.48 4594.01 2940.06C4595.34 2938.79 4592.35 2939.44 4594.45 2937.37C4598.74 2933.11 4604.37 2928.03 4609.19 2924.22C4611.53 2922.37 4609.51 2926.05 4611.84 2924.17C4617.25 2919.81 4622.81 2914.74 4627.82 2909.65C4629.94 2907.49 4625.54 2909.49 4628.38 2906.77C4647.75 2888.15 4666.44 2869.43 4686.6 2851.3C4687.89 2850.14 4690.98 2850.97 4693.19 2848.43C4693.35 2848.25 4693.51 2848.04 4693.66 2847.82C4693.23 2846.99 4692.45 2846.28 4691.85 2845.53C4718.65 2816.38 4745.87 2788.75 4772.61 2759.63C4773.73 2758.4 4770.55 2759.38 4772.7 2757.01C4785.27 2743.23 4797.01 2729.47 4810.89 2716.36C4812.27 2715.04 4813.75 2717.88 4817.21 2713.29C4817.86 2712.43 4822.95 2706.05 4823.99 2703.87C4824.11 2703.59 4822.05 2703.83 4823.81 2701.75C4834.03 2689.77 4844.89 2677.68 4855.74 2666.18C4857.46 2664.37 4856.88 2667.35 4858.11 2666.07C4866.92 2656.87 4874.96 2645.4 4883.71 2636.8C4889.6 2631.03 4889.69 2634.98 4894.41 2633.22C4895.06 2632.97 4898.44 2629.03 4899.74 2629.8C4902.96 2631.72 4904.47 2636.18 4908.11 2637.99C4908.3 2638.09 4908.67 2637.82 4909.06 2637.48C4909.5 2637.07 4909.94 2636.62 4910.31 2636.32C4910.72 2635.97 4910.97 2635.88 4911.15 2636.01C4911.31 2636.15 4911.5 2636.41 4911.32 2637.36C4911.37 2637.45 4908.93 2641.34 4908.65 2642.79C4908.52 2643.7 4910.58 2643.56 4910.02 2645.2C4909.38 2646.94 4907.23 2647.59 4906.03 2650.2C4904.72 2652.96 4906.93 2652.95 4903.42 2657.55ZM4925 2826.42C4920.32 2826.73 4921.64 2831.84 4925.66 2828.9C4925.85 2828.75 4925.23 2826.4 4925 2826.42ZM4571.49 3188.64C4576.92 3185.29 4576.69 3180.02 4572.73 3182.27C4568.76 3184.53 4569.84 3189.67 4571.49 3188.64ZM4537.38 3239.91C4542.72 3235.14 4537.16 3230.1 4534.29 3237.15C4534.12 3237.56 4537.07 3240.19 4537.38 3239.91ZM4882.14 2649.33C4882.25 2649.3 4884.6 2646.55 4884.58 2646.47C4884.51 2643.93 4879.84 2649.4 4882.14 2649.33ZM4507.2 3292.93C4509.13 3291.54 4511.21 3285.57 4508.8 3287.28C4506.84 3288.66 4504.79 3294.67 4507.2 3292.93ZM4711.38 2924.7C4711.29 2924.66 4708.94 2925.86 4709.2 2926.22C4710.04 2927.38 4713.06 2925.28 4711.38 2924.7ZM4461.89 3385.99C4468.1 3371.98 4477.49 3366.06 4470.24 3380.96C4468.93 3383.66 4471 3374.25 4468.98 3377.53C4465.28 3383.57 4467.03 3389.33 4462.41 3395.16C4461.57 3396.22 4461.52 3386.78 4461.89 3385.96C4461.89 3385.97 4461.89 3385.98 4461.89 3385.99ZM4920.28 2821.52C4920.16 2821.49 4916.77 2822.78 4916.73 2822.87C4915.53 2825.14 4922.34 2822.56 4920.28 2821.52ZM4577.29 2998.36C4577.03 2998.35 4569.82 3002.67 4569.65 3002.93C4567.37 3007.56 4581.96 2998.82 4577.29 2998.36ZM4786.93 2972.42C4785.19 2976.3 4781.82 2979.69 4778.1 2980.28C4781.03 2977.71 4783.99 2974.99 4786.93 2972.42Z" fill="black"/>
</svg>
