<svg width="4626" height="3243" viewBox="0 0 4626 3243" fill="none" xmlns="http://www.w3.org/2000/svg">
<path d="M115.689 376.171C121.484 410.564 128.323 450.062 135.312 490.145C143.513 537.1 151.845 584.926 158.672 625.609C162.683 649.466 159.285 637.445 161.979 653.859C167.209 685.789 173.048 715.36 177.98 747.001C179.6 757.453 175.442 744.797 177.187 755.777C186.756 815.986 196.767 872.724 206.101 933.719C231.154 1097.6 252.993 1260.47 269.925 1424.72C283.994 1561.61 294.627 1699.33 303.017 1838.94C309.15 1940.2 313.516 2063.52 318.181 2168.02C318.735 2180.3 320.153 2172.92 320.38 2175.25C323.854 2211.6 319.992 2199.72 320.359 2223.48C321.516 2300.43 323.322 2384.72 324.806 2462.12C325.152 2480.11 325.409 2497.45 325.581 2514.18C325.865 2553.22 329.326 2514.01 327.249 2553.25C327.099 2555.96 325.379 2546.13 325.1 2556.73C324.54 2580.9 323.74 2626.53 322.777 2645.31C320.987 2681.23 320.661 2687.36 318.403 2721.31C315.254 2767.78 308.645 2822.93 303.425 2872.5C302.338 2883.06 305.731 2869.29 304.164 2886.18C302.545 2903.08 297.686 2947.61 295.994 2962.55C294.224 2977.51 293.355 2971.02 292.789 2973.65C290.436 2984.49 289.266 3003.07 288.892 3019.71C288.503 3036.64 287.13 3051.47 286.716 3054.77C284.697 3070.11 281.94 3084.53 284.024 3096.41C287.14 3117.06 303.062 3131.27 323.441 3135.61C394.053 3146.75 468.54 3141.69 544.172 3140.18C630.867 3137.29 723.747 3132.84 806.496 3130.52C889.287 3128.17 961.413 3127.37 1039.32 3126.76C1054.12 3126.65 1069.06 3126.43 1084.3 3126.07C1094.33 3125.82 1082.46 3123.93 1094.81 3123.61C1206.03 3120.37 1317.27 3112.29 1428.91 3111.81C1447.95 3111.61 1467.06 3111.5 1486.26 3111.44C1499.28 3111.41 1482.49 3113.55 1495.56 3113.63C1575.75 3114.09 1702.35 3116.99 1749.85 3108.35C1804.1 3108.3 1869.88 3108.17 1918.42 3109.42C1949.75 3110.22 1919.32 3112.58 1957.77 3111.33C1966.4 3111.05 1955.12 3109.34 1968.11 3109.06C2010.91 3108.1 2056.77 3107.81 2100.49 3106.69C2112.89 3106.38 2124.83 3106 2136.58 3105.52C2147.63 3105.07 2144.52 3103.51 2147.61 3103.15C2173.8 3100.17 2217.35 3102.67 2226.87 3102.58C2299.17 3102.04 2352.09 3098.39 2419.43 3095.77C2435.15 3095.15 2416.52 3093.7 2431.58 3093.04C2480.17 3090.93 2529.8 3089.29 2579.1 3088.15C2608.87 3087.46 2638.33 3086.95 2667.22 3086.61C2684.4 3086.41 2668.64 3088.66 2676.87 3088.66C2712.62 3088.66 2720.68 3084.95 2755 3084.94C2762.32 3084.93 2758.23 3086.61 2759.57 3086.76C2780.18 3089.05 2798.23 3084.76 2803.5 3084.55C2870.93 3081.91 2913.97 3085.1 2979.05 3083.18C2986.83 3082.95 2969.24 3081.29 2991.12 3080.76C3136.88 3077.19 3291.16 3074.73 3435.3 3072.58C3457.96 3072.22 3441.83 3074.17 3443.27 3074.32C3461.14 3076.12 3474.41 3073.86 3482.41 3072.62C3484.76 3072.27 3486.73 3071.99 3488.34 3071.91C3545.92 3069.21 3599.91 3070.29 3638.66 3063.03C3854.95 3054.91 4065.39 2987.06 4243.19 2866.2C4265.21 2851.83 4283.21 2831.67 4297.23 2808.97C4298.79 2806.42 4297.73 2812.05 4300.83 2806.9C4334.19 2741.73 4323.2 2751.74 4332.15 2704.68C4334.15 2692.92 4344.41 2656.77 4344.95 2653.52C4347.68 2641.79 4348.93 2654.49 4349.67 2650.54C4355.35 2617.3 4345.66 2621.92 4348.37 2577.12C4348.46 2575.72 4349.9 2581.69 4350.27 2577.94C4351.41 2566.36 4351.14 2554.52 4352 2543.14C4353.88 2516.85 4358.69 2507.41 4355.26 2467.13C4354.74 2462.04 4349.8 2469.94 4348.64 2429.7C4348.36 2413.69 4344.23 2342.59 4343.05 2322.72C4342.02 2302.73 4344.7 2316.31 4344.67 2314.88C4343.14 2261.07 4345.52 2281.46 4346.93 2254.25C4348.32 2227.21 4340.82 2235.1 4339.14 2224.32C4337.4 2213.28 4336.65 2173.99 4336.82 2164.12C4336.94 2154.38 4338.7 2166.39 4338.6 2157.79C4338.41 2100.95 4333.48 2132.75 4331.57 2114.06C4331.4 2112.22 4331.25 2110.41 4331.13 2108.63C4328.25 2066.92 4333.47 2033.48 4333.94 1994.6C4334.09 1983.64 4332.73 1992.59 4332.6 1982.78C4332.12 1944.02 4334.1 1920.77 4332.94 1876.66C4332.74 1869.36 4329.69 1833.74 4332.86 1810.67C4333.31 1807.42 4334.59 1816.7 4335.3 1800.25C4336.34 1775.55 4337.98 1731.18 4338.48 1704.64C4338.84 1685.14 4335.53 1707.46 4337.25 1682.79C4338.03 1671.88 4338.64 1692.14 4339.99 1671.71C4341.31 1651.22 4343.77 1598.99 4344.88 1579.13C4345.96 1559.16 4343.49 1569.99 4343.45 1568.37C4343.24 1558.8 4344.76 1520.36 4345.01 1517.13C4348.66 1461.34 4353.41 1406.67 4359.5 1353.25C4372.01 1244.29 4382.71 1137.7 4389.53 1026.98C4390.33 1014.02 4387.79 1022.52 4387.89 1020.54C4389.99 976.178 4392.92 1011.46 4396.65 980.591C4392.38 984.821 4394.29 966.577 4395.67 935.285C4396.32 920.209 4394.31 928.335 4394.23 926.947C4393.17 904.438 4397 889.082 4397.83 885.134C4400.89 870.412 4399.02 854.139 4401.02 844.222C4403.02 834.228 4404.14 857.523 4405.56 827.496C4404.53 819.042 4399.76 841.079 4400.22 818.318C4400.27 815.94 4400.33 813.499 4400.39 810.997C4404.05 731.334 4417.42 598.967 4411.71 524.619C4411.37 517.217 4410.05 510.52 4408.3 504.704C4381.78 443.45 4353.23 435.504 4322.87 411.495C4262 372.459 4282.83 389.181 4242.95 368.535C4202.45 348.601 4224.96 352.837 4219.89 348.505C4216.77 345.86 4212.93 344.148 4208.82 342.159C4206.35 340.965 4203.8 339.703 4201.25 338.114C4194.44 333.936 4210.44 340.48 4193.62 332.157C4176.95 322.897 4126.92 310.766 4120.09 311.382C4105.92 311.66 4127.54 319.058 4079.71 308.666C4076.92 308.103 4086.26 307.927 4075.71 305.894C3991.3 290.438 3901.4 283.497 3815.85 275.458C3804.35 274.407 3814.82 273.211 3808.09 272.576C3736.86 265.997 3761.35 271.215 3722.52 272.204C3731.65 267.878 3710.29 263.284 3655.66 259.634C3623.54 257.5 3628.03 259.974 3607.29 260.164C3601.12 260.226 3577.98 257.259 3573.54 258.002C3559.08 260.431 3581.52 265.561 3525.15 260.553C3522.65 260.327 3530.75 259.003 3522.08 258.354C3469.63 254.411 3461.55 257.135 3407.25 254.472C3405.25 254.375 3403.18 254.271 3401.03 254.157C3354.43 251.674 3272.15 244.81 3218.86 241.508C3220.62 236.015 3169.54 234.462 3149.63 237.234C3115.12 235.19 3078.26 233.424 3044.67 231.105C3033.09 230.307 3040.79 229.099 3039.34 228.847C3017.54 224.948 3002.41 227.898 2994.94 227.652C2914.45 224.847 2848.53 218.62 2771.83 217.513C2769.11 217.476 2764.39 221.116 2743.99 217.255C2742.68 216.994 2768 216.503 2732.06 214.557C2695.97 212.603 2627.83 207.128 2577.54 206.454C2565.44 206.291 2534.43 207.918 2509.92 204.262C2506.66 203.769 2510.3 202.834 2505.6 201.985C2490.39 199.271 2481.83 202.775 2463.95 198.576C2445.99 194.373 2408.78 190.074 2357.95 189.935C2356.34 189.924 2344.21 192.451 2328.29 191.641C2302.88 190.344 2266.81 187.98 2240.27 186.744C2227.56 186.154 2235.6 188.464 2233.4 188.395C2147.84 185.431 2087.23 180.875 1995.63 175.89C1979.04 174.981 1930.33 175.368 1898.19 171.817C1862.52 167.909 1899.49 160.118 1817.59 158.646C1784.27 158.035 1741.92 168.134 1682.88 159.259C1567.77 155.641 1460.69 147.729 1345.31 144.947C1340.28 144.827 1323.57 147.46 1311.22 146.884C1292.98 146.025 1283.25 144.042 1270.51 143.394C1230.16 141.323 1192.7 140.367 1155.64 139.092L1155.68 139.093C1141.61 139.249 1127.71 139.374 1113.84 139.405C1094 139.461 1101.65 137.782 1077.28 137.887C1053.02 138.01 1038.59 140.276 1005.56 139.671C981.512 139.205 956.747 135.218 924.914 135.322C924.226 139.643 900.955 139.959 862.548 142.045C854.81 142.46 863.149 143.747 859.492 144.02C844.635 145.167 831.175 144.296 817.731 145.532C814.475 145.83 814.344 147.303 811.532 147.636C787.685 150.494 749.657 148.563 742.851 148.266C718.198 147.037 705.287 149.513 686.484 149.519C666.994 149.579 696.364 147.107 673.22 147.69C626.366 148.847 565.799 152.775 518.436 156.695C499.772 158.252 512.67 159.131 510.016 159.398C470.831 163.198 430.821 165.547 409.885 172.212C381.404 165.96 386.206 175.663 330.683 183.393C326.33 184.059 319.71 180.395 336.59 176.578C353.334 172.814 379.001 170.292 402.264 166.162C408.111 165.061 439.196 156.844 443.453 156.163C477.338 150.376 483.332 157.173 484.935 157.374C505.368 159.631 544.759 151.682 554.49 150.686C601.446 145.755 641.5 144.569 681.168 141.586C706.316 139.712 709.253 134.925 729.395 134.243C796.93 132.113 820.163 138.001 883.602 130.808C897.028 129.314 883.886 124.43 932.439 127.496C935.162 127.688 972.46 130.707 992.618 128.116C995.226 127.786 995.121 126.299 998.577 126.127C1021.99 125.003 1037.42 126.011 1062.58 125.203C1088.52 124.392 1117.82 123.341 1147.39 123.718C1150.03 123.751 1152.8 123.84 1155.62 123.969C1155.75 123.969 1156.14 123.975 1156.27 123.981C1171.48 125.416 1188.64 128.234 1195.79 129.114C1219.95 132.092 1244.11 129.909 1259.04 132.917C1273.72 135.926 1244.97 138.315 1283.21 141.489C1284.78 137.686 1288.19 133.859 1290.63 130.072C1374.96 133.823 1457.94 138.694 1542.64 142.267C1553.05 142.702 1542.49 140.154 1553.67 140.568C1601.25 142.343 1642.5 145.666 1691.79 147.287C1729.84 148.529 1771.66 148.214 1811.65 149.475C1835.72 154.996 1895.08 156.199 1937.8 158.57C1952.84 159.401 1951.78 160.536 1962.49 161.415C2002.82 164.702 1984.03 159.922 1995.12 159.818C2042.65 159.388 2046.4 168.421 2102.3 170.809C2105.27 170.938 2141.77 167.924 2146.74 167.864C2178.52 167.438 2151.91 169.75 2171.73 171.03C2207.96 173.372 2233.06 175.685 2275.64 176.325C2288.04 176.504 2317.94 174.984 2341.89 178.408C2345.04 178.857 2343.22 180.331 2345.76 180.544C2391.79 184.275 2393.31 179.445 2419.72 179.058C2446.06 178.667 2486.79 184.033 2494.97 185.408C2516.5 188.982 2478.33 185.677 2477.13 185.867C2463.18 188.138 2492.95 189.075 2515.55 190.429C2518.53 195.384 2550.43 196.656 2539.1 191.819C2537.83 191.289 2520.03 190.867 2515.55 190.429C2535.73 186.695 2570.66 187.8 2608.93 194.102C2626.88 197.058 2609.82 198.617 2664.5 200.453C2689.28 201.29 2679.97 197.514 2701.98 197.711C2752.11 198.158 2816.91 204.528 2868.89 206.715C2887.58 207.499 2869.48 204.755 2882.24 205.229C2916.19 206.486 2946.23 209.406 2980.38 210.501C2983.5 210.599 2975.98 208.307 2986.68 208.844C3067.01 212.85 3137.24 217.833 3221.32 222.549C3262.19 224.833 3334.45 227.914 3376.8 230.648C3387.26 231.318 3397.89 232.052 3408.55 232.825C3474.59 237.586 3547.9 244.056 3601.43 246.922C3641.65 249.083 3633.53 246.669 3650.72 246.5C3684.62 246.196 3743.51 254.777 3751.47 256.063C3751.29 256.065 3717.11 254.117 3735.38 256.372C3745.73 259.132 3751.11 256.047 3751.47 256.063C3757.12 256.871 3826.1 262.406 3840.44 263.249C3847.87 263.643 3843.87 261.522 3847.71 261.76C3941.33 268.377 4035.02 273.747 4129.87 296.629C4131.53 297.085 4128.55 298.399 4132.42 299.447C4165.6 308.459 4191.42 318.305 4215.3 329.589C4230.15 336.559 4244.86 343.394 4260.84 351.343C4301.75 371.639 4333.2 391.516 4353.46 410.856C4382.34 430.381 4420.04 471.212 4425.44 504.502C4427.2 512.392 4427.94 518.685 4428.47 523.697C4429.89 536.864 4432.15 539.461 4432.3 541.344C4437.43 619.631 4432.4 665.242 4425.7 745.382C4424.3 762.397 4422.18 786.86 4421.13 811.951C4419.85 843.726 4418.43 877.128 4417.42 899.99C4415.98 932.687 4413.91 952.308 4412.62 982.43C4412.44 986.494 4414.43 982.504 4414.42 983.746C4414.36 1017.49 4411.13 1001.02 4409.93 1007.92C4405.49 1032.85 4403.01 1048.31 4401.09 1091.34C4400.64 1101.29 4404.5 1130.62 4403.35 1148.72C4401.84 1172.23 4400.4 1163.18 4398.8 1187.83C4398.65 1189.92 4400.05 1189.63 4398.64 1204.78C4394.1 1253.25 4388.57 1304.66 4382.88 1355.75C4380.34 1378.65 4378.1 1401.62 4376.18 1424.28C4375.34 1434.17 4378.57 1421.61 4377.4 1436.02C4371.98 1503.31 4367.41 1577.35 4363.41 1643.2C4362.43 1659.44 4361.38 1649.18 4360.78 1652.68C4357.1 1674.23 4359.88 1705.01 4359.78 1710.05C4357.52 1830.88 4352.78 1923.23 4355.37 2046.39C4355.48 2051.54 4358.31 2083.26 4358.24 2108.19C4358.2 2115.19 4357.98 2121.95 4357.35 2127.36C4357.13 2128.76 4354.32 2151.37 4358.11 2171.49C4358.35 2172.68 4359.37 2158.65 4360.7 2183.01C4362.05 2207.67 4366.32 2247.35 4366.73 2281.6C4366.86 2292.51 4365.08 2318.22 4370.05 2350.34C4370.44 2352.34 4379.98 2401.99 4376.03 2420.11C4375.35 2423.04 4370.61 2420.18 4374.23 2458.82C4374.89 2466.22 4375.68 2452.72 4376.78 2472.25C4378.42 2502.18 4377.09 2541.91 4377.32 2579.06C4377.41 2585.56 4379.07 2613.5 4374.14 2635.3C4373.37 2638.75 4372.51 2631.96 4371 2643.68C4363.51 2698.66 4352.85 2758.17 4324 2810.39C4313.31 2828.5 4316.73 2818.1 4303.96 2835.82C4294.29 2849.01 4274.43 2870.35 4254.75 2883.39C4248.57 2887.66 4243 2891.56 4238.58 2894.8C4221.17 2907.46 4243.37 2898.31 4215.98 2915.99C4097.08 2992.47 3962.76 3044.71 3823.49 3069.11C3802.84 3072.71 3820.24 3071.35 3789.74 3076.32C3708.01 3090.06 3582.45 3097.16 3483.17 3098.8C3445.83 3099.58 3411.88 3099.91 3385.11 3099.7C3307.17 3099.04 3405.17 3094.75 3345.63 3095.14C3316.81 3095.32 3285.93 3100.86 3278.88 3101.17C3211.21 3104.22 3163.97 3103.05 3102.98 3104.98C3090.37 3105.37 3102.77 3107.08 3092.06 3107.4C3055.43 3108.5 3016.94 3108.4 2981.94 3109.28C2966.26 3109.68 2969.16 3111.13 2954.71 3111.31C2920.12 3111.76 2889.62 3111.76 2855.85 3111.07C2852.78 3111.01 2873.38 3108.7 2847.9 3109.17C2806.52 3109.95 2754.99 3109.69 2707.54 3112.24C2693.32 3113.01 2693.07 3116.44 2662.49 3114.82C2656.14 3114.49 2664.15 3110.15 2628.94 3114.62C2625.42 3115.06 2603.22 3117.45 2579.97 3118.91C2563.38 3119.93 2546.47 3120.5 2534.57 3119.61C2526.7 3119.04 2507.16 3116.29 2490.15 3117.41C2487.87 3117.58 2497.09 3119.1 2483.12 3119.77C2433.77 3122.09 2381.74 3124.1 2330.91 3126.97C2317.28 3127.74 2337.63 3128.74 2317.39 3129.82C2261.69 3132.86 2191.71 3135.03 2137.06 3135.59C2116.96 3135.81 2130.82 3133.92 2129.34 3133.79C2117.61 3132.66 2108.54 3133.05 2100.99 3133.8C2093.57 3134.55 2087.98 3135.67 2083.95 3135.85C2035.39 3137.96 1998.17 3136.59 1953.48 3137.49C1941.07 3137.73 1949.89 3139.45 1947.41 3139.64C1921.93 3141.44 1940.93 3138.03 1924.72 3137.82C1879.48 3137.21 1828.99 3137.71 1783.23 3138.27C1766.42 3138.47 1785.33 3140.43 1770.24 3140.59C1680.95 3141.58 1588.18 3142 1501.14 3141.97C1484.66 3141.97 1495.01 3140.23 1491.58 3139.91C1470.73 3137.91 1441.3 3140.88 1429.48 3141.95C1427.89 3142.08 1426.6 3142.19 1425.68 3142.25C1389.63 3144.51 1375.81 3143.47 1343.92 3144.77C1250.51 3148.4 1143.13 3156.5 1039.59 3156.67C972.092 3157.1 906.786 3158.17 848.572 3159.5C656.144 3161.43 511.624 3178.9 321.581 3164.64C319.275 3164.2 317.849 3163.94 316.924 3163.85C312.159 3163.2 319.524 3166.69 309.651 3164C282.703 3157.34 256.766 3130.49 253.381 3101.29C249.838 3064.66 259.625 3043.31 260.032 3017.92C264.894 2937.06 276.473 2857.61 283.395 2777.91C284.31 2767.37 280.927 2782.31 282.29 2765.49C285.094 2730.77 288.038 2687.21 290.104 2652.04C291.105 2635 291.937 2657.87 292.884 2640.8C295.063 2600.49 295.84 2557.73 295.402 2516.13C295.195 2498.73 293.233 2525.02 293.101 2502.34C293 2488.87 292.838 2476.16 292.607 2462.63C290.097 2320.27 285.424 2179.06 281.048 2034.58C280.719 2023.85 284.469 2013.92 282.504 1991.09C281.248 1989.42 279.879 1989.59 278.591 1988.89C268.392 1801.09 256.109 1614.94 236.781 1428.25C232.693 1388.93 228.276 1349.59 223.539 1310.22C222.384 1300.66 222.182 1317.44 219.929 1298.95C206.827 1192.05 191.537 1088.36 176.74 979.155C175.246 968.247 180.029 973.192 174.381 941.437C173.389 935.755 165.135 888.049 162.2 875.67C161.796 874.012 161.431 883.041 158.826 867.621C143.725 778.058 127.454 683.86 112.358 594.271C109.908 579.692 114.626 594.799 112.907 584.467C108.146 555.87 102.796 526.317 97.5272 496.878C89.2875 450.747 81.1591 404.593 75.6095 361.555C69.7486 314.062 75.698 331.16 75.7796 305.568C75.6429 301.938 73.038 272.348 75.159 270.667C79.7958 266.597 85.9197 280.339 90.7461 274.243C91.3363 273.13 89.9734 234.771 92.7686 257.56C92.6704 259.191 95.0718 286.257 96.9752 293.126C98.1054 297.746 99.1345 289.027 101.001 298.613C102.897 308.136 102.629 319.12 105.898 335.153C109.253 351.248 110.281 343.673 115.689 376.171ZM4425.42 634.567C4422.6 660.709 4429.28 664.897 4428.72 636.412C4428.67 635.029 4425.55 633.21 4425.42 634.567ZM1457.35 143.879C1491.16 148.397 1514.7 144.969 1490.76 141.57C1467.03 138.184 1446.91 142.501 1457.35 143.879ZM1103.12 133.436C1142.74 135.58 1149.1 125.797 1106.48 128.022C1104.03 128.15 1100.82 133.313 1103.12 133.436ZM94.2616 421.242C94.3074 421.02 90.8959 400.081 90.7216 399.515C86.7081 388.742 93.5109 430.566 94.2616 421.242ZM751.813 142.904C764.905 143.715 799.847 141.042 784.568 139.906C772.594 138.958 736.022 141.85 751.813 142.904ZM4337.3 1993.5C4337.19 1993.9 4337.15 2009.01 4337.73 2008.72C4339.58 2007.66 4339.01 1986.67 4337.3 1993.5ZM163.55 228.789C185.801 219.55 206.423 212.751 222.437 208.501C222.441 208.5 222.451 208.496 222.455 208.495C261.499 199.001 273.215 199.341 224.188 214.136L224.303 214.099C219.628 215.669 214.431 217.376 208.693 219.329C198.155 222.952 215.491 215.67 223.627 212.071L223.56 212.092C227.725 210.315 229.361 209.35 223.213 210.961L223.253 210.949C222.896 211.052 222.513 211.164 222.103 211.286C183.195 222.775 160.666 238.473 121.761 252.552C114.723 255.053 158.735 230.566 163.692 228.718C163.644 228.742 163.597 228.766 163.55 228.789ZM4416.61 649.329C4416.53 649.856 4415.43 670.778 4415.47 671.281C4417.09 682.76 4419.34 640.511 4416.61 649.329ZM4264.67 2852.99C4264.2 2853.31 4255.09 2861.75 4244.76 2868.53C4234.32 2875.5 4224.06 2882.14 4223.46 2882.63C4213.7 2891.07 4230.24 2881.76 4246.37 2870.93C4261.69 2860.8 4273.34 2846.99 4264.67 2852.99ZM3218.05 241.314C3195.41 242.252 3167.33 240.965 3149.74 237.242C3171.89 238.598 3195.59 239.926 3218.05 241.314Z" fill="black"/>
<path d="M223.72 2793.94C227.463 2801.71 234.104 2813.39 239.298 2822.25C240.966 2825.08 239.244 2824.19 240.359 2826.15C242.577 2830.01 245.266 2833.02 247.534 2836.89C248.248 2838.13 246.019 2837.55 246.8 2838.84C251.19 2845.98 256.292 2852.12 261.276 2859.08C267.118 2867.24 273.117 2875.29 279.233 2883.28C298.55 2908.43 319.763 2932.57 341.591 2956.85C351.066 2967.37 361.958 2980.83 372.514 2990.98C373.746 2992.17 373.972 2990.54 374.273 2990.7C378.977 2993.25 375.927 2993.83 377.993 2996.47C386.183 3006.94 396.377 3017.56 405.67 3026.28C409.628 3029.98 407.636 3024.32 410.444 3029.21C410.641 3029.55 408.701 3029.53 409.641 3030.69C411.774 3033.32 416.454 3037.68 418.218 3039.61C421.61 3043.32 422.218 3043.91 425.57 3047.28C430.147 3051.91 435.16 3057.85 440.342 3062.54C441.449 3063.53 441.037 3061.15 442.89 3062.65C444.759 3064.16 449.151 3068.65 450.431 3070.37C451.719 3072.1 450.299 3072.25 450.39 3072.69C451.109 3076.39 458.371 3079.35 459.101 3079.96C468.688 3088.03 476.279 3096.27 484.218 3104.42C487.168 3107.45 490.05 3110.35 493.217 3113.33C502.062 3121.65 511.985 3130.04 520.507 3137.82C530.637 3147.08 538.918 3155.37 549.15 3163.95C550.222 3164.84 550.049 3162.53 551.356 3163.62C565.375 3175.29 579.321 3186.93 593.037 3198.67C594.438 3199.87 591.667 3199.6 593.024 3200.87C601.031 3208.47 614.463 3221.16 622.899 3218.29C623.717 3218.76 624.599 3219.24 625.319 3219.6C625.634 3219.76 625.906 3219.88 626.125 3219.98C626.334 3220.08 626.573 3220.18 626.637 3220.21C626.709 3220.25 626.688 3220.23 626.18 3220.22C625.877 3220.21 625.4 3220.22 624.72 3220.39C623.909 3220.57 622.658 3221.1 621.663 3222.09C620.642 3223.05 620.031 3224.46 619.889 3225.13C619.709 3225.85 619.713 3226.38 619.73 3226.66C619.773 3227.14 619.839 3227.17 619.835 3227.07C619.83 3226.84 619.685 3226.25 619.474 3225.6C618.626 3223 617.289 3219.89 616.359 3217.17C614.926 3213.07 618.377 3215.83 615.103 3211.63C614.343 3210.65 613.95 3212.68 612.943 3211.24C608.613 3205.05 604.51 3197.66 599.9 3191.63C598.967 3190.41 598.134 3191.42 597.714 3191.17C594.195 3188.95 593.489 3182.19 592.991 3180.98C588.98 3171.5 584.515 3165.51 579.565 3157.4C578.435 3155.54 578.366 3158.6 577.223 3156.84C571.265 3147.6 565.476 3137.79 560.564 3128.16C559.49 3126.05 561.827 3127.19 561.375 3126.14C560.184 3123.39 558.675 3122.38 557.225 3121.09C556.252 3120.23 555.307 3119.24 554.505 3117.43C554.086 3116.49 555.423 3116.37 555.443 3116.14C555.756 3112.57 551.887 3111.85 551.469 3111.27C545.899 3103.6 545.473 3096.75 540.518 3089.13C539.919 3088.21 539.836 3091.12 538.232 3088.49C527.509 3070.92 517.152 3052.03 508.165 3033.77C506.768 3030.93 508.885 3032.32 508.909 3032.07C509.252 3028.19 505.631 3027.84 505.026 3027C500.3 3020.32 498.762 3012.54 492.963 3009.48C477.146 2979 458.742 2950.15 445.015 2918.85C444.837 2918.45 446.496 2918.42 446.135 2917.63C441.819 2908.14 440.796 2911 435.022 2906.32C433.568 2905.14 433.98 2898.93 433.962 2898.38C433.932 2896.45 436.697 2896.94 436.575 2896.36C435.504 2891.56 429.555 2895.71 426.501 2890.18C426.416 2890 427.979 2890.08 427.839 2889.56C427.398 2887.9 426.138 2886.71 425.755 2885.07C424.883 2881.29 427.353 2878.51 422.809 2874.48C422.232 2873.99 419.167 2876.91 416.611 2871.86C415.62 2869.89 410.693 2861.06 409.609 2858.53C408.481 2855.92 410.572 2856.99 410.525 2856.79C408.406 2849.3 410.426 2851.48 410.882 2846.94C411.341 2842.42 406.442 2846.25 405.102 2845.22C403.752 2844.18 402.368 2838.65 402.168 2837.24C401.953 2835.8 403.508 2836.9 403.17 2835.69C400.925 2827.72 398.801 2834.05 396.68 2832.19C391.712 2827.9 393.346 2821.39 391.022 2816.19C390.384 2814.76 390.08 2816.37 389.335 2815.21C386.429 2810.64 386.077 2807.01 382.018 2802.26C381.382 2801.53 376.517 2798.3 376.784 2794.57C376.824 2794.05 378.343 2794.59 377.636 2792.67C377.615 2792.61 377.593 2792.56 377.568 2792.5C376.199 2789.16 373.524 2783.69 371.39 2780.53C369.852 2778.26 369.68 2781.88 368.579 2778.61C368.09 2777.16 370.398 2779.14 369.369 2776.39C368.325 2773.62 364.827 2767.2 363.485 2764.77C362.163 2762.38 361.62 2764.37 361.431 2764.22C360.279 2763.23 357.16 2758.83 356.961 2758.45C345.63 2737.31 337.195 2717.12 326.873 2695.92C326.118 2694.24 325.198 2695.93 325.069 2695.68C322.146 2689.53 327.462 2693.1 327.696 2688.56C327.022 2688.8 326.516 2688.87 326.118 2688.66C325.92 2688.55 325.752 2688.42 325.626 2688.14C325.563 2687.99 325.514 2687.81 325.49 2687.61C325.466 2687.4 325.483 2687.06 325.583 2686.72C325.74 2686.11 326.13 2685.24 327.162 2684.66C328.156 2684.05 329.647 2684.23 330.331 2684.51C330.978 2684.74 331.622 2685.11 332.248 2685.56C332.708 2685.88 333.202 2686.26 333.757 2686.73C335.574 2688.31 335.468 2686.55 335.722 2686.63C339.545 2688.11 338.967 2691.25 339.037 2692.08C338.906 2694.73 341.992 2695.49 341.853 2697.28C341.716 2699.07 338.48 2697.45 340.893 2700.83C342.478 2701.2 342.948 2696.92 345.229 2699.39C353.663 2708.39 363.742 2728.86 368.609 2737.24C373.488 2745.63 375.36 2748.34 377.877 2753.23C382.614 2762.42 382.425 2758.05 386.523 2762.96C390.66 2767.95 384.622 2767.97 384.145 2769.33C383.672 2770.7 385.149 2770.93 385.188 2772.18C385.229 2773.44 383.358 2771.8 384.49 2774.12C385.597 2776.4 391.094 2781.7 392.512 2781.8C395.625 2782.19 396.181 2778.09 398.958 2784.47C399.117 2784.84 397.282 2784.43 397.953 2785.82C403.298 2796.74 409.703 2807.54 415.143 2818.38C415.883 2819.86 413.824 2819.38 414.24 2820.25C418.598 2829.37 419 2825.09 424.224 2828.26C420.364 2829.17 419.908 2832.89 423.877 2839.52C426.287 2843.55 427.234 2841.92 429.764 2843.87C430.52 2844.44 431.228 2847.8 432.199 2847.91C435.381 2848.28 436.199 2844.15 439.359 2851.56C439.49 2851.88 437.742 2851.67 438.278 2852.72C441.753 2859.52 444.528 2858.99 449.148 2865.98C452.701 2871.36 457.426 2882.23 461.057 2888.68C457.335 2890.74 461.91 2896.36 465.849 2897.19C468.246 2901.34 471.124 2905.72 473.257 2909.96C473.97 2911.39 472.377 2911.14 472.369 2911.38C472.203 2915.09 475.727 2915.39 476.367 2916.21C483.255 2925.34 486.202 2934.21 493.73 2942.34C493.996 2942.62 496.822 2941.58 496.508 2945.16C496.48 2945.39 493.467 2943.09 496.048 2947.44C498.634 2951.79 502.384 2960.8 507.263 2966.01C508.431 2967.27 512.659 2969.62 513.038 2973.49L512.964 2973.37C512.971 2973.43 512.977 2973.48 512.982 2973.53C513.033 2974.05 512.05 2974.11 512.037 2974.93C512.014 2977.55 515.136 2976.84 514.481 2980.35C513.825 2983.87 515.261 2989.3 520.767 2994.14C520.938 2994.3 523.839 2994.33 525.091 2996.18C527.083 2999.13 529.607 3003.57 531.772 3006.6C532.809 3008.05 533.346 3006.27 533.547 3006.51C541.161 3015.81 545.083 3023.5 552.2 3034.22C553.501 3036.19 559.119 3040.47 560.55 3045.07C562.132 3050.12 553.285 3050.29 561.535 3058.52C564.882 3061.86 575.707 3061.09 576.947 3070.58C587.662 3082.82 594.832 3096.13 606.176 3107.94C606.685 3108.47 610.113 3108.71 611.133 3110.07C612.673 3112.13 612.6 3113.96 613.659 3115.44C618.096 3121.66 623.219 3126.48 627.686 3132.33C629.383 3134.55 627.805 3134.55 629.827 3137.18C631.889 3139.86 634.475 3140.49 636.737 3144.55C638.394 3147.55 637.992 3152.33 640.514 3156.04C643.156 3154.11 645.087 3156.6 649.236 3160.3C650.042 3161.03 650.198 3159.42 650.625 3159.72C652.387 3160.95 652.813 3162.96 654.557 3164.07C654.978 3164.34 655.855 3163.65 656.247 3163.83C659.591 3165.31 661.104 3171.08 661.346 3172.06C662.324 3175.85 664.524 3176.22 665.748 3178.71C667.011 3181.25 663.746 3178.61 665.498 3181.33C666.976 3183.63 668.875 3186.16 670.783 3188.56C673.575 3192.06 676.443 3195.37 679.004 3198.42C680.714 3200.43 680.673 3198.09 680.944 3198.36C684.82 3202.31 687.329 3207.58 691.569 3207.87C688.41 3215.83 694.288 3209.88 698.549 3216.65C698.873 3217.17 696.823 3220.28 694.76 3218.89C692.718 3217.51 691.048 3214.01 688.235 3212.11C687.537 3211.63 682.016 3210.52 681.43 3210.16C677.039 3207.58 680.701 3203.5 680.763 3203.12C681.265 3198.78 674.956 3197.03 673.832 3196.09C671.669 3194.28 669.995 3192.53 668.313 3190.64C666.008 3188.06 663.907 3185.45 661.429 3183.24C658.681 3180.78 655.761 3182.83 653.99 3180.52C648.214 3172.99 649.981 3167.32 640.991 3163.12C639.079 3162.22 637.264 3166.15 635.296 3158.89C635.194 3158.46 634.103 3152.68 630.919 3151.55C630.515 3151.4 629.641 3152.12 629.261 3151.8C626.719 3149.63 626.068 3147.39 623.501 3144.88C620.906 3142.33 617.766 3139.44 615.525 3136C614.192 3133.96 613.876 3130.17 613.55 3128.92C612.689 3125.44 608.548 3124.13 608.704 3121.42C608.857 3118.68 613.503 3120.14 611.089 3115.18C608.652 3116.84 605.992 3118.34 603.464 3119.91C596.205 3110.5 589.79 3100.68 582.436 3091.29C581.519 3090.13 581.186 3092.29 580.169 3091.07C575.915 3085.92 573.278 3080.59 568.729 3075.31C565.225 3071.25 560.345 3067.54 556.644 3063.28C557.293 3058.52 551.411 3052.51 548.076 3047.44C546.905 3045.67 547.709 3045.24 547.058 3043.86C544.582 3038.64 543.751 3042.54 542.452 3041.56C536.878 3037.31 542.005 3032.91 537.251 3026.61C537.003 3026.28 531.108 3024.23 530.515 3023.78C526.719 3020.99 531.096 3022.45 529.685 3020.02C527.114 3015.59 525.751 3012.2 521.439 3007.91C520.176 3006.66 515.931 3004.52 515.403 3000.74C515.332 3000.24 516.446 2999.76 516.297 2999.43C513.521 2993.43 510.373 2995.42 507.212 2993.08C504.048 2990.73 502.917 2984.53 502.869 2983.14C502.725 2979.53 504.87 2984.62 505.12 2984.64C507.899 2984.96 505.67 2982.11 504.026 2979.47C503.996 2979.43 503.902 2979.29 503.873 2979.24C503.778 2979.07 503.685 2978.91 503.596 2978.75C506.442 2976.41 503.871 2972.72 501.978 2975.83C501.774 2976.17 503.393 2978.11 503.596 2978.75C499.054 2978.26 496.039 2974.31 496.023 2967.96C496.013 2964.98 498.85 2966.07 494.201 2959.89C492.081 2957.06 490.664 2959.54 488.445 2957.28C483.394 2952.13 480.557 2943.1 476.42 2937.12C474.925 2934.95 475.098 2937.85 474.037 2936.4C471.242 2932.59 469.858 2928.38 466.893 2924.57C466.622 2924.23 465.951 2925.89 465.153 2924.63C459.134 2915.17 454.736 2906.22 448.57 2896.07C445.615 2891.21 439.606 2882.87 436.683 2877.75C431.602 2868.86 426.864 2856.98 421.89 2849.73C418.681 2845.04 418.112 2846.89 415.983 2845.26C411.859 2842.11 410.543 2833.31 410.401 2832.05C410.423 2832.05 413.198 2836 412.502 2833.41C413.056 2831.34 410.435 2832.09 410.401 2832.05C410.29 2831.21 405.495 2822.6 404.29 2821.13C403.624 2820.31 402.753 2821.52 402.429 2821.08C394.553 2810.36 387.539 2799.34 381.242 2787.64C381.148 2787.43 382.636 2786.93 382.397 2786.45C378.923 2779.36 374.887 2776.28 370.6 2771.33C366.465 2766.63 364.03 2761.9 364.407 2757.47C361.574 2753.45 359.104 2747.18 357.562 2743.33C356.1 2739.61 353.311 2740.76 353.08 2740.5C345.757 2732.26 343.915 2726.07 338.09 2716.66C335.386 2712.26 329.099 2703.75 325.746 2700.24C325.455 2699.93 325.2 2699.65 324.975 2699.4C324.695 2699.08 324.455 2698.81 324.249 2698.57C323.839 2698.1 323.558 2697.75 323.335 2697.49C323.245 2697.38 323.212 2697.33 323.267 2697.35C323.308 2697.36 323.542 2697.55 324.195 2697.88C324.361 2697.96 324.556 2698.05 324.788 2698.14C324.904 2698.19 325.029 2698.24 325.166 2698.29C325.234 2698.31 325.304 2698.34 325.378 2698.36C325.461 2698.39 325.602 2698.44 325.724 2698.47C326.729 2698.77 328.275 2699.08 330.288 2698.8C334.613 2698.44 338.43 2694.12 338.962 2692.22C339.37 2691.24 339.576 2690.38 339.69 2689.67C339.781 2689.12 339.815 2688.67 339.829 2688.29C339.841 2687.88 339.837 2687.71 339.832 2687.5C339.827 2687.3 339.816 2687.12 339.812 2687.02C339.795 2686.52 341.18 2686.8 341.207 2686.64C341.255 2686.33 341.315 2686.26 341.373 2686.23C341.431 2686.2 341.486 2686.23 341.531 2686.27C341.623 2686.36 341.672 2686.51 341.668 2686.64C341.664 2686.91 341.458 2687.14 341.148 2687.29C340.538 2687.62 339.562 2687.73 339.408 2688.15C338.428 2691.5 338.305 2694.04 341.686 2698.89C342.446 2699.98 348.412 2701.6 349.727 2703.63C351.498 2706.41 349.419 2705.99 351.328 2708.89C351.49 2709.13 352.365 2708.58 353.287 2710.5C357.521 2719.29 361.946 2729.04 366.856 2738.12C367.51 2739.33 368.131 2737.01 369.094 2738.74C373.688 2747.01 378.54 2756.22 382.248 2764.74C383.152 2766.83 381.469 2766.12 381.403 2766.72C381.061 2770.43 385.697 2772.73 386.092 2773.34C388.64 2777.26 390.639 2780.78 392.625 2784.56C397.86 2794.54 401.737 2804.2 408.631 2814.88C409.149 2815.67 415.441 2820.52 414.57 2824.66C414.508 2824.93 413.606 2829.14 416.636 2830.68C416.825 2830.77 417.147 2828.34 418.673 2831.44C420.199 2834.54 423.765 2839.04 424.65 2843.97C424.931 2845.53 424.227 2850.08 428.335 2852.92C428.603 2853.08 436.426 2856.82 434.549 2860.65C434.241 2861.28 430.794 2862.67 435.053 2866.49C435.873 2867.22 435.689 2865.18 437.454 2867.32C440.172 2870.61 441.926 2875.85 445.861 2879.58C446.543 2880.21 450.56 2882.3 450.37 2885.89C450.34 2886.46 448.822 2886.26 449.481 2887.73C452.599 2894.75 457.201 2901.36 460.21 2908.55C461.283 2911.1 458.857 2910.84 459.785 2913.61C460.707 2916.37 463.056 2921.66 465.315 2923.85C467.571 2926.04 468.756 2921.63 471.157 2925.43C481.613 2941.96 489.428 2959.76 498.746 2976.89C500.127 2979.43 499.939 2976.77 502.051 2980.48C509.824 2994.14 524.118 3017.22 528.782 3030.24C532.493 3040.64 524.423 3029.48 527.874 3037.11C529.561 3040.82 534.92 3042.74 535.5 3043.52C541.259 3051.19 543.145 3057.74 547.824 3064.83C548.806 3066.32 549.227 3064.06 550.048 3065.34C552.866 3069.69 554.953 3074.61 557.548 3078.82C558.702 3080.69 559.486 3079.76 560.42 3081.54C562.694 3085.82 564.432 3089.74 565.899 3094.35C566.036 3094.77 563.325 3092.97 565.113 3096.11C567.665 3100.59 570.169 3106.49 573.706 3111.26C574.148 3111.86 574.604 3112.45 575.077 3113.01C576.379 3114.55 578.671 3113.3 579.276 3117.81C579.407 3118.76 576.122 3119.39 581.022 3122.28C581.83 3122.75 589.269 3128 589.341 3132.64C589.336 3133.83 588.635 3137.62 590.201 3139.4C590.422 3139.64 590.953 3137.82 592.086 3139.41C596.109 3145.11 599.76 3151.32 603.912 3157.18C605.012 3158.73 604.763 3155.58 606.356 3157.89C610.789 3164.34 615.636 3172.78 619.314 3179.52C620.631 3181.95 618.601 3180.97 618.597 3181.21C618.598 3185.23 621.993 3185.24 622.754 3186.14C627.231 3191.44 628.841 3196.58 632.501 3202C633.505 3203.5 634.03 3201.7 634.318 3201.95C637.228 3204.53 633.716 3203.41 634.687 3205.62C636.051 3208.77 637.653 3211.84 639.505 3215.99C639.936 3216.98 640.484 3218.29 640.95 3219.68C641.424 3221.57 642.363 3222.65 642.092 3228.32C641.886 3229.94 641.725 3231.4 640.382 3234.16C639.142 3236.67 636.78 3239.18 634.339 3240.57C628.854 3243.46 626.354 3242.77 624.294 3242.75C620.833 3242.38 619.449 3241.75 618.017 3241.28C614.791 3240.03 617.19 3242.41 615.383 3241.96C615.207 3241.92 614.986 3241.84 614.709 3241.72C600.114 3234.66 590.523 3226.88 580.662 3218.62C578.847 3217.05 580.786 3216.98 580.555 3216.45C579.054 3212.89 573.507 3211.99 572.447 3211.49C567.645 3209.23 566.728 3207.13 563.04 3204.45C544.986 3191.4 524.703 3173.02 509.483 3158.77C494.486 3144.76 482.578 3132.62 469.499 3119.84C465.317 3115.75 460.972 3111.56 456.374 3107.22C455.177 3106.09 455.236 3108.41 454.198 3107.46C440.836 3095.09 428.448 3082.04 415.186 3069.51C414.099 3068.48 414.542 3071.1 412.759 3069.47C409.087 3066.15 404.736 3061.68 401.562 3057.79C400.015 3055.9 403.254 3057.28 401.677 3055.4C398.007 3051 393.787 3046.59 389.499 3042.59C387.672 3040.89 389.188 3044.68 386.901 3042.38C371.302 3026.76 356.019 3011.37 342.132 2993.75C341.183 2992.55 342.596 2989.38 339.907 2987.43C339.092 2987.86 338.339 2988.59 337.574 2989.16C315.138 2966.11 294.401 2941.9 273.447 2917.09C272.556 2916.03 272.817 2918.96 271.075 2916.91C266.546 2911.55 261.961 2906.19 257.634 2900.75C252.474 2894.26 247.557 2887.64 243.06 2880.39C242.223 2879.05 245.044 2877.82 241.908 2874.51C241.373 2873.96 236.823 2868.69 235.227 2867.65C235.001 2867.51 234.661 2869.37 233.264 2867.6C225.298 2857.41 217.436 2846.07 210.903 2834.51C209.861 2832.65 212.337 2833.74 211.614 2832.42C206.456 2822.94 199.287 2813.26 196.362 2802.03C194.603 2794.39 198.027 2796.26 199.46 2791.82C199.62 2791.22 198.941 2786.57 200.456 2786.21C204.09 2785.4 208.304 2786.76 212.145 2785.6C212.901 2785.36 211.906 2781.6 214.002 2783.78C214.105 2783.92 215.045 2786.5 215.903 2787.04C216.465 2787.4 217.772 2786.32 218.558 2787.08C219.34 2787.78 218.387 2789.16 219.618 2790.58C220.898 2792.01 222.149 2790.65 223.72 2793.94ZM350.872 2726.6C350.146 2722.78 345.448 2725.14 348.584 2727.76C348.742 2727.89 350.913 2726.8 350.872 2726.6ZM592.975 3098.3C591.869 3093.09 587.171 3092.55 587.827 3096.33C588.498 3100.12 593.313 3099.88 592.975 3098.3ZM625.042 3136.38C622.962 3130.86 616.596 3134.78 621.536 3138.56C621.82 3138.78 625.163 3136.7 625.042 3136.38ZM206.313 2807.91C206.339 2807.82 205.083 2805.04 204.992 2804.99C202.767 2804.18 205.331 2809.87 206.313 2807.91ZM657.592 3173.52C657.245 3171.52 653.149 3168.38 653.562 3170.84C653.895 3172.82 658.021 3175.99 657.592 3173.52ZM393.192 2814.83C393.15 2814.92 394.118 2816.84 394.485 2816.59C395.66 2815.78 393.879 2813.35 393.192 2814.83ZM717.499 3232.84C713.207 3233.02 710.933 3230.52 709.384 3228.84C707.85 3227.01 707.146 3225.36 706.969 3224.23C706.656 3221.87 708.678 3222.38 713.256 3225.87C714.099 3226.43 712.93 3226.35 711.697 3226.16C710.484 3225.99 709.206 3225.76 710.256 3226.88C712.118 3228.86 714.801 3229.41 716.423 3228.89C717.981 3228.32 718.446 3227.45 720.984 3225.96C721.406 3225.69 721.481 3227.41 720.855 3229.27C720.359 3231.21 718.008 3232.91 717.47 3232.85C717.48 3232.85 717.489 3232.84 717.499 3232.84ZM355.074 2721.48C355.086 2721.37 353.636 2718.96 353.501 2718.88C351.258 2718.44 354.272 2723.44 355.074 2721.48ZM450.085 2925.03C450.033 2925.24 453.23 2931.28 453.459 2931.42C457.565 2933.21 451.108 2921 450.085 2925.03ZM461.021 2888.84C464.119 2890.71 466.332 2893.95 465.843 2897.18C464.313 2894.46 462.601 2891.63 461.021 2888.84Z" fill="black"/>
<path d="M295.492 102.648C291.21 113.889 284.18 127.193 278.45 137.114C276.636 140.259 276.608 138.25 275.358 140.315C272.874 144.422 271.242 148.6 268.649 152.672C267.778 154.033 267.396 151.578 266.512 153.021C261.828 160.634 258.112 168.465 253.556 176.315C230.958 215.198 208.768 253.299 185.546 292.166C177.853 305.04 167.562 320.039 160.251 333.625C159.397 335.214 161.053 334.941 160.971 335.291C159.637 340.77 158.302 337.903 156.203 340.785C156.189 340.805 156.174 340.825 156.16 340.845C147.889 352.217 139.696 365.396 132.967 377.037C130.1 381.998 135.325 378.512 131.037 382.612C130.742 382.897 130.358 380.942 129.398 382.185C127.223 385.014 123.777 390.863 122.208 393.098C119.142 397.46 118.665 398.221 115.926 402.404C112.137 408.164 107.085 414.597 103.257 420.901C102.449 422.241 104.764 421.299 103.581 423.503C102.389 425.725 98.5616 431.214 97.0576 432.849C95.5454 434.499 95.1497 433.112 94.7205 433.296C91.0904 434.863 89.2887 442.775 88.7618 443.674C79.6146 459.303 69.4328 470.983 59.7687 484.815C52.42 495.346 45.0034 506.852 38.12 516.773C34.6233 521.82 31.1832 526.625 28.1213 531.208C26.7116 533.31 25.0458 535.928 24.0816 537.788C23.7939 538.349 23.6228 538.739 23.5547 538.904C23.5177 538.981 23.565 538.902 23.6095 538.423C23.6074 538.331 23.7298 537.497 23.3677 536.289C23.0656 535.084 21.7877 533.225 20.1713 532.447C18.5674 531.626 17.2908 531.694 16.6457 531.762C16.2571 531.812 16.2186 531.833 16.0907 531.861C15.9824 531.887 15.8992 531.913 15.8356 531.934C15.5803 532.022 15.6446 532.02 15.7851 531.95C16.0004 531.85 16.4424 531.603 17.0239 531.224C18.4586 530.291 19.9332 529.268 21.4523 528.144C22.6047 527.288 20.2743 526.95 21.6725 525.898C36.2068 514.768 49.4975 501.483 63.1114 488.213C64.4899 486.86 63.8935 489.679 65.3388 488.379C73.9941 480.665 88.3404 468.002 87.7208 458.718C92.9749 452.677 99.0636 445.415 104.52 440.478C107.953 437.397 106.49 441.86 109.388 437.017C110.044 435.922 107.942 436.383 109.008 434.803C113.547 428.088 119.127 421.461 123.362 414.592C124.221 413.192 122.955 412.816 123.05 412.316C123.871 408.195 130.074 404.821 131.084 403.812C138.7 396.185 142.767 389.484 148.558 381.486C149.906 379.624 146.97 380.862 148.218 379.035C154.738 369.528 161.71 359.915 168.768 351.131C170.341 349.179 170.182 351.877 170.993 350.985C174.557 347.04 173.041 344.533 176.406 340.716C177.112 339.91 177.765 341.096 177.986 341.012C181.441 339.711 180.518 335.843 180.91 335.163C185.831 326.504 191.974 323.052 197.048 314.908C197.652 313.932 194.922 315.192 196.697 312.502C208.508 294.581 221.653 276.047 234.664 259.17C236.68 256.552 236.305 259.147 236.54 259.056C240.283 257.514 239.048 254.044 239.574 253.076C243.745 245.54 250.226 240.49 250.613 233.658C271.967 204.735 290.853 173.861 314.774 147.051C315.081 146.702 315.76 148.243 316.366 147.544C321.134 142.071 321.405 140.435 321.643 137.82C321.801 136.402 321.946 134.725 322.704 132.144C323.27 130.248 329.246 127.966 329.722 127.75C331.557 126.845 332.137 129.679 332.649 129.299C336.803 126.139 330.603 122.371 334.579 117.168C334.713 117.014 335.248 118.499 335.685 118.146C337.036 117.062 337.736 115.279 339.13 114.21C342.38 111.706 345.844 112.947 347.96 106.838C348.201 106.089 344.295 104.455 348.013 99.9316C349.556 98.0528 355.834 89.7786 357.911 87.5227C359.911 85.3632 359.726 87.7623 359.9 87.631C366.02 82.5555 364.883 85.2116 369.326 83.6857C373.768 82.1476 368.201 79.3192 368.682 77.58C369.207 75.7863 373.79 72.2286 375.116 71.3392C376.405 70.4967 375.953 72.4432 376.969 71.5976C383.591 66.1042 376.77 66.898 377.757 64.0481C379.996 57.4337 386.656 56.3137 390.755 51.8426C391.832 50.6741 390.195 51.0738 391.025 49.8682C394.316 45.1179 397.538 43.344 400.601 37.4719C401.147 36.4557 402.293 30.6991 406.052 29.3074C406.577 29.1278 406.602 30.8725 408.312 29.2079C410.929 26.6415 415.387 21.7692 417.765 18.617C419.532 16.2843 415.864 17.481 418.835 15.1644C420.198 14.1215 418.845 17.0926 421.275 15.1573C422.487 14.2 424.55 12.3275 426.637 10.5989C428.687 8.86941 430.785 7.16892 432.025 6.27382C434.536 4.51044 432.41 4.26374 432.548 4.0449C433.17 3.41167 434.31 1.93664 437.438 1.0929C438.232 0.920346 439.342 0.839942 440.527 1.19884C441.724 1.54352 442.78 2.36643 443.368 3.0856C444.53 4.55498 444.629 5.37628 444.733 5.62164C445.539 9.25252 444.966 11.2159 444.639 13.4899C438.683 37.0439 427.329 54.84 419.125 75.8848C418.381 77.7024 420.278 77.1167 420.178 77.4003C418.105 83.5714 416.582 77.2492 413.476 80.9264C416.496 81.6001 414.945 83.7213 413.306 88.1508C412.535 90.2464 414.108 89.6197 414.132 89.8575C414.423 93.536 411.342 94.7399 410.663 95.0942C408.196 96.3296 409.078 99.324 407.393 100.22C405.722 101.107 405.606 97.27 403.772 101.322C404.251 102.881 408.175 101.132 407.215 104.326C403.516 116.579 391.482 137.099 386.928 146.219C383.169 153.767 381.776 156.94 379.728 160.882C379.28 161.74 378.804 162.622 378.267 163.586C373.04 172.966 376.605 170.354 374.646 176.73C372.642 183.191 369.358 178.036 367.94 178.427C366.527 178.809 367.107 180.255 366.065 181.021C365.018 181.798 365.407 179.221 364.034 181.57C362.678 183.887 361.165 191.659 361.831 192.964C363.175 195.872 366.972 193.928 363.02 200.091C362.791 200.446 362.15 198.63 361.332 200.021C354.92 211.007 349.104 222.972 342.791 233.943C341.914 235.464 341.229 233.396 340.703 234.274C335.222 243.414 339.189 241.065 339.215 247.537C336.392 244.699 332.876 246.674 329.393 253.822C327.28 258.154 329.124 258.129 328.803 261.457C328.702 262.469 326.204 265.029 326.632 265.922C328.023 268.861 331.986 267.196 327.351 274.16C327.143 274.464 326.402 272.814 325.776 273.91C321.721 280.999 323.713 282.967 320.139 291.039C317.372 297.297 310.546 307.595 306.866 314.511C303.123 312.506 300.752 319.557 302.058 323.539C299.711 328.052 297.442 333.047 294.913 337.272C294.043 338.728 293.431 337.189 293.218 337.321C289.906 339.333 291.482 342.577 291.099 343.608C286.825 354.741 280.599 362.467 277.451 373.564C277.34 373.959 279.692 375.854 276.416 377.613C276.196 377.723 276.659 373.772 274.195 378.503C271.734 383.227 265.835 391.538 263.75 398.772C263.243 400.526 263.356 405.657 260.06 408.066C259.617 408.385 259.097 407.533 258.364 407.947C256.017 409.287 258.12 411.744 254.665 412.987C251.202 414.246 247.057 418.286 245.243 425.777C245.182 426.012 246.496 428.656 245.408 430.732C243.68 434.027 240.823 438.595 239.075 442.086C238.238 443.76 240.088 443.353 239.965 443.655C235.011 455.266 229.765 462.704 223.128 474.436C221.885 476.63 220.461 483.794 216.838 487.376C212.881 491.275 208.957 483.185 204.955 494.67C203.298 499.364 208.605 508.981 200.327 514.606C194.803 527.221 187.564 537.938 181.507 549.867C180.02 552.79 178.629 555.727 177.375 558.718C177.099 559.383 178.147 562.797 177.251 564.368C175.914 566.704 174.172 567.403 173.203 569.009C168.991 575.941 166.368 582.763 162.429 589.431C160.933 591.965 160.36 590.477 158.602 593.437C156.807 596.457 157.057 599.297 154.028 602.983C151.686 605.848 147.084 607.171 144.326 611.101C147.059 612.903 145.352 615.692 143.133 621.087C142.715 622.113 144.295 621.69 144.147 622.205C143.566 624.319 141.688 625.607 141.199 627.648C141.076 628.146 142.019 628.745 141.973 629.184C141.569 633.028 136.481 636.49 135.566 637.128C132.188 639.417 132.485 641.671 130.401 643.744C128.336 645.778 129.902 641.784 127.807 644.342C123.396 649.757 118.713 657.236 114.715 663.028C113.115 665.36 115.432 664.603 115.231 664.956C112.282 669.967 107.636 673.818 108.175 678.183C99.6017 676.97 106.769 681.471 100.63 687.284C100.143 687.738 96.7206 686.267 97.7737 683.922C98.8041 681.608 101.951 679.2 103.286 675.894C103.602 675.121 103.529 669.326 103.718 668.691C105.252 663.682 110.108 666.175 110.513 666.117C114.866 665.478 115.046 658.654 115.685 657.231C118.549 650.845 122.345 646.377 124.758 641.031C126.304 637.587 123.539 635.301 125.159 632.912C130.632 624.78 136.688 624.345 137.738 614.193C137.96 612.017 133.664 611.669 139.863 607.159C140.263 606.862 145.348 603.706 145.348 600.167C145.349 599.72 144.363 599.164 144.536 598.673C145.748 595.342 147.573 593.976 149.072 590.472C150.521 587.056 152.166 582.834 154.55 579.363C155.975 577.29 159.428 575.426 160.487 574.58C163.44 572.329 163.084 567.921 165.715 566.872C168.347 565.841 168.752 570.823 172.461 566.49C169.98 564.895 167.559 563.028 165.123 561.316C168.049 556.067 171.014 551.108 174.081 545.879C177.256 540.488 180.515 534.846 183.454 529.147C184.164 527.765 182.022 528.431 182.748 526.927C185.77 520.671 189.656 515.695 192.562 509.16C194.862 503.992 196.177 497.831 198.515 492.394C203.166 490.735 206.123 482.512 209.283 477.027C210.384 475.116 211.117 475.656 212.095 474.391C215.774 469.59 211.856 470.712 212.184 469.044C213.597 461.893 219.833 464.49 223.454 457.012C223.65 456.613 222.852 450.263 222.987 449.501C223.801 444.678 224.451 449.38 226.012 446.889C228.881 442.303 231.286 439.449 233.184 433.358C233.737 431.572 233.704 426.67 236.842 424.286C237.254 423.971 238.197 424.735 238.428 424.431C242.519 418.878 239.279 417.02 239.884 413.002C240.492 408.977 245.485 404.754 246.698 403.988C249.843 401.991 246.333 406.548 246.423 406.79C247.511 409.62 249.141 405.505 250.797 402.617C254.282 403.822 256.176 399.542 252.508 399.602C252.104 399.615 251.246 402.093 250.797 402.617C248.898 398.396 250.788 393.587 256.321 390.001C258.91 388.326 259.429 391.395 262.428 383.866C263.791 380.448 260.907 380.594 261.733 377.392C263.613 370.092 269.984 362.526 273.025 355.537C274.13 353 271.702 354.803 272.414 353.048C274.299 348.39 277.184 344.879 278.933 340.132C279.09 339.702 277.304 340.063 277.979 338.652C283.075 327.928 288.46 319.058 293.928 307.946C296.576 302.566 300.559 292.6 303.416 287.101C308.367 277.559 316.046 266.552 319.573 258.103C321.906 252.54 320.028 253.107 320.262 250.367C320.684 245.124 327.598 238.654 328.577 237.841C328.61 237.813 326.674 242.604 328.538 240.448C330.622 239.678 328.557 237.896 328.577 237.841C329.21 237.317 333.995 228.145 334.626 226.195C334.971 225.132 333.471 225.097 333.673 224.555C338.555 211.592 344.171 199.075 350.765 186.74C350.894 186.533 352.117 187.521 352.404 187.026C356.54 179.934 357.028 174.555 358.905 168.016C360.626 161.908 363.183 157.204 366.905 154.82C367.065 154.711 367.228 154.606 367.393 154.504C369.292 149.714 373.365 143.795 375.788 140.296C378.169 136.884 375.722 135.092 375.829 134.725C378.939 123.657 383.305 118.334 388.49 107.766C390.911 102.852 395.239 92.4022 397.426 86.7984C399.155 82.3616 401.013 79.9463 402.385 75.8051C402.581 75.2242 401.12 75.2433 401.15 75.0526C401.739 69.8655 403.71 73.3838 404.656 72.6884C408.062 70.2188 410.016 68.6018 411.663 62.3963C412.026 61.0076 409.442 55.2719 410.248 52.7105C411.281 49.4353 412.296 51.3141 413.342 47.8258C413.432 47.5284 412.453 47.2016 413.349 45.1963C417.451 35.9315 422.34 25.6718 425.099 16.439C425.448 15.2395 423.43 16.2975 423.898 14.5526C424.332 12.8958 424.697 11.288 424.898 10.0448C424.99 9.48483 425.041 9.03599 425.055 8.83055C425.062 8.74013 425.059 8.71122 425.061 8.85136C425.068 8.99486 425.064 9.27759 425.188 9.98638C425.33 10.6473 425.515 11.8785 426.7 13.9291C427.749 15.9452 431.046 19.0775 434.381 19.9925C437.678 20.9818 439.705 20.5753 440.812 20.3797C441.928 20.1384 442.37 19.9183 442.631 19.8026C443.109 19.5619 442.85 19.634 442.529 19.8185C442.187 20.007 441.696 20.3161 441.16 20.6773C440.079 21.4054 438.827 22.3251 437.539 23.2814C436.914 23.7448 436.346 24.1617 435.814 24.5554C434.287 25.6984 434.379 24.0582 433.839 24.095C430.504 24.3829 429.848 29.5334 429.427 30.0935C419.432 43.5872 408.835 52.8585 398.685 67.7793C398.117 68.622 395.997 76.5263 391.719 77.5471C391.439 77.6089 387.207 78.4641 386.832 82.0808C386.832 82.2768 389.206 81.5802 386.914 84.2905C384.579 87.0562 381.779 92.2488 377.394 95.3241C375.992 96.3182 371.603 97.4122 370.378 102.667C370.323 102.992 369.941 111.78 365.499 111.836C364.781 111.828 362.161 109.177 360.233 114.796C359.863 115.881 361.721 114.813 360.38 117.405C358.245 121.49 354.115 125.254 352.069 130.635C351.749 131.532 351.364 136.16 347.88 137.588C347.334 137.811 346.943 136.293 345.79 137.575C342.503 141.22 339.709 145.112 336.573 149.206C334.66 151.701 332.666 154.219 330.456 156.607C328.488 158.74 327.757 156.387 325.54 158.472C323.377 160.484 319.397 165.025 318.249 168.149C317.112 171.256 321.695 170.354 319.184 174.242C308.143 191.346 295.008 206.857 283.139 223.525C281.396 225.975 283.751 224.565 281.242 228.236C271.935 241.843 256.726 265.994 246.671 276.446C238.581 284.867 245.527 272.08 239.928 278.887C237.24 282.159 237.702 288.029 237.22 288.941C232.539 297.889 227.297 302.661 222.611 310.389C221.648 311.979 223.911 311.323 223.078 312.667C220.24 317.267 216.471 321.577 213.641 325.905C212.375 327.847 213.559 328.144 212.276 329.851C209.216 333.944 206.258 337.384 202.542 340.869C202.203 341.187 202.778 337.86 200.582 340.939C197.025 345.933 191.851 351.526 188.697 357.945C187.768 359.845 189.861 361.414 185.807 364.054C184.959 364.607 183.081 361.827 182.299 367.652C182.174 368.618 180.067 377.955 175.654 380.099C174.487 380.673 170.731 381.531 169.592 383.824C169.446 384.141 171.386 383.836 170.282 385.622C166.362 391.911 161.804 398.001 157.684 404.429C156.595 406.135 159.538 404.553 157.876 407.067C153.351 413.925 146.851 422.138 141.678 428.302C139.736 430.617 140.021 428.226 139.785 428.324C135.971 429.871 137.027 433.243 136.461 434.273C132.95 440.597 128.476 444.234 124.702 449.701C123.657 451.207 125.534 451.02 125.408 451.382C124.038 455.096 123.816 451.369 122.141 453.082C117.32 458.025 112.863 463.836 108.624 469.361C107.085 471.369 110.108 470.159 108.712 471.948C100.613 482.378 91.3006 493.178 81.9185 502.278C80.1013 504.041 80.2591 502.04 79.6996 502.242C75.8316 503.613 74.2893 509.186 73.6635 510.217C70.6836 515.068 68.3721 515.897 65.1601 519.431C55.5399 529.906 43.5893 541.12 29.5691 550.216C28.6302 550.824 27.6925 551.394 26.6282 551.955C26.4948 552.026 26.3592 552.096 26.2209 552.166C26.1516 552.201 26.0819 552.236 26.0112 552.271C25.9228 552.315 25.795 552.378 25.6838 552.431C25.2247 552.652 24.7325 552.873 24.1802 553.094C23.6273 553.314 23.0152 553.534 22.2976 553.743C21.9387 553.847 21.5526 553.948 21.1316 554.042C20.6726 554.137 20.4197 554.212 19.2888 554.355C17.3732 554.562 14.6173 554.647 11.1815 553.315C7.76605 552.072 4.20155 548.795 2.67443 545.567C1.06423 542.335 0.883688 539.707 0.879296 537.852C0.881137 537.616 0.88763 537.39 0.897708 537.172C0.905926 537 0.911472 536.915 0.919895 536.79C0.936022 536.556 0.956044 536.333 0.978918 536.118C1.02474 535.688 1.08177 535.295 1.14484 534.928C1.40121 533.466 1.73073 532.406 2.05833 531.459C2.30468 530.764 2.51072 530.258 2.74401 529.712C4.62038 525.552 5.90852 523.685 7.47386 521.123C10.3201 516.632 13.0787 512.681 15.6966 508.942C32.3488 485.487 45.9491 468.608 60.9552 446.264C61.9001 444.863 59.5923 445.343 60.3907 444.122C70.829 428.286 81.8286 413.17 91.8344 397.091C92.6575 395.773 90.1384 396.799 91.4163 394.653C94.0558 390.204 97.6097 384.892 100.851 380.766C102.411 378.78 101.702 382.329 103.247 380.319C106.844 375.641 110.361 370.314 113.371 365.057C114.654 362.808 111.243 365.276 113.014 362.417C120.141 350.864 127.017 339.327 134.154 327.878C139.126 319.891 144.188 312.148 149.67 304.405C150.599 303.091 154.028 303.58 155.241 300.278C154.602 299.607 153.69 299.092 152.925 298.516C169.347 269.306 186.819 241.057 203.315 211.837C204.013 210.598 201.334 211.916 202.676 209.517C210.41 195.682 217.408 181.977 226.564 168.535C227.473 167.194 229.685 169.398 231.545 164.972C231.901 164.138 234.843 157.775 235.16 155.786C235.191 155.517 233.343 156.026 234.395 153.952C240.454 142.054 247.143 129.842 253.767 118.394C254.859 116.502 255.164 119.238 255.95 117.901C261.434 108.564 265.473 97.4695 270.47 88.8822C273.74 83.1599 275.25 86.2946 278.825 83.8357C279.374 83.4334 280.529 79.7998 281.961 79.9059C285.722 80.1047 289.092 83.3381 293.138 83.4164C293.346 83.4597 293.595 82.9102 293.812 82.2288C294.035 81.5012 294.203 80.838 294.405 79.7382C294.589 78.7746 294.7 77.905 294.915 77.7591C295.118 77.6055 295.514 78.2906 295.819 80.0703C295.841 80.4995 295.811 82.1074 295.625 83.922C295.552 85.3529 295.323 87.2333 295.512 87.7736C295.716 88.7005 297.608 87.7363 297.655 89.5577C297.643 91.5179 295.906 92.6476 295.575 95.4896C295.335 98.0738 297.256 97.9343 295.492 102.648ZM386.562 124.711C389.469 121.859 384.958 119.147 384.355 123.403C384.331 123.613 386.415 124.861 386.562 124.711ZM181.177 542.12C185.615 538.708 184.188 534.153 180.98 536.39C177.72 538.725 179.837 543.14 181.177 542.12ZM157.642 588.565C162.134 584.302 156.124 579.843 154.319 586.107C154.214 586.466 157.381 588.811 157.642 588.565ZM273.145 99.6657C273.243 99.6249 274.546 96.8452 274.499 96.773C273.63 94.6254 271.049 100.137 273.145 99.6657ZM133.037 633.958C134.861 632.925 136.611 627.845 134.36 629.131C132.556 630.161 130.77 635.247 133.037 633.958ZM392.857 53.3028C392.764 53.2945 391.341 54.9844 391.71 55.2279C392.929 55.9754 394.499 53.3406 392.857 53.3028ZM83.2024 706.188C91.1415 695.87 100.767 693.238 91.7905 704.171C90.1666 706.153 93.5019 698.577 91.1187 700.864C86.7566 705.062 87.5133 710.51 82.3019 714.226C81.3451 714.899 82.7284 706.769 83.2092 706.164C83.2069 706.172 83.2047 706.18 83.2024 706.188ZM393.188 125.378C393.281 125.343 394.63 122.601 394.61 122.481C393.808 120.267 391.068 125.835 393.188 125.378ZM311.013 154.529C310.802 154.56 306.411 160.32 306.372 160.611C306.339 165.256 315.212 153.624 311.013 154.529ZM306.71 314.572C306.722 318.352 305.137 322.033 302.066 323.526C303.644 320.563 305.129 317.57 306.71 314.572Z" fill="black"/>
<path d="M4029.27 172.091C4037.93 181.505 4048.67 194.572 4056.64 204.692C4059.14 207.857 4057.16 207.006 4058.8 209.165C4062.11 213.492 4065.86 217.071 4069.02 221.327C4070.1 222.779 4067.51 222.058 4068.68 223.565C4074.97 231.708 4081.63 238.719 4088.26 246.714C4095.51 255.46 4102.77 264.129 4110.11 272.831C4135.56 303.011 4161.49 332.978 4187.78 363.491C4198.94 376.449 4211.71 392.903 4223.84 405.736C4225.26 407.24 4225.41 405.462 4225.75 405.686C4231.03 409.211 4227.73 409.403 4230.13 412.64C4239.67 425.494 4251.31 438.854 4261.84 450.028C4266.32 454.776 4263.91 448.175 4267.18 454.054C4267.41 454.461 4265.28 454.124 4266.36 455.565C4268.8 458.832 4274.07 464.433 4276.08 466.867C4279.93 471.565 4280.61 472.308 4284.38 476.609C4289.56 482.53 4295.19 489.952 4300.99 496.072C4302.23 497.37 4301.72 494.663 4303.78 496.648C4305.83 498.613 4310.8 504.43 4312.22 506.552C4313.66 508.686 4312.11 508.599 4312.22 509.105C4313.04 513.268 4321.12 517.967 4321.9 518.743C4336.42 533.369 4346.8 547.747 4359.52 562.266C4369.21 573.312 4379.95 584.756 4389.05 595.327C4393.33 600.305 4397.4 605.201 4401.18 609.792C4407.18 617.061 4412.69 623.814 4419.18 631.233C4420.28 632.49 4420.26 629.934 4421.59 631.463C4436.17 648.154 4450.31 664.987 4463.48 682.885C4464.8 684.69 4461.87 683.383 4463.11 685.221C4465.33 688.507 4467.84 692.402 4470.47 696.382C4471.81 698.407 4473.13 700.388 4474.5 702.426C4475.2 703.463 4475.85 704.425 4476.56 705.511C4476.91 706.053 4477.26 706.6 4477.61 707.201C4477.7 707.349 4477.81 707.55 4477.9 707.718C4477.95 707.808 4477.99 707.878 4478.04 707.987C4478.1 708.103 4478.16 708.22 4478.21 708.339C4478.27 708.468 4478.31 708.544 4478.38 708.74C4478.45 708.927 4478.52 709.129 4478.59 709.369C4478.65 709.593 4478.78 710.13 4478.75 710.83C4478.73 711.283 4478.6 712.21 4477.99 713.086C4477.42 714.049 4475.87 714.879 4474.99 714.922C4467.62 716.142 4461 715.375 4456.17 716.283C4445.68 711.948 4436.77 702.729 4432.25 695.36C4429.4 690.61 4433.98 693.822 4429.27 688.878C4428.24 687.755 4428.31 690.156 4426.87 688.428C4420.73 680.968 4415.72 671.819 4410.61 664.079C4409.55 662.472 4408.72 663.523 4408.26 663.151C4404.52 660.118 4403.67 651.969 4403.16 650.47C4399.02 638.711 4394.62 630.793 4389.91 620.418C4388.81 617.98 4388.6 621.546 4387.49 619.228C4381.78 607.255 4376.41 594.687 4371.86 582.596C4370.85 579.894 4373.22 581.743 4372.8 580.421C4370.96 574.642 4367.97 574.493 4366.13 568.971C4365.75 567.811 4367.13 567.942 4367.17 567.684C4367.66 563.653 4363.7 562.099 4363.28 561.309C4357.8 551.366 4357.6 543.493 4352.51 533.799C4351.89 532.644 4351.78 535.961 4350.14 532.678C4341.83 516.06 4333.15 498.741 4324.14 482.332C4321.25 477.073 4318.48 471.685 4315.92 466.434C4314.25 462.986 4316.57 464.83 4316.58 464.55C4316.65 460.048 4312.87 459.271 4312.17 458.208C4306.84 449.923 4304.97 440.66 4298.84 436.26C4281.62 398.517 4263.71 361.401 4251.13 322.291C4250.96 321.795 4252.67 322.104 4252.34 321.118C4248.39 309.232 4247.19 312.322 4241.5 305.686C4240.08 304.03 4240.83 296.867 4240.85 296.266C4240.94 294.039 4243.75 295.186 4243.66 294.488C4242.83 288.708 4236.49 292.274 4233.64 285.162C4233.57 284.936 4235.17 285.376 4235.06 284.731C4234.7 282.722 4233.49 281.113 4233.19 279.115C4232.52 274.575 4235.19 271.803 4230.78 266.242C4230.22 265.547 4226.9 268.267 4224.56 261.864C4224.08 260.543 4222.57 256.745 4221.15 253.079C4219.84 249.718 4218.59 246.43 4218.12 244.913C4217.14 241.704 4219.21 243.355 4219.18 243.112C4217.46 234.031 4219.39 236.944 4220.13 231.785C4220.87 226.644 4215.62 230.065 4214.3 228.575C4212.97 227.068 4211.89 220.369 4211.77 218.689C4211.64 216.968 4213.17 218.58 4212.9 217.111C4211.1 207.428 4208.52 214.268 4206.45 211.67C4201.58 205.524 4203.72 198.478 4201.65 191.9C4201.1 190.137 4200.68 191.913 4199.99 190.42C4197.28 184.432 4197.22 180.334 4193.3 173.801C4192.67 172.757 4187.95 168.114 4188.43 163.767C4188.51 163.153 4190.12 164.195 4189.37 161.525C4188.22 157.483 4185.78 150.444 4183.81 146.367C4182.37 143.401 4181.97 147.575 4181.04 143.527C4180.62 141.71 4182.87 144.537 4181.98 141.121C4181.11 137.735 4177.89 129.503 4176.67 126.429C4175.42 123.304 4174.76 125.528 4174.57 125.311C4173.46 123.926 4170.54 118.28 4170.32 117.693C4159.77 91.0675 4152.6 65.4905 4140.28 40.5386C4139.32 38.6129 4138.57 40.5455 4138.41 40.2586C4134.64 33.7975 4140.8 37.4461 4139.67 32.0982C4137.28 34.1226 4136.45 31.0894 4133.71 26.6473C4132.38 24.5136 4132 26.2851 4131.78 26.1377C4130.03 24.915 4129.37 23.321 4129.21 22.1003C4129.23 22.1297 4129.27 22.1818 4129.38 22.3258C4129.43 22.3999 4129.51 22.497 4129.65 22.6591C4129.81 22.8222 4129.98 23.0539 4130.61 23.4564C4130.93 23.6491 4131.39 23.916 4132.22 24.0576C4133.01 24.2102 4134.31 24.0661 4135.27 23.414C4137.22 22.0243 4137.13 20.5247 4137.21 20.3729C4137.28 19.7059 4137.22 19.4636 4137.2 19.2635C4137.14 18.8989 4137.09 18.8185 4137.06 18.7478C4137.03 18.6865 4137.01 18.6767 4137 18.6847C4136.95 18.7249 4136.91 18.8034 4136.89 18.9048C4136.86 19.0058 4136.84 19.1276 4136.83 19.2574C4136.8 19.3475 4136.77 19.44 4136.74 19.532C4136.63 19.8988 4136.55 20.2613 4136.51 20.456C4135.78 23.2837 4138.82 25.1454 4138.39 27.05C4138.02 29.0827 4134.89 26.1855 4136.94 30.798C4138.51 31.6798 4139.57 27.0533 4141.56 30.4187C4148.92 42.8631 4158.61 68.2338 4163.6 78.7668C4168.58 89.3364 4170.41 92.4743 4173.17 98.7719C4178.1 109.993 4177.9 104.977 4182.28 111.348C4186.61 117.6 4180.34 116.749 4179.85 118.227C4179.36 119.698 4180.93 120.232 4181.02 121.706C4181.09 123.158 4179.09 120.976 4180.33 123.836C4181.58 126.719 4187.35 133.397 4188.91 133.838C4192.19 134.749 4192.68 130.19 4195.76 137.87C4195.94 138.317 4194.01 137.594 4194.75 139.271C4199.12 149.036 4204.17 158.793 4209.06 168.498L4209.04 168.463C4210.89 171.92 4212.72 175.359 4214.49 178.787C4215.41 180.563 4213.19 179.816 4213.71 180.86C4219.18 191.72 4219.12 186.696 4225.01 190.803C4221.03 191.539 4220.97 195.898 4225.97 203.668C4228.97 208.307 4229.85 206.624 4232.78 208.947C4233.66 209.652 4234.89 213.517 4235.94 213.672C4239.36 214.18 4239.61 209.566 4244.02 217.955C4244.21 218.323 4242.32 218.04 4243.07 219.254C4247.92 227.14 4250.72 226.51 4256.87 234.345C4261.71 240.499 4268.86 252.469 4274.26 259.617C4270.83 262.133 4276.9 268.148 4281.31 268.899C4284.91 273.501 4288.99 278.149 4292.32 282.729C4293.47 284.307 4291.71 284.12 4291.76 284.395C4292.55 288.552 4296.38 288.66 4297.29 289.552C4306.91 299.131 4312.6 308.871 4322.81 317.124C4323.17 317.417 4325.85 315.99 4326.59 320.033C4326.63 320.293 4322.76 318.002 4326.77 322.611C4328.18 324.238 4329.94 326.519 4331.96 329.058C4335.46 333.478 4339.76 338.67 4344.09 342.079C4345.78 343.423 4350.95 345.498 4352.46 349.874C4352.66 350.458 4351.62 350.583 4351.83 351.497C4352.48 354.403 4355.61 353.39 4355.83 357.349C4356.09 361.339 4358.98 367.222 4366.12 372.278C4366.34 372.442 4369.44 372.292 4371.26 374.287C4374.21 377.516 4377.93 382.191 4381.08 385.504C4382.54 387.044 4382.67 385.049 4382.95 385.299C4393.46 395.253 4399.52 403.562 4409.74 415.2C4411.61 417.334 4418.65 421.876 4421.27 426.953C4424.17 432.548 4414.66 432.963 4425.41 441.854C4429.75 445.455 4441.27 444.348 4444.66 454.872C4458.85 468.248 4469.37 483.042 4483.87 496.204C4484.52 496.797 4488.28 497.102 4489.67 498.65C4491.71 500.939 4491.96 502.966 4493.39 504.626C4499.37 511.623 4505.78 517.078 4511.64 523.709C4513.86 526.216 4512.16 526.182 4514.81 529.182C4517.46 532.188 4520.46 533.065 4523.52 537.589C4525.83 541.011 4526.15 546.303 4529.49 550.559C4532.05 548.517 4534.5 551.315 4539.6 555.683C4540.57 556.513 4540.51 554.741 4541.01 555.094C4543.08 556.516 4543.9 558.832 4545.93 560.138C4546.42 560.457 4547.27 559.73 4547.72 559.949C4551.59 561.791 4554.05 568.308 4554.46 569.426C4556.07 573.715 4558.49 574.242 4560.19 577.135C4561.88 580.023 4558.01 576.906 4560.25 580.023C4564.88 586.463 4571.78 593.984 4577.04 600.059C4579.15 602.485 4578.83 599.852 4579.16 600.177C4583.83 604.927 4587.03 611.002 4591.7 611.845C4588.94 620.373 4594.88 614.358 4599.94 622.554C4600.34 623.202 4598.21 626.296 4595.93 624.473C4593.65 622.649 4591.67 618.631 4588.43 616.178C4587.66 615.589 4581.54 613.752 4580.91 613.337C4575.9 610.061 4579.45 605.881 4579.48 605.454C4579.62 600.729 4572.49 598.178 4571.16 597.052C4565.06 591.892 4561.11 586.284 4556.1 581.904C4552.8 579.001 4549.87 581.052 4547.68 578.436C4540.43 569.786 4541.43 563.481 4531.09 558.438C4528.87 557.352 4527.51 561.636 4524.28 553.514C4524.08 553.01 4522.05 546.611 4518.37 545.19C4517.91 545.013 4517.08 545.785 4516.62 545.418C4513.53 542.937 4512.47 540.442 4509.26 537.563C4506.05 534.693 4502.16 531.394 4499.14 527.536C4497.32 525.214 4496.33 521.022 4495.76 519.644C4494.19 515.745 4489.49 514.248 4489.15 511.227C4488.81 508.181 4494.11 509.864 4490.56 504.309C4488.24 506.13 4485.65 507.777 4483.22 509.504C4473.62 498.975 4464.83 488.142 4454.96 477.783C4453.74 476.511 4453.81 478.905 4452.48 477.571C4446.8 471.869 4442.87 466.04 4436.84 460.283C4432.23 455.89 4426.13 451.855 4421.23 447.275C4420.84 441.961 4413.17 435.5 4408.43 430.033C4406.78 428.128 4407.55 427.634 4406.51 426.11C4402.6 420.392 4402.64 424.769 4401.02 423.732C4394.12 419.339 4398.45 414.12 4391.89 407.424C4391.53 407.055 4384.71 405.056 4383.97 404.604C4379.26 401.733 4384.28 403.105 4382.19 400.503C4378.28 395.659 4376.07 392.066 4370.33 387.504C4368.67 386.195 4363.61 384.083 4362.07 379.911C4361.87 379.365 4362.94 378.769 4362.69 378.408C4358.26 371.984 4355.32 374.304 4351.38 371.93C4347.47 369.597 4344.56 362.697 4344.19 361.207C4343.12 357.24 4346.68 362.687 4346.97 362.712C4350.18 362.881 4346.52 359.514 4344.03 356.546C4346.32 353.642 4342.51 349.857 4341.45 353.492C4341.33 353.894 4343.62 355.86 4344.03 356.546C4339.08 356.488 4334.75 352.489 4332.8 345.404C4331.91 342.108 4335.2 343.002 4328.44 336.592C4327 335.221 4326.07 335.158 4325.17 335.224C4324.17 335.283 4323.2 335.502 4321.61 334.287C4314.79 329.097 4309.1 319.216 4303.06 312.893C4300.86 310.592 4301.87 313.827 4300.33 312.289C4296.25 308.199 4293.7 303.674 4289.5 299.599C4289.13 299.234 4288.86 301.142 4287.68 299.793C4278.66 289.494 4271.69 279.693 4262.77 268.473C4258.45 263.073 4250.2 253.72 4246.03 247.84C4238.75 237.713 4231.59 223.897 4225.29 215.323C4221.18 209.727 4220.81 211.755 4218.36 209.803C4213.59 205.998 4211.06 195.52 4210.81 194.085C4210.8 194.047 4214.24 198.93 4213.19 195.837C4213.52 193.458 4210.85 194.137 4210.81 194.085C4210.61 193.148 4204.7 182.798 4203.27 180.906C4202.48 179.882 4201.67 181.198 4201.29 180.649C4200.02 178.851 4198.78 177.048 4197.55 175.227C4197.52 175.175 4197.43 175.023 4197.4 174.971C4190.02 163.418 4183.29 151.424 4177.26 138.91C4177.15 138.646 4178.7 138.306 4178.43 137.696C4174.68 129.191 4170.24 124.727 4165.73 118.449C4161.21 112.123 4158.8 106.572 4159.06 101.267C4156.16 96.2865 4153.45 88.2639 4151.98 83.6968C4150.48 79.0622 4147.56 79.849 4147.3 79.4623C4139.82 68.4243 4138.08 60.8474 4132.58 48.3168C4131.31 45.4106 4129.23 41.0266 4127.13 36.6242C4126.04 34.3232 4125.03 32.2068 4124 30.0136C4123.88 29.7501 4123.77 29.5202 4123.65 29.2546C4123.51 28.9668 4123.39 28.6934 4123.26 28.4339C4123.14 28.1744 4123.03 27.9289 4122.92 27.6967C4122.81 27.4544 4122.67 27.1424 4122.56 26.8939C4122.44 26.6364 4122.33 26.4002 4122.23 26.175C4122.1 25.8701 4121.98 25.5941 4121.87 25.3386C4121.81 25.2015 4121.77 25.1194 4121.7 24.9403C4121.62 24.749 4121.54 24.5653 4121.47 24.3725C4121.43 24.2758 4121.39 24.1766 4121.35 24.0698C4121.33 24.0163 4121.31 23.9609 4121.29 23.9023C4121.26 23.8037 4121.2 23.6125 4121.13 23.4078C4121.07 23.1912 4120.99 22.9387 4120.89 22.4864C4120.81 21.9744 4120.6 21.5378 4120.59 19.5229C4120.61 18.9662 4120.62 18.406 4120.84 17.2821C4121.23 15.7258 4122.03 11.7547 4127.19 8.84477C4132.58 6.09261 4137.25 8.05862 4138.81 8.93427C4140.63 9.96269 4141.25 10.6741 4141.77 11.1778C4142.71 12.1741 4142.94 12.579 4143.19 12.926C4143.41 13.2569 4143.54 13.4662 4143.64 13.6444C4143.68 13.7004 4143.71 13.756 4143.75 13.8114C4146.98 18.878 4147.93 22.2722 4150.69 26.8189C4151.06 27.4362 4151.93 26.2 4152.07 26.3742C4156.11 31.0405 4151.92 29.8473 4151.93 31.1965C4151.93 36.1169 4152 38.8962 4155.89 45.2709C4156.78 46.7156 4163.02 49.3967 4164.5 52.2014C4166.38 55.7562 4164.24 54.9856 4166.25 58.7608C4166.42 59.0775 4167.34 58.598 4168.28 61.0063C4172.72 72.2775 4176.92 84.5475 4181.54 96.1128C4182.18 97.7041 4182.91 95.078 4183.84 97.3476C4188.18 107.973 4192.64 119.722 4195.93 130.419C4196.73 133.041 4195.05 131.852 4194.95 132.529C4194.35 136.711 4198.99 140.452 4199.35 141.235C4208.04 159.84 4211.09 175.327 4219.82 194.252C4220.29 195.243 4226.46 202.27 4225.3 206.835C4225.22 207.137 4224.02 211.783 4227.04 214.235C4227.23 214.387 4227.71 211.646 4229.09 215.561C4230.47 219.496 4233.83 225.403 4234.46 231.333C4234.68 233.243 4233.63 238.218 4237.72 242.454C4237.83 242.569 4239.29 243.693 4240.78 245.273C4242.8 247.389 4244.9 250.394 4243.66 252.747C4243.31 253.414 4239.68 254.276 4243.84 259.631C4244.64 260.651 4244.58 258.26 4246.26 261.089C4248.84 265.437 4250.38 271.982 4254.17 277.052C4254.84 277.944 4258.86 281.238 4258.45 285.339C4258.39 285.983 4256.84 285.428 4257.43 287.277C4260.23 296.035 4264.59 304.629 4267.31 313.565C4268.28 316.729 4265.8 315.922 4266.61 319.31C4267.41 322.685 4269.58 329.291 4271.8 332.261C4274.02 335.233 4275.44 330.393 4277.74 335.257C4287.75 356.397 4295.19 378.346 4304.66 399.551C4306.07 402.693 4305.9 399.635 4308.06 404.22C4315.94 421.202 4331.3 449.311 4337.23 464.254C4341.96 476.325 4332.58 463.06 4336.85 471.973C4337.2 472.701 4337.66 473.375 4338.19 473.994C4340.84 477.172 4344.98 479.276 4345.56 480.103C4352.38 489.743 4354.73 497.745 4359.91 506.841C4360.98 508.728 4361.36 506.156 4362.26 507.773C4365.32 513.295 4367.62 519.528 4370.3 524.877C4371.51 527.278 4372.33 526.341 4373.31 528.615C4375.65 534.054 4377.4 538.987 4378.81 544.657C4378.94 545.173 4376.19 542.557 4377.94 546.538C4380.79 552.973 4383.38 561.345 4387.65 568.284C4388.92 570.339 4391.34 569.337 4391.78 574.787C4391.87 575.923 4388.45 575.949 4393.34 580.299C4394.15 581.023 4401.54 588.706 4401.39 594.149C4401.35 595.587 4400.35 599.64 4401.88 602.06C4402.09 602.389 4402.74 600.392 4403.84 602.506C4407.67 609.928 4411.11 617.821 4415.16 625.318C4416.23 627.287 4416.11 623.662 4417.66 626.602C4421.97 634.799 4426.76 645.136 4430.63 653.004C4432.07 655.93 4429.93 654.555 4429.93 654.825C4429.94 659.193 4433.55 659.647 4434.34 660.651C4439.09 666.651 4441.22 672.349 4445.54 677.435C4446.76 678.858 4447.03 676.967 4447.35 677.185C4450.6 679.358 4446.95 678.738 4448.22 680.717C4451.83 686.317 4457.08 691.147 4461.56 693.459C4463.15 694.268 4462.17 691.93 4463.55 692.614C4466.9 694.155 4469.42 694.557 4472.32 694.262C4469.02 694.419 4463.1 697.537 4460.87 701.23C4458.54 704.572 4458.04 708.002 4457.96 709.7C4457.83 712.235 4458.27 713.875 4458.42 714.523C4458.77 715.858 4459.06 716.439 4459.17 716.719C4459.32 717.05 4459.42 717.227 4459.46 717.311C4459.51 717.407 4459.54 717.459 4459.55 717.473C4459.59 717.515 4459.44 717.26 4459.25 716.961C4458.89 716.379 4458.35 715.576 4457.83 714.812C4456.73 713.22 4455.53 711.534 4454.28 709.799C4451.83 706.407 4449.31 702.948 4446.84 699.49C4445.3 697.321 4447.3 697.846 4447.17 697.237C4446.19 692.927 4440.51 690.24 4439.41 689.31C4434.72 685.47 4433.97 682.888 4430.43 678.976C4415.46 662.465 4398.59 642.276 4383.93 624.753C4381.36 621.678 4378.74 618.551 4376.27 615.61C4355.47 590.829 4339.88 571.288 4319.27 548.273C4317.95 546.8 4318.05 549.37 4316.9 548.116C4302.22 532.012 4288.51 515.472 4273.7 499.386C4272.49 498.064 4273.04 501.024 4271.06 498.937C4266.96 494.647 4262.1 489.003 4258.51 484.189C4256.76 481.844 4260.34 483.903 4258.55 481.56C4254.42 476.122 4249.65 470.551 4244.83 465.465C4242.77 463.3 4244.57 467.719 4241.99 464.824C4224.39 445.123 4207 425.858 4190.84 404.5C4189.73 403.034 4191.09 399.728 4188.04 397.209C4187.18 397.578 4186.41 398.283 4185.61 398.817C4159.76 370.353 4135.35 341.101 4109.91 312.054C4108.83 310.831 4109.42 314.059 4107.34 311.703C4101.31 304.858 4095.12 298.02 4089.26 291.24C4083.29 284.32 4077.74 277.575 4072.16 269.971C4071.05 268.47 4074 267.295 4069.98 263.415C4069.28 262.745 4063.55 256.849 4061.67 255.689C4061.41 255.541 4061.33 257.569 4059.58 255.641C4049.23 244.203 4038.86 231.913 4029.39 219.777C4027.9 217.859 4030.74 218.846 4029.66 217.435C4022.02 207.489 4012.21 197.931 4005.41 187.879C4000.89 181.167 4004.77 181.759 4003.96 176.875C4003.84 176.187 4000.69 172.337 4001.67 171.204C4004.09 168.332 4008.73 167.568 4011.12 164.288C4011.65 163.594 4006.7 159.087 4010.79 160.787C4011.07 160.912 4014.66 164.147 4015.95 164.594C4016.84 164.912 4017.03 162.815 4018.59 163.707C4020.12 164.57 4020.34 166.786 4022.69 168.429C4025.02 170.041 4025.52 168.017 4029.27 172.091ZM4145.41 62.9584C4144.8 58.368 4139.78 59.9973 4142.98 63.7986C4143.14 63.976 4145.44 63.1921 4145.41 62.9584ZM4467.73 485.486C4465.52 479.728 4460.31 479.125 4461.79 483.327C4463.29 487.536 4468.4 487.232 4467.73 485.486ZM4509.48 528.153C4506.29 521.981 4500.11 526.227 4506.06 530.496C4506.41 530.746 4509.66 528.514 4509.48 528.153ZM4017.33 191.447C4017.37 191.388 4015.05 188.587 4014.97 188.599C4012.47 188.245 4017.01 193.731 4017.33 191.447ZM4550.59 570.826C4549.95 568.605 4545.04 564.857 4545.85 567.641C4546.53 569.895 4551.39 573.596 4550.59 570.826ZM4203.97 190.805C4203.92 190.896 4204.78 193.301 4205.17 193.095C4206.43 192.416 4204.78 189.256 4203.97 190.805ZM4616.88 646.577C4607.47 635.106 4606.18 624.223 4616.24 637.018C4618.06 639.332 4610.63 633.471 4612.65 636.676C4616.33 642.525 4622.19 643.467 4625.15 650.147C4625.68 651.354 4617.4 647.236 4616.85 646.562C4616.86 646.567 4616.87 646.572 4616.88 646.577ZM4149.99 57.9649C4150.01 57.8389 4148.56 54.6246 4148.47 54.5943C4146.15 53.5808 4149.06 60.0499 4149.99 57.9649ZM4256.05 330.51C4255.98 330.753 4258.99 338.385 4259.22 338.584C4263.37 341.496 4257.29 326.061 4256.05 330.51ZM4274.26 259.798C4277.95 261.745 4281.01 265.214 4281.3 268.884C4279 265.893 4276.56 262.848 4274.26 259.798Z" fill="black"/>
<path d="M4450.33 2448.01C4436.67 2455.71 4418.29 2465.22 4404.13 2472.3C4399.69 2474.52 4401.47 2472.47 4398.4 2473.97C4392.3 2476.94 4387.09 2480.37 4381.21 2483.17C4379.22 2484.11 4380.89 2481.49 4378.82 2482.51C4367.54 2488.08 4357.37 2494.25 4346.08 2500.29C4309.46 2519.87 4273.32 2540.01 4237.17 2560.47C4218.93 2570.79 4200.97 2581.61 4183.19 2593.18C4165.79 2604.45 4144.5 2618.15 4127.97 2631.86C4126.04 2633.46 4128.01 2633.55 4127.7 2633.93C4122.84 2639.82 4123.18 2636.25 4119.14 2639.02C4103.58 2649.76 4087.5 2663.26 4074.03 2675.78C4073.66 2676.13 4073.29 2676.47 4072.92 2676.82C4067.13 2682.26 4074.77 2678.87 4067.87 2683.13C4067.39 2683.43 4067.97 2681.06 4066.25 2682.41C4062.35 2685.47 4055.6 2692 4052.73 2694.54C4047.18 2699.43 4046.31 2700.28 4041.24 2705.1C4034.31 2711.69 4025.74 2719.17 4018.75 2726.69C4017.26 2728.3 4020.3 2727.22 4018.01 2729.88C4015.73 2732.53 4009.22 2739.07 4006.83 2741.11C4004.44 2743.12 4004.56 2741.41 4004 2741.63C3999.28 2743.46 3994.13 2753.28 3993.26 2754.34C3977.1 2773.59 3961.67 2788.64 3946.43 2806.68C3934.89 2820.38 3923.23 2835.57 3912.56 2848.9C3912.4 2849.1 3912.24 2849.3 3912.08 2849.5C3899.61 2865.08 3888.61 2878.14 3877.34 2893.93C3876.14 2895.63 3878.9 2894.62 3877.43 2896.69C3862.21 2918.6 3846.46 2940.83 3837 2963.91C3836.12 2966.3 3835.73 2962.72 3834.78 2965.1C3831.96 2971.94 3829.4 2982.71 3835.66 2986.21C3842.08 2990.01 3851.8 2987.62 3855.47 2983.97C3861.98 2983.14 3868.85 2981.54 3876.09 2979.71C3880.06 2978.74 3884.62 2977.52 3888.13 2976.76C3894.32 2975.36 3889.02 2979.03 3896.29 2975.55C3897.93 2974.76 3895.31 2974.29 3897.68 2973.24C3907.74 2968.77 3919.47 2964.19 3929.12 2959.03C3931.14 2957.95 3930.06 2957.08 3930.56 2956.6C3934.78 2952.7 3943.98 2951.68 3945.96 2950.97C3960.01 2946.08 3969.61 2940.6 3982.05 2934.35C3984.92 2932.9 3980.78 2933.14 3983.51 2931.69C3997.93 2924.09 4012.53 2916.59 4026.98 2909.7C4030.12 2908.21 4027.98 2910.96 4029.51 2910.31C4036.3 2907.42 4036.48 2904.28 4043.06 2901.37C4044.45 2900.75 4044.28 2902.23 4044.58 2902.21C4049.33 2902.02 4051.15 2897.65 4052.08 2897.06C4063.94 2889.55 4073.13 2888 4084.71 2881.03C4086.09 2880.2 4082.18 2880.63 4086.08 2878.37C4112.18 2863.29 4140.06 2847.79 4166.48 2833.81C4170.59 2831.63 4168.3 2834.3 4168.63 2834.27C4173.86 2833.79 4175.03 2829.66 4176.27 2828.8C4186.17 2822.08 4197.05 2818.56 4202.23 2811.37C4246.41 2786.66 4288.39 2758.9 4332.77 2735.21C4333.33 2734.91 4333.14 2736.75 4334.25 2736.15C4347.7 2728.79 4344.08 2728.34 4351.12 2720.69C4352.92 2718.75 4361.37 2717.45 4362.06 2717.3C4364.66 2716.75 4363.62 2719.97 4364.42 2719.68C4371.02 2717.19 4366.18 2711.71 4374.19 2706.68C4374.45 2706.54 4374.11 2708.32 4374.85 2708.01C4377.14 2707.06 4378.91 2705.33 4381.15 2704.46C4386.19 2702.54 4389.96 2704.32 4395.85 2698.18C4396.49 2697.51 4393.94 2695.44 4397.83 2692.16C4398.45 2691.64 4399.23 2691.09 4400.2 2690.5C4403.16 2688.73 4415.43 2680.85 4419.12 2678.8C4422.72 2676.81 4421.06 2679.44 4421.33 2679.33C4431.47 2674.91 4428.51 2677.67 4434.57 2676.84C4440.64 2676 4436.01 2671.68 4437.52 2669.9C4439.02 2668.12 4446.79 2664.81 4448.67 2664.19C4450.59 2663.54 4448.99 2665.57 4450.61 2664.86C4461.6 2659.93 4453.34 2659.46 4456.07 2656.52C4462.39 2649.64 4470.82 2649.55 4478.2 2645.2C4480.15 2644.05 4478.05 2644.2 4479.66 2643.02C4486.13 2638.28 4490.9 2636.81 4497.76 2630.62C4498.77 2629.69 4503.5 2623.19 4508.49 2622.21C4509.21 2622.06 4508.25 2624.09 4511.25 2622.35C4515.62 2619.83 4523.33 2614.8 4527.64 2611.31C4530.75 2608.78 4525.84 2609.95 4530.41 2607.44C4532.43 2606.34 4529.61 2609.66 4533.32 2607.52C4536.97 2605.44 4545.74 2599.08 4549.06 2596.59C4552.31 2594.16 4549.67 2594.34 4549.88 2594.07C4551.2 2592.43 4557.11 2587.17 4557.61 2586.78C4567.68 2579.15 4577.13 2571.72 4586.81 2563.99C4588.31 2562.85 4589.85 2561.72 4591.61 2560.67C4592.53 2560.13 4593.4 2559.6 4594.9 2559.13C4595.34 2559.01 4595.75 2558.9 4596.46 2558.87C4597.09 2558.85 4598.25 2558.89 4599.4 2559.75C4600.59 2560.64 4600.98 2561.92 4601.08 2562.6C4601.19 2563.34 4601.14 2563.84 4601.09 2564.27C4599.79 2569.61 4597.69 2571.89 4595.71 2575.18C4587.14 2587.63 4576.62 2597.18 4566.84 2608.12C4565.03 2610.09 4567.34 2609.84 4567.07 2610.15C4561.1 2617.22 4563.33 2609.22 4557.86 2612.93C4560.71 2614.35 4557.57 2616.79 4553.34 2621.57C4551.21 2623.97 4553.27 2623.55 4553.15 2623.84C4551.27 2628.3 4547.22 2629.12 4546.36 2629.31C4543.01 2630.24 4542.03 2634.13 4539.79 2634.75C4537.5 2635.42 4539.7 2630.78 4535.29 2635.25C4534.81 2637.28 4540.13 2635.95 4537.08 2639.67C4525.73 2653.55 4500.62 2675.34 4490.25 2685.26C4488.99 2686.47 4487.81 2687.6 4486.72 2688.65C4479.17 2695.94 4475.99 2699.23 4470.55 2704.12C4459.33 2714.17 4464.75 2711.79 4458.72 2719.07C4452.78 2726.27 4452.36 2719.42 4450.63 2719.56C4448.9 2719.7 4448.67 2721.53 4447.06 2722.26C4445.44 2722.99 4447.48 2719.93 4444.53 2722.51C4441.66 2725 4435.51 2733.82 4435.31 2735.65C4434.99 2739.41 4440.2 2737.93 4432.3 2744.41C4431.84 2744.78 4432.25 2742.48 4430.55 2743.96C4417.07 2755.71 4403.74 2768.68 4390.34 2780.49C4388.48 2782.12 4389 2779.5 4387.92 2780.43C4376.66 2790.07 4382.2 2788.23 4378.35 2795.96C4377.01 2791.99 4372.23 2793.43 4364.1 2801.34C4359.23 2806.07 4361.24 2806.42 4358.91 2810.31C4358.22 2811.48 4353.98 2814.03 4353.9 2815.19C4353.61 2819.01 4358.82 2817.9 4349.72 2825.19C4349.32 2825.51 4349.51 2823.38 4348.19 2824.55C4339.63 2832.14 4340.53 2834.96 4331.91 2843.8C4325.17 2850.72 4311.73 2861.54 4303.65 2869.02C4300.85 2865.82 4294.09 2873.74 4293.1 2878.78C4287.89 2883.67 4282.48 2889.16 4277.24 2893.67C4275.45 2895.22 4275.71 2893.25 4275.4 2893.36C4270.65 2895.07 4270.41 2899.27 4269.38 2900.42C4258.15 2912.81 4246.85 2920.75 4236.88 2933.32C4236.53 2933.77 4237.91 2936.53 4233.35 2937.94C4233.04 2938.03 4235.9 2933.4 4230.43 2938.54C4224.99 2943.66 4213.71 2952.34 4207.15 2960.56C4205.55 2962.56 4202.66 2968.67 4197.67 2970.88C4197 2971.17 4196.95 2970.04 4195.91 2970.39C4192.57 2971.52 4193.38 2974.88 4188.94 2975.63C4184.54 2976.36 4177.53 2980.46 4171.24 2988.92C4171.05 2989.18 4170.86 2992.64 4168.45 2994.9C4164.58 2998.52 4158.89 3003.29 4154.89 3007.14C4152.99 3008.97 4155.23 3008.86 4154.91 3009.2C4142.68 3022.05 4132.7 3029.76 4118.52 3042.46C4116.3 3044.44 4111.16 3051.51 4106 3055.3C4105.36 3055.78 4104.72 3056.21 4104.08 3056.58C4097.47 3060.45 4098.03 3050.03 4086.93 3062.85C4082.33 3068.13 4082.32 3080.68 4070.1 3085.61C4053.56 3102.66 4035.46 3116.07 4018.97 3133.26C4018.29 3133.98 4017.35 3138.27 4015.46 3139.92C4012.62 3142.41 4010.39 3142.81 4008.26 3144.61C3999.75 3151.76 3992.57 3159.5 3984.35 3166.48C3981.19 3169.17 3981.53 3167.24 3977.75 3170.43C3973.97 3173.63 3972.55 3177 3967.03 3180.69C3962.78 3183.54 3956.81 3184.26 3951.51 3188.17C3953.38 3190.87 3949.85 3193.76 3944.12 3199.55C3942.98 3200.69 3945.04 3200.49 3944.53 3201.07C3942.52 3203.47 3939.8 3204.44 3937.94 3206.75C3937.5 3207.3 3938.17 3208.19 3937.85 3208.68C3935.04 3213.04 3927.16 3215.94 3925.81 3216.39C3920.59 3218.26 3919.54 3220.83 3915.85 3222.67C3912.15 3224.49 3916.63 3220.32 3912.55 3222.71C3909.67 3224.39 3906.56 3226.3 3903.38 3228.18L3905.24 3228.48C3901.06 3223.12 3899.26 3215.66 3898.41 3209.39C3897.95 3205.56 3896.79 3208.34 3896.69 3207.8C3895.38 3199.69 3897.17 3191.49 3894.37 3186.86C3902.3 3181.57 3893.76 3181.89 3896.27 3170.35L3896.27 3170.43C3896.27 3170.42 3896.27 3170.41 3896.27 3170.4C3896.38 3169.65 3898.9 3168.67 3900.06 3170.44C3900.06 3170.49 3900.05 3170.64 3900.05 3170.69C3900.25 3171.06 3900.38 3171.53 3900.42 3172.13C3900.64 3175.65 3899.1 3180.85 3899.73 3185.71C3899.85 3186.89 3903.1 3193.41 3903.34 3194.23C3905 3200.91 3899.78 3202.08 3899.47 3202.49C3896.42 3206.93 3901.33 3214.36 3902.17 3216C3903.87 3220.22 3905.6 3223.8 3907.8 3226.36L3901.62 3225.37C3905.05 3223.14 3908.4 3220.83 3911.4 3218.2C3915.35 3214.73 3913.7 3211.5 3917 3209.18C3928.09 3201.24 3935.01 3201.99 3942.37 3190.43C3944 3187.89 3939.29 3186.77 3948.99 3182.66C3949.55 3182.45 3957.08 3179.78 3959.22 3175.63C3959.49 3175.1 3958.74 3174.25 3959.24 3173.7C3962.38 3170.21 3965.53 3168.69 3969.09 3165.04C3972.82 3161.24 3977.08 3156.67 3981.75 3153.06C3984.58 3150.88 3989.49 3149.35 3991.07 3148.64C3995.69 3146.53 3997.95 3141.24 4001.38 3140.59C4004.87 3139.89 4002.22 3145.97 4009.03 3141.42C4007.28 3139.04 4005.75 3136.36 4004.12 3133.84C4017.11 3122.3 4030.42 3111.43 4043.2 3099.45C4044.76 3097.98 4042.07 3098.31 4043.72 3096.7C4050.82 3089.8 4057.81 3084.84 4064.94 3077.57C4070.45 3071.93 4075.56 3064.84 4081.33 3058.84C4086.18 3057.94 4092.02 3052.2 4097.82 3046.67C4099.26 3045.29 4100.68 3043.95 4102.06 3042.73C4104.38 3040.67 4104.86 3041.46 4106.68 3040.14C4113.54 3035.12 4108.59 3035.71 4109.93 3033.79C4115.65 3025.6 4120.93 3029.87 4129.2 3021.76C4129.66 3021.31 4132.61 3013.54 4133.18 3012.68C4136.92 3007.1 4134.83 3012.84 4137.99 3010.19C4143.85 3005.25 4148.04 3002.43 4153.77 2995.48C4155.39 2993.5 4158.26 2987.65 4163.09 2985.42C4163.72 2985.13 4164.28 2986.23 4164.71 2985.92C4172.4 2980.14 4169.98 2977.3 4173.06 2972.58C4176.17 2967.85 4183.96 2963.92 4185.74 2963.24C4190.32 2961.5 4183.82 2966.23 4183.78 2966.53C4183.27 2970.12 4187.43 2965.59 4190.98 2962.44C4194.02 2964.58 4198.57 2959.9 4194.6 2959.2C4194.16 2959.13 4191.79 2961.89 4190.98 2962.44C4191.46 2957 4196.32 2951.68 4204.42 2948.52C4208.19 2947.07 4206.91 2950.85 4214.62 2942.48C4218.13 2938.68 4214.97 2938.23 4217.74 2934.6C4224.11 2926.27 4235.45 2918.58 4242.9 2910.85C4245.59 2908.06 4241.92 2909.7 4243.73 2907.75C4248.52 2902.59 4253.73 2898.99 4258.43 2893.69C4258.86 2893.21 4256.73 2893.27 4258.3 2891.72C4270.17 2879.98 4281.24 2870.53 4293.75 2858.41C4299.8 2852.55 4310.04 2841.48 4316.39 2835.52C4327.43 2825.15 4342.17 2813.71 4351.08 2804.3C4356.88 2798.19 4354.53 2798.46 4356.43 2795.24C4360.13 2788.96 4371.26 2782.86 4372.85 2782.04C4372.91 2782.02 4367.92 2787.36 4371.23 2785.17C4373.92 2784.69 4372.8 2782.1 4372.85 2782.04C4373.9 2781.5 4384.41 2771.68 4386.32 2769.43C4387.33 2768.22 4385.75 2767.86 4386.3 2767.25C4399.28 2752.84 4412.87 2739.04 4427.31 2725.75C4427.58 2725.52 4428.28 2726.98 4428.89 2726.44C4437.51 2718.93 4441.43 2712.45 4447.24 2705.18C4453.25 2697.71 4458.71 2692.85 4464.53 2690.79C4467.87 2687.16 4473.26 2682.6 4477.46 2679.28C4479.16 2677.9 4480.72 2676.68 4482.01 2675.68C4486.64 2672.09 4485.06 2669.47 4485.42 2669.03C4495.45 2656.44 4503.22 2651.13 4515.18 2639.57C4520.83 2634.12 4531.59 2622.71 4537.35 2616.41C4541.89 2611.43 4545.23 2609.03 4549.23 2604.29C4549.75 2603.66 4548.23 2603.33 4548.37 2603.11C4552.1 2597 4552.06 2601.69 4553.47 2601.07C4558.61 2598.78 4561.64 2597.28 4566.95 2590.2C4568.19 2588.55 4568.75 2581.09 4570.89 2578.26C4573.65 2574.59 4573.83 2576.96 4576.48 2573.15C4576.7 2572.82 4575.9 2572.22 4577.55 2570.16C4578.7 2568.7 4579.63 2567.43 4580.67 2565.84C4581.49 2564.57 4582.28 2563.31 4582.9 2562.22C4583.2 2561.68 4583.47 2561.17 4583.61 2560.87C4583.69 2560.73 4583.73 2560.64 4583.71 2560.72C4583.7 2560.82 4583.6 2561.01 4583.46 2562.06C4583.4 2562.62 4583.28 2563.43 4583.48 2565.04C4583.72 2566.66 4584.29 2569.98 4587.84 2573.25C4589.56 2574.78 4591.5 2575.7 4593.18 2576.17C4594.64 2576.58 4596.05 2576.67 4596.86 2576.65C4598.63 2576.6 4599.39 2576.34 4600 2576.18C4601.02 2575.85 4601.2 2575.7 4601.29 2575.66C4601.36 2575.61 4601.25 2575.65 4601.1 2575.73C4600.46 2576.09 4599.2 2576.98 4598.02 2577.89C4593.98 2581.07 4589.06 2585.25 4584.52 2588.96C4582.88 2590.3 4586.06 2589.83 4583.63 2591.84C4572.5 2601.02 4559.7 2610.36 4548.09 2617.71C4545.17 2619.56 4546.27 2617.37 4545.46 2617.53C4540.63 2618.44 4537.02 2624.63 4536.23 2625.25C4516.33 2640.89 4498.71 2649.43 4478.06 2664.57C4476.96 2665.39 4469.68 2673.98 4464.17 2674.28C4463.81 2674.3 4458.19 2674.6 4455.82 2678.43C4455.67 2678.67 4458.93 2678.29 4454.54 2680.95C4450.02 2683.7 4443.77 2688.88 4436.79 2691.46C4434.58 2692.28 4428.8 2692.65 4424.25 2698.21C4423.85 2698.65 4418.08 2708.31 4413 2707.39C4412.32 2707.26 4411.23 2704.84 4407.5 2707.45C4406.78 2707.96 4405.95 2708.67 4405 2709.65C4403.92 2710.77 4406.68 2710 4403.58 2712.56C4398.81 2716.51 4391.34 2720.05 4385.84 2725.44C4384.9 2726.37 4381.31 2731.57 4376.59 2732.28C4375.84 2732.4 4376.32 2730.65 4374.24 2731.78C4364.26 2737.24 4354.7 2744.15 4344.42 2749.5C4340.83 2751.37 4341.55 2748.59 4337.67 2750.35C4333.8 2752.12 4326.17 2756.21 4322.93 2759.27C4319.63 2762.36 4325.43 2762.53 4319.89 2766.23C4295.81 2782.3 4270.35 2795.56 4245.44 2810.15C4241.73 2812.32 4245.37 2811.47 4239.95 2814.73C4220.04 2826.75 4185.96 2848.07 4167.26 2856.1C4152.28 2862.55 4169.18 2851.05 4158.07 2856.58C4152.72 2859.24 4148.98 2865.66 4147.79 2866.47C4136.15 2874.53 4126.89 2877.94 4116.08 2884.63C4113.86 2886.01 4116.83 2886.05 4114.93 2887.21C4108.5 2891.14 4101.09 2894.55 4094.85 2898.17C4092.04 2899.81 4093.14 2900.5 4090.46 2901.9C4084.03 2905.25 4078.27 2907.89 4071.64 2910.32C4071.02 2910.54 4074.15 2907.2 4069.42 2909.74C4061.77 2913.86 4051.99 2917.99 4043.73 2923.67C4041.3 2925.35 4042.46 2927.7 4036.05 2929.08C4034.7 2929.38 4034.71 2925.82 4029.45 2931.69C4028.55 2932.68 4019.41 2941.65 4012.84 2942.41C4011.13 2942.61 4006.32 2942.21 4003.42 2944.16C4003.02 2944.44 4005.37 2944.81 4002.83 2946.27C3993.72 2951.48 3984.02 2956.22 3974.71 2961.31C3972.25 2962.66 3976.63 2962.12 3972.95 2964.08C3962.43 2969.67 3949.27 2975.53 3938.52 2979.89C3934.57 2981.49 3936.76 2979.18 3936.42 2979.19C3931 2979.29 3929.72 2982.99 3928.14 2983.87C3919 2988.95 3911.25 2990.71 3902.5 2994.46C3899.99 2995.52 3902.28 2996.11 3901.81 2996.42C3897.03 2999.49 3900.03 2995.74 3896.69 2996.69C3892.51 2997.83 3887.15 2999.5 3882.66 3000.83C3877.08 3002.5 3871.96 3003.98 3866.54 3005.24C3862.87 3006.07 3867.41 3006.77 3863.98 3007.49C3853.58 3008.95 3842.15 3013.09 3824.6 3003.76C3815.53 2998.56 3810.67 2986.48 3810.74 2979.04C3810.44 2971.2 3812.04 2965.32 3813.72 2960.08C3815.07 2956.14 3815.49 2959.01 3816.01 2958.27C3819.52 2953.45 3820.21 2945.31 3820.79 2943.49C3823.2 2935.62 3825.71 2933.3 3828.89 2927.18C3844.84 2897.02 3869.94 2865.32 3889.25 2841.39C3890.92 2839.32 3892.57 2837.3 3894.2 2835.32C3917.26 2807.26 3936.89 2785.28 3960.43 2758.48C3962.05 2756.65 3959.19 2757.4 3960.57 2755.81C3978.37 2735.41 3997.24 2716.48 4016.33 2697.11C4017.9 2695.53 4014.52 2696.67 4017.01 2694.09C4022.11 2688.78 4028.92 2682.39 4034.7 2677.68C4037.51 2675.37 4034.86 2679.66 4037.67 2677.33C4044.23 2671.9 4051.03 2665.86 4057.39 2659.89C4059.87 2657.56 4055.67 2659.5 4057.74 2657.35C4057.93 2657.16 4058.17 2656.93 4058.46 2656.67C4082.9 2634.88 4107.79 2613.94 4135.9 2595.88C4137.83 2594.65 4141.33 2596.05 4144.9 2592.74C4144.68 2591.8 4144.05 2590.96 4143.63 2590.09C4169.55 2571.09 4196.7 2554.29 4224.44 2538.57C4238.07 2530.85 4251.65 2523.17 4265.22 2515.42C4266.97 2514.41 4263.1 2514.68 4266.49 2512.74C4285.95 2501.55 4304.48 2490.39 4325.31 2480.5C4327.37 2479.52 4327.87 2482.67 4333.41 2479.01C4334.4 2478.36 4343 2473.03 4344.94 2471.19C4345.2 2470.93 4342.89 2470.63 4345.74 2468.98C4362.11 2459.5 4379.6 2450.08 4396.49 2441.74C4399.28 2440.36 4397.1 2443.26 4399.08 2442.3C4412.93 2435.58 4427.14 2426.55 4440.93 2420.88C4450.19 2417.11 4448.13 2421.07 4453.93 2420.98C4454.81 2420.92 4460.36 2418.32 4461.34 2419.53C4463.56 2422.58 4462.6 2427.47 4465.34 2430.55C4465.49 2430.72 4466.03 2430.58 4466.58 2430.41C4466.84 2430.33 4467.27 2430.17 4467.55 2430.08C4467.69 2430.03 4467.83 2429.99 4467.94 2429.96C4468.04 2429.94 4468.22 2429.88 4468.31 2429.87C4468.4 2429.85 4468.45 2429.86 4468.47 2429.87C4468.48 2429.89 4468.47 2429.93 4468.3 2430C4468.02 2430.16 4466.98 2430.36 4466.59 2430.46C4466.41 2430.51 4466.49 2430.58 4466.82 2430.64C4467.13 2430.7 4467.64 2430.73 4468.03 2430.74C4468.89 2430.75 4468.9 2430.9 4468.75 2431.24C4469.01 2431.21 4464.33 2434.09 4463.33 2435.38C4462.7 2436.23 4464.9 2436.82 4463.42 2438.23C4461.86 2439.69 4459.33 2439.56 4456.74 2441.7C4453.99 2443.95 4456.21 2444.7 4450.33 2448.01ZM4502.86 2659.45C4507.67 2656.68 4504.57 2652.38 4501.31 2657.39C4501.16 2657.63 4502.62 2659.59 4502.86 2659.45ZM4033.03 3114.35C4039.73 3111.33 4041.01 3105.54 4036.13 3107.6C4031.31 3109.61 4030.95 3115.3 4033.03 3114.35ZM3979.64 3164.5C3987.1 3160.39 3983.22 3153.92 3977.47 3160.94C3977.15 3161.34 3979.21 3164.73 3979.64 3164.5ZM4432.64 2432.86C4432.77 2432.87 4436.7 2430.86 4436.72 2430.77C4438.01 2428.2 4430.18 2432.21 4432.64 2432.86ZM3924.99 3212.22C3927.68 3211.44 3932.77 3205.99 3929.51 3206.94C3926.83 3207.79 3921.71 3213.15 3924.99 3212.22ZM4479.8 2647.21C4479.69 2647.18 4477.02 2648.86 4477.32 2649.2C4478.29 2650.26 4481.71 2647.52 4479.8 2647.21ZM3895.9 3134.38C3898.11 3152.67 3892.82 3164.09 3891.46 3144.47C3891.16 3140.9 3894.29 3151.9 3894.32 3147.32C3894.35 3138.87 3889.73 3133.9 3890.57 3125.14C3890.73 3123.56 3895.8 3133.34 3895.92 3134.41C3895.91 3134.4 3895.91 3134.39 3895.9 3134.38ZM4509.49 2661.73C4509.62 2661.69 4512.78 2658.64 4512.79 2658.53C4513.3 2655.68 4506.96 2661.81 4509.49 2661.73ZM4323.64 2742.53C4323.31 2742.56 4314.73 2747.67 4314.52 2747.97C4311.48 2753.03 4328.92 2742.63 4323.64 2742.53ZM4303.44 2869.06C4301.21 2873.56 4297.29 2877.64 4293.12 2878.77C4296.57 2875.57 4299.98 2872.28 4303.44 2869.06Z" fill="black"/>
</svg>
