<svg width="2923" height="2625" viewBox="0 0 2923 2625" fill="none" xmlns="http://www.w3.org/2000/svg">
<path d="M301.309 45.9294C357.285 43.2392 430.403 41.3275 486.232 40.2158C503.585 39.8719 494.797 41.1086 507.106 40.9057C530.185 40.5413 552.506 39.372 575.719 39.0927C583.352 39.0069 573.884 40.8129 581.919 40.6875C613.39 40.179 642.341 39.2459 673.521 38.3401C686.271 37.9706 699.517 37.6037 713.381 37.2839C934.249 32.2491 1152.2 26.617 1376.08 21.255C1449.92 19.4859 1539.74 18.4849 1616.02 15.9293C1624.93 15.6294 1619.59 14.4395 1621.28 14.2867C1647.81 11.9334 1639.01 14.8377 1656.37 14.7518C1725.24 14.4059 1801.81 12.6378 1868.1 10.554C1896.37 9.66335 1867.98 7.69779 1896.48 8.50612C1898.46 8.55975 1891.33 10.136 1899.07 10.1048C1916.46 10.0337 1949.99 9.00874 1963.45 8.81581C1989.39 8.44988 1994.21 8.32798 2018.72 7.8017C2052.73 7.08533 2093.09 6.92363 2129.24 5.8714C2137.08 5.6402 2126.69 4.40571 2139.15 3.90841C2151.53 3.411 2184.29 2.89351 2195.36 3.02799C2206.33 3.1619 2201.67 4.38522 2203.61 4.60888C2219.85 6.49564 2257.16 2.7945 2262.48 2.63343C2273.12 2.30083 2283.37 2.02252 2293.25 1.78969C2370.02 0.033348 2437.05 0.507907 2511.05 0.544292C2575.3 2.31838 2640.43 -4.76668 2705.01 12.7128C2707.63 14.0827 2711.1 16.3881 2713.38 20.1287C2715.73 23.9238 2716.06 27.882 2716.32 30.1158C2719.86 66.197 2723.31 99.2085 2727.52 132.638C2730.94 160.085 2734.72 187.627 2739.34 216.652C2740.49 223.883 2740.82 215.114 2742.25 224.001C2753.28 292.227 2766.31 359.929 2780.35 427.345C2785.64 452.717 2791.11 478.227 2796.61 503.642C2798.63 512.976 2794.42 501.304 2796.36 510.664C2808.17 567.759 2826.86 658.237 2841.25 690.432C2850.21 728.934 2861.13 775.689 2867.9 810.435C2872.27 832.897 2865.66 811.581 2872.65 838.756C2874.23 844.934 2873.77 836.569 2876.01 845.801C2878.22 854.907 2880.44 864.396 2882.58 873.783C2889.58 904.568 2896.19 936.464 2902.07 966.231C2903.62 974.085 2904.49 971.771 2905.11 973.976C2910.35 992.616 2911.6 1024.91 2912.06 1031.85C2915.5 1073.59 2916.95 1106.4 2918.26 1142.48C2918.6 1152.25 2918.9 1162.28 2919.14 1172.82C2919.39 1184.26 2920.8 1170.69 2921.09 1181.7C2922.53 1238.76 2922.58 1297.88 2921.24 1353.74C2920.93 1366.16 2919.6 1354.71 2919.37 1360.65C2918.36 1386.83 2921.01 1392.65 2919.85 1417.78C2919.6 1423.05 2918.42 1420.05 2918.26 1421.01C2915.74 1436.03 2918.36 1449.3 2918.29 1453.17C2918.2 1459.26 2918.04 1465.09 2917.83 1470.64C2916.24 1510.4 2912.08 1539.53 2908.94 1581.04C2908.5 1586.71 2911.2 1574.07 2909.86 1590C2905.45 1641.42 2899.53 1693.98 2894.07 1746.56C2888.23 1802.39 2882.48 1858.3 2876.68 1912.21C2874.94 1928.48 2874.86 1916.74 2874.62 1917.75C2870.75 1934.24 2872.78 1945.33 2872.38 1950.65C2869.22 1992.64 2862.92 2031.49 2863.78 2060.32C2860.97 2087.23 2858.21 2114.03 2855.36 2140.87C2840.7 2265.29 2836.2 2389.78 2809.85 2513.06C2807.98 2521.16 2800.16 2527.03 2793.83 2529.38C2787.32 2532.04 2780.75 2533.49 2774.36 2534.75C2761.59 2537.18 2748.68 2538.69 2735.94 2540.07C2733.7 2540.31 2737.54 2538.31 2733.04 2538.8C2679.35 2544.19 2689.66 2545.15 2654.62 2551.7C2645.54 2553.35 2618.32 2552.63 2615.63 2552.65C2606.88 2552.6 2615.6 2549.46 2612.7 2549.57C2588.28 2550.63 2592.85 2557.61 2560.13 2560.97C2559.08 2561.07 2563.35 2559.26 2560.52 2559.41C2553.04 2559.81 2545.76 2560.94 2538.14 2561.51C2537.14 2561.58 2536.13 2561.64 2535.12 2561.69C2515.94 2562.56 2508.53 2559.7 2479.61 2564.55C2475.89 2565.16 2481.96 2568.86 2452.57 2571.35C2441 2572.35 2389.1 2576.91 2374.52 2577.8C2359.99 2578.72 2369.84 2576.55 2368.79 2576.58C2329.61 2577.96 2344.38 2576.01 2324.6 2574.91C2304.62 2573.81 2310.77 2579.66 2302.81 2580.98C2294.81 2582.3 2266.16 2582.96 2258.96 2582.96C2251.82 2582.97 2260.6 2581.47 2254.3 2581.63C2212.81 2582.72 2236.29 2586.07 2222.71 2588.05C2190.7 2592.68 2165.14 2589.72 2135.64 2591.18C2127.6 2591.58 2134.21 2592.22 2127.09 2592.78C2099.04 2594.96 2081.9 2594.57 2049.93 2597.83C2044.71 2598.36 2018.93 2602.7 2002.01 2601.59C1999.61 2601.43 2006.33 2599.88 1994.25 2600.3C1976.34 2600.92 1943.96 2602.43 1924.63 2603.82C1910.41 2604.84 1926.83 2605.92 1908.89 2606.25C1900.9 2606.39 1915.62 2604.51 1900.62 2604.87C1885.65 2605.23 1847.59 2607.12 1833.11 2607.82C1818.63 2608.53 1826.62 2609.62 1825.46 2609.77C1818.37 2610.67 1790.67 2612.6 1788.2 2612.7C1698.05 2616.74 1612.89 2618.43 1526.75 2620.13C1494.47 2620.76 1462.25 2621.35 1429.36 2622.04C1419.92 2622.23 1426.23 2623.68 1424.79 2623.73C1392.34 2624.79 1417.86 2620.38 1395.22 2619.28C1398.52 2622.36 1385.16 2621.96 1362.31 2622.47C1351.34 2622.72 1357.32 2623.88 1356.32 2624.01C1340.01 2625.96 1328.6 2623.63 1325.69 2623.16C1314.97 2621.42 1303.07 2623.55 1295.75 2622.36C1288.42 2621.19 1305.27 2619.43 1283.46 2619.46C1277.29 2620.57 1293.62 2623.49 1276.92 2623.96C1214.17 2625.87 1097.08 2622.09 1046.6 2620.61C996.213 2619.24 980.163 2618.95 950.71 2617.68C897.792 2615.29 917.041 2618.06 884.197 2617.9C851.143 2617.68 867.461 2612.94 862.759 2611.62C858.099 2610.3 852.931 2611.28 847.186 2610.42C841.47 2609.57 853.915 2609.28 840.448 2608.51C826.798 2607.75 789.67 2608.18 784.846 2609.14C774.495 2611.21 791.11 2614.66 755.238 2612.04C753.169 2611.88 759.956 2610.8 752.037 2610.28C709.067 2607.47 664.361 2604.79 620.692 2601.72C600.743 2600.32 580.984 2598.84 561.49 2597.17C553.045 2596.44 560.79 2595.43 555.722 2594.97C503.511 2590.06 522.266 2594.1 493.185 2594.45C499.978 2591.02 484.375 2587.95 445.133 2582.54C421.66 2578.77 425.485 2581.1 410.138 2578.65C405.485 2578.07 389.935 2571.26 386.95 2570.42C379.727 2568.96 384.018 2573.43 374.478 2569.03C370.472 2567.11 364.174 2563.68 353.923 2557.12C352.383 2556.12 358.11 2557.92 352.747 2554.57C319.125 2532.39 313.048 2532.19 280.29 2502.7C254.24 2479.43 220.025 2428.75 197.225 2397.75C200.238 2396.28 188.056 2379.6 176.647 2367.47C172.883 2363.44 169.387 2360.09 166.479 2357.68C150.838 2338.13 132.828 2317.91 117.388 2299.1C112.091 2292.61 116.611 2296 116.032 2295.11C107.253 2281.37 98.2968 2274.55 94.9039 2270.25C67.5182 2235.61 51.6766 2200.4 36.7101 2163.75C31.5298 2150.98 27.3897 2137.65 23.5931 2123.68C23.1075 2121.74 19.223 2119.18 18.6006 2103.88C18.5986 2102.91 23.2523 2120.95 18.6712 2094.83C14.1155 2068.67 10.631 2018.96 6.35625 1982.54C5.28534 1973.75 1.07991 1951.46 1.6851 1933.44C1.76928 1931.03 2.82982 1933.58 3.05763 1930.09C3.43905 1923.89 2.59952 1919.51 1.99465 1914.44C1.49264 1910.26 1.18939 1905.71 2.03698 1899.6C3.87576 1886.31 4.63694 1859.05 2.92754 1822.16C2.87799 1820.98 0.454367 1812.18 0.62793 1800.6C0.88471 1782.04 2.0243 1755.75 2.64951 1736.38C2.94638 1727.07 1.2432 1732.99 1.26866 1731.37C2.54607 1671.17 6.00327 1627.81 10.0576 1564.79C10.2008 1562.6 10.3461 1560.37 10.4935 1558.1C11.279 1545.82 11.2921 1510.63 14.4301 1487.05C17.8871 1461.16 23.4833 1488.29 25.7133 1428.55C26.6487 1404.45 19.3965 1373.28 27.4773 1330.39C32.5641 1246.41 41.395 1169.14 47.3831 1084.96C47.6535 1081.17 46.1485 1068.98 47.0224 1060.11C48.3273 1046.91 50.235 1039.91 51.2396 1030.41C53.4345 1009.87 55.2216 990.225 57.0626 970.755C58.7604 952.82 60.5029 935.072 62.66 916.926C64.376 902.581 65.041 907.75 67.156 890.551C69.29 873.412 69.032 861.753 72.854 838.655C75.7557 821.26 81.5198 804.118 85.2663 780.992C82.0706 779.645 84.4025 763.676 87.9003 735.233C88.5623 729.831 86.5132 735.41 86.7662 732.85C87.7924 722.287 90.2837 712.721 91.2008 702.664C91.4278 700.205 90.3099 699.918 90.4252 697.933C91.0174 687.551 93.7724 673.428 95.97 662.905C97.4121 655.993 98.6656 650.661 99.1002 648.821C103.329 630.714 102.946 622.066 105.417 608.034C107.847 594.144 106.049 615.193 108.511 598.832C113.607 564.972 118.181 521.127 121.437 486.537C122.737 472.674 120.332 481.993 120.483 480.006C122.738 451.388 126.622 422.697 124.751 406.499C134.071 387.281 125.264 389.227 129.605 348.395C129.957 345.183 133.952 341.445 133.662 353.752C133.366 366.27 130.967 384.758 130.55 402.124C130.475 406.117 132.178 429.738 132.117 432.948C131.754 457.976 125.818 461.059 125.409 462.362C120.843 476.953 121.876 505.703 121.357 513.229C119.09 547.608 114.97 576.51 112.219 605.229C110.395 623.951 113.761 626.288 111.675 640.912C110.398 649.792 109.096 657.464 107.778 664.597C101.768 696.559 95.8981 714.175 93.817 752.069C93.2901 762.014 98.6128 752.863 90.4072 787.463C89.8803 789.638 83.3527 815.305 83.1755 830.611C83.1512 832.533 84.3141 832.623 84.0779 835.156C82.5022 851.985 80.1666 862.988 78.374 881.305C76.5884 899.599 74.6825 921.734 72.0002 942.505C70.7404 952.237 68.1029 964.055 66.4492 971.743C65.9906 973.841 65.6083 975.617 65.3549 976.922C62.0436 993.871 62.729 1012.25 59.8389 1022.72C56.9474 1033.15 56.1587 1012.03 52.2425 1039.9C55.1558 1041.22 58.0202 1043.88 60.8907 1045.83C54.9212 1107.08 48.7103 1167.19 43.834 1228.73C43.2353 1236.35 45.4884 1228.69 44.89 1236.86C42.366 1271.37 38.8701 1301.4 36.6677 1337.22C34.971 1364.95 34.5162 1395.42 32.9699 1424.42C28.2965 1441.84 26.6155 1485 24.424 1516.16C23.6488 1527.17 22.7775 1526.28 22.0138 1534.08C19.1953 1563.31 23.0501 1549.84 23.0713 1557.89C23.0801 1560.63 23.0459 1563.16 22.974 1565.51C22.1351 1593.19 15.9655 1598.24 14.2433 1635.87C14.1386 1637.93 16.5679 1664.63 16.6498 1668.2C17.1241 1691.38 15.1898 1671.95 14.2939 1686.4C12.6999 1712.76 11.1042 1731.05 11.3682 1762C11.4496 1771.03 13.282 1792.65 11.3904 1810.11C11.141 1812.43 9.92939 1811.14 9.84622 1813C8.56546 1846.51 12.56 1847.34 14.2703 1866.37C15.6258 1881.05 15.3062 1902.03 15.167 1913.48C15.1193 1916.92 15.0388 1919.49 14.9664 1920.86C14.3802 1932.18 13.7533 1921.23 13.3434 1913.62C13.1876 1910.7 13.0804 1908.28 13.0093 1908.04C11.424 1902.74 11.1857 1906.58 11.513 1913.75C11.8079 1920 12.4775 1928.66 12.9483 1936.2C9.37354 1938.94 11.3462 1961.93 14.0505 1953.34C14.3393 1952.36 13.0251 1939.59 12.9483 1936.2C17.716 1950.45 20.0446 1975.73 19.0838 2003.92C18.7249 2017.16 15.4206 2004.94 20.2831 2044.55C22.6656 2062.44 24.3896 2055.22 27.156 2070.84C32.1306 2097.85 36.686 2131.41 47.3877 2159.51C50.8938 2168.71 54.4951 2177.42 58.2104 2185.46C63.9588 2197.7 59.7631 2185.2 63.7422 2193.41C74.5067 2215.23 84.0851 2234.23 98.6561 2253.74C99.9801 2255.49 98.0429 2250.28 102.474 2256.37C129.394 2292.36 158.565 2322.94 186.743 2359.47C194.355 2369.18 201.98 2379.2 209.774 2389.61C227.75 2413.52 258.898 2455.94 279.47 2477.31C306.661 2507.53 345.63 2536.65 381.45 2556.36C390.722 2561.64 399.458 2565.24 408.223 2567.68C435.57 2574.36 430.279 2570.8 442.454 2572.02C466.318 2573.92 508.847 2581.11 514.652 2582.12C514.854 2582.19 489.628 2580.26 502.932 2582.23C510.82 2584.53 514.31 2582.1 514.652 2582.12C518.41 2582.9 569.058 2587.02 579.181 2587.34C584.671 2587.55 581.697 2585.94 584.583 2586.08C596.867 2586.66 608.997 2587.23 621.541 2587.83C677.152 2590.46 733.139 2593.25 789.701 2596.32C790.9 2596.4 789.02 2597.89 791.843 2598.06C831.701 2600.52 857.424 2599.6 890.445 2599.64C923.431 2599.68 949.426 2600.85 968.951 2604.11C993.697 2604.49 1029.58 2606.57 1049.97 2607.72C1070.6 2608.88 1073.37 2605.86 1075.22 2605.83C1131.61 2604.94 1164.22 2607.12 1222.64 2607.77C1250.48 2608.1 1305.57 2607.7 1335.65 2607.19C1359.53 2606.79 1373.78 2607.39 1395.69 2606.71C1398.65 2606.61 1395.64 2605.28 1396.55 2605.22C1420.97 2603.31 1409.27 2606.77 1414.34 2607.31C1432.64 2609.23 1444.08 2610.24 1475.3 2608.65C1482.55 2608.29 1503.45 2603.07 1516.62 2602.48C1521.27 2602.27 1524.18 2602.26 1526.33 2602.33C1532.05 2602.53 1532.17 2603.36 1545.23 2602.72C1546.76 2602.65 1546.41 2601.6 1557.49 2601.35C1608.85 2600.19 1664.83 2598.96 1718.19 2596.77C1725.47 2596.48 1716.07 2595.16 1726.59 2594.71C1775.99 2592.57 1830.13 2590.21 1878.28 2588.62C1890.1 2588.24 1882.75 2589.78 1885.33 2590C1901.29 2591.33 1923.41 2587.11 1927.15 2586.85C2015.09 2580.73 2082.76 2579.49 2172.35 2572.16C2177.22 2571.77 2214.54 2565.9 2231.52 2567.51C2232.76 2567.61 2249.3 2569.32 2264 2566.26C2264.89 2566.07 2254.45 2565.35 2272.5 2564.16C2290.4 2562.99 2319.59 2559.76 2344.3 2559.42C2352.3 2559.3 2371.05 2560.69 2394.14 2556.43C2395.67 2556.16 2431.44 2547.86 2444.46 2550.27C2446.47 2550.67 2445.01 2554.66 2472.44 2550.16C2477.81 2549.28 2467.98 2549.35 2482.06 2547.49C2497.21 2545.46 2517.04 2543.9 2536.06 2541.52C2543.69 2540.58 2550.98 2539.56 2558.15 2538.35C2562.91 2537.56 2582.25 2532.98 2598.11 2533.34C2600.63 2533.39 2596.06 2535.13 2604.43 2534.42C2644.01 2531.04 2685.37 2526.23 2725.26 2522.43C2739.35 2521.01 2732.41 2523.99 2747.04 2522.57C2754.18 2521.83 2765.47 2520.48 2775.6 2518.19C2780.66 2517.05 2785.66 2515.53 2788.94 2513.82C2790.54 2512.99 2791.7 2512.11 2792.27 2511.47C2792.85 2510.8 2793.01 2510.37 2793.18 2509.74C2793.28 2509.34 2793.33 2508.91 2793.35 2508.47C2794.56 2498.99 2789.19 2510.2 2793.34 2490.18C2809.14 2392.39 2817.75 2290.92 2828.92 2190.32C2830.48 2175.44 2828.07 2187.5 2830.29 2165.6C2831.15 2157.05 2832.04 2148.26 2833.01 2138.56C2841.29 2056.12 2851.76 1936.48 2860.08 1873.37C2867.48 1816.99 2862.16 1888.33 2867.11 1845.17C2869.5 1824.35 2867.92 1801.44 2868.3 1796.34C2869.7 1777.23 2871.33 1760.43 2873.05 1744.43C2875.78 1719.06 2878.73 1695.79 2881.23 1668.68C2882.08 1659.56 2879.62 1668.34 2880.35 1660.56C2882.83 1634.04 2886.34 1606.25 2888.4 1580.98C2889.31 1569.64 2887.96 1571.63 2888.89 1561.21C2891.05 1536.29 2892.92 1514.27 2895.18 1489.93C2895.38 1487.72 2896.14 1502.79 2897.06 1484.27C2897.28 1479.6 2897.52 1474.87 2897.76 1469.85C2899.1 1442.84 2900.52 1411.62 2900.04 1382.33C2899.86 1372.06 2897.21 1371.62 2899.3 1349.56C2899.72 1344.92 2902.94 1350.87 2900.31 1325.11C2899.91 1320.77 2896.24 1277.56 2898.48 1256.35C2899.08 1250.77 2901.61 1236.44 2901.04 1224.08C2900.95 1222.41 2899.6 1229.13 2899.32 1218.91C2898.67 1194.2 2898.12 1168.63 2897.18 1143.16C2896.75 1131.47 2896.23 1119.79 2895.53 1108.22C2894.92 1098.4 2894.17 1113.09 2893.28 1098.49C2891.01 1058.34 2885.59 1008.99 2878.88 970.219C2876.46 955.923 2879.47 965.56 2879.41 964.49C2878.5 947.404 2873.56 938.055 2872.29 932.562C2867.68 912.88 2864.17 895.764 2860.58 878.688C2857.95 866.149 2855.26 853.625 2852 840.147C2849.88 831.428 2849.94 837.944 2849.42 836.231C2844.02 818.398 2849.63 831.35 2847.22 819.795C2840.51 787.559 2831.87 751.84 2823.93 719.429C2821.02 707.546 2822.63 721.312 2820.03 710.622C2804.6 647.393 2788.93 581.52 2775.53 519.311C2773.02 507.603 2775.93 514.661 2775.65 512.162C2773.75 494.937 2765.56 470.981 2764.04 465.308C2760.26 451.338 2758.24 441.852 2756.36 432.521C2754.79 424.708 2753.31 416.975 2751.07 406.727C2732.74 323.65 2715.29 225.049 2704.29 135.658C2700.44 105.182 2697.12 75.7223 2694.53 48.4552C2694.01 43.1111 2693.5 37.8343 2692.96 32.7425C2692.85 31.7324 2692.77 31.1628 2692.75 31.0814C2692.74 30.9884 2692.83 31.4274 2693.13 32.0037C2693.41 32.5672 2693.87 33.1656 2694.15 33.4367C2694.47 33.7457 2694.57 33.7789 2694.48 33.7143C2694.05 33.3271 2690.88 32.0825 2687.89 31.3694C2681.39 29.7516 2673.87 28.7372 2666.43 27.9101C2651.34 26.2834 2635.92 25.4301 2621.04 24.7507C2591.14 23.4421 2561.42 22.9257 2532.07 22.6061C2473.73 22.0254 2414.7 22.3745 2351.3 23.3536C2342.85 23.4856 2351.42 25.0437 2344.09 25.1806C2326.55 25.4936 2311.11 25.7633 2293.63 26.0589C2217.22 27.3631 2139.75 28.5336 2062.56 30.5821C2054.86 30.7843 2066.02 32.1316 2053.62 32.5106C2027.85 33.3069 1995.87 33.9297 1969.88 34.0129C1957.38 34.0525 1974.11 32.3103 1961.52 32.3786C1931.96 32.5407 1900.53 33.1593 1870.02 34.1378C1857.22 34.5536 1876.59 35.7167 1859.93 36.1316C1745.77 39.0142 1633.67 42.1337 1518.28 43.0584C1510.37 43.1217 1503.34 40.0064 1486.54 41.0829C1485.3 42.0315 1485.4 43.1061 1484.87 44.0989C1318.74 49.0196 1154.1 52.4373 987.622 57.038C980.53 57.2346 992.825 58.6298 979.114 59.019C900.174 61.2635 824.305 63.9653 743.351 64.6446C735.348 64.714 739.146 61.5234 716.004 62.6828C712.63 62.8536 687.485 63.9007 674.322 64.7729C671.288 64.9664 668.795 65.1521 667.147 65.3203C665.892 65.4591 672.48 66.6948 660.91 67.088C594.507 69.3245 525.333 71.1388 458.814 72.4347C448.263 72.6359 459.629 70.7344 451.847 70.8735C397.987 71.8381 338.867 74.9901 287.499 75.7229C252.928 76.2782 265.639 73.0839 247.174 71.3918C244.543 71.1227 223.327 72.3488 222.138 70.9809C219.041 67.3874 229.022 62.5019 224.57 58.7499C223.474 57.8311 194.851 61.3415 211.672 57.714C212.777 57.3952 233.901 55.1824 238.918 54.2487C242.421 53.5582 235.848 52.3787 243.228 51.3401C250.469 50.3186 258.525 51.2108 270.57 49.9289C282.661 48.6499 277.242 47.1087 301.309 45.9294ZM1142.4 2612.56C1161.51 2614.27 1164.34 2608.92 1143.7 2609.95C1142.7 2610 1141.42 2612.47 1142.4 2612.56ZM44.8113 1166.55C40.3278 1191.12 42.4139 1208.38 45.6971 1191.05C48.9895 1173.71 46.1778 1159.05 44.8113 1166.55ZM68.2542 909.67C63.0765 938.404 70.1787 943.657 72.1538 912.67C72.2748 910.862 68.5609 907.973 68.2542 909.67ZM332.164 67.0534C331.797 66.9936 316.63 67.4963 316.138 67.5883C308.02 69.6065 338.754 68.5822 332.164 67.0534ZM102.071 655.941C101.576 657.853 101.07 660.575 100.604 663.569C98.9334 674.317 97.6825 688.461 100.023 679.892C101.02 676.2 102.064 669.589 102.695 663.869C103.597 655.725 103.733 649.501 102.071 655.941ZM2134.67 2588.61C2134.98 2588.67 2146.02 2588.02 2145.77 2587.58C2144.94 2586.18 2129.58 2587.59 2134.67 2588.61ZM152.847 224.303C138.092 286.537 127.61 324.849 139.866 255.535C142.337 243.062 136.856 282.868 140.334 267.047C144.943 246.115 146.415 229.87 151.51 211.588L151.482 211.688C153.178 204.756 155.19 197.522 157.852 189.631C159.018 186.181 156.92 201.159 155.1 212.632C155.098 212.639 155.092 212.66 155.09 212.667C153.973 218.34 153.147 223.217 152.827 224.415C152.833 224.377 152.84 224.34 152.847 224.303ZM1153.33 2619.16C1153.69 2619.24 1168.92 2619.48 1169.3 2619.41C1177.56 2617.8 1146.89 2617.31 1153.33 2619.16ZM2776.33 2532.18C2776.64 2532.12 2784.04 2530.87 2792 2527.78C2795.93 2526.22 2800.11 2523.96 2802.99 2520.83C2805.94 2517.68 2807.07 2514.18 2807.54 2512.42C2807.73 2511.72 2807.84 2511.26 2807.86 2511.15C2808.42 2506 2807.45 2507.58 2805.86 2511.95C2802.46 2528.82 2763.6 2531.56 2776.33 2532.18ZM196.955 2397.2C189.099 2388.71 180.81 2378.66 174.174 2369.43C171.151 2365.23 168.635 2361.4 166.526 2357.74C169.466 2361.42 172.238 2364.91 175.171 2368.64C182.561 2378.05 189.825 2387.57 196.955 2397.2Z" fill="black"/>
<path d="M302.846 1234.79C315.938 1234.16 333.231 1234.45 346.485 1234.98C350.556 1235.14 348.483 1236.12 351.324 1236.28C356.976 1236.58 362.227 1236.05 367.569 1236.42C369.392 1236.55 367.139 1238.09 369.057 1238.19C379.482 1238.73 389.576 1238.22 400.039 1238.42C405.814 1238.51 410.962 1238.61 416.736 1238.68C463.108 1239.35 509.415 1239.29 556.625 1239.29C574.09 1239.29 595.246 1240.38 613.28 1239.53C615.377 1239.43 614.108 1238.12 614.506 1238.01C620.753 1236.25 618.706 1238.95 622.816 1239.25C639.08 1240.44 657.19 1240.31 672.821 1239.57C679.477 1239.26 672.762 1236.72 679.49 1238.1C679.957 1238.19 678.287 1239.63 680.116 1239.75C684.266 1240.03 692.111 1239.67 695.323 1239.73C701.51 1239.86 702.535 1239.83 708.386 1239.76C716.378 1239.68 725.912 1240.24 734.479 1239.79C736.306 1239.69 733.864 1238.28 736.776 1237.99C739.681 1237.71 747.448 1237.71 750.051 1238.01C752.661 1238.31 751.569 1239.46 752.034 1239.72C755.842 1241.85 764.773 1238.67 765.918 1238.58C786.888 1236.97 804.867 1238.41 824.603 1238.07C839.56 1237.81 855.539 1236.96 869.765 1236.78C886.603 1236.57 901.158 1237.08 917.56 1236.61C919.308 1236.56 917.227 1234.9 919.358 1234.84C931.447 1234.48 944.004 1234.22 956.009 1234.15C966.44 1234.09 976.399 1234.16 986.737 1234.41C988.988 1234.47 986.134 1236.03 988.38 1236.18C1002.21 1237.04 1023.91 1239.32 1031.93 1232.54C1041.3 1232.47 1052.58 1232.3 1060.96 1233.25C1066.24 1233.87 1061.22 1235.71 1067.78 1234.73C1069.23 1234.51 1067.28 1233.17 1069.45 1232.95C1078.85 1231.99 1089 1231.93 1098.28 1230.6C1100.13 1230.33 1099.51 1229.09 1100.05 1228.83C1104.37 1226.69 1112.07 1229.21 1113.68 1229.3C1123.68 1229.87 1131.44 1229 1140.23 1228.36C1142.43 1228.21 1144.66 1228.06 1147.01 1227.94C1149.73 1227.81 1146.42 1226.27 1149.04 1226.08C1162.6 1225.16 1176.71 1225.01 1189.99 1225.79C1192.94 1225.97 1190.22 1227.42 1191.63 1227.58C1197.83 1228.29 1199.23 1225.55 1205.19 1226.23C1206.44 1226.37 1205.71 1227.61 1205.94 1227.75C1209.48 1229.96 1212.64 1226.98 1213.57 1226.94C1225.25 1226.29 1232.57 1229.74 1243.81 1229.74C1245.14 1229.73 1242.2 1228.03 1245.95 1228.12C1271.13 1228.74 1297.56 1230.59 1322.31 1233.07C1326.19 1233.46 1323.35 1234.51 1323.59 1234.67C1327.43 1237.14 1330.11 1234.21 1331.39 1234.16C1341.32 1233.81 1350.52 1236.81 1357.39 1233.47C1367.03 1234.2 1376.38 1234.73 1386.02 1235.17C1418.21 1236.63 1450.58 1236.49 1482.75 1239.36C1483.28 1239.41 1482.32 1240.9 1483.37 1240.98C1496.19 1241.96 1493.65 1239.59 1502.15 1236.79C1504.3 1236.09 1510.69 1239.59 1511.27 1239.85C1513.35 1240.8 1511.17 1243.03 1511.87 1243.21C1517.65 1244.67 1516.74 1237.25 1524.52 1237.29C1524.76 1237.3 1523.73 1238.66 1524.38 1238.8C1526.41 1239.24 1528.43 1238.7 1530.43 1239.18C1534.95 1240.29 1536.55 1243.91 1543.52 1241.83C1544.41 1241.56 1543.07 1237.35 1550.02 1237.57C1552.79 1237.67 1565.05 1237.62 1568.49 1237.9C1571.93 1238.18 1569.56 1239.53 1569.81 1239.59C1579.06 1241.4 1575.55 1242.14 1580.18 1244.8C1584.81 1247.45 1583.53 1241.14 1585.43 1240.44C1587.32 1239.74 1594.1 1241.23 1595.77 1241.74C1597.43 1242.26 1595.36 1243.12 1596.84 1243.41C1606.66 1245.32 1601.15 1240.28 1604.39 1239.28C1612.02 1236.92 1617.98 1241.6 1624.95 1242.06C1626.84 1242.18 1625.3 1241.12 1626.98 1241.02C1633.68 1240.64 1637.63 1242.1 1645.25 1240.76C1646.51 1240.54 1652.6 1237.73 1656.59 1239.8C1657.16 1240.09 1655.55 1241.26 1658.4 1241.52C1662.66 1241.91 1670.29 1242.17 1674.87 1241.79C1678.23 1241.5 1674.38 1239.58 1678.6 1240.18C1680.48 1240.44 1677.01 1241.56 1680.52 1241.97C1684.1 1242.38 1693.02 1242.35 1696.5 1242.31C1699.93 1242.28 1698.05 1240.82 1698.33 1240.72C1700.03 1240.16 1706.53 1239.47 1707.13 1239.48C1734.23 1239.38 1759.26 1241.57 1785.38 1241.65C1787.6 1241.66 1789.78 1241.65 1791.93 1241.63C1794.14 1241.6 1792.7 1240.04 1793.03 1240.02C1800.69 1239.51 1794.61 1243.49 1799.93 1244.96C1799.26 1241.83 1802.22 1242.44 1807.76 1242.21C1810.36 1242.1 1808.97 1240.86 1809.21 1240.75C1813 1238.99 1815.77 1241.42 1816.42 1241.92C1818.91 1243.76 1821.72 1241.72 1823.46 1242.96C1825.16 1244.18 1821.15 1245.84 1826.28 1245.94C1827.74 1244.87 1824.04 1241.85 1827.9 1241.48C1842.82 1240.04 1870.4 1243.34 1882.27 1244.12C1894.13 1244.87 1897.97 1244.84 1904.87 1245.55C1917.32 1246.82 1912.82 1244.46 1920.63 1243.79C1928.41 1243.11 1924.46 1248.28 1925.53 1249.47C1926.58 1250.66 1927.8 1249.53 1929.15 1250.21C1930.5 1250.89 1927.5 1251.55 1930.72 1251.91C1933.89 1252.27 1942.73 1250.54 1943.94 1249.38C1946.4 1246.92 1942.51 1244.14 1950.99 1245.34C1951.47 1245.41 1949.87 1246.76 1951.7 1246.95C1966.52 1248.48 1981.81 1248.89 1996.73 1250.1C1996.73 1250.1 1996.73 1250.1 1996.74 1250.1C1998.71 1250.28 1996.91 1251.8 1998.07 1251.91C2010.42 1253.11 2006 1250.41 2012.82 1247.59C2011.24 1251.45 2014.96 1253.89 2024.36 1254.03C2030.02 1254.12 2029.01 1252.41 2032.69 1251.25C2033.79 1250.91 2037.82 1252.12 2038.52 1251.32C2040.92 1248.74 2037.14 1245.79 2046.86 1247.05C2047.29 1247.11 2045.91 1248.52 2047.39 1248.62C2056.78 1249.28 2058.01 1246.56 2068.24 1246.31C2076.24 1246.12 2090.53 1247.87 2099.66 1248.19C2099.42 1252.55 2108.13 1251.6 2111.6 1248.6C2117.53 1248.75 2123.94 1248.61 2129.67 1249.04C2131.65 1249.19 2130.35 1250.45 2130.6 1250.59C2134.43 1252.74 2136.98 1249.82 2138.27 1249.71C2152.16 1248.63 2163.45 1250.87 2176.7 1248.71C2177.17 1248.63 2177.94 1245.6 2181.48 1247.81C2181.7 1247.97 2177.33 1249.35 2183.56 1249.45C2189.79 1249.56 2201.55 1251.18 2210.19 1249.77C2212.28 1249.42 2217.58 1246.95 2221.82 1248.87C2222.39 1249.13 2221.77 1250 2222.59 1250.48C2225.22 1252.02 2226.68 1248.95 2229.79 1251.55C2232.89 1254.14 2239.38 1256.08 2248.08 1254.25C2248.36 1254.2 2250.41 1251.76 2253.17 1251.79C2257.56 1251.83 2263.75 1252.31 2268.35 1252.27C2270.54 1252.25 2269.13 1250.75 2269.51 1250.72C2284.24 1249.8 2294.67 1251.08 2310.46 1251.54C2313.43 1251.62 2321.58 1249.49 2327.29 1251.06C2333.46 1252.78 2327.14 1260.26 2341.32 1258.34C2346.99 1257.56 2354.18 1248.08 2364.39 1252.8C2367.44 1252.57 2370.39 1252.42 2373.24 1252.33C2373.25 1252.33 2373.28 1252.33 2373.29 1252.33C2389.81 1250.99 2405.74 1251.44 2422.49 1248.72C2423.37 1248.58 2425.95 1245.76 2428.1 1245.63C2431.25 1245.45 2432.99 1246.55 2435.23 1246.46C2444.59 1246.12 2453.08 1244.41 2462.05 1243.88C2465.49 1243.67 2464.37 1245.03 2468.43 1244.78C2472.56 1244.53 2475.09 1242.66 2480.67 1243.05C2484.88 1243.34 2489.31 1246.43 2494.84 1246.42C2494.77 1243.06 2498.6 1242.84 2505.31 1241.5C2506.59 1241.24 2505.12 1240.16 2505.73 1239.98C2508.11 1239.21 2510.61 1240.02 2512.88 1239.23C2513.43 1239.03 2513.4 1237.88 2513.87 1237.66C2517.83 1235.72 2524.54 1237.95 2525.75 1238.35C2530.17 1239.85 2532.16 1238.27 2535.53 1238.83C2538.9 1239.4 2533.94 1240.4 2537.84 1240.68C2545.91 1241.28 2556.26 1241.07 2564.4 1241.53C2567.65 1241.71 2565.51 1240.07 2565.98 1240.06C2571.5 1240.03 2576.91 1241.55 2580.93 1240.78C2581.85 1240.59 2582.71 1240.27 2583.46 1239.76C2587.43 1248.04 2587.58 1239.45 2597.06 1241.5C2597.82 1241.66 2598.65 1245.43 2595.67 1245.85C2592.68 1246.26 2588.27 1244.84 2584.09 1245.31C2583.61 1245.36 2581.94 1246.1 2580.25 1246.82C2580.24 1246.81 2580.23 1246.81 2580.22 1246.81C2578.53 1247.57 2576.86 1248.38 2576.48 1248.45C2570.68 1249.55 2570.29 1243.99 2570 1243.64C2566.73 1240.07 2559.82 1243.57 2558.11 1243.81C2550.08 1244.81 2543.31 1244.14 2536.6 1245.2C2532.21 1245.9 2531.94 1249.57 2528.51 1249.61C2517.09 1249.79 2512.72 1244.98 2502.15 1250.13C2499.92 1251.23 2502.51 1255.05 2493.96 1252.52C2493.42 1252.36 2487.04 1249.94 2483.55 1252.03C2483.11 1252.3 2483.2 1253.46 2482.63 1253.6C2478.78 1254.53 2475.95 1253.81 2471.71 1254.59C2467.35 1255.37 2462.18 1256.44 2457.26 1256.42C2454.24 1256.42 2450.25 1254.55 2448.79 1254.13C2444.59 1252.92 2440.53 1255.75 2437.85 1254.09C2435.18 1252.43 2439.89 1249.23 2433.19 1248.54C2433.18 1251.57 2432.86 1254.71 2432.7 1257.77C2418.2 1258.77 2403.84 1258.83 2389.29 1259.98C2387.48 1260.13 2389.45 1261.62 2387.5 1261.82C2382.78 1262.29 2378.55 1262.26 2373.97 1262.36C2373.85 1262.37 2373.52 1262.38 2373.41 1262.38C2370.18 1262.28 2366.73 1262.24 2363.1 1262.49C2356.6 1262.95 2349.39 1264.77 2342.48 1265.28C2338.29 1261.87 2328.1 1263.15 2320.66 1262.9C2318.08 1262.82 2318.24 1261.89 2316.4 1261.61C2309.4 1260.55 2312.69 1263.58 2310.78 1264.08C2302.7 1266.2 2301.82 1259.28 2292.25 1259.52C2291.74 1259.53 2285.47 1263.26 2284.64 1263.5C2279.2 1265.03 2283.74 1262.22 2280.31 1261.97C2274 1261.5 2269.76 1260.64 2262.37 1261.76C2260.25 1262.09 2255.15 1264.41 2250.97 1262.65C2250.42 1262.42 2250.72 1261.2 2250.28 1261.13C2242.35 1259.96 2242.14 1263.8 2237.58 1265.11C2233.06 1266.42 2226.02 1263.79 2224.58 1263.03C2220.84 1261.07 2227.45 1262.18 2227.65 1261.99C2230.04 1259.68 2224.88 1260.09 2220.99 1259.9C2220.42 1256.14 2214.95 1256.38 2216.94 1259.72C2217.17 1260.09 2220.21 1259.73 2220.99 1259.9C2217.58 1263.59 2211.54 1264.08 2204.91 1260.64C2201.8 1259.02 2204.73 1257.14 2195.29 1257.83C2191.01 1258.15 2192.66 1260.74 2188.88 1261.44C2180.24 1263.05 2169.01 1260.63 2160.11 1261C2156.88 1261.13 2160.03 1262.55 2157.81 1262.69C2151.93 1263.07 2146.8 1261.99 2140.88 1262.52C2140.34 1262.57 2141.65 1264.06 2139.81 1264.07C2125.93 1264.21 2113.85 1263.21 2099.34 1263.11C2092.37 1263.06 2079.77 1263.8 2072.55 1263.58C2059.95 1263.21 2044.49 1260.91 2033.75 1261.31C2026.71 1261.57 2028.3 1263.07 2025.27 1264.04C2019.37 1265.93 2009.17 1262.28 2007.83 1261.71C2007.77 1261.69 2013.81 1261.43 2010.6 1260.62C2008.75 1259.01 2007.89 1261.71 2007.83 1261.71C2007.28 1261.46 2000.83 1261.11 1996.55 1261.02C1994.67 1260.98 1993.15 1260.98 1992.45 1261.05C1991.14 1261.18 1991.84 1262.6 1991.17 1262.64C1975.15 1263.6 1958.78 1263.57 1942.49 1262.37C1942.2 1262.33 1942.69 1260.77 1942.01 1260.7C1932.54 1259.68 1926.43 1261.37 1918.56 1262.19C1910.7 1263.01 1904.54 1262.36 1900.04 1259.45C1894.15 1259.53 1885.8 1257.97 1880.99 1257.04C1876.16 1256.1 1875.39 1259.14 1874.96 1259.18C1861.58 1260.57 1854.05 1258.54 1840.29 1257.84C1833.73 1257.5 1820.7 1257.61 1813.67 1257.79C1808.12 1257.94 1804.6 1257.15 1799.55 1257.52C1798.86 1257.56 1799.53 1258.94 1799.32 1258.99C1793.49 1260.51 1796.32 1257.23 1795.13 1256.62C1791.86 1254.89 1789.6 1253.78 1785.19 1253.78C1783.95 1253.78 1782.53 1253.88 1780.85 1254.09C1779.16 1254.29 1774.05 1259.02 1771.01 1259.27C1766.98 1259.58 1768.51 1257.88 1764.24 1258.25C1763.88 1258.28 1763.96 1259.34 1761.38 1259.27C1749.24 1258.95 1736.04 1258.26 1723.46 1258.32C1721.73 1258.33 1723.94 1260.02 1721.44 1260.05C1709.82 1260.21 1696.92 1260.12 1685.61 1259.32C1682.8 1259.12 1684.56 1257.94 1683.95 1257.59C1680.17 1255.47 1674.95 1258.54 1674.06 1258.6C1653.21 1260.06 1637.26 1257.29 1616 1258.61C1614.84 1258.68 1605.95 1261.98 1601.97 1259.15C1601.7 1258.96 1597.77 1256.06 1594.29 1258.04C1594.07 1258.16 1596.52 1259.65 1592.25 1259.5C1587.97 1259.34 1581.09 1260.33 1575.21 1258.68C1573.36 1258.16 1568.96 1255.27 1563.4 1257.56C1563.04 1257.72 1554.46 1262.9 1551.4 1259.3C1550.91 1258.71 1551.43 1254.91 1544.82 1256.84C1543.55 1257.21 1545.85 1258.06 1542.5 1258.58C1537.36 1259.38 1530.64 1258.33 1524.32 1259.99C1523.21 1260.28 1518.57 1262.84 1514.81 1260.86C1514.23 1260.55 1515.35 1259.29 1513.37 1259.13C1503.97 1258.39 1494.15 1259.16 1484.57 1258.19C1481.19 1257.84 1482.93 1255.81 1479.43 1255.22C1475.95 1254.64 1468.77 1254.02 1465.13 1254.91C1461.41 1255.8 1465.41 1259.12 1459.85 1259.3C1435.77 1260.08 1412.04 1257.69 1387.8 1256.46C1385.54 1256.34 1385.92 1256.82 1385.11 1257.14C1384.65 1257.31 1383.8 1257.43 1381.9 1257.36C1362.6 1256.66 1329.13 1256.16 1312.56 1252.83C1299.28 1250.18 1316.15 1249.51 1306.02 1248.19C1301.02 1247.55 1295.58 1251.08 1294.34 1251.13C1282.63 1251.76 1274.64 1249.68 1264.16 1249.7C1261.98 1249.7 1264.04 1251.34 1262.19 1251.33C1255.96 1251.31 1249.32 1250.32 1243.38 1250.21C1240.68 1250.16 1241.12 1251.35 1238.66 1251.17C1232.78 1250.73 1227.57 1250.06 1221.88 1248.79C1221.36 1248.67 1224.96 1247.32 1220.57 1247.13C1213.53 1246.85 1204.79 1245.58 1196.69 1246.64C1194.28 1246.96 1194.18 1249.63 1189.04 1247.77C1187.96 1247.39 1189.33 1244.15 1183.35 1246.96C1182.32 1247.42 1172.36 1251.3 1167.39 1249.02C1166.08 1248.42 1162.69 1245.87 1159.82 1246.39C1159.43 1246.47 1161.04 1247.86 1158.67 1248.09C1153.07 1248.62 1147.31 1248.93 1141.52 1249.41C1138.69 1249.65 1135.88 1249.93 1133.06 1250.3C1130.77 1250.6 1134.31 1251.82 1130.9 1252.23C1121.5 1253.37 1109.23 1253.97 1099.74 1254.09C1096.2 1254.13 1098.56 1252.75 1098.3 1252.63C1094.1 1250.69 1091.81 1253.78 1090.51 1254.03C1082.13 1255.54 1075.65 1254.46 1067.93 1255.18C1065.79 1255.38 1067.37 1256.71 1066.95 1256.86C1062.51 1258.28 1065.7 1255.61 1062.94 1255.45C1055.01 1255 1046.41 1255.45 1038.51 1255.91C1035.61 1256.08 1038.94 1257.6 1036.32 1257.74C1020.76 1258.57 1004.95 1258.88 989.862 1258.39C987.049 1258.29 988.781 1256.98 988.188 1256.71C984.03 1254.81 978.171 1257.71 976.83 1258C970.594 1259.35 968.153 1258.3 962.695 1258.64C960.718 1258.76 958.681 1258.88 956.586 1258.98C931.127 1260.3 900.682 1260.24 877.296 1260.25C844.287 1260.28 818.586 1259.51 787.147 1260.33C785.148 1260.38 787.191 1262.02 785.467 1262.08C763.201 1262.84 741.258 1262.53 718.951 1263.34C717.122 1263.4 719.783 1264.95 716.848 1265.11C710.83 1265.44 703.182 1265.46 697.084 1265.04C694.107 1264.84 698.075 1263.42 695.08 1263.25C688.106 1262.84 680.635 1262.83 673.48 1263.19C670.437 1263.34 675.054 1264.9 671.097 1264.98C644.133 1265.52 617.652 1266.16 590.4 1264.42C588.523 1264.3 586.822 1261.03 582.853 1261.71C582.565 1262.63 582.596 1263.71 582.478 1264.69C543.306 1265.74 504.336 1265.09 464.987 1265.4C463.33 1265.42 466.211 1267.13 463.01 1267.16C447.561 1267.34 432.587 1267.85 417.087 1267.16C413.782 1267.02 410.536 1266.83 407.343 1266.57C405.478 1266.43 406.473 1263.34 400.805 1263.87C399.775 1263.97 391.56 1264.48 389.299 1265.18C389.006 1265.28 390.552 1266.7 387.851 1266.77C372.234 1267.18 355.662 1267.06 340.15 1266.37C337.555 1266.26 340.3 1264.7 338.45 1264.6C325.677 1263.95 311.746 1265.28 299.627 1264.04C291.369 1263.2 294.432 1260.52 290.052 1257.97C289.407 1257.61 284.426 1257.61 284.114 1256.1C283.404 1252.3 285.822 1248.11 284.756 1244.07C284.441 1243.2 278.044 1244.18 281.796 1242.05C282.027 1241.91 286.916 1241.16 288.118 1240.43C288.949 1239.92 287.393 1238.4 289.144 1237.75C290.774 1237.1 292.819 1238.36 295.566 1237.59C298.403 1236.8 297.144 1235.06 302.846 1234.79ZM1859.34 1252.93C1854.92 1251.3 1854.06 1256.66 1858.95 1255.54C1859.19 1255.48 1859.57 1253.01 1859.34 1252.93ZM2403.62 1254.76C2397.64 1252.81 2393.73 1256.59 2398.08 1258.12C2402.41 1259.65 2405.44 1255.35 2403.62 1254.76ZM2464.28 1248.44C2457.2 1247.11 2456.76 1254.81 2464.01 1252.7C2464.43 1252.58 2464.69 1248.52 2464.28 1248.44ZM310.153 1256.99C310.031 1256.92 306.547 1256.89 306.384 1256.97C304.481 1258.7 311.701 1258.75 310.153 1256.99ZM2524.35 1242.35C2522.21 1241.42 2516.08 1242.96 2518.81 1244.1C2521.04 1245 2527.07 1243.5 2524.35 1242.35ZM1625.14 1244.69C1625.07 1244.61 1622.47 1244.53 1622.52 1244.99C1622.7 1246.45 1626.31 1246.04 1625.14 1244.69ZM2626.88 1244.87C2611.65 1244.55 2602.61 1238.05 2619.05 1238.96C2622.04 1239.11 2612.6 1240.92 2616.4 1241.52C2623.36 1242.61 2627.99 1238.65 2635.11 1240.77C2636.39 1241.16 2627.75 1244.9 2626.85 1244.88C2626.86 1244.88 2626.87 1244.87 2626.88 1244.87ZM1857 1246.37C1856.9 1246.3 1853.29 1246.1 1853.22 1246.17C1851.21 1247.81 1858.46 1248.2 1857 1246.37ZM1473.09 1240.73C1472.88 1240.57 1464.56 1240.33 1464.28 1240.46C1459.89 1243.2 1476.75 1243.71 1473.09 1240.73ZM2099.8 1248.31C2103.74 1246.61 2108.48 1246.43 2111.58 1248.6C2107.71 1248.47 2103.72 1248.43 2099.8 1248.31Z" fill="black"/>
<path d="M287.98 1793.24C301.327 1793.34 318.72 1794.6 331.974 1795.87C336.095 1796.26 333.958 1797.12 336.869 1797.44C339.079 1797.69 341.303 1797.8 343.577 1797.89C346.648 1798.01 350.05 1798.1 353.194 1798.5C355.014 1798.73 352.67 1800.14 354.586 1800.35C365.118 1801.48 375.124 1801.53 385.817 1802.33C438.427 1806.26 490.209 1809.19 543.505 1812.5C561.085 1813.59 582.338 1816.04 600.596 1816.41C602.72 1816.45 601.526 1815.06 601.935 1814.97C608.298 1813.64 606.109 1816.2 610.222 1816.78C622.656 1818.53 636.207 1819.61 648.893 1820.25C652.993 1820.45 656.764 1820.6 660.596 1820.72C667.258 1820.91 660.718 1817.86 667.417 1819.77C667.879 1819.9 666.09 1821.19 667.917 1821.46C672.021 1822.06 680.001 1822.32 683.19 1822.63C689.406 1823.25 690.42 1823.3 696.294 1823.67C704.319 1824.19 713.83 1825.43 722.452 1825.51C724.288 1825.53 721.939 1823.97 724.848 1823.86C727.79 1823.76 735.529 1824.2 738.144 1824.64C740.713 1825.08 739.575 1826.17 740.024 1826.45C743.805 1828.79 752.897 1826.04 754.02 1825.99C775.205 1825.34 793.121 1827.35 813.066 1827.56C828.22 1827.71 844.124 1827.23 858.494 1827.36C875.681 1827.51 890.011 1828.3 906.675 1828.15C908.408 1828.14 906.372 1826.44 908.494 1826.42C931.17 1826.19 954.105 1826.29 976.478 1827.33C978.783 1827.43 975.819 1828.94 978.125 1829.13C986.574 1829.81 997.076 1831.08 1006.82 1830.65C1013.13 1830.35 1018.81 1829.24 1022.2 1826.55C1031.91 1826.74 1042.9 1826.93 1051.51 1828.17C1057.03 1828.97 1051.67 1830.64 1058.47 1829.89C1059.95 1829.73 1058.02 1828.32 1060.23 1828.18C1069.49 1827.59 1080.11 1827.97 1089.48 1827.16C1091.36 1826.99 1090.83 1825.72 1091.37 1825.48C1095.83 1823.59 1103.44 1826.6 1105.11 1826.81C1118 1828.36 1126.74 1827.63 1138.64 1827.56C1141.38 1827.55 1138.12 1825.87 1140.76 1825.79C1154.32 1825.42 1168.4 1825.44 1181.69 1826.07C1184.62 1826.22 1181.94 1827.7 1183.34 1827.84C1189.54 1828.46 1190.89 1825.69 1196.88 1826.23C1198.15 1826.34 1197.45 1827.59 1197.68 1827.73C1201.31 1829.84 1204.44 1826.76 1205.37 1826.69C1217.07 1825.65 1224.45 1828.76 1235.84 1828.19C1237.21 1828.12 1234.12 1826.57 1237.95 1826.47C1263.15 1825.77 1289.99 1825.92 1315.1 1826.91C1318.98 1827.06 1316.23 1828.27 1316.47 1828.42C1320.48 1830.66 1323.03 1827.57 1324.29 1827.44C1334.28 1826.5 1343.81 1828.96 1350.49 1825.23C1392.98 1826.02 1435.18 1823.46 1477.32 1826.21C1477.85 1826.24 1476.91 1827.76 1477.98 1827.82C1490.87 1828.5 1488.35 1826.19 1496.82 1823.22C1498.96 1822.47 1505.52 1825.85 1506.1 1826.1C1508.21 1827 1506.06 1829.27 1506.77 1829.45C1512.61 1830.79 1511.57 1823.39 1519.43 1823.29C1519.67 1823.29 1518.66 1824.67 1519.32 1824.8C1521.37 1825.2 1523.4 1824.63 1525.41 1825.08C1530.01 1826.11 1531.69 1829.69 1538.67 1827.5C1539.55 1827.22 1538.15 1823.03 1545.16 1823.14C1547.96 1823.18 1560.32 1822.95 1563.81 1823.18C1567.28 1823.4 1564.91 1824.79 1565.16 1824.85C1574.53 1826.52 1571 1827.31 1575.71 1829.9C1580.42 1832.48 1579.04 1826.19 1580.94 1825.46C1582.84 1824.74 1589.69 1826.13 1591.38 1826.62C1593.06 1827.11 1590.98 1828 1592.48 1828.27C1602.42 1830.04 1596.79 1825.08 1600.05 1824.04C1607.73 1821.56 1613.79 1826.16 1620.84 1826.52C1622.74 1826.62 1621.17 1825.58 1622.87 1825.46C1629.57 1824.98 1633.65 1826.39 1641.3 1824.95C1642.55 1824.71 1648.7 1821.81 1652.73 1823.82C1653.3 1824.11 1651.71 1825.3 1654.57 1825.52C1658.87 1825.86 1666.52 1826 1671.16 1825.55C1674.57 1825.21 1670.64 1823.35 1674.94 1823.88C1676.85 1824.12 1673.33 1825.3 1676.91 1825.65C1680.48 1826.01 1689.57 1825.84 1693.01 1825.75C1696.45 1825.66 1694.54 1824.23 1694.82 1824.13C1696.5 1823.54 1703.06 1822.75 1703.68 1822.74C1733.31 1822.14 1760.36 1824.21 1789.23 1822.96C1791.48 1822.87 1789.96 1821.35 1790.3 1821.32C1797.99 1820.56 1791.98 1824.74 1797.38 1826.03C1796.55 1822.92 1799.73 1823.44 1805.12 1823.01C1807.76 1822.81 1806.3 1821.62 1806.54 1821.49C1810.44 1819.6 1813.19 1821.93 1813.9 1822.4C1816.52 1824.15 1819.29 1822 1821.06 1823.16C1822.83 1824.32 1818.83 1826.13 1824.04 1826.03C1825.48 1824.89 1821.57 1822.03 1825.52 1821.5C1840.28 1819.49 1868.22 1821.34 1880.38 1821.38C1892.43 1821.43 1896.16 1821.16 1903.15 1821.45C1915.93 1821.98 1911.21 1819.89 1919.04 1818.77C1926.85 1817.65 1923.13 1823.04 1924.27 1824.16C1925.39 1825.29 1926.57 1824.09 1927.94 1824.7C1929.31 1825.31 1926.39 1826.13 1929.58 1826.32C1932.71 1826.5 1941.76 1824.31 1942.85 1823.1C1945.23 1820.52 1941.21 1817.93 1949.78 1818.72C1950.27 1818.77 1948.7 1820.19 1950.58 1820.3C1965.28 1821.13 1981.14 1820.93 1996.08 1821.62C1998.16 1821.71 1996.33 1823.3 1997.54 1823.38C2010.09 1824.15 2005.55 1821.6 2012.26 1818.56C2010.87 1822.47 2014.41 1824.79 2024.13 1824.63C2029.87 1824.54 2028.84 1822.86 2032.48 1821.6C2033.58 1821.22 2037.57 1822.31 2038.27 1821.5C2040.13 1819.36 2038.04 1817.09 2042.2 1816.81C2043.24 1816.74 2044.66 1816.79 2046.57 1816.98C2047.01 1817.02 2045.65 1818.48 2047.15 1818.54C2056.87 1818.92 2057.82 1816.17 2068.06 1815.64C2076.49 1815.22 2090.43 1816.6 2099.93 1816.67C2099.88 1821.04 2108.37 1819.86 2111.85 1816.78C2118.02 1816.77 2124.46 1816.46 2130.06 1816.75C2132.05 1816.85 2130.78 1818.14 2131.03 1818.27C2135.05 1820.33 2137.6 1817.34 2138.89 1817.2C2152.59 1815.77 2164.14 1817.72 2177.59 1815.21C2178.05 1815.12 2178.76 1812.07 2182.28 1814.2C2182.53 1814.34 2178.17 1815.84 2184.44 1815.78C2190.89 1815.73 2202.75 1817.04 2211.29 1815.4C2213.31 1815.01 2218.84 1812.39 2223.04 1814.19C2223.6 1814.44 2223.02 1815.32 2223.84 1815.78C2226.38 1817.25 2227.99 1814.14 2231.17 1816.65C2234.31 1819.16 2241.07 1820.91 2249.6 1818.84C2249.89 1818.78 2251.98 1816.28 2254.74 1816.23C2259 1816.15 2265.53 1816.43 2269.97 1816.26C2272.25 1816.17 2270.74 1814.71 2271.13 1814.67C2286.04 1813.29 2296.39 1814.23 2312.45 1814.09C2315.37 1814.07 2323.6 1811.63 2329.34 1812.98C2335.63 1814.46 2329.6 1822.16 2343.74 1819.72C2349.42 1818.75 2356.3 1809.02 2366.78 1813.53C2369.14 1813.31 2371.29 1813.15 2373.62 1813.03C2391.01 1812.11 2407.62 1813.63 2425.39 1811.88C2426.28 1811.8 2429.1 1809.14 2431.26 1809.15C2434.38 1809.18 2436.13 1810.38 2438.41 1810.44C2447.83 1810.72 2456.45 1809.6 2465.55 1809.71C2469 1809.74 2467.82 1811.02 2471.94 1811.07C2476.02 1811.11 2478.81 1809.43 2484.36 1810.21C2488.62 1810.8 2492.79 1814.19 2498.41 1814.57C2498.59 1811.2 2502.46 1811.26 2509.26 1810.35C2510.57 1810.17 2509.17 1809 2509.79 1808.86C2512.3 1808.25 2514.68 1809.21 2517.05 1808.55C2517.63 1808.39 2517.66 1807.24 2518.13 1807.04C2522.19 1805.34 2528.87 1807.91 2530.03 1808.36C2534.46 1810.06 2536.47 1808.56 2539.86 1809.23C2543.24 1809.89 2538.19 1810.74 2542.14 1811.15C2550.27 1811.98 2560.78 1811.78 2569.05 1811.83C2572.37 1811.84 2570.1 1810.3 2570.58 1810.27C2577.4 1809.88 2584.32 1811.5 2588.11 1808.45C2592.87 1816.34 2592.22 1807.68 2602 1809.26C2602.77 1809.39 2603.75 1813.12 2600.8 1813.67C2597.83 1814.22 2593.37 1813.05 2589.26 1813.91C2588.29 1814.11 2582.73 1817.61 2581.98 1817.83C2576.03 1819.49 2575.19 1813.9 2574.87 1813.6C2571.32 1810.29 2564.5 1814.07 2562.73 1814.33C2554.53 1815.53 2547.58 1814.76 2540.74 1815.62C2536.25 1816.18 2535.84 1819.84 2532.32 1819.73C2520.65 1819.39 2516.52 1814.3 2505.55 1818.76C2503.19 1819.71 2505.52 1823.7 2497.09 1820.59C2496.54 1820.39 2490.26 1817.54 2486.63 1819.38C2486.18 1819.61 2486.2 1820.77 2485.59 1820.87C2481.56 1821.52 2478.89 1820.61 2474.5 1821.08C2470.15 1821.55 2464.86 1822.24 2459.84 1821.88C2456.82 1821.67 2452.94 1819.53 2451.48 1819.01C2447.41 1817.51 2443.02 1820.06 2440.5 1818.23C2437.94 1816.39 2442.92 1813.52 2436.19 1812.38C2435.97 1815.41 2435.43 1818.52 2435.07 1821.57C2420.5 1821.61 2406.01 1820.83 2391.4 1821.27C2389.59 1821.33 2391.48 1822.91 2389.52 1823.02C2384.13 1823.31 2379.06 1822.99 2373.92 1822.95C2371.19 1822.93 2368.56 1822.99 2365.67 1823.25C2359.12 1823.84 2352.02 1825.87 2345.15 1826.62C2340.77 1823.36 2330.62 1825.03 2323.14 1825.07C2320.51 1825.08 2320.6 1824.15 2318.78 1823.93C2311.66 1823.15 2315.12 1826.05 2313.23 1826.62C2304.97 1829.04 2304.12 1822.15 2294.3 1822.73C2293.86 1822.75 2287.67 1826.69 2286.76 1826.96C2281.43 1828.66 2285.85 1825.71 2282.41 1825.57C2276.01 1825.31 2271.53 1824.59 2264.33 1825.92C2262.1 1826.32 2257.12 1828.79 2252.83 1827.15C2252.26 1826.93 2252.53 1825.7 2252.08 1825.65C2243.97 1824.72 2244.04 1828.55 2239.34 1829.99C2234.87 1831.43 2227.7 1828.99 2226.13 1828.27C2222.36 1826.41 2229.04 1827.35 2229.28 1827.14C2231.7 1824.77 2226.25 1825.33 2222.51 1825.24C2221.86 1821.5 2216.34 1821.88 2218.44 1825.17C2218.69 1825.53 2221.74 1825.09 2222.51 1825.24C2219.28 1829.02 2212.93 1829.67 2206.34 1826.41C2203.17 1824.87 2206.03 1822.91 2196.51 1823.86C2192.28 1824.28 2193.99 1826.82 2190.2 1827.63C2181.29 1829.47 2169.99 1827.33 2161.17 1827.92C2157.94 1828.14 2161.13 1829.48 2158.91 1829.68C2152.98 1830.2 2147.65 1829.26 2141.84 1829.94C2141.31 1830 2142.65 1831.45 2140.81 1831.51C2126.57 1832.01 2114.33 1831.32 2100 1831.6C2092.75 1831.73 2080.43 1832.8 2072.97 1832.78C2063.09 1832.77 2052.49 1831.7 2042.47 1831.5C2039.41 1831.43 2036.49 1831.45 2033.84 1831.62C2026.82 1832.09 2028.37 1833.55 2025.35 1834.61C2019.37 1836.68 2009.13 1833.36 2007.73 1832.84C2007.7 1832.82 2013.69 1832.36 2010.48 1831.66C2008.58 1830.11 2007.8 1832.83 2007.73 1832.84C2006.85 1832.5 1994.65 1832.38 1992.16 1832.71C1990.82 1832.89 1991.6 1834.28 1990.9 1834.35C1974.97 1835.89 1958.43 1836.53 1942.04 1836.14C1941.75 1836.12 1942.16 1834.54 1941.48 1834.5C1931.74 1833.97 1925.88 1835.99 1918.02 1837.26C1910.21 1838.53 1903.75 1838.25 1899.15 1835.63C1893.31 1836.06 1884.79 1835 1879.85 1834.36C1874.9 1833.71 1874.25 1836.78 1873.82 1836.85C1860.41 1839 1852.76 1837.37 1838.63 1837.31C1832.07 1837.28 1818.97 1837.92 1811.73 1838.36C1806 1838.72 1802.61 1838.05 1797.42 1838.59C1796.72 1838.66 1797.45 1840.02 1797.23 1840.07C1791.45 1841.79 1794.19 1838.42 1792.98 1837.84C1788.59 1835.74 1785.88 1834.63 1778.39 1835.76C1776.68 1836.02 1771.63 1840.89 1768.56 1841.21C1764.5 1841.63 1766.01 1839.89 1761.76 1840.37C1761.39 1840.41 1761.49 1841.46 1758.85 1841.46C1746.62 1841.43 1733.17 1841.01 1720.5 1841.3C1718.76 1841.33 1721.02 1842.98 1718.5 1843.06C1706.67 1843.43 1693.78 1843.55 1682.29 1842.92C1679.45 1842.76 1681.21 1841.56 1680.59 1841.22C1676.79 1839.15 1671.47 1842.3 1670.59 1842.38C1649.63 1844.14 1633.41 1841.58 1612.04 1843.19C1610.88 1843.29 1601.93 1846.7 1597.88 1843.93C1597.6 1843.75 1593.59 1840.91 1590.12 1842.93C1589.9 1843.06 1592.39 1844.51 1588.08 1844.42C1583.78 1844.32 1576.85 1845.41 1570.9 1843.85C1569.02 1843.36 1564.54 1840.53 1558.97 1842.91C1558.61 1843.07 1550.04 1848.39 1546.91 1844.84C1546.4 1844.25 1546.88 1840.45 1540.22 1842.48C1538.95 1842.88 1541.28 1843.69 1537.93 1844.26C1532.78 1845.15 1525.95 1844.22 1519.63 1845.99C1518.53 1846.3 1513.86 1848.94 1510.06 1847.03C1509.47 1846.73 1510.58 1845.45 1508.58 1845.33C1499.1 1844.77 1489.23 1845.74 1479.57 1844.99C1476.16 1844.72 1477.88 1842.65 1474.32 1842.15C1470.76 1841.64 1463.6 1841.2 1459.9 1842.18C1456.2 1843.16 1460.3 1846.38 1454.74 1846.71C1430.53 1848.14 1406.5 1846.51 1382.39 1846.51C1378.82 1846.51 1381.82 1847.65 1376.51 1847.73C1356.98 1848.05 1323.36 1849.52 1306.51 1847.22C1292.87 1845.38 1309.98 1843.68 1299.58 1842.98C1294.56 1842.65 1289.21 1846.51 1288.01 1846.64C1276.34 1847.98 1268.03 1846.39 1257.44 1847.02C1255.26 1847.15 1257.42 1848.66 1255.56 1848.76C1249.18 1849.09 1242.67 1848.47 1236.47 1848.66C1233.72 1848.75 1234.24 1849.92 1231.71 1849.85C1225.68 1849.71 1220.37 1849.27 1214.55 1848.23C1214.02 1848.13 1217.58 1846.63 1213.17 1846.62C1206.1 1846.61 1196.92 1845.61 1188.73 1846.82C1186.29 1847.18 1186.21 1849.87 1180.97 1848.06C1179.86 1847.68 1181.28 1844.44 1175.15 1847.29C1174.09 1847.76 1163.71 1851.62 1158.65 1849.24C1157.31 1848.62 1153.89 1846.01 1150.97 1846.45C1150.58 1846.52 1152.17 1847.95 1149.76 1848.11C1141.24 1848.66 1131.94 1848.59 1123.21 1849.12C1120.87 1849.27 1124.37 1850.73 1120.88 1850.9C1111.35 1851.36 1098.89 1851.08 1089.63 1850.69C1086.19 1850.54 1088.56 1849.29 1088.31 1849.15C1084.26 1847 1081.73 1849.97 1080.38 1850.16C1071.84 1851.26 1065.51 1849.92 1057.82 1850.34C1055.62 1850.46 1057.19 1851.85 1056.75 1851.98C1052.25 1853.24 1055.59 1850.69 1052.74 1850.43C1044.69 1849.7 1036.3 1849.87 1028.19 1850.11C1025.21 1850.19 1028.56 1851.81 1025.9 1851.87C1019.52 1852.02 1013.16 1852.11 1006.95 1852.09C997.235 1852.08 988.288 1851.86 979.152 1851.37C976.249 1851.21 978.069 1849.94 977.463 1849.66C973.283 1847.67 967.345 1850.44 965.995 1850.7C959.941 1851.92 957.245 1850.82 951.698 1851.05C924.574 1852.19 891.28 1851.51 865.66 1850.99C832.197 1850.3 806.446 1848.94 774.497 1848.6C772.473 1848.58 774.474 1850.29 772.736 1850.29C750.131 1850.21 727.925 1848.77 705.212 1847.96C703.354 1847.89 705.938 1849.63 702.956 1849.57C696.822 1849.47 689.111 1848.9 682.987 1848.01C680.011 1847.57 684.098 1846.47 681.115 1846.06C674.09 1845.1 666.649 1844.51 659.444 1844.31C656.379 1844.23 660.901 1846.14 656.91 1845.91C653.661 1845.73 650.648 1845.56 647.378 1845.38C623.634 1844.1 599.99 1842.83 575.888 1839.74C574.011 1839.5 572.561 1836.12 568.518 1836.55C568.169 1837.45 568.131 1838.52 567.949 1839.49C528.42 1838.02 489.321 1835.02 449.697 1833.03C448.016 1832.94 450.84 1834.82 447.588 1834.67C428.853 1833.79 410.605 1833.45 391.568 1830.86C389.686 1830.61 390.75 1827.58 385.137 1827.79C384.202 1827.84 375.634 1827.87 373.508 1828.44C373.199 1828.53 374.706 1830.03 371.939 1829.95C362.221 1829.66 352.169 1829.14 342.24 1828.42C335.942 1827.97 329.909 1827.45 323.841 1826.85C321.316 1826.6 324.111 1825.19 322.266 1824.99C309.506 1823.63 295.349 1824.18 283.172 1822.27C274.963 1821 278.195 1818.49 273.885 1815.71C273.318 1815.32 268.198 1815.06 268.005 1813.54C267.457 1809.72 270.093 1805.64 269.218 1801.55C269.156 1801.12 267.359 1801.06 266.032 1800.89C264.594 1800.73 263.701 1800.43 266.173 1799.41C266.568 1799.27 271.588 1798.75 272.832 1798.09C273.714 1797.63 272.228 1796.03 274.001 1795.47C275.794 1794.9 277.62 1796.27 280.525 1795.64C283.425 1795.01 282.24 1793.21 287.98 1793.24ZM1857.75 1831.47C1853.2 1830.07 1852.61 1835.46 1857.49 1834.1C1857.73 1834.03 1857.98 1831.54 1857.75 1831.47ZM2406.05 1816.8C2400.11 1814.52 2396.12 1818.09 2400.31 1819.85C2404.58 1821.61 2407.84 1817.49 2406.05 1816.8ZM2467.46 1814.42C2460.54 1812.59 2459.53 1820.24 2466.89 1818.64C2467.32 1818.55 2467.87 1814.53 2467.46 1814.42ZM294.175 1815.82C294.096 1815.74 290.48 1815.52 290.363 1815.59C288.341 1817.21 295.654 1817.66 294.175 1815.82ZM2528.45 1812.29C2526.29 1811.26 2520.06 1812.47 2522.75 1813.75C2524.93 1814.78 2531.14 1813.57 2528.45 1812.29ZM1621.06 1829.15C1620.99 1829.07 1618.36 1829.03 1618.42 1829.49C1618.62 1830.94 1622.27 1830.48 1621.06 1829.15ZM2632.13 1812.12C2616.82 1811.84 2607.52 1805.53 2624.21 1806.24C2627.22 1806.37 2617.7 1808.25 2621.54 1808.82C2628.57 1809.86 2633.25 1805.9 2640.43 1808.02C2641.73 1808.41 2633 1812.15 2632.11 1812.13C2632.11 1812.13 2632.12 1812.13 2632.13 1812.12ZM1855.04 1825.04C1854.95 1824.97 1851.31 1824.96 1851.22 1825.03C1849.27 1826.77 1856.61 1826.8 1855.04 1825.04ZM1467.59 1827.8C1467.39 1827.65 1458.95 1827.62 1458.67 1827.76C1454.31 1830.61 1471.37 1830.69 1467.59 1827.8ZM2100.08 1816.79C2104.05 1814.98 2108.57 1814.69 2111.84 1816.78C2107.86 1816.75 2104.07 1816.81 2100.08 1816.79Z" fill="black"/>
</svg>
