<svg width="1764" height="882" viewBox="0 0 1764 882" fill="none" xmlns="http://www.w3.org/2000/svg">
<path d="M29.0284 27.8463C30.4154 32.401 31.113 38.4715 31.3551 43.2191C31.4297 44.6891 30.3501 44.1516 30.3597 45.1761C30.3799 47.1809 31.198 48.8978 31.1468 50.9093C31.1252 51.577 29.485 51.0767 29.4964 51.7702C29.5714 55.5788 30.6233 58.9045 31.0451 62.6881C33.1022 81.2341 36.0679 99.2235 39.0081 117.808C39.9783 123.932 40.0785 131.591 41.8931 137.757C42.1064 138.478 43.323 137.786 43.4576 137.904C45.528 139.775 42.7573 139.559 42.6869 141.057C42.4122 146.987 43.5246 153.34 45.084 158.682C45.7518 160.957 47.8863 158.127 46.8899 160.754C46.8235 160.936 45.3257 160.613 45.3023 161.281C45.2522 162.795 46.0317 165.49 46.1388 166.629C46.3385 168.825 46.4213 169.178 46.7992 171.213C47.309 174.024 47.2652 177.482 48.1549 180.403C48.349 181.025 49.604 179.909 50.0414 180.877C50.4767 181.836 50.8816 184.577 50.7232 185.553C50.565 186.531 49.3755 186.357 49.1512 186.568C47.2518 188.314 50.839 190.853 50.9896 191.238C53.6615 198.327 53.1615 204.905 54.4897 211.809C55.4837 216.956 57.1326 222.536 57.9922 227.465C59.033 233.456 59.2092 238.576 60.4318 244.311C60.5582 244.911 62.093 243.89 62.2505 244.622C63.9394 252.484 65.2308 260.345 65.5671 268.389C65.6011 269.205 63.9443 268.455 63.8906 269.286C63.5816 274.301 62.1112 282.515 69.0077 284.127C69.3849 287.569 69.811 291.343 69.0833 294.646C68.6002 296.692 66.6692 295.153 67.7705 297.334C68.0163 297.823 69.2937 296.898 69.5562 297.648C70.6488 300.749 70.87 304.578 72.1652 307.651C72.4377 308.308 73.6588 307.897 73.9192 308.049C76.0402 309.354 73.4722 312.473 73.3477 313.054C72.4978 317.823 73.7008 320.923 74.3308 324.891C74.4867 325.876 75.9772 324.419 76.1902 325.373C76.5038 326.808 76.7714 328.188 76.9848 329.497C77.2311 331.008 77.4194 332.433 77.5389 333.741C77.7289 335.74 77.8327 337.749 77.8261 339.724C77.8191 340.775 76.2285 340.064 76.1516 340.578C75.8308 342.842 78.6269 342.879 78.377 345.041C78.3278 345.495 77.0558 345.452 76.9335 345.553C75.0132 347.144 78.2015 347.734 78.3209 348.043C79.8975 351.93 77.1967 355.055 78.3095 358.889C78.4462 359.349 79.8217 358.024 80.1109 359.332C82.0416 368.011 83.2586 377.342 83.5764 386.248C83.6276 387.63 82.2868 386.878 82.1582 386.989C80.1563 388.77 83.332 389.125 83.525 389.545C84.9676 392.868 83.0262 396.559 87.0443 398.277C88.4607 413.185 93.1474 427.477 92.5389 442.643C92.5349 442.835 90.9908 442.768 90.9891 443.15C90.9555 447.777 93.1033 446.473 96.4546 448.943C97.2973 449.57 94.2872 452.415 94.0736 452.664C93.2824 453.557 90.9391 453.192 90.8041 453.468C89.7626 455.739 97.0126 454.125 97.4941 456.837C97.4969 456.925 96.0889 456.805 95.9955 457.057C95.7009 457.84 96.3599 458.452 96.0201 459.233C95.2326 461.034 91.7754 462.19 94.2703 464.268C94.5923 464.528 98.6571 463.337 98.8875 465.806C98.9493 466.502 99.3848 468.879 99.6104 470.66C99.6265 470.734 99.6519 470.958 99.6634 471.032C99.7097 471.746 99.7273 472.358 99.6883 472.715C99.552 473.963 98.1115 473.275 98.0628 473.369C96.6395 476.84 95.7638 475.678 93.3013 477.598C90.8471 479.514 97.0716 478.39 97.8434 478.985C98.6139 479.582 97.3959 482.139 96.9452 482.781C96.4948 483.422 95.561 482.778 95.3259 483.331C93.7932 486.996 98.599 484.533 99.7134 485.577C102.35 488.046 97.9049 490.615 97.6922 493.135C97.6346 493.816 98.6416 493.166 98.7992 493.752C99.4084 496.075 98.0919 497.633 99.6781 500.194C99.937 500.614 102.941 502.519 101.015 504.122C100.736 504.348 99.5234 503.889 99.3557 504.92C99.1038 506.463 99.0929 509.182 99.6242 510.77C100.017 511.939 101.81 510.401 101.348 511.957C101.141 512.649 99.9129 511.509 99.6173 512.799C99.3217 514.08 99.6448 517.264 99.7856 518.476C99.9273 519.684 101.324 518.898 101.43 518.988C102.04 519.534 102.934 521.799 102.949 522.006C103.984 532.377 102.254 542.128 103.773 552.167C103.89 552.954 105.386 552.32 105.419 552.439C106.251 555.113 102.026 553.254 100.793 555.244C103.885 554.755 103.399 555.914 103.871 557.801C104.1 558.709 105.271 558.126 105.4 558.202C107.323 559.445 105.023 560.559 104.556 560.836C102.838 561.86 105.005 562.704 103.857 563.398C102.717 564.091 100.874 562.793 101.017 564.621C102.165 565.061 104.987 563.509 105.55 564.87C107.684 570.011 106.014 579.969 106.031 584.204C106.049 588.434 106.335 589.783 106.078 592.263C105.612 596.738 107.677 594.99 108.827 597.688C109.978 600.393 104.582 599.359 103.463 599.822C102.343 600.278 103.543 600.634 102.944 601.156C102.344 601.676 101.506 600.674 101.336 601.825C101.167 602.977 103.378 605.967 104.596 606.3C107.177 607.007 109.754 605.453 108.993 608.518C108.947 608.695 107.517 608.213 107.414 608.884C106.638 614.205 106.881 619.683 106.226 624.99C106.134 625.721 104.542 625.162 104.471 625.588C103.724 630.028 106.258 628.311 109.307 630.547C105.4 630.227 103.103 631.692 103.269 635.018C103.368 637.015 105.042 636.577 106.309 637.802C106.691 638.169 105.609 639.65 106.42 639.861C109.072 640.556 111.909 639.057 110.946 642.55C110.899 642.704 109.447 642.307 109.39 642.831C109.02 646.224 111.765 646.464 112.307 650.075C112.732 652.902 111.373 658.057 111.3 661.313C107.518 661.483 107.905 663.762 110.084 665.051C110.086 665.067 110.087 665.117 110.088 665.134C110.415 665.339 110.785 665.523 111.19 665.675C111.127 667.766 111.358 670.068 110.993 672.107C110.869 672.817 109.593 672.384 109.459 672.477C107.351 673.909 110.3 674.728 110.425 675.182C111.655 680.119 109.514 684.141 111.765 688.828C111.846 688.993 114.884 689.208 112.691 690.506C112.539 690.591 111.134 689.054 111.064 691.278C110.995 693.504 109.433 697.706 110.879 700.745C111.227 701.487 113.714 703.348 111.809 704.871C111.551 705.075 110.678 704.866 110.198 705.162C108.667 706.119 111.739 706.596 109.148 707.739C106.557 708.873 104.634 711.172 106.463 714.261C106.516 714.359 108.953 715.061 108.924 716.036C108.876 717.593 108.391 719.816 108.421 721.429C108.437 722.206 109.941 721.695 109.97 721.83C110.861 727.071 109.544 730.774 108.998 736.402C108.894 737.418 110.97 740.359 109.355 742.365C107.586 744.551 100.168 742.342 101.959 747.359C102.675 749.373 112.084 751.895 107.231 755.55C108.467 762.607 105.996 769.124 107.736 776.192C107.813 776.51 110.438 777.511 110.404 778.262C110.349 779.381 109.124 779.981 109.045 780.774C108.683 784.095 109.737 787.132 109.579 790.337C109.522 791.554 108.254 791.137 108.185 792.582C108.117 794.027 109.788 794.99 108.984 796.958C108.371 798.45 104.962 799.926 104.566 801.896C107.931 801.966 107.863 803.323 108.754 805.725C108.926 806.186 110.097 805.691 110.239 805.909C110.843 806.795 109.874 807.618 110.531 808.462C110.689 808.668 111.838 808.677 112.032 808.844C113.725 810.273 111.142 812.631 110.692 813.032C108.984 814.579 110.479 815.302 109.807 816.492C109.134 817.68 108.292 815.904 107.884 817.292C107.041 820.161 107.228 823.856 107.176 826.768C107.162 827.93 108.696 827.137 108.729 827.303C109.119 829.707 107.488 832.147 110.543 833.476C102.644 835.145 111.31 834.925 109.729 838.369C109.601 838.639 105.865 838.985 105.316 837.944C104.768 836.902 105.936 835.324 105.081 833.882C104.88 833.54 101.379 831.588 101.167 831.319C99.5096 829.224 105.092 828.927 105.399 828.816C108.707 827.559 104.936 825.174 104.675 824.542C103.48 821.653 104.264 819.219 103.411 816.802C102.859 815.224 99.2021 815.072 99.3133 813.835C99.6808 809.73 104.781 808.276 100.355 804.411C99.4104 803.58 95.4145 804.408 98.5543 801.426C98.7522 801.237 101.625 799.033 99.8048 797.753C99.5754 797.592 98.4106 797.599 98.3125 797.387C97.6778 795.967 98.6045 795.019 98.158 793.478C97.7114 791.944 97.046 790.074 97.4381 788.313C97.6726 787.25 99.8404 785.888 100.371 785.379C101.899 783.933 99.3861 782.397 101.238 781.504C103.099 780.605 105.931 782.35 107.13 779.999C104.103 779.918 100.997 779.726 97.953 779.593C98.0481 774.424 99.0129 769.362 98.8617 764.184C98.8399 763.542 97.2152 764.204 97.1499 763.516C96.8815 760.628 98.0315 758.071 97.5569 755.079C97.1833 752.757 95.4489 750.198 95.0027 747.782C98.458 746.256 97.2634 742.692 97.5637 740.041C97.6674 739.12 98.5926 739.176 98.8903 738.522C99.9907 736.057 96.9379 737.229 96.452 736.56C94.3775 733.665 101.302 733.368 101.106 729.961C101.098 729.776 97.3889 727.584 97.1565 727.283C95.6418 725.363 98.439 726.952 98.702 725.743C99.1824 723.54 100.051 721.96 98.9453 719.399C98.6181 718.647 96.2994 716.835 98.0644 715.356C98.2955 715.161 99.5169 715.255 99.5868 715.099C100.749 712.294 96.9133 712.225 95.597 710.639C94.2811 709.057 96.8981 706.532 97.6546 706.015C99.6117 704.666 98.5105 707.02 98.7049 707.093C101.02 707.913 100.601 706.088 100.778 704.707C104.536 704.458 104.285 702.537 100.947 703.277C100.582 703.36 100.947 704.427 100.778 704.707C97.0748 703.555 96.5746 701.406 99.9884 699.021C101.588 697.9 103.488 698.93 102.749 695.571C102.414 694.058 99.8348 694.683 99.1082 693.365C97.4497 690.323 99.7945 686.298 99.3523 683.185C99.1914 682.033 97.7969 683.186 97.638 682.4C97.2115 680.311 98.2367 678.507 97.6443 676.411C97.5888 676.224 96.1163 676.718 96.0827 676.072C95.8702 672.439 96.2832 669.066 96.4509 665.533L96.4671 665.889C96.4834 664.673 96.4726 663.427 96.4005 662.131C96.261 659.641 95.1789 655.245 95.192 652.661C95.2046 648.179 97.0416 642.567 96.301 638.79C95.8241 636.323 94.374 636.952 93.304 635.946C91.2307 634.005 94.5287 630.166 95.0438 629.649C95.0609 629.633 95.5312 631.748 96.227 630.566C97.7739 629.814 95.052 629.672 95.0438 629.649C95.3762 629.309 95.4706 625.018 95.1397 624.189C94.9589 623.737 93.5699 624.074 93.5022 623.837C91.9232 618.199 91.2435 612.512 91.5674 606.691C91.5899 606.588 93.1685 606.651 93.2019 606.409C93.7075 603.024 91.6627 600.989 90.3616 598.3C89.0606 595.606 89.3132 593.404 91.9105 591.61C91.4473 589.545 92.4593 586.497 93.0773 584.732C93.6952 582.968 90.6254 582.919 90.5558 582.771C88.3334 578.183 89.912 575.355 89.8704 570.454C89.8563 568.125 89.1109 563.552 88.6071 561.063C88.2041 559.092 88.8388 557.856 88.2551 556.058C88.177 555.815 86.8346 556.158 86.7771 556.087C85.0093 554.16 88.4007 554.909 88.9651 554.446C91.017 552.766 92.1014 551.746 90.8996 549.202C90.624 548.614 85.7131 547.203 85.3537 546.13C84.8948 544.732 86.6491 545.144 86.1239 543.681C86.0805 543.556 85.0247 543.661 85.0031 542.735C84.8892 538.448 85.1474 533.745 84.6859 529.309C84.627 528.705 83.0119 529.615 82.8992 528.745C82.3713 524.657 82.0588 520.155 82.4973 516.09C82.6106 515.09 83.8376 515.605 84.1676 515.361C86.1627 513.866 82.9348 512.272 82.8491 511.971C80.7269 504.792 82.9727 498.938 80.9107 491.618C80.7933 491.22 77.199 488.443 79.8671 486.761C80.0443 486.646 82.7796 484.972 80.685 483.962C80.5539 483.899 79.1628 484.91 79.1568 483.401C79.1504 481.891 77.9046 479.587 79.3075 477.362C79.7398 476.672 82.3362 474.879 80.0973 473.217L80.2142 474.036C80.1638 474.003 80.111 473.97 80.056 473.937C79.8751 473.833 74.2285 471.727 77.5786 470.054C78.1293 469.775 81.9062 469.326 79.5801 467.331C79.1306 466.953 78.4373 467.903 77.7118 466.828C76.5963 465.187 77.184 462.657 75.1306 460.756C74.7674 460.421 71.9472 459.274 73.6393 457.61C73.9047 457.352 75.222 457.52 75.2393 456.804C75.3303 453.416 73.8852 450.137 74.1537 446.653C74.2461 445.419 76.3713 445.66 76.6927 444.338C77.0165 443.03 77.0879 440.436 75.9369 439.326C74.7845 438.211 71.8218 440.192 71.2188 438.315C68.5935 430.131 68.9799 421.525 67.7339 413.093C67.5502 411.847 66.5862 413.08 66.2341 411.265C64.9213 404.525 61.7303 393.064 63.1253 386.756C64.2402 381.696 66.7925 387.36 66.9449 383.615C67.0158 381.818 62.9426 380.605 62.7502 380.205C60.8281 376.329 61.9808 373.177 60.8292 369.58C60.5904 368.834 59.2047 369.848 59.0183 369.21C58.3697 367.042 58.6423 364.584 58.1557 362.486C57.9331 361.541 56.8044 361.915 56.7442 361.022C56.5888 358.899 56.7599 356.946 57.5044 354.719C57.5722 354.515 59.2254 355.535 59.0187 353.969C58.6815 351.442 59.2399 348.147 57.6629 345.424C57.191 344.619 54.5323 345.013 56.0676 342.864C56.3886 342.414 59.6523 342.401 56.5581 340.686C56.2122 340.491 54.1659 339.052 53.502 337.477C53.1927 336.808 53.204 336.057 53.9003 335.366C54.4645 334.852 56.8541 333.088 56.2951 332.247C56.2083 332.127 54.8703 332.885 54.6001 332.108C53.6497 329.238 53.2921 326.216 52.2947 323.103C52.0384 322.347 50.768 323.762 50.4319 322.622C49.4929 319.417 49.1327 315.192 48.997 311.777C48.9468 310.501 50.3184 311.144 50.4348 311.03C52.3366 309.225 49.2872 308.967 49.033 308.527C47.5008 305.836 48.4451 303.259 47.61 300.721C47.3799 300.001 46.0885 300.776 45.9381 300.652C44.4519 299.343 47.1495 300.03 47.2467 299.007C47.5118 296.057 46.871 293.189 46.18 290.43C45.925 289.422 44.5294 290.866 44.3187 289.956C43.0598 284.676 42.1726 279.041 42.0882 273.68C42.0726 272.656 43.4261 273.049 43.67 272.79C45.3782 270.984 42.2923 269.403 41.9501 268.995C40.3767 267.074 41.3125 266.027 40.7469 264.141C37.983 255.021 36.4948 243.203 35.2775 234.38C33.6655 222.785 33.1194 213.575 30.7113 202.701C30.5591 202.006 29.0509 203.026 28.8985 202.431C27.0054 194.729 26.1749 186.976 24.1965 179.301C24.0367 178.668 22.6573 179.892 22.3483 178.886C21.7018 176.818 21.2736 174.154 21.3598 171.938C21.3989 170.857 23.0048 171.985 23.0167 170.903C23.0479 168.382 22.6507 165.743 21.9168 163.3C21.6016 162.264 20.3186 164.169 20.033 162.798C18.0514 153.446 15.9757 144.259 16.1845 134.373C16.1989 133.695 19.3245 132.491 18.433 131.228C17.5142 131.299 16.4585 131.512 15.4894 131.654C12.2976 118.083 10.7609 104.325 8.23196 90.5855C8.12475 90.0052 6.60731 91.3437 6.39106 90.2222C5.14166 83.7533 3.41776 77.5258 3.81774 70.6006C3.85356 69.9068 6.93658 69.6474 6.09527 67.7928C5.94393 67.4652 4.96276 64.6227 4.15897 64.0006C4.03994 63.9179 2.73753 64.7283 2.51046 63.7979C1.22372 58.4274 0.394461 52.5689 0.177226 46.9826C0.142432 46.0683 1.82906 46.7137 1.81732 46.0601C1.71999 41.413 -0.365773 36.8903 0.136519 32.3169C0.484771 29.2882 3.28586 29.8254 5.5351 27.8097C5.85222 27.5242 5.55994 25.7642 7.02569 25.3784C10.7101 24.4011 14.9643 24.4307 18.8715 23.2891C19.7132 23.0433 18.3243 20.8941 20.6702 21.862C20.8279 21.9301 21.8537 23.4887 22.6397 23.7683C23.1835 23.9632 24.5873 23.1359 25.3277 23.6073C26.0676 24.079 24.9336 24.9868 25.8618 25.8333C26.7992 26.6788 28.4282 25.897 29.0284 27.8463ZM95.8304 576.799C97.1977 575.118 91.8099 575.222 93.2033 576.859C93.277 576.938 95.7636 576.886 95.8304 576.799ZM103.073 769.372C105.441 767.28 101.945 765.874 100.116 767.344C98.2883 768.815 102.355 770.01 103.073 769.372ZM104.854 791.006C106.722 788.56 99.0873 788.189 100.635 790.802C100.722 790.954 104.745 791.15 104.854 791.006ZM7.66358 34.6924C7.72927 34.6562 7.54298 33.3657 7.46748 33.3494C5.65509 33.0041 6.02865 35.5838 7.66358 34.6924ZM106.763 812.477C107.796 811.72 106.602 809.519 105.319 810.469C104.286 811.236 105.479 813.424 106.763 812.477ZM95.0834 493.458C95.1608 493.426 95.1419 492.497 94.6924 492.56C93.2452 492.767 93.7814 494.007 95.0834 493.458ZM106.859 848.973C107.147 843.585 113.453 840.309 112.741 846.184C112.613 847.247 110.73 843.893 110.162 845.247C109.126 847.721 113.086 849.365 110.964 851.895C110.575 852.353 106.829 849.28 106.85 848.963C106.853 848.967 106.856 848.97 106.859 848.973ZM102.227 575.479C102.296 575.443 102.283 574.16 102.21 574.134C100.461 573.55 100.486 576.132 102.227 575.479ZM90.4864 439.532C90.6226 439.431 90.2365 436.477 90.0824 436.411C87.0574 435.378 87.829 441.347 90.4864 439.532ZM111.187 661.371C112.699 662.454 113.156 663.794 112.027 664.931C112.03 664.96 112.032 665.048 112.034 665.077C111.812 665.284 111.532 665.482 111.192 665.669C111.202 665.479 111.211 665.29 111.218 665.101C111.216 665.077 111.215 665.005 111.212 664.981C111.217 663.781 111.169 662.577 111.187 661.371Z" fill="black"/>
<path d="M79.6351 28.9138C97.6404 28.7895 119.998 29.3445 139.84 30.0865C145.237 30.2907 150.585 30.5117 155.602 30.7369C162.73 31.0581 159.075 31.9571 164.065 32.2231C173.683 32.7403 182.808 32.4126 192.325 33.0029C195.524 33.2039 191.53 34.6532 194.861 34.8291C213.014 35.7808 230.313 35.6727 248.757 36.2983C325.157 38.9185 400.483 40.813 477.232 43.4205C491.884 43.9307 506.379 44.486 521.085 45.1011C551.449 46.3673 588.126 49.2442 619.416 49.3989C623.03 49.4188 620.911 48.0382 621.602 47.9462C632.537 46.5382 628.879 49.1274 635.946 49.6419C664.195 51.6678 695.494 52.199 722.808 51.9508C722.885 51.9501 722.961 51.9493 723.036 51.9483C734.098 51.8015 722.774 49.1057 734.417 50.6801C735.241 50.7872 732.233 52.1698 735.471 52.3483C742.541 52.7492 756.239 52.6019 761.889 52.7516C772.519 53.0466 774.535 53.0447 784.557 53.1202C798.53 53.2363 814.991 54.0166 829.94 53.7575C833.12 53.6979 828.91 52.237 833.993 52.0113C839.158 51.787 852.481 51.9562 857.1 52.3106C861.603 52.6654 859.683 53.7943 860.48 54.057C867.051 56.2742 882.643 53.2735 884.639 53.2023C921.171 52.0064 952.46 53.7687 986.725 53.761C1012.74 53.7509 1040.56 53.1489 1065.3 53.1765C1094.77 53.2143 1119.84 53.919 1148.43 53.6563C1151.43 53.6301 1147.9 51.9484 1151.58 51.9126C1180.32 51.6334 1208.9 51.5197 1237.28 51.749C1247.96 51.8305 1258.31 51.9478 1268.81 52.1036C1272.67 52.1632 1267.72 53.7274 1271.58 53.8756C1295.56 54.7817 1333.52 56.7808 1347.49 49.78C1363.72 49.5054 1383.31 48.9522 1397.84 49.4981C1407.23 49.842 1398.33 51.9566 1409.65 50.6292C1412.2 50.3272 1408.75 49.1034 1412.67 48.7498C1429.01 47.2668 1446.62 46.4626 1462.72 44.2244C1465.97 43.7671 1464.95 42.5811 1465.85 42.2659C1473.44 39.6956 1486.59 41.3154 1489.43 41.181C1510.92 40.2409 1526.46 37.1332 1546 33.2066C1550.56 32.2735 1544.85 31.7129 1549.18 30.7538C1551 30.3505 1552.85 29.9345 1554.65 29.5234C1575.06 24.9155 1595.46 17.506 1615.43 10.6067C1620.27 8.95941 1616.38 11.9913 1618.73 11.2684C1629.12 8.1415 1630.3 4.57223 1641.01 2.082C1643.3 1.59924 1642.34 3.14921 1642.78 3.1737C1648.85 3.53449 1653.93 0.83958 1656.99 0.55344C1657.32 0.507168 1657.6 0.486594 1657.82 0.498744C1670.67 0.560131 1680.15 11.553 1682.45 20.1206C1685.4 29.1049 1685.85 37.4381 1687 47.3846C1687.25 49.7452 1688.41 44.2245 1688.98 50.964C1691.54 95.5586 1688.19 141.148 1688.09 184.291C1688.03 191.015 1686.75 186.241 1686.61 186.664C1684.46 193.64 1687.65 197.926 1687.83 200.153C1687.87 200.603 1687.9 201.053 1687.93 201.503C1689.08 218.111 1687.87 233.781 1692.31 244.868C1696.96 309.272 1703.64 373.823 1703.43 438.35C1703.43 446.506 1703.79 454.795 1704.23 463.033C1704.29 463.965 1702.62 462.446 1702.74 464.314C1704.29 486.284 1706.25 481.926 1711.02 495.937C1712.23 499.464 1710.45 511.056 1710.35 512.06C1709.98 515.784 1707.19 512.404 1707.2 513.632C1707.33 523.789 1714.4 521.067 1716.56 534.342C1716.62 534.764 1714.98 533.222 1715.03 534.371C1715.2 537.982 1716.29 541.234 1716.41 544.755C1716.66 552.715 1713.58 556.123 1717.75 567.653C1718.3 569.131 1722.01 566.053 1723.96 577.994C1724.72 582.709 1728.68 603.714 1729.53 609.595C1730.38 615.526 1728.28 611.742 1728.3 612.171C1729.55 628.282 1727.69 622.482 1726.6 630.872C1725.53 639.29 1731.31 635.914 1732.62 638.992C1733.93 642.074 1734.76 653.948 1734.81 656.887C1734.87 659.832 1733.33 656.45 1733.54 659.037C1735 676.17 1738.07 665.782 1740.15 671.11C1745.07 683.654 1742.53 694.708 1744.5 706.712C1745.03 709.957 1745.54 707.116 1746.22 709.965C1748.91 721.261 1748.87 728.367 1752.83 741.037C1753.48 743.095 1758.38 752.983 1757.76 760.165C1757.66 761.184 1755.96 758.697 1756.7 763.593C1756.94 765.139 1757.23 766.94 1757.56 768.887C1758.86 776.251 1760.33 785.786 1761.33 792.013C1762.26 797.899 1763.49 790.887 1763.6 798.437C1763.6 801.793 1762.01 795.729 1762.06 801.974C1762.28 808.171 1761.99 824.052 1760.77 830.041C1759.76 836.007 1761.75 833.028 1761.77 833.526C1762 836.625 1758.97 848.38 1758.3 849.321C1756.83 852.803 1755.06 856.168 1753.02 859.32C1736.91 882.758 1708.49 880.97 1686.85 881.087C1664.01 880.422 1641.69 877.929 1618.61 876.062C1614.79 875.743 1617.17 877.526 1616.59 877.493C1603.27 876.789 1614.01 873.777 1605.01 871.474C1606.04 874.716 1600.6 873.588 1591.26 872.94C1586.79 872.633 1589.09 874.091 1588.67 874.171C1581.76 875.281 1577.38 872.428 1576.27 871.821C1572.13 869.585 1566.84 871.137 1564.11 869.647C1561.27 868.154 1568.31 867.142 1559.43 866.216C1556.8 867.058 1563.14 870.669 1556.28 870.413C1530.4 869.403 1482.86 862.35 1462.27 860.325C1441.78 858.258 1435.22 857.94 1423.06 856.546C1405.79 854.579 1407.37 856.035 1401.45 856.63C1400.1 856.776 1398.34 856.876 1395.79 856.877C1382.26 856.877 1389.16 852.045 1387.31 850.761C1385.47 849.481 1383.23 850.5 1380.89 849.703C1378.62 848.911 1383.7 848.491 1378.26 847.868C1372.9 847.246 1357.16 848.205 1355.3 849.283C1350.98 851.534 1357.71 854.649 1342.99 852.731C1342.14 852.619 1345.01 851.406 1341.74 851.048C1316.11 848.274 1289.33 846.556 1263.56 844.081C1260.06 843.741 1263.29 842.371 1261.25 842.156C1239.96 839.913 1247.3 842.974 1235.44 845.215C1238.26 841.488 1232.05 838.746 1215.63 837.803C1205.84 837.241 1207.47 839.031 1201.08 839.874C1199.16 840.129 1192.28 838.585 1190.97 839.312C1186.68 841.69 1192.97 844.952 1176.34 842.887C1175.61 842.792 1178.02 841.494 1175.49 841.27C1159.03 839.818 1156.95 842.438 1139.13 841.832C1125.14 841.356 1100.45 838.421 1084.59 837.353C1085.15 833.008 1070.07 833.252 1063.86 835.957C1053.56 835.321 1042.4 834.942 1032.47 834.04C1029.05 833.731 1031.37 832.578 1030.94 832.421C1024.41 829.957 1019.78 832.665 1017.55 832.671C993.397 832.619 973.849 829.467 950.726 830.554C949.905 830.594 948.438 833.561 942.392 831.062C942.001 830.891 949.662 829.867 938.848 829.255C928.026 828.643 907.726 826.076 892.579 826.791C888.912 826.962 879.641 829.003 872.334 826.746C871.358 826.44 872.478 825.62 871.074 825.072C866.536 823.322 863.885 826.271 858.61 823.426C853.362 820.582 842.174 818.125 826.955 819.243C826.464 819.274 822.807 821.542 818.035 821.291C810.362 820.886 799.594 819.901 791.704 819.568C787.866 819.407 790.256 821.023 789.588 821.021C763.892 820.733 745.877 818.598 718.41 816.82C713.545 816.499 698.691 817.914 689.253 815.878C678.586 813.636 689.737 806.703 665.321 807.416C655.171 807.686 642.434 816.543 624.779 810.911C608.705 810.783 592.994 809.867 577.817 808.969C577.809 808.969 577.788 808.968 577.781 808.968C559.639 808.386 542.403 807.83 523.614 808.48C522.014 808.534 517.309 811.089 513.505 811.001C507.963 810.867 505.018 809.602 501.196 809.471C484.793 808.888 470.177 809.768 454.335 809.456C448.423 809.342 450.647 808.094 443.384 807.962C436.319 807.835 431.471 809.466 421.987 808.606C414.64 807.951 407.453 804.508 397.816 804.094C397.534 807.461 390.81 807.369 379.019 808.287C376.77 808.466 379.184 809.63 378.122 809.775C373.951 810.391 369.628 809.441 365.659 810.124C364.684 810.289 364.656 811.438 363.804 811.638C356.725 813.374 345.381 810.939 343.272 810.529C335.754 808.945 332.124 810.521 326.376 809.999C320.493 809.492 329.28 808.399 322.38 808.191C308.295 807.745 290.224 808.865 275.985 810.366C270.303 810.953 274.344 812.068 273.533 812.187C272.344 812.355 271.144 812.507 269.957 812.644C259.441 813.208 249.163 812.585 243.479 815.728C234.811 808.445 236.442 816.8 219.628 817.041C218.323 817.07 216.151 813.553 221.205 812.419C226.254 811.292 234.11 811.73 241.145 810.407C242.791 810.073 252.257 806.038 253.573 805.777C263.788 803.643 265.428 809.168 266.009 809.444C267.137 809.99 268.464 810.293 269.837 810.417L269.709 810.427C276.063 810.598 284.112 807.264 286.674 806.854C300.743 804.511 312.825 804.85 324.695 803.647C332.376 802.889 333.004 799.226 339.231 799.217C359.334 799.259 366.562 804.344 385.542 799.877C389.528 798.933 385.542 794.924 400.124 798.087C401.051 798.285 411.827 801.189 418.192 799.406C418.998 799.18 418.978 798.015 420.047 797.923C426.739 797.326 431.851 798.288 439.129 797.899C446.809 797.514 455.691 796.931 464.557 797.418C469.604 797.706 476.335 799.951 478.9 800.513C485.831 802.123 493.397 799.707 497.873 801.618C502.156 803.537 493.651 806.255 505.009 807.607C505.473 804.587 506.493 801.494 507.223 798.46C530.859 798.878 554.105 800.1 577.922 800.501C577.974 800.502 578.13 800.506 578.182 800.509C579.778 800.578 581.386 800.643 583.008 800.704C586.114 800.819 583.002 799.056 586.346 799.137C600.741 799.499 613.011 801.187 627.688 801.355C639.185 801.485 651.577 800.294 663.703 800.382C670.702 804.149 688.701 803.749 701.357 804.613C705.858 804.918 705.521 805.829 708.732 806.27C720.886 807.914 715.242 804.607 718.583 804.269C732.742 802.828 733.956 809.813 750.527 810.366C751.4 810.397 762.448 807.185 763.98 807.023C773.536 805.942 765.502 808.376 771.401 808.908C782.135 809.879 789.846 811.102 802.491 810.58C806.191 810.423 815.265 808.523 822.386 810.622C823.318 810.897 822.742 812.093 823.498 812.198C837.206 814.003 837.77 810.191 845.755 809.249C853.697 808.306 865.744 811.501 868.211 812.376C874.633 814.643 863.184 812.993 862.829 813.171C858.595 815.287 867.5 815.292 874.325 815.797C875.152 819.598 884.62 819.803 881.345 816.303C880.966 815.92 875.696 816.031 874.325 815.797C880.448 812.382 890.872 812.384 902.298 816.359C907.632 818.222 902.421 819.867 918.847 819.935C926.31 819.969 923.55 817.25 930.166 816.85C945.228 815.937 964.643 819.266 980.125 819.621C985.748 819.75 980.344 818.075 984.189 818.114C994.396 818.215 1003.33 819.708 1013.58 819.659C1014.51 819.652 1012.32 818.061 1015.5 818.196C1039.64 819.193 1060.57 821.175 1085.77 822.471C1097.9 823.094 1119.77 823.394 1132.28 824.213C1154.23 825.631 1180.8 829.216 1199.6 829.73C1211.77 830.066 1209.16 828.437 1214.41 827.717C1224.76 826.33 1242.08 830.837 1244.6 831.528C1244.64 831.548 1234.17 831.297 1239.68 832.376C1242.86 834.149 1244.48 831.528 1244.6 831.528C1246.27 831.973 1266.89 833.514 1271.23 833.492C1273.51 833.473 1272.33 831.994 1273.51 832.01C1301.52 832.422 1329.52 833.815 1357.91 836.4C1358.4 836.462 1357.55 837.98 1358.7 838.106C1375.24 839.935 1385.83 838.763 1399.4 838.624C1400.56 838.611 1401.69 838.608 1402.8 838.615C1415.09 838.74 1424.25 840.012 1431.59 843.089C1441.77 843.58 1456.52 846.059 1464.67 847.527C1473.17 849.023 1474.57 846.086 1475.33 846.094C1498.68 846.327 1511.71 849.386 1535.69 852.144C1547.21 853.472 1569.73 855.437 1582 856.416C1591.91 857.204 1597.56 858.529 1606.56 859.003C1607.75 859.066 1606.69 857.585 1607.06 857.571C1617.18 856.976 1612.09 859.798 1614.08 860.601C1621.27 863.499 1625.81 865.137 1638.68 865.278C1641.57 865.308 1650.64 861.264 1655.83 861.351C1662.88 861.487 1659.98 863.027 1667.29 863.041C1667.9 863.037 1667.89 861.989 1672.23 862.243C1692.23 863.301 1716.21 864.117 1729.25 856.632C1730.91 855.625 1728.03 855.452 1730.17 854.008C1732.41 852.398 1734.12 850.598 1735.67 848.183C1742.13 838.302 1744.64 824.686 1745.06 811.068C1745.19 806.688 1746.41 809.404 1746.74 808.442C1748.74 802.408 1744.73 794.04 1744.48 792.686C1743.3 785.654 1742 778.971 1740.63 772.38C1735.25 746.509 1732 723.188 1725.19 694.738C1724.71 692.779 1718.43 678.228 1719.85 670.875C1719.94 670.373 1721.45 663.1 1718.33 657.539C1718.14 657.194 1717.5 661.664 1716.21 654.336C1714.92 646.986 1711.65 635.417 1711.33 625.039C1711.23 621.759 1712.62 613.677 1708.58 604.616C1708.3 604.017 1700.46 590.246 1703.04 584.372C1703.48 583.436 1707.35 583.59 1703.4 572.601C1702.64 570.501 1702.51 574.612 1700.97 568.936C1698.62 560.339 1697.59 548.43 1694.14 537.891C1693.53 536.035 1689.66 528.369 1690.59 521.603C1690.74 520.542 1692.29 522.293 1691.9 518.832C1690.06 502.393 1686.8 485.429 1685.88 468.451C1685.58 462.472 1687.9 465.205 1687.89 459.044C1687.86 454.105 1687.63 445.646 1687.19 438.844C1687.05 436.823 1686.85 434.996 1686.58 433.507C1685.44 427.168 1682.41 434.272 1681.82 424.718C1679.24 383.326 1678.71 342.351 1675.43 300.983C1674.95 294.857 1674.22 300.042 1673.42 291.006C1671.37 267.711 1667.22 232.124 1666.91 202.149C1666.75 189.494 1667 178.085 1667.67 169.311C1669.55 145.757 1671.18 175.284 1671.93 157.415C1672.3 148.691 1668.58 139.328 1668.48 137.291C1667.44 116.801 1669.45 102.711 1669.02 84.6721C1668.93 80.9095 1667.38 84.578 1667.31 81.4111C1667.05 70.6615 1667.58 59.3971 1666.66 49.7726C1666.22 45.5045 1665.13 46.3865 1664.75 42.6054C1663.86 33.7609 1661.91 26.4614 1660.52 23.8165C1660.32 23.4871 1663 24.0417 1661.04 22.1184C1659.99 21.269 1658.62 20.4455 1655.65 20.0855C1651.84 19.4506 1641.61 22.3096 1633.72 25.9999C1629.98 27.7236 1630.84 30.2565 1621.71 31.7359C1619.79 32.0464 1620.97 28.1639 1611.95 34.5479C1610.5 35.6202 1594.6 45.4858 1585.04 45.8393C1582.55 45.9577 1575.95 45.2062 1570.93 46.9641C1570.25 47.2125 1573.43 47.8682 1569.18 49.1314C1566.02 50.0504 1562.8 50.899 1559.52 51.6766C1547.7 54.4902 1535.3 56.8404 1523.24 59.1429C1519.11 59.9261 1525.49 60.4279 1519.38 61.5281C1502.56 64.561 1481.27 66.634 1464.84 67.6621C1458.67 68.0513 1462.81 66.4296 1462.35 66.3368C1455.14 64.7913 1451.08 68.0791 1448.8 68.4366C1434.22 70.6317 1422.97 69.9712 1409.48 71.1135C1405.8 71.4188 1408.49 72.6785 1407.76 72.8453C1400.13 74.4947 1405.75 71.6536 1400.8 71.6389C1387.17 71.5687 1372.04 72.3354 1358.28 73.0122C1353.23 73.2612 1358.98 74.6917 1354.43 74.8951C1327.48 76.1209 1299.76 76.5858 1273.45 76.0881C1268.57 75.9893 1271.62 74.6846 1270.6 74.4125C1263.65 72.5075 1253.08 75.3791 1250.82 75.6643C1245.23 76.3492 1241.33 76.3831 1237.51 76.3013C1234.15 76.2245 1230.83 76.0507 1226.17 76.1894C1179.53 77.619 1121.78 77.1109 1077.72 76.7567C1020.26 76.2992 975.713 75.1142 920.925 75.3521C917.44 75.3651 920.951 77.0442 917.948 77.0769C879.236 77.4205 841.036 76.6566 802.212 76.9447C799.021 76.9652 803.605 78.5756 798.496 78.6615C788.074 78.8491 774.642 78.6834 764.144 78.1043C758.958 77.8244 765.973 76.5113 760.694 76.2567C748.595 75.6613 735.489 75.443 723.139 75.5778C723.022 75.5792 722.911 75.5814 722.807 75.5845C718.099 75.7129 725.715 77.3387 718.865 77.2892C671.923 76.9746 625.681 76.5239 578.279 72.7544C575.015 72.4973 572.287 69.1028 565.358 69.4859C564.804 70.3819 564.793 71.459 564.531 72.4286C534.998 71.568 505.881 70.4102 476.517 69.4366C438.049 68.1501 399.49 66.9379 360.616 66.0797C357.737 66.017 362.681 67.8604 357.103 67.7481C324.779 67.1016 293.371 67.0314 260.336 64.7405C257.086 64.5163 258.765 61.4687 249.115 61.7739C247.41 61.8302 232.831 62.0016 229.05 62.6085C228.54 62.701 231.159 64.1786 226.49 64.145C199.186 63.9225 170.684 63.1549 143.388 61.8701C139.026 61.6607 143.684 60.2018 140.597 60.0397C140.195 60.0187 139.794 59.9984 139.395 59.9788C117.45 58.926 93.888 59.6733 73.0895 58.0376C58.862 56.9214 64.1667 54.347 56.6899 51.6608C55.6334 51.2789 46.8346 51.1413 46.4036 49.6322C45.2557 45.8203 49.552 41.6819 47.8213 37.6152C47.4593 36.7239 35.5956 37.6555 42.6165 35.5496C43.1114 35.3992 51.7588 34.7544 53.8331 34.0653C55.316 33.5852 52.6824 32.0195 55.6801 31.4165C58.6847 30.8151 61.9533 32.1423 66.9557 31.4601C71.8976 30.7691 69.7561 28.9892 79.6351 28.9138ZM1502.28 854.33C1510.05 856.575 1511.74 851.333 1503.06 851.769C1502.64 851.796 1501.88 854.218 1502.28 854.33ZM557.256 804.346C567.209 806.879 574.438 803.508 567.193 801.555C560.005 799.605 554.243 803.578 557.256 804.346ZM451.184 804.7C463.031 806.683 465.052 799.069 452.237 800.491C451.502 800.571 450.501 804.585 451.184 804.7ZM91.6416 51.3724C91.5736 51.2997 85.189 51.1414 85.1018 51.2112C81.7331 52.8745 94.2957 53.187 91.6416 51.3724ZM345.981 806.559C349.664 807.53 360.45 806.23 355.836 804.993C351.948 803.992 341.299 805.343 345.981 806.559ZM1741.99 707.556C1742.04 707.42 1741.21 702.964 1740.78 703.143C1739.41 703.735 1741.07 709.834 1741.99 707.556ZM167.988 823.54C194.001 817.643 210.673 821.614 182.593 826.211C177.512 827.136 193.079 822 186.539 822.756C174.426 824.19 167.624 829.914 155.206 831.162C152.933 831.354 166.465 823.816 168.031 823.521C168.016 823.527 168.002 823.534 167.988 823.54ZM1506.2 861.215C1506.36 861.302 1512.61 861.994 1512.75 861.939C1516.31 860.577 1503.73 859.181 1506.2 861.215ZM1701.4 446.533C1701.48 446.405 1701.29 442.161 1701.22 438.417C1701.14 434.812 1701.03 431.452 1700.95 431.231C1699.44 427.544 1698.85 432.821 1698.96 438.486C1699.05 444.02 1700.14 449.86 1701.4 446.533ZM1084.35 837.224C1077.4 838.595 1069.23 838.388 1063.89 835.961C1070.67 836.413 1077.5 836.772 1084.35 837.224Z" fill="black"/>
</svg>
