<svg width="4128" height="5118" viewBox="0 0 4128 5118" fill="none" xmlns="http://www.w3.org/2000/svg">
<path d="M560.331 153.241C656.813 146.648 783.825 138.085 880.174 131.809C895.038 130.838 899.139 130.824 901.764 130.919C904.372 131.024 905.564 131.233 916.066 130.567C957.411 127.931 994.507 124.744 1035.38 122.191C1048.56 121.376 1032.25 124.087 1046.12 123.195C1122.86 118.236 1195.55 112.511 1273.38 107.159C1656.66 80.8668 2033.31 54.6926 2421.71 32.865C2514.47 27.6849 2622.6 22.6044 2724.83 18.0207C2763.9 16.2648 2801.69 14.6002 2837.81 12.9647C2853.39 12.2622 2844.04 11.3134 2847 11.0843C2892.91 7.59263 2877.78 10.8728 2907.96 10.1C3027.58 7.07331 3160.27 3.8105 3275.48 2.21562C3324.55 1.57335 3275.08 -0.68791 3324.71 0.465392C3328.12 0.547637 3315.74 2.02035 3329.13 2.10211C3359.6 2.2482 3417.46 2.08183 3440.88 2.39898C3486.29 2.98747 3494.07 3.07575 3537.02 3.83298C3595.65 4.92412 3665.68 7.74308 3728.85 10.3889C3742.32 10.9508 3724.55 8.65552 3746.01 9.44333C3757.14 9.85762 3777.68 10.8827 3797.48 12.057C3816.21 13.1572 3834.24 14.3955 3843.48 15.1751C3862.7 16.8078 3854.4 17.398 3857.77 17.8875C3885.53 21.6312 3951.5 25.4876 3960.07 27.4454C4000.61 33.7139 4049.08 44.3634 4070.94 84.5978C4127.21 176.906 4137.27 284.483 4119.52 388.41C4103.11 491.035 4074.76 597.133 4069.83 696.081C4069.44 702.421 4069.06 709.069 4068.72 715.388C4062.53 839.658 4060.35 945.297 4055.99 1066.38C4055.53 1079.16 4057.79 1064.24 4057.22 1079.86C4055.72 1120.14 4053.95 1160.42 4051.37 1200.63C4042.6 1325.98 4029.53 1449.27 4020.86 1574.19C4019.66 1590.35 4019.57 1569.35 4018.28 1585.59C4010.19 1686.8 3998.51 1845.99 4001.91 1906.83C4001.12 1920.93 4000.29 1936.01 3999.42 1951.83C3996.26 2009.26 3992.89 2070.97 3989.54 2119.62C3986.84 2158.91 3987.03 2120.31 3985.42 2169.34C3985.07 2180.14 3987.15 2166.14 3986.51 2182.39C3983.79 2251.71 3979.91 2327.14 3977.59 2395.49C3977.12 2409.47 3978.56 2405.72 3978.62 2409.7C3979 2442.75 3973.49 2498.05 3972.75 2509.89C3967.07 2601.37 3964.84 2668.4 3961.15 2753.66C3960.29 2773.45 3963 2750.15 3962.24 2769.16C3958.27 2867.96 3953.81 2970.31 3949 3067.03C3947.93 3088.54 3947.3 3068.69 3946.71 3078.97C3944.15 3124.17 3946.47 3134.55 3944.07 3177.86C3943.56 3187.04 3942.53 3181.82 3942.33 3183.49C3939.08 3209.67 3941.18 3232.48 3940.97 3239.19C3938.35 3324.43 3932.91 3378.77 3929.95 3460.97C3929.6 3470.86 3932.1 3448.63 3931.01 3476.42C3924.56 3641.29 3917.06 3815.33 3909.02 3980.05C3908.04 4000.21 3907.13 4018.43 3906.14 4038.04C3904.71 4066.59 3904.41 4046.16 3904.18 4047.97C3900.66 4076.35 3902.85 4096.18 3902.57 4105.04C3900.18 4177.96 3894.51 4245.71 3895.8 4295.77C3890.66 4401.68 3884 4507.26 3879.76 4612.54C3870.41 4742.03 3887.99 4874.77 3830.96 4999.97C3769.76 5044.97 3693.96 5052.82 3622.77 5061.06C3618.87 5061.45 3625.67 5059.2 3617.92 5059.96C3524.45 5067.76 3542.46 5067.58 3480.8 5074.51C3475.92 5075.04 3467.91 5075.35 3459.19 5075.56C3439.89 5076.03 3416.39 5076.09 3413.54 5076.12C3398.21 5076.31 3413.86 5072.91 3408.75 5073.1C3366.34 5074.74 3373.77 5081.81 3316.59 5085.48C3314.8 5085.58 3322.22 5083.75 3317.42 5083.91C3302.49 5084.41 3287.7 5085.79 3273.09 5086.07C3241.64 5086.57 3229.13 5083.98 3185.47 5086.47C3182.88 5086.62 3179.69 5086.81 3176.66 5087.02C3170.35 5087.5 3180.19 5091.3 3129.18 5092.85C3108.82 5093.48 3018.77 5096.69 2993.38 5097.17C2968.21 5097.69 2985.45 5095.8 2983.67 5095.79C2915.6 5096.08 2941.43 5094.54 2907.21 5092.86C2872.93 5091.15 2882.84 5097.18 2868.83 5098.26C2855.01 5099.33 2805.07 5099.04 2792.77 5098.78C2780.48 5098.53 2795.68 5097.34 2784.87 5097.28C2712.76 5096.86 2753.16 5101.06 2729.48 5102.52C2673.49 5105.92 2629.58 5101.86 2578.31 5101.95C2564.42 5101.96 2575.79 5102.92 2563.36 5103.14C2550.22 5103.37 2538.62 5103.43 2527.29 5103.45C2496.69 5103.5 2469.92 5103.48 2429.22 5105.86C2420.11 5106.37 2375.22 5110.89 2345.99 5109.77C2341.86 5109.61 2353.58 5108.07 2332.67 5108.47C2301.49 5109.1 2245.25 5110.2 2211.78 5111.16C2186.91 5111.89 2215.62 5113.32 2184.15 5113.25C2170.53 5113.2 2195.91 5111.68 2170.05 5111.67C2146.19 5111.68 2087.79 5112.37 2059.12 5112.63C2056.81 5112.66 2054.68 5112.68 2052.78 5112.7C2027.75 5112.94 2041.42 5114.29 2039.42 5114.4C2026.93 5115.07 1978.98 5116.11 1974.59 5116.13C1759.43 5117.59 1561.13 5115.34 1351.7 5116C1335.28 5116.05 1346.22 5117.59 1343.71 5117.62C1287.43 5118.2 1331.77 5114.17 1292.54 5112.74C1298.2 5115.87 1275.01 5115.28 1235.34 5115.54C1216.25 5115.67 1226.65 5116.9 1224.9 5117.02C1196.6 5118.79 1176.87 5116.37 1171.84 5115.87C1152.88 5114.04 1132.79 5116.08 1119.84 5114.85C1107.1 5113.62 1136.36 5111.97 1098.51 5111.86C1087.9 5112.94 1116.07 5115.96 1087.15 5116.33C1027.19 5117.09 939.241 5116.44 857.253 5115.3C789.794 5114.37 726.827 5113.04 687.61 5112.25C600.064 5110.43 572.139 5109.7 521.142 5107.31C441.775 5103.24 456.181 5105.34 424.606 5105.37C419.618 5105.39 413.524 5105.36 405.865 5105.26C348.588 5104.39 376.548 5099.95 368.377 5098.54C360.445 5097.11 351.414 5097.96 341.5 5096.95C331.572 5095.94 353.262 5096.01 329.651 5094.84C306.118 5093.79 241.701 5092.49 233.26 5093.02C215.605 5094.31 244.259 5099.32 182.032 5093.55C178.489 5093.19 190.111 5092.78 176.564 5091.47C148.453 5088.68 120.345 5085.46 92.1888 5080.26C78.1583 5077.62 64.0415 5074.51 50.466 5069.9C37.3544 5064.8 20.8242 5060.06 16.1491 5043.62C7.29309 4990.25 5.84868 4935.84 4.47959 4882.95C4.19432 4868.06 6.12099 4881.35 5.98175 4872.64C5.19537 4781.74 3.34009 4814.35 0.178382 4764.47C4.13243 4775.66 6.14162 4748.13 7.17463 4679.24C7.9009 4637.83 6.11303 4644.92 5.54584 4618.11C5.36933 4610.05 7.37192 4580.78 6.75788 4575.44C4.76551 4557.85 0.72131 4585.35 4.5874 4514.32C4.76935 4511.2 5.79136 4521.2 6.31675 4510.42C8.13116 4473.92 8.53568 4454.21 8.96488 4432.95C9.36902 4413.57 9.75803 4392.96 11.3739 4357.21C14.0725 4298.33 20.4184 4193.53 23.7708 4126.48C28.0632 4128.04 29.9962 4064.7 28.2445 4038.82C30.4692 3995.13 32.6583 3948.33 35.3145 3906.1C36.2179 3891.77 36.9798 3901.26 37.2121 3899.45C40.8493 3871.45 38.9746 3852.35 39.3714 3843.09C42.1523 3780.64 45.9549 3725.86 49.443 3669.93C51.6425 3634.67 53.5228 3598.93 54.8034 3561.03C54.9242 3557.46 52.2028 3551.93 55.8549 3525.96C56.1017 3524.24 55.7133 3556.39 58.3329 3510.75C60.9554 3465.06 67.1909 3378.83 69.1843 3315.29C69.6677 3299.94 69.296 3260.89 72.9066 3229.82C73.3927 3225.67 74.0146 3230.27 74.8233 3224.29C77.4159 3204.99 74.9318 3194.22 78.7829 3171.58C82.6429 3148.89 87.1768 3101.7 89.102 3037.49C89.1672 3035.48 87.6236 3020.11 88.8541 3000.05C90.8221 2967.89 94.1283 2922.37 96.3136 2888.77C97.3636 2872.62 95.1807 2882.86 95.337 2880.06C96.5368 2859.35 97.8226 2839.32 99.1394 2820.53C104.753 2740.82 111.323 2673.11 120.707 2580.01C122.803 2558.88 126.743 2497.93 131.726 2457.1C136.885 2412.2 141.638 2459.16 146.12 2355.18C146.271 2350.91 146.331 2346.46 146.323 2341.82C146.225 2301.99 140.835 2252.15 146.623 2184.8C148.172 2064.52 150.003 1951.56 151.586 1833.8C151.968 1808.51 152.428 1783.28 152.991 1757.53C153.124 1750.99 151.259 1730.05 151.923 1714.61C152.905 1691.67 154.662 1679.08 155.37 1662.75C157.82 1607.4 158.371 1555.94 158.982 1503.14C159.125 1490.68 159.277 1477.77 159.457 1464.95C159.795 1439.69 160.974 1448.54 161.328 1418.57C161.665 1388.57 160.152 1368.49 161.224 1327.93C162.036 1297.24 165.622 1266.57 166.236 1225.8C162.88 1224.25 163.095 1196.25 162.464 1146.51C162.341 1136.95 161.117 1147.19 160.999 1142.67C160.491 1124.26 161.552 1107.21 160.992 1089.76C160.858 1085.49 159.71 1085.28 159.536 1081.8C158.005 1052.21 160.907 1003.64 161.423 995.188C163.364 963.148 161.995 948.147 162.9 923.594C163.816 899.041 164.29 935.679 164.988 907.12C165.373 891.493 165.719 874.695 166.065 857.506L166.065 857.537C168.152 808.863 169.995 755.64 171.554 711.157C172.387 687.116 170.295 703.466 170.379 700.026C171.687 650.237 174.843 599.972 172.555 572.293C181.382 538.006 172.7 542.255 175.907 471.169C176.156 465.565 180.051 458.525 180.123 480.045C180.191 501.587 178.224 534.175 178.249 564.059C178.267 571.133 180.584 611.736 180.617 617.269C180.941 660.603 175.125 666.554 174.751 668.847C170.606 694.673 172.653 744.285 172.445 757.322C171.884 793.506 170.68 826.24 169.595 857.668L169.598 857.556C169.358 877.917 169.218 897.619 169.358 917.288C169.596 949.891 173.235 953.213 172.923 978.758C171.94 1063.92 166.721 1093.62 170.72 1173.9C171.574 1191.13 175.663 1174.02 172.195 1235.69C171.977 1239.54 168.855 1285.33 170.507 1311.78C170.715 1315.09 171.881 1315.02 171.951 1319.41C172.396 1348.8 171.336 1368.32 171.516 1400.37C171.685 1431.2 171.96 1468.17 171.135 1503.32C171.103 1504.7 171.069 1506.06 171.034 1507.41C170.475 1529.48 167.739 1557.62 166.956 1568.19C164.763 1597.9 166.258 1629.92 163.727 1648.22C161.165 1666.8 159.743 1630.3 156.647 1678.99C159.599 1680.9 162.536 1685.17 165.459 1688.2C163.352 1737.12 161.381 1785.37 160.31 1833.96C159.016 1891.16 158.283 1948.75 157.692 2006.73C157.561 2020.04 159.342 2006.45 159.243 2020.68C158.801 2080.81 156.961 2133.28 156.063 2195.65C155.377 2242.19 155.55 2293.3 153.693 2342.17C153.624 2343.98 153.552 2345.78 153.478 2347.57C148.687 2378.28 144.677 2453.24 139.109 2507.38C137.236 2526.35 136.426 2524.98 134.845 2538.45C128.874 2589.2 134.194 2565.68 133.346 2579.63C129.757 2639.62 122.282 2644 116.499 2714.59C116.172 2718.27 116.196 2764.41 115.985 2770.59C114.467 2810.66 114.193 2777.07 112.062 2802.16C111.511 2808.69 110.972 2815.06 110.443 2821.34C107.402 2857.48 104.905 2887.35 102.948 2933.3C102.278 2949.04 102.28 2986.72 98.7222 3017.02C98.2534 3021.02 97.1656 3018.73 96.9043 3021.96C92.317 3080.22 96.0925 3081.91 95.5067 3115.35C94.929 3148.75 89.4714 3200.1 88.1425 3210.53C84.6814 3237.83 88.4422 3189.49 88.3342 3187.98C86.9883 3170.41 85.324 3207.99 83.5791 3236.68C79.5984 3240.63 77.6611 3280.78 81.7869 3266.42C82.2407 3264.78 83.0952 3242.43 83.5791 3236.68C85.8981 3262.07 84.0016 3306.19 77.9536 3354.75C75.1222 3377.4 74.394 3355.86 71.3712 3425.08C69.9835 3456.65 73.231 3444.51 72.4315 3472.35C70.7173 3531.78 64.5225 3607.73 60.6942 3670.63C60.4279 3675 60.1775 3679.29 59.9453 3683.49C58.6415 3707.14 61.4553 3684.25 60.6219 3700.32C58.4039 3743.32 55.1223 3781.2 53.243 3824.34C53.074 3828.27 55.0944 3818.71 54.3545 3832.27C48.8571 3933.91 43.5034 4022.6 38.5945 4128.95C36.2153 4180.32 32.9275 4272.21 30.1796 4325.46C28.4361 4359.62 26.2261 4396.58 23.8477 4433.75C19.8022 4496.75 16.7766 4560.15 15.8113 4609.78C14.8796 4661.18 16.705 4649.93 17.2961 4671.96C18.3894 4714.47 14.8299 4789.55 14.4734 4799.72C14.4144 4800.04 13.966 4755.84 13.2519 4779.42C11.7006 4793.09 14.4662 4799.25 14.4734 4799.72C13.9422 4806.41 15.1732 4894.57 16.5205 4912.08C17.0672 4921.52 18.2496 4916.13 18.5188 4921.08C20.8888 4961.39 23.4562 5002.39 30.4922 5040.93C30.1502 5042.34 36.1708 5048.03 43.8153 5051.25C51.3907 5054.74 60.3531 5057.48 69.2286 5059.73C87.1377 5064.24 106.379 5067.31 125.283 5069.83C163.407 5074.83 202.405 5077.86 241.47 5080.47C243.581 5080.62 240.343 5082 245.258 5082.34C314.272 5086.98 358.859 5086.42 416.044 5087.09C419.099 5087.12 422.133 5087.16 425.146 5087.19C478.531 5087.96 520.675 5090.86 552.511 5094.39C595.592 5095.6 657.374 5098.09 693.102 5099.38C728.649 5100.68 733.85 5097.65 736.853 5097.64C783.143 5097.35 820.442 5097.61 857.395 5098.11C898.477 5098.66 939.497 5099.48 992.896 5099.9C1041.06 5100.3 1137.04 5100.2 1189.26 5099.99C1230.7 5099.82 1255.42 5100.58 1293.62 5100.18C1298.76 5100.13 1293.57 5098.76 1295.14 5098.71C1337.55 5097.13 1317.19 5100.44 1325.95 5101.04C1357.76 5103.24 1377.41 5104.42 1431.85 5103.41C1444.4 5103.19 1480.99 5098.39 1503.85 5098.1C1533.64 5097.72 1522.36 5099.45 1553.54 5099.01C1556.2 5098.97 1555.67 5097.91 1574.87 5097.94C1664.21 5098.05 1761.28 5098.45 1854.15 5097.96C1866.75 5097.89 1850.41 5096.28 1868.89 5096.16C1930.38 5095.74 1996.31 5095.36 2058.97 5095.11C2084.48 5095.01 2108.36 5094.92 2132.49 5094.85C2152.98 5094.78 2140.18 5096.12 2144.66 5096.42C2172.12 5098.18 2210.72 5094.44 2217.36 5094.24C2329.98 5091.57 2422.71 5086.89 2527.16 5086.2C2564.28 5085.99 2602.7 5085.52 2643.79 5084.6C2652.32 5084.42 2717.61 5080.1 2746.83 5082.32C2748.84 5082.48 2777.66 5084.8 2803.21 5082.25C2804.78 5082.08 2786.83 5081.01 2818.11 5080.44C2849.57 5079.87 2899.8 5077.59 2943.16 5077.94C2956.65 5078.06 2989.24 5079.97 3029.78 5076.32C3032.57 5076.08 3095.04 5068.73 3117.75 5071.51C3121.46 5071.99 3117.55 5075.86 3166.33 5072.32C3175.47 5071.68 3158.75 5071.29 3183.27 5070.09C3183.88 5070.06 3184.48 5070.04 3185.08 5070.01C3222.14 5068.43 3270.75 5067.27 3315.78 5062.78C3323.77 5062.01 3357.63 5057.22 3385.14 5057.16C3389.42 5057.15 3381.4 5059.01 3395.85 5058.1C3416.21 5056.82 3436.91 5055.32 3457.76 5053.95C3507.43 5050.76 3557.57 5048.08 3606.23 5043.88C3630.67 5041.64 3618.44 5045.11 3643.9 5042.54C3669.4 5040.15 3720.22 5031.56 3744.98 5022.57C3769.51 5013.51 3742.04 5020.24 3777.69 5006.08C3792.08 4999.74 3805.74 4992.11 3817.15 4982.84C3856.54 4885.81 3851.06 4737.06 3858.35 4611.88C3859.34 4582.66 3861 4553.75 3862.6 4524.64C3864.03 4498.63 3861.73 4519.97 3863.73 4481.84C3871.14 4342.36 3880.64 4104.82 3888.32 3979.16C3888.46 3977.01 3888.59 3974.89 3888.72 3972.8C3894.93 3874.12 3891.12 3998.89 3895.16 3923.14C3897.08 3887.14 3894.95 3847.52 3895.2 3838.7C3897.6 3752.86 3901.75 3693.53 3904.44 3616.32C3905 3600.38 3902.81 3615.96 3903.3 3602.37C3904.96 3555.93 3907.66 3507.46 3909.37 3463.11C3910.15 3443.05 3908.81 3446.88 3909.66 3428.64C3911.68 3384.84 3913.77 3346.35 3916.64 3303.71C3916.9 3299.85 3917.28 3326 3918.67 3293.78C3920.94 3241.3 3924.72 3176.56 3926.12 3116.24C3926.53 3098.32 3923.87 3097.59 3927.33 3059.24C3928.05 3051.21 3930.85 3061.58 3929.94 3016.76C3929.79 3009.23 3929.19 2933.89 3933.17 2897.15C3934.22 2887.43 3937.91 2862.69 3938.41 2841.21C3938.46 2838.3 3936.53 2849.9 3937.14 2832.11C3939.34 2769.23 3942.29 2703.76 3944.63 2639.1C3945.25 2621.93 3942.65 2647.41 3943.62 2621.86C3946.3 2551.21 3950.54 2463.12 3954.09 2394.18C3955.41 2368.73 3955.86 2386.38 3956.07 2384.53C3959.59 2355.02 3957.43 2337.18 3957.71 2327.26C3959.44 2266.18 3963.01 2218.76 3965.27 2162.56C3965.92 2146.75 3963.98 2157.89 3964.01 2154.74C3964.31 2122.27 3965.7 2146.48 3966.94 2126.14C3970.39 2069.82 3973.33 2007.44 3976.04 1950.64C3976.09 1949.59 3976.14 1948.55 3976.19 1947.51C3977.23 1925.89 3974.36 1950.03 3975.3 1930.75C3980.81 1818.07 3987.5 1700.65 3995.66 1590.66C3997.2 1569.99 3997.6 1583.09 3998.17 1578.82C4002.14 1549.15 4002.54 1505.18 4003.02 1495.4C4005.24 1449.38 4007.74 1432.04 4010.89 1391.65C4015.59 1330.63 4021.88 1265.49 4026.09 1199C4035.03 1051.03 4037.17 895.099 4042.75 766.489C4043.79 742.163 4044.96 718.01 4046.45 694.661C4056.46 484.411 4161.53 310.135 4065.93 122.698C4059.43 109.949 4064.51 123.471 4058.82 112.672C4056.01 107.442 4053.06 102.18 4049.94 96.8845C4031.27 61.6288 3981.73 54.658 3936.68 48.3061C3890.48 42.5725 3843.34 39.7976 3796.06 37.0196C3735 33.526 3673.26 30.9088 3611.46 29.322C3597.94 28.9783 3617.22 31.098 3595.85 30.6267C3551.57 29.6649 3495.76 28.6553 3451.03 27.8122C3429.04 27.4036 3458.52 26.2553 3436.45 25.8829C3385.49 25.0395 3330.65 25.0482 3278.11 25.8139C3255.56 26.154 3289.42 27.4255 3260.44 27.7515C3081.73 29.9481 2906.11 36.1459 2726 43.0072C2707.07 43.7295 2687.71 44.4786 2668.3 45.2318C2654.72 45.7593 2642.61 43.0514 2613.29 45.1907C2611.16 46.2169 2611.34 47.2863 2610.44 48.3124C2322.65 63.804 2037.59 81.3532 1749.04 101.091C1736.85 101.928 1758.03 102.212 1734.45 103.843C1598.27 113.27 1465.69 123.241 1326.22 131.633C1312.31 132.474 1319.29 128.882 1278.55 132.315C1271.24 132.931 1209.9 137.824 1194.15 139.647C1192.03 139.903 1203.2 140.524 1183.64 141.998C1091.8 148.895 996.526 155.747 904.016 161.944C879.733 163.574 856.42 165.101 833.224 166.587C814.77 167.766 834.5 164.819 821.072 165.665C727.148 171.558 625.995 179.871 536.026 184.02C476.234 186.635 498.085 182.695 466.016 181.757C461.514 181.69 424.275 183.068 422.343 181.466C417.374 177.787 435.125 173.164 427.694 169.304C426.156 168.733 376.836 169.788 406.057 167.612C408.13 167.629 443.596 166.035 452.576 164.793C458.598 164.03 447.429 162.994 460.087 161.784C472.588 160.562 486.412 161.138 507.152 159.196C528.107 157.203 518.52 156.066 560.331 153.241ZM853.643 5104.53C854.912 5104.6 856.145 5104.66 857.34 5104.7C886.311 5105.86 889.903 5101.1 857.364 5101.89C856.881 5101.9 856.392 5101.91 855.896 5101.93C854.121 5101.98 851.906 5104.45 853.643 5104.53ZM154.702 1898.95C151.806 1942.1 155.002 1971.68 157.164 1941.24C159.327 1910.82 155.589 1885.75 154.702 1898.95ZM164.335 1451.28C161.879 1501.91 169.4 1509.76 168.506 1455.72C168.454 1452.49 164.475 1448.38 164.335 1451.28ZM613.598 172.115C613.276 172.069 586.37 173.768 585.955 173.861C571.929 176.496 625.035 173.147 613.598 172.115ZM165.27 1006.82C164.125 1022.51 165.044 1067.93 166.446 1048.38C167.569 1032.58 166.69 987.157 165.27 1006.82ZM2576.9 5099.33C2577.43 5099.41 2596.5 5099.27 2596.16 5098.82C2594.74 5097.38 2568.27 5098.07 2576.9 5099.33ZM188.225 252.528C182.424 280.256 181.646 306.068 180.093 326.424L180.094 326.408C177.592 381.536 174.319 397.625 175.344 326.347C175.344 326.329 175.345 326.276 175.346 326.258C175.533 320.962 175.765 315.453 176.101 309.232C176.84 296.488 176.512 314.301 176.786 326.309C176.786 326.32 176.785 326.354 176.785 326.365C177.15 335.138 177.55 340.711 177.947 328.848C177.974 328.022 178 327.2 178.025 326.381C178.025 326.375 178.025 326.358 178.025 326.352C180.306 276.947 180.514 240.68 203.869 194.212C207.542 185.5 187.56 246.014 188.193 252.721C188.204 252.656 188.214 252.592 188.225 252.528ZM872.514 5111.15C873.19 5111.23 899.779 5111.5 900.339 5111.43C914.713 5109.82 861.283 5109.29 872.514 5111.15ZM3693.02 5049.51C3694.64 5050.13 3754.84 5035.87 3756.47 5034.12C3771.39 5027.58 3749.22 5034.86 3726.22 5040.3C3703.15 5045.94 3679.3 5050.42 3693.02 5049.51ZM23.9358 4125.42C23.5452 4096.45 24.9687 4061.85 28.2359 4038.95C26.7387 4067.65 25.3698 4096.55 23.9358 4125.42Z" fill="black"/>
</svg>
