<svg width="1434" height="507" viewBox="0 0 1434 507" fill="none" xmlns="http://www.w3.org/2000/svg">
<path d="M195.569 67.233C212.927 62.6947 235.782 58.5651 253.125 55.8828C258.648 55.024 256.064 56.4991 259.791 55.971C267.176 54.9221 273.875 53.1738 281.159 52.2582C283.558 51.9628 280.882 54.0013 283.396 53.657C297.217 51.7541 310.273 48.9844 324.142 46.8296C386.426 37.1701 447.627 27.6716 510.39 18.3132C517.048 17.321 523.565 16.3973 530.236 15.5053C553.368 12.3662 581.82 10.5598 605.841 8.29182C608.641 8.02079 606.875 6.8168 607.401 6.66982C615.701 4.42446 613.068 7.29028 618.575 7.30308C640.397 7.37255 664.454 6.74441 685.151 5.36751C693.976 4.77163 684.999 2.52131 693.946 3.60951C694.569 3.68156 692.388 5.18968 694.818 5.23084C699.547 5.3127 707.896 4.75389 712.856 4.50248C713.662 4.46233 714.376 4.43197 714.972 4.41515C723.308 4.19339 724.576 4.11651 732.367 3.76124C743.098 3.28974 755.761 3.48536 767.155 2.81174C769.614 2.66324 766.315 1.31925 770.226 0.954645C774.132 0.58554 784.406 0.446044 787.932 0.718204C791.415 0.985986 789.956 2.15238 790.575 2.39976C795.547 4.48529 807.616 1.27783 809.066 1.19588C837.134 -0.363357 861.043 1.64674 887.411 2.55131C907.319 3.23362 928.75 3.85093 947.672 5.35688C970.248 7.15862 989.294 9.80701 1011.1 12.1105C1013.41 12.359 1010.89 10.3656 1013.72 10.6664C1038.14 13.2614 1062.27 16.5352 1086.25 19.9867C1091.82 20.7821 1097.25 21.6597 1102.74 22.6519C1105.7 23.1934 1101.66 24.1187 1104.59 24.7495C1122.87 28.4524 1150.56 37.2988 1162.82 33.905C1174.95 37.2206 1189.61 41.89 1199.81 46.7757C1206.36 49.9321 1199.24 49.1488 1207.79 51.4534C1209.74 51.9959 1207.76 49.7618 1210.65 50.6819C1222.74 54.5429 1235.38 60.2626 1247.08 64.7682C1249.47 65.6845 1249.36 64.2375 1250.11 64.3289C1256.45 65.1633 1264.23 72.3306 1266.09 73.5046C1279.18 81.6423 1289.51 86.6186 1301.68 92.8647C1302.8 93.4393 1303.93 94.0331 1305.08 94.6499C1308.3 96.4 1305.3 92.8263 1308.44 94.4735C1324.69 103.086 1340.45 113.967 1353.89 125.892C1356.87 128.554 1353.11 127.356 1354.47 128.684C1360.44 134.552 1363.65 133.717 1369.19 139.644C1370.35 140.897 1368.79 141.149 1368.92 141.461C1370.95 146.321 1376.02 147.118 1376.96 147.972C1388.66 158.717 1392.82 168.541 1401.82 180.769C1402.89 182.266 1401.89 177.914 1404.83 182.212C1407.37 185.997 1409.79 189.925 1412.02 194.013C1423.73 215.058 1430.05 239.518 1432.45 262.853C1433.14 269.257 1433.4 275.644 1433.25 281.927C1433.07 287.231 1431.87 283.441 1431.73 283.781C1429.44 289.128 1432.26 292.664 1432.26 294.432C1432.18 308.211 1426.92 319.991 1427.7 329.881C1421.31 349.4 1411.6 367.837 1398.24 383.515C1374.38 412.254 1340.43 432.121 1305.07 440.657C1304.38 440.836 1305.15 439.013 1303.77 439.374C1287.18 443.442 1290.95 444.66 1280.59 450.18C1277.91 451.574 1268.73 450.014 1267.91 449.906C1264.97 449.555 1267.38 446.772 1266.42 446.783C1258.66 446.882 1261.21 453.977 1250.97 455.801C1250.65 455.845 1251.77 454.265 1250.88 454.281C1248.15 454.325 1245.49 455.32 1242.85 455.27C1236.69 455.152 1234.04 451.93 1225.16 455.31C1224.03 455.737 1226.38 459.689 1217.18 460.716C1213.38 461.162 1197.25 463.193 1192.66 463.412C1188.04 463.656 1191.04 461.955 1190.7 461.934C1178.27 461.498 1182.87 460.24 1176.41 458.256C1170.01 456.26 1172.38 462.355 1169.96 463.311C1167.52 464.269 1158.36 463.687 1156.14 463.382C1153.88 463.082 1156.55 461.959 1154.56 461.858C1141.27 461.216 1149.14 465.52 1144.95 466.923C1135.03 470.233 1126.78 466.28 1117.46 466.653C1114.97 466.752 1117.09 467.632 1114.88 467.929C1106.03 469.099 1100.73 468.1 1090.68 470.329C1090.52 470.365 1090.3 470.431 1090.02 470.519C1087.62 471.325 1080.77 474.032 1075.72 472.579C1074.96 472.343 1076.94 471.009 1073.23 471.054C1067.67 471.12 1057.38 471.676 1051.42 472.517C1046.95 473.145 1052.26 474.671 1046.53 474.504C1043.97 474.427 1048.56 472.958 1043.81 472.903C1039.27 472.837 1027.09 473.763 1022.69 474.106C1018.17 474.461 1020.74 475.742 1020.38 475.865C1018.23 476.581 1009.44 477.885 1008.74 477.929C969.94 480.717 933.976 480.367 896.198 483.261C893.244 483.485 895.298 484.911 894.848 484.961C884.735 486.158 892.52 481.642 885.342 480.662C886.551 483.719 882.269 483.387 875.176 484.108C871.742 484.458 873.681 485.564 873.374 485.704C868.363 487.808 864.664 485.63 863.72 485.194C860.219 483.593 856.667 485.887 854.3 484.817C851.937 483.755 857.143 481.73 850.286 482.108C848.419 483.322 853.666 485.972 848.478 486.714C828.903 489.524 792.07 489.045 776.251 489.556C760.457 490.071 755.365 490.513 746.153 490.539C729.532 490.58 735.679 492.461 725.427 493.924C715.16 495.384 719.923 489.835 718.388 488.759C716.87 487.683 715.324 488.932 713.476 488.386C711.635 487.84 715.523 486.885 711.251 486.842C706.975 486.8 695.459 489.354 693.977 490.619C690.897 493.295 696.248 495.721 684.957 495.287C684.309 495.26 686.342 493.768 683.864 493.737C664.074 493.536 643.604 494.359 623.921 494.248C621.194 494.232 623.564 492.571 621.97 492.544C605.414 492.254 611.548 494.621 602.612 497.921C604.502 493.954 599.296 491.798 586.964 492.296C579.394 492.6 580.779 494.239 575.999 495.637C574.566 496.058 569.293 495.113 568.313 495.953C565.247 498.691 570.298 501.401 557.471 500.775C556.912 500.743 558.625 499.243 556.698 499.237C543.976 499.203 542.821 501.98 529.073 502.885C523.901 503.231 516.133 503.202 508.738 503.093C500.97 503.002 493.371 502.815 487.269 502.902C487.342 498.533 475.847 499.94 471.411 503.089C463.307 503.225 455.14 503.629 447.294 503.408C444.656 503.331 446.356 502.024 446.02 501.896C440.879 499.879 437.623 502.877 435.906 503.029C417.425 504.531 402.318 502.499 384.739 504.716C384.115 504.794 383.07 507.833 378.393 505.618C378.096 505.464 383.846 504.089 375.659 503.976C367.212 503.864 351.817 502.12 340.175 503.292C337.456 503.581 330.224 505.889 324.693 503.807C323.958 503.525 324.794 502.678 323.739 502.164C320.298 500.522 318.175 503.524 314.184 500.781C310.245 498.037 301.647 495.785 290.07 496.984C289.761 497.02 286.758 499.298 283.146 499.052C277.429 498.664 269.137 497.612 263.074 497.16C260.215 496.949 261.928 498.593 261.43 498.583C241.721 497.832 228.115 495.157 207.375 491.375C203.705 490.707 192.269 490.817 185.343 487.591C179.43 484.828 184.098 481.01 177.846 478.198C176.069 477.382 173.437 476.634 169.44 475.874C162.29 474.51 149.972 480.446 139.078 470.799C114.193 461.963 93.9184 448.04 70.6127 435.652C69.5564 435.089 64.9723 435.321 62.6255 433.79C59.1311 431.507 57.8826 429.245 55.4321 427.568C52.6252 425.634 49.7872 423.792 47.0137 422.048C39.6545 417.422 33.1071 411.834 27.8953 404.771C25.2283 401.032 27.151 401.63 24.2899 397.064C21.5535 392.463 18.2953 390.033 15.9879 382.965C14.2897 377.597 15.5103 371.282 13.6677 364.317C10.3967 365.096 8.84001 360.303 5.65446 351.854C5.04255 350.229 4.38851 352.322 4.04051 351.567C3.74047 350.928 3.51069 350.28 3.32248 349.628C3.30464 349.563 3.2759 349.367 3.27152 349.3C3.06531 346.717 3.44732 344.259 2.81905 341.77C2.62848 341.009 1.47904 341.022 1.25944 340.403C-0.671164 335.097 1.71072 326.164 2.15309 324.638C3.7856 318.8 2.30127 316.128 3.02836 311.652C3.77535 307.216 4.49866 313.887 5.00417 308.697C6.05523 298.014 6.76716 284.298 8.79787 273.684C9.61583 269.451 7.56264 272.042 7.64418 271.43C8.96524 262.398 13.4928 254.608 13.3858 248.761C16.9249 248.145 18.1944 247.604 18.8261 246.47L18.6529 246.669C20.1929 244.83 19.8557 240.441 27.1666 236.067C28.0673 235.547 31.2889 237.765 28.6235 240.519C26.5174 242.719 22.8211 244.926 19.9119 247.964L20.2795 247.542C19.7181 248.366 19.2179 249.283 18.8512 250.227C18.2506 251.348 18.6834 258.767 18.6955 259.642C17.9669 266.652 12.5581 266.418 12.1058 266.716C7.68608 270.413 9.99859 279.916 10.0285 282.154C9.9117 292.734 8.76026 301.688 9.44141 310.615C9.91162 316.437 13.5833 317.028 13.4971 321.543C13.3442 333.647 10.2881 339.625 11.7269 348.85L11.5168 347.495C12.3202 349.628 13.4429 351.878 15.0472 354.327C16.8219 356.961 19.674 353.017 19.9168 364.082C19.9043 364.754 19.806 373.258 23.29 376.72C23.7208 377.151 24.7843 376.677 25.1652 377.316C27.7097 381.558 28.285 384.893 31.2691 389.215C34.2644 393.518 38.2572 398.098 41.7775 402.487C43.8451 405.144 45.6797 409.666 46.7023 411.14C47.9096 412.981 49.7457 414.18 51.5326 415.138C54.0592 416.524 56.4356 417.676 57.4415 419.567C59.2262 422.94 52.1876 421.765 58.9257 427.542C60.8352 425.172 63.1418 422.961 65.2234 420.68C81.2252 431.058 96.7689 441.491 113.714 449.955C115.814 450.996 114.409 448.465 116.678 449.536C126.226 454.012 134.137 458.902 144.433 462.527C152.411 465.322 161.644 466.756 170.074 468.806C171.791 470.838 175.076 472.449 178.993 473.734C184.324 475.499 190.934 476.609 196.333 477.822C199.558 478.545 199.275 479.427 201.504 480.132C210.256 482.763 206.528 479.008 209.061 478.939C219.832 478.51 219.758 485.506 232.374 486.844C233.058 486.928 241.569 484.136 242.731 484.011C250.027 483.224 243.792 485.412 248.211 486.11C256.403 487.368 261.902 488.705 271.682 488.3C274.447 488.172 281.38 486.311 286.708 488.383C287.42 488.656 286.953 489.852 287.534 489.955C297.869 491.693 298.541 487.861 304.425 486.817C310.515 485.778 319.541 488.722 321.494 489.54C326.456 491.662 317.622 490.268 317.379 490.448C314.123 492.646 321.063 492.485 326.116 492.814C326.728 496.596 334.035 496.549 331.471 493.138C331.172 492.766 327.13 493.015 326.116 492.814C330.759 489.251 338.586 488.968 347.449 492.55C351.518 494.219 347.483 496.072 360.128 495.512C365.77 495.247 363.577 492.642 368.582 491.964C380.087 490.416 394.802 492.778 406.694 492.261C410.924 492.074 406.781 490.705 409.679 490.528C417.458 490.047 424.258 491 432.086 490.299C432.799 490.234 431.024 488.786 433.475 488.717C451.746 488.164 467.885 488.646 487.052 487.978C492.522 487.786 500.301 487.207 508.05 486.683C513.256 486.325 518.458 486.008 522.539 485.906C539.177 485.487 559.746 486.788 574.038 485.662C583.273 484.938 581.207 483.54 585.176 482.361C592.702 480.082 606.628 483.004 608.38 483.474C608.46 483.488 600.453 484.179 604.785 484.757C607.317 486.238 608.29 483.484 608.38 483.474C609.529 483.777 625.672 483.424 628.742 483.008C630.453 482.779 629.432 481.416 630.326 481.323C651.646 479.147 673.083 477.852 694.735 477.542C695.119 477.553 694.613 479.15 695.515 479.157C708.069 479.294 716.084 477.005 726.322 475.393C736.618 473.779 744.831 473.78 751.078 476.19C758.889 475.485 770.108 476.149 776.599 476.563C783.081 476.977 783.826 473.876 784.391 473.789C801.975 471 812.264 472.248 830.627 471.595C839.336 471.292 856.598 469.958 866.037 469.122C873.499 468.458 877.962 468.937 884.855 468.106C885.783 467.994 884.768 466.684 885.05 466.616C892.636 464.572 889.127 468.099 890.743 468.607C896.584 470.454 900.199 471.412 909.976 469.845C912.24 469.485 918.49 464.328 922.653 463.808C928.013 463.144 926.087 464.978 931.67 464.237C932.145 464.175 931.989 463.122 935.436 462.968C951.624 462.226 969.036 461.787 985.837 460.601C988.109 460.444 985.09 458.952 988.365 458.698C1003.88 457.497 1020.69 456.417 1035.88 456.099C1039.59 456.028 1037.36 457.372 1038.19 457.662C1043.16 459.422 1050.09 455.814 1051.21 455.669C1064.48 453.929 1076.71 453.232 1088.44 452.538C1101.12 451.773 1113.45 451.086 1127.82 449.104C1129.27 448.896 1140.85 444.524 1146.24 446.851C1146.56 447.009 1152.15 449.387 1156.49 446.976C1156.76 446.825 1153.42 445.655 1159.01 445.262C1164.7 444.856 1173.54 442.965 1181.48 443.753C1183.9 444.009 1190.11 446.241 1197.02 443.115C1197.48 442.909 1208 436.402 1212.44 439.429C1213.14 439.927 1213.05 443.796 1221.3 440.704C1222.91 440.099 1219.79 439.682 1224.08 438.545C1230.58 436.805 1239.4 436.492 1247.19 433.415C1248.53 432.882 1254 429.292 1259.05 430.285C1259.84 430.441 1258.7 431.962 1261.19 431.61C1273.22 429.898 1285.21 426.169 1296.98 423.482C1301.17 422.502 1299.7 425.122 1304.1 424.261C1308.55 423.404 1317.2 420.754 1321.08 418.059C1324.96 415.369 1319.11 414.384 1325.16 411.388C1346.63 400.591 1365.88 387.551 1381.93 369.58C1385.32 365.808 1388.48 361.743 1391.34 357.44C1393.62 353.909 1390.84 356.265 1393.96 350.952C1406.58 331.455 1413.14 291.796 1412.49 271.721C1412.6 268.096 1412.76 266.277 1413.06 265.486C1413.31 264.743 1413.67 264.893 1414.05 265.351C1414.99 266.447 1416.01 269.482 1415.91 265.098C1415.89 264.507 1415.85 263.79 1415.78 262.934C1415.28 256.562 1410.25 250.633 1409.82 249.233C1405.64 235.331 1404.24 225.46 1398.59 213.934C1397.4 211.582 1397.08 214.562 1396.08 212.579C1394.76 210.006 1393.47 207.358 1392.14 204.715C1390.04 200.548 1387.74 196.365 1385.15 192.664C1383.26 190 1382.63 191.148 1380.96 188.663C1376.88 182.697 1373.17 177.384 1369.17 171.26C1368.8 170.697 1372.89 173.057 1369.22 168.903C1363.3 162.237 1356.01 153.555 1347.38 147.6C1344.81 145.846 1343.04 147.801 1339.1 142.198C1338.26 141.046 1341.68 139.561 1333.84 137.022C1332.52 136.521 1319.98 131.975 1316.02 126.576C1314.99 125.13 1312.8 120.574 1309.39 118.991C1308.92 118.788 1309.89 121.06 1307.2 119.594C1302.24 116.9 1297.18 114.145 1292.01 111.557C1286.98 109.038 1281.97 106.511 1276.94 104.158C1274.14 102.855 1277.54 106.287 1273.39 104.302C1261.99 98.838 1248.19 91.5836 1237.33 86.1878C1233.32 84.1866 1236.65 84.3301 1236.4 84.0716C1232.52 79.9318 1228.47 81.416 1226.81 80.8958C1216.48 77.6266 1209.37 73.3599 1199.91 70.3429C1197.32 69.5203 1198.66 71.4966 1198.11 71.4331C1192.39 70.7236 1197.19 69.7209 1193.9 68.2851C1184.69 64.2796 1173.95 61.105 1164.11 58.6358C1160.49 57.7339 1164.12 60.3964 1160.87 59.5752C1141.73 54.788 1121.63 50.6359 1102.53 46.9229C1098.96 46.2269 1101.4 45.3123 1100.69 44.9188C1095.78 42.1671 1087.74 43.9233 1085.94 43.9802C1085.07 44.0038 1084.25 44.0093 1083.47 43.9995C1076.9 43.902 1073.75 42.6503 1067.21 42.0442C1031.59 38.6632 988.397 32.6421 955.224 29.6247C912.025 25.606 878.249 23.149 836.837 23.1926C834.22 23.1994 836.853 24.8841 834.594 24.9127C805.192 25.219 776.417 25.1841 746.948 26.8715C744.563 27.0068 748.072 28.449 744.241 28.7215C736.325 29.2944 726.288 29.6885 718.194 29.6153C714.224 29.5839 719.463 27.9382 715.461 27.936C715.024 27.9359 714.584 27.9368 714.143 27.9388C705.161 27.9816 695.648 28.332 686.563 28.952C682.514 29.2312 688.695 30.6009 683.429 30.8359C647.411 32.4052 612.949 33.814 577.322 35.4486C574.869 35.5573 572.408 32.4919 567.267 33.7036C566.975 34.6576 567.117 35.7253 567.055 36.717C549.479 38.886 532.038 41.302 514.465 43.9829C480.781 49.1254 447.221 54.0433 413.48 59.5856C411.292 59.9458 415.357 61.0353 411.128 61.7407C386.756 65.812 363.36 70.32 338.139 73.027C335.639 73.2988 336.401 70.0377 329.218 71.792C327.874 72.1161 317.17 74.4571 314.364 75.6475C313.999 75.8163 316.251 76.8658 312.731 77.5476C292.373 81.4697 270.852 85.1666 250.404 88.3335C247.073 88.849 250.286 86.6512 247.92 87.0043C231.302 89.4954 213.454 94.3921 197.704 96.7421C187.128 98.3739 190.419 94.8477 184.16 93.8084C183.329 93.6285 177.052 95.3897 176.216 94.1046C174.154 90.7628 176.216 85.7564 173.648 82.3072C173.116 81.4447 163.946 85.7753 168.848 81.7356C169.476 81.309 175.682 78.6422 177.289 77.484C178.264 76.6974 175.869 75.7667 177.932 74.5362C180.106 73.283 182.862 73.8839 186.611 72.1784C190.025 70.5621 188.247 69.1701 195.569 67.233ZM805.763 478.388C811.802 479.562 812.415 474.142 806.028 475.746C805.719 475.83 805.452 478.331 805.763 478.388ZM94.8544 444.609C100.448 450.47 106.788 449.84 102.871 445.664C99.0114 441.49 93.1626 442.824 94.8544 444.609ZM30.2602 400.013C34.1329 408.222 40.6954 404.061 34.1111 398.14C33.7437 397.785 30.0544 399.537 30.2602 400.013ZM209.82 86.8517C209.716 86.7989 204.929 87.8041 204.871 87.8929C202.729 90.1282 212.233 88.1293 209.82 86.8517ZM6.11619 326.668C5.11997 329.516 6.57855 337.679 7.74868 334.101C8.67486 331.262 7.33525 323.105 6.11619 326.668ZM1116.98 464.058C1117.09 464.129 1120.48 463.898 1120.39 463.45C1120.01 462.018 1115.32 462.851 1116.98 464.058ZM62.2832 217.571C44.5809 226.694 30.775 228.352 50.2708 217.423C53.8156 215.53 43.7769 223.507 48.4898 221.425C57.019 217.679 60.6755 211.283 70.1945 208.981C71.8686 208.566 63.2607 217.036 62.2556 217.595C62.2648 217.587 62.274 217.579 62.2832 217.571ZM809.518 484.677C809.641 484.743 814.432 484.573 814.543 484.497C817.05 482.661 807.4 483.002 809.518 484.677ZM1316.87 435.07C1317.19 435.179 1327.69 431.163 1327.97 430.816C1332.27 426.093 1311.26 434.179 1316.87 435.07ZM487.071 502.792C481.823 504.704 475.594 505.118 471.435 503.09C476.545 503.041 481.767 502.879 487.071 502.792Z" fill="black"/>
</svg>
